<?xml version="1.0" encoding="UTF-8"?>
<svg version="1.1" xmlns="http://www.w3.org/2000/svg" width="1280" height="720">
<path d="M0 0 C422.4 0 844.8 0 1280 0 C1280 237.6 1280 475.2 1280 720 C857.6 720 435.2 720 0 720 C0 482.4 0 244.8 0 0 Z " fill="#FEFEFE" transform="translate(0,0)"/>
<path d="M0 0 C1.99863077 1.00273379 3.99818072 2.00364686 6 3 C6 3.66 6 4.32 6 5 C6.71542969 5.24492187 7.43085938 5.48984375 8.16796875 5.7421875 C13.48896109 8.10544203 17.63983325 12.20560947 22 16 C22.71800781 16.62003906 23.43601562 17.24007813 24.17578125 17.87890625 C31.75290338 24.90938229 37.86030648 34.57142359 42 44 C42 45.32 42 46.64 42 48 C42.66 48 43.32 48 44 48 C44.81977607 50.8314037 45.63094274 53.66482902 46.4375 56.5 C46.78264648 57.68722656 46.78264648 57.68722656 47.13476562 58.8984375 C53.14606426 80.1557834 50.50623625 101.84330817 42 122 C41.66097656 122.92554688 41.32195312 123.85109375 40.97265625 124.8046875 C40 127 40 127 38 128 C37.3119086 129.22724526 36.67502465 130.48334525 36.0625 131.75 C27.89269391 146.77575447 13.47252162 159.91384514 -2 167 C-5.3515625 167.68359375 -5.3515625 167.68359375 -8 168 C-8 168.66 -8 169.32 -8 170 C-9.72681437 170.50806447 -11.45657979 171.00610467 -13.1875 171.5 C-14.63189453 171.91765625 -14.63189453 171.91765625 -16.10546875 172.34375 C-18.85345876 172.96677608 -21.19598416 173.12302812 -24 173 C-24 173.66 -24 174.32 -24 175 C-30.70835672 176.00907893 -37.28431494 176.18332367 -44.0625 176.1875 C-45.11244141 176.19974609 -46.16238281 176.21199219 -47.24414062 176.22460938 C-52.89671667 176.23528132 -57.60246282 175.85356778 -63 174 C-66.82399122 173.02626203 -70.64881587 172.05653395 -74.4765625 171.09765625 C-77.75401991 170.07663016 -80.14036364 168.85328349 -83 167 C-84.0725 166.566875 -85.145 166.13375 -86.25 165.6875 C-103.67657839 158.28307399 -119.08082623 140.80242088 -127 124 C-127.69140625 120.640625 -127.69140625 120.640625 -128 118 C-128.66 118 -129.32 118 -130 118 C-130.8233134 115.5239837 -131.63367191 113.04484514 -132.4375 110.5625 C-132.78264648 109.53092773 -132.78264648 109.53092773 -133.13476562 108.47851562 C-138.48172422 91.8177026 -139.06026241 66.91168975 -131.1171875 51.03515625 C-130.76591797 50.36645508 -130.41464844 49.69775391 -130.05273438 49.00878906 C-129.04560287 47.08701772 -128.11951288 45.14571028 -127.2109375 43.17578125 C-121.6689786 31.40702062 -115.23791693 21.25414712 -105 13 C-104.51660156 12.49210937 -104.03320312 11.98421875 -103.53515625 11.4609375 C-101.09990659 9.14342256 -98.26243342 7.42395319 -95.4375 5.625 C-94.81198242 5.22579346 -94.18646484 4.82658691 -93.54199219 4.4152832 C-88.51787721 1.24978175 -83.42257574 -1.56794776 -78 -4 C-77.20335937 -4.36867188 -76.40671875 -4.73734375 -75.5859375 -5.1171875 C-51.98309819 -15.38254936 -22.25782695 -11.70064977 0 0 Z " fill="#08978A" transform="translate(264,286)"/>
<path d="M0 0 C17.00407875 -0.61563805 32.52670447 1.05199181 49.04785156 5.11474609 C49.04785156 5.77474609 49.04785156 6.43474609 49.04785156 7.11474609 C49.87285156 7.17662109 50.69785156 7.23849609 51.54785156 7.30224609 C56.11250609 8.36189804 59.23320993 10.46887624 63.04785156 13.11474609 C63.73363281 13.55947266 64.41941406 14.00419922 65.12597656 14.46240234 C71.42655319 18.77901878 76.07514986 24.15446059 77.92285156 31.67724609 C77.96410156 32.48162109 78.00535156 33.28599609 78.04785156 34.11474609 C78.70785156 34.11474609 79.36785156 34.11474609 80.04785156 34.11474609 C83.10677497 45.47646162 83.28358023 57.78969575 80.04785156 69.11474609 C79.38785156 69.11474609 78.72785156 69.11474609 78.04785156 69.11474609 C78.04785156 70.04287109 78.04785156 70.97099609 78.04785156 71.92724609 C76.995639 78.93725683 71.81239436 84.9179219 66.42285156 89.20068359 C63.68959689 90.97885212 60.91969815 92.57178492 58.04785156 94.11474609 C57.24476562 94.58654297 56.44167969 95.05833984 55.61425781 95.54443359 C44.21541546 101.87088469 30.48173542 103.30452733 17.61035156 103.21240234 C16.93037109 103.21139526 16.25039063 103.21038818 15.54980469 103.20935059 C13.04913609 103.20418276 10.54849183 103.19022241 8.04785156 103.17724609 C2.43785156 103.15662109 -3.17214844 103.13599609 -8.95214844 103.11474609 C-8.95214844 122.91474609 -8.95214844 142.71474609 -8.95214844 163.11474609 C-16.21214844 163.11474609 -23.47214844 163.11474609 -30.95214844 163.11474609 C-30.95214844 110.64474609 -30.95214844 58.17474609 -30.95214844 4.11474609 C-20.04693579 1.38844293 -10.96302304 0.42611816 0 0 Z " fill="#069688" transform="translate(1002.9521484375,285.88525390625)"/>
<path d="M0 0 C6.93 0 13.86 0 21 0 C25.54865243 9.52374102 30.07705773 19.04777112 34.375 28.6875 C34.69597656 29.40405762 35.01695312 30.12061523 35.34765625 30.85888672 C36.85243608 34.25654625 38.26830175 37.66034109 39.55078125 41.1484375 C40.78870777 44.5128156 42.24121395 47.71268429 43.8125 50.9375 C46.53749114 56.74408606 48.68322232 62.62841544 50.74707031 68.6965332 C52.28170537 73.14387357 54.02214608 77.37730667 56.0625 81.625 C58.25811722 86.19920255 60.022612 90.79637291 61.5625 95.625 C63.31914041 101.12085569 65.40057575 106.23738274 67.875 111.44140625 C69.34850375 114.79260401 70.33474138 118.20440927 71.3125 121.7265625 C72.02972352 124.27253042 72.02972352 124.27253042 73.625 127.625 C75.22206562 131.54507015 75.63158108 134.80002436 76 139 C76.66 139 77.32 139 78 139 C78.27263672 139.8353125 78.27263672 139.8353125 78.55078125 140.6875 C79.83538324 144.58741987 81.15983514 148.43811245 82.6875 152.25 C84 156 84 156 84 161 C76.41 161 68.82 161 61 161 C56.507109 150.89099526 56.507109 150.89099526 55.1484375 146.6328125 C54.85453125 145.72789062 54.560625 144.82296875 54.2578125 143.890625 C53.96648437 142.97796875 53.67515625 142.0653125 53.375 141.125 C52.78288184 139.27207851 52.1867003 137.42044926 51.5859375 135.5703125 C51.3286084 134.76352051 51.0712793 133.95672852 50.80615234 133.12548828 C49.99705523 130.75337102 49.99705523 130.75337102 48 128 C47.01 124.535 47.01 124.535 46 121 C9.37 120.505 9.37 120.505 -28 120 C-28.66 123.3 -29.32 126.6 -30 130 C-30.68557659 131.94868761 -31.37253538 133.89815572 -32.13916016 135.81640625 C-33.18063033 138.45818426 -34.11205011 141.12979705 -35.04296875 143.8125 C-35.36031982 144.72644531 -35.6776709 145.64039063 -36.00463867 146.58203125 C-36.39498291 147.70996094 -36.78532715 148.83789062 -37.1875 150 C-39.0746875 155.445 -39.0746875 155.445 -41 161 C-48.92 161 -56.84 161 -65 161 C-64.01 158.03 -63.02 155.06 -62 152 C-61.49794717 150.46551388 -60.9973839 148.9305371 -60.5 147.39453125 C-60 145.8671875 -59.5 144.33984375 -59 142.8125 C-58.7525 142.04486328 -58.505 141.27722656 -58.25 140.48632812 C-56.80824409 136.1047418 -55.09532426 132.11971307 -53 128 C-51.96286086 125.34110128 -50.96465232 122.6847061 -50 120 C-49.54391357 118.74364746 -49.54391357 118.74364746 -49.07861328 117.46191406 C-47.73055594 113.74586552 -46.38751498 110.02802815 -45.04882812 106.30859375 C-43.1077685 100.94543478 -41.07730613 95.63203511 -38.93969727 90.34423828 C-37.54916896 86.87532356 -36.23966006 83.37784567 -34.9375 79.875 C-34.44661458 78.55989583 -33.95572917 77.24479167 -33.46484375 75.9296875 C-33.22749512 75.29256836 -32.99014648 74.65544922 -32.74560547 73.99902344 C-31.50178428 70.66424679 -30.2505277 67.3322667 -29 64 C-28.34 64 -27.68 64 -27 64 C-26.93683594 63.44054687 -26.87367188 62.88109375 -26.80859375 62.3046875 C-25.8411834 55.97069552 -23.64422016 50.90698347 -20.671875 45.24780273 C-18.8211411 41.70424246 -17.24262646 38.21520781 -15.9375 34.4375 C-11.8089242 22.48727638 -5.6824952 11.26701635 0 0 Z " fill="#079788" transform="translate(865,288)"/>
<path d="M0 0 C8.55412 7.66626723 13.38644307 15.28248024 14.95703125 26.75390625 C15.09084871 29.64389024 15.08368868 32.52875066 15.07055664 35.42138672 C15.07070267 36.27082352 15.07084869 37.12026031 15.07099915 37.99543762 C15.07030562 40.78734948 15.06253951 43.57919362 15.0546875 46.37109375 C15.05282133 48.31307946 15.05139837 50.25506565 15.05039978 52.197052 C15.04659027 57.29664419 15.03677339 62.39620769 15.0256958 67.49578857 C15.01544798 72.70421969 15.01089494 77.91265545 15.00585938 83.12109375 C14.99514968 93.33204382 14.97809211 103.54297265 14.95703125 113.75390625 C12.25477115 114.24257537 9.55201019 114.72811868 6.84887695 115.21191406 C6.09058846 115.34937042 5.33229996 115.48682678 4.55103302 115.62844849 C-15.08462776 119.1303835 -45.27103076 122.77184586 -63.34765625 112.03125 C-70.92169956 106.32453994 -76.62373217 99.34386464 -78.65625 89.90625 C-80.0900778 78.21838096 -79.89688579 67.92491238 -73.04296875 58.12890625 C-68.0355747 52.09462589 -61.30951622 46.84591949 -53.35546875 45.81640625 C-52.26234375 45.79578125 -51.16921875 45.77515625 -50.04296875 45.75390625 C-50.04296875 45.09390625 -50.04296875 44.43390625 -50.04296875 43.75390625 C-43.44191825 42.51233906 -36.99026475 42.56988717 -30.29296875 42.56640625 C-28.45605469 42.54803711 -28.45605469 42.54803711 -26.58203125 42.52929688 C-19.48645311 42.51790141 -12.92780937 42.99482349 -6.04296875 44.75390625 C-6.51511021 30.19589153 -6.51511021 30.19589153 -13.04296875 17.75390625 C-20.27525834 12.44592228 -26.69644868 11.55909499 -35.41796875 11.56640625 C-36.75021484 11.5665271 -36.75021484 11.5665271 -38.109375 11.56665039 C-46.90042638 11.64197055 -55.52068811 12.47993233 -64.04296875 14.75390625 C-64.38257065 12.88003148 -64.71435566 11.00473928 -65.04296875 9.12890625 C-65.32140625 7.56269531 -65.32140625 7.56269531 -65.60546875 5.96484375 C-66.03012672 2.8481576 -66.11842081 -0.10540187 -66.04296875 -3.24609375 C-46.71594951 -9.92593911 -17.52112995 -13.36698059 0 0 Z " fill="#079788" transform="translate(570.04296875,333.24609375)"/>
<path d="M0 0 C32.01 0 64.02 0 97 0 C97 6.6 97 13.2 97 20 C72.58 20 48.16 20 23 20 C23 35.51 23 51.02 23 67 C44.78 67 66.56 67 89 67 C89 73.6 89 80.2 89 87 C67.22 87 45.44 87 23 87 C23 111.42 23 135.84 23 161 C15.41 161 7.82 161 0 161 C0 107.87 0 54.74 0 0 Z " fill="#0D988A" transform="translate(388,288)"/>
<path d="M0 0 C0.49397281 13.14516543 0.49397281 13.14516543 -2 19 C-5 20 -5 20 -8 19 C-8 18.34 -8 17.68 -8 17 C-8.8353125 16.90912109 -8.8353125 16.90912109 -9.6875 16.81640625 C-10.450625 16.73261719 -11.21375 16.64882813 -12 16.5625 C-12.83015625 16.47226562 -13.6603125 16.38203125 -14.515625 16.2890625 C-16.59899171 16.0466582 -18.67578369 15.74863245 -20.75 15.4375 C-30.36943344 14.2686047 -41.31265379 13.55185569 -49.7265625 19.1484375 C-52.90797683 22.22321225 -53.37593231 25.3619002 -53.5625 29.5625 C-53.3648753 34.25449276 -52.44826629 36.65949203 -49 40 C-49 40.66 -49 41.32 -49 42 C-47.90751953 42.42732422 -47.90751953 42.42732422 -46.79296875 42.86328125 C-44.25382942 43.8966932 -41.79108898 45.01805303 -39.3125 46.1875 C-35.03435867 48.15845942 -30.71054425 49.89128227 -26.30444336 51.54663086 C-14.43710419 56.01325496 -1.24264716 61.18356073 5 73 C8.12023801 82.91030142 8.71090096 94.5430421 4 104 C1.10978739 108.73396894 -1.80588361 112.69150383 -7 115 C-7.66 115 -8.32 115 -9 115 C-9 115.66 -9 116.32 -9 117 C-10.99716175 117.65455759 -12.99790387 118.2981943 -15 118.9375 C-16.11375 119.29714844 -17.2275 119.65679687 -18.375 120.02734375 C-36.69443097 124.94279452 -59.23287923 123.28682735 -77 117 C-76.50873071 110.63440427 -76.00344253 104.30735307 -75 98 C-71.7 98.33 -68.4 98.66 -65 99 C-65 99.66 -65 100.32 -65 101 C-62.36 101.33 -59.72 101.66 -57 102 C-57 102.66 -57 103.32 -57 104 C-53.05220037 103.98036495 -49.10621635 103.92801254 -45.15917969 103.84741211 C-43.16883601 103.81325235 -41.17811696 103.80380856 -39.1875 103.79492188 C-31.1938607 103.61324825 -24.59024493 102.83533798 -18 98 C-15.87857291 94.81785936 -15.70443042 93.86140041 -15.6875 90.1875 C-15.67074219 89.35605469 -15.65398438 88.52460938 -15.63671875 87.66796875 C-16.11362794 84.16550666 -17.07420631 81.97586638 -19 79 C-21.25451025 77.39004478 -23.25755044 76.12904355 -25.6875 74.875 C-26.31817383 74.5337207 -26.94884766 74.19244141 -27.59863281 73.84082031 C-29.39024001 72.87724362 -31.19478129 71.93782823 -33 71 C-33.77472656 70.58492188 -34.54945313 70.16984375 -35.34765625 69.7421875 C-41.1308697 66.72589137 -47.24134576 64.44904347 -53.3203125 62.10546875 C-62.97272932 58.15369531 -69.10079344 52.96568382 -73.90625 43.6484375 C-77.22828954 35.60435604 -77.36622793 25.68935659 -74.3125 17.5625 C-70.49319901 9.32505292 -64.28193318 3.01186089 -55.76953125 -0.23046875 C-37.31503668 -6.00662129 -18.61173184 -4.65293296 0 0 Z " fill="#069688" transform="translate(689,329)"/>
<path d="M0 0 C0 12.21 0 24.42 0 37 C15.18 37 30.36 37 46 37 C46 42.94 46 48.88 46 55 C30.82 55 15.64 55 0 55 C0.09099456 66.68865839 0.09099456 66.68865839 0.20898438 78.37695312 C0.26314425 83.14979025 0.31425994 87.92251407 0.34643555 92.69555664 C0.37260018 96.54721582 0.41309338 100.39849071 0.46318626 104.24991035 C0.47976662 105.71332553 0.49133555 107.17680703 0.49761391 108.64030266 C0.53299788 119.14305031 0.53299788 119.14305031 3.36174011 129.18678284 C4 131 4 131 4 135 C4.804375 135.4021875 4.804375 135.4021875 5.625 135.8125 C8 137 8 137 10.6015625 138.55078125 C14.82754117 140.35289399 18.21191902 140.45540844 22.75 140.375 C23.94326904 140.36521118 23.94326904 140.36521118 25.16064453 140.35522461 C31.18756589 140.21816531 36.37161431 139.18128201 42 137 C43.32860925 136.64830932 44.66087802 136.30925911 46 136 C46.28875 137.03125 46.5775 138.0625 46.875 139.125 C47.5417167 141.4918443 48.27500965 143.74863738 49.125 146.0625 C50.05863393 149.19684246 50.06311726 151.74946126 50 155 C48.92878906 155.27714844 47.85757813 155.55429687 46.75390625 155.83984375 C45.35672373 156.20554924 43.95959085 156.57144446 42.5625 156.9375 C41.50192383 157.21110352 41.50192383 157.21110352 40.41992188 157.49023438 C36.92425139 158.18149374 36.92425139 158.18149374 34 160 C20.03882542 161.1052287 3.03404701 161.66798708 -8.625 153.0625 C-9.40875 152.381875 -10.1925 151.70125 -11 151 C-11.65484375 150.4328125 -12.3096875 149.865625 -12.984375 149.28125 C-15.4545626 146.4855338 -16.405775 143.95752056 -17.625 140.4375 C-18.02976562 139.30183594 -18.43453125 138.16617188 -18.8515625 136.99609375 C-21.61120383 128.02353077 -22.28963117 119.16751517 -22.22705078 109.82739258 C-22.22734283 108.66511139 -22.22763489 107.5028302 -22.22793579 106.30532837 C-22.22655353 102.50165073 -22.21104452 98.69817425 -22.1953125 94.89453125 C-22.19157844 92.24224008 -22.18863482 89.58995974 -22.18673706 86.93766785 C-22.1805506 80.69416509 -22.16417866 74.45073338 -22.14403808 68.20726174 C-22.12159022 61.09227903 -22.11066343 53.97729272 -22.10064721 46.86228335 C-22.07980951 32.24148579 -22.04468938 17.62074389 -22 3 C-20.53626953 2.80083984 -20.53626953 2.80083984 -19.04296875 2.59765625 C-17.13451172 2.33275391 -17.13451172 2.33275391 -15.1875 2.0625 C-13.29064453 1.80146484 -13.29064453 1.80146484 -11.35546875 1.53515625 C-1.72992701 0 -1.72992701 0 0 0 Z " fill="#069688" transform="translate(744,291)"/>
<path d="M0 0 C48.65750916 0 48.65750916 0 60 11 C65.53900332 17.26863085 67.56636867 22.52804265 67.5 30.75 C67.49572998 31.54623779 67.49145996 32.34247559 67.48706055 33.1628418 C67.25376376 41.25238744 64.79873838 46.59612899 59.6875 52.8125 C46.60654501 63.45978895 32.31367096 64.61119041 16.0625 64.25 C10.761875 64.1675 5.46125 64.085 0 64 C0 42.88 0 21.76 0 0 Z " fill="#F9FDFC" transform="translate(994,306)"/>
<path d="M0 0 C0.33 0 0.66 0 1 0 C1 18.81 1 37.62 1 57 C11.23 57 21.46 57 32 57 C30.66034612 61.01896164 29.72352118 63.77748256 27.68823242 67.2590332 C24.95526695 72.04623783 22.45568763 76.92708236 19.98828125 81.85546875 C19.53398239 82.76073807 19.07968353 83.66600739 18.61161804 84.59870911 C17.66020113 86.49651698 16.70984041 88.39485469 15.76049805 90.29370117 C14.31017569 93.1921451 12.85346694 96.08732133 11.39648438 98.98242188 C10.46835855 100.83574152 9.54061095 102.68925063 8.61328125 104.54296875 C7.96326897 105.83221504 7.96326897 105.83221504 7.30012512 107.14750671 C5.19898943 111.36577333 3.34029907 115.46321409 2 120 C1.34 120 0.68 120 0 120 C-0.27585938 120.85851562 -0.55171875 121.71703125 -0.8359375 122.6015625 C-1.97457764 125.92578037 -3.25849731 129.13854627 -4.625 132.375 C-5.07101563 133.43460938 -5.51703125 134.49421875 -5.9765625 135.5859375 C-6.31429687 136.38257813 -6.65203125 137.17921875 -7 138 C-7.66 138 -8.32 138 -9 138 C-9.66 140.64 -10.32 143.28 -11 146 C-11.66 146 -12.32 146 -13 146 C-13 127.19 -13 108.38 -13 89 C-23.56 89 -34.12 89 -45 89 C-42.74604935 82.23814805 -42.74604935 82.23814805 -41.23046875 79.1953125 C-40.89853516 78.52886719 -40.56660156 77.86242187 -40.22460938 77.17578125 C-39.88236328 76.49902344 -39.54011719 75.82226562 -39.1875 75.125 C-38.85685547 74.45597656 -38.52621094 73.78695312 -38.18554688 73.09765625 C-36.4694918 69.67872118 -34.65737863 66.40717437 -32.578125 63.1953125 C-29.44169522 58.27016112 -27.03074841 53.03291003 -24.5625 47.75 C-23.5997467 45.71186699 -22.63621181 43.674103 -21.671875 41.63671875 C-21.21361328 40.66653809 -20.75535156 39.69635742 -20.28320312 38.69677734 C-17.93349156 33.75862781 -15.48328869 28.87227527 -13 24 C-12.34 24 -11.68 24 -11 24 C-10.9175 23.29875 -10.835 22.5975 -10.75 21.875 C-9.82601746 18.33306692 -8.02785395 16.04178093 -6 13 C-5.16472012 10.98899442 -4.44417472 8.95650288 -3.72265625 6.90234375 C-2.77001765 4.39458699 -1.51724402 2.20690039 0 0 Z " fill="#F9FDFD" transform="translate(229,296)"/>
<path d="M0 0 C7.26 0 14.52 0 22 0 C22 53.13 22 106.26 22 161 C15.07 161 8.14 161 1 161 C0 160 0 160 -0.12304783 157.37817287 C-0.12212604 156.19919965 -0.12120424 155.02022642 -0.12025452 153.80552673 C-0.12110894 153.15130393 -0.12196337 152.49708113 -0.12284368 151.82303339 C-0.12450028 149.61498657 -0.11897421 147.40701452 -0.11352539 145.19897461 C-0.11324353 143.62249249 -0.11340123 142.04601024 -0.1139679 140.4695282 C-0.11425592 136.17632451 -0.1083584 131.88314851 -0.10139394 127.58995128 C-0.09516121 123.10827317 -0.09455667 118.62659449 -0.09336853 114.14491272 C-0.09025497 105.65219091 -0.08204126 97.15948191 -0.07201904 88.66676575 C-0.06085866 79.00066461 -0.05534764 69.33456288 -0.05032361 59.66845691 C-0.03985866 39.77896392 -0.02205835 19.88948322 0 0 Z " fill="#019689" transform="translate(1113,288)"/>
<path d="M0 0 C3 1 3 1 4.9375 4.375 C6.90050099 8.54637711 8.42016508 12.84238995 9.94921875 17.1875 C10.92931598 19.81080858 12.04056872 22.28846951 13.25 24.8125 C16.29166468 31.32900762 18.64710117 38.08820176 21.05761719 44.85668945 C23.23579287 50.96417657 25.56200483 56.99191935 28 63 C31 70.49959904 31 70.49959904 31 74 C11.53 74 -7.94 74 -28 74 C-24.92074364 62.70939335 -24.92074364 62.70939335 -22 57 C-20.61298941 53.15617023 -19.37608086 49.26485486 -18.125 45.375 C-15.41558775 37.08179904 -12.62424069 28.94545074 -9 21 C-8.34 21 -7.68 21 -7 21 C-6.90203125 20.3709375 -6.8040625 19.741875 -6.703125 19.09375 C-5.77860803 13.80168736 -4.50661141 9.3987429 -1.90234375 4.69140625 C-0.85295987 2.83810106 -0.85295987 2.83810106 0 0 Z " fill="#F6FCFC" transform="translate(873,315)"/>
<path d="M0 0 C1 1 1 1 1.11352539 4.41821289 C1.11336628 5.93636988 1.10767226 7.45453229 1.09765625 8.97265625 C1.0962413 9.77029892 1.09482635 10.56794159 1.09336853 11.38975525 C1.08775316 13.94737435 1.07519812 16.50490718 1.0625 19.0625 C1.05748698 20.79231645 1.05292373 22.52213426 1.04882812 24.25195312 C1.03777875 28.50133553 1.02050386 32.75065312 1 37 C-3.52096491 39.26048245 -10.10948373 38.31159029 -15.12792969 38.35009766 C-16.69513916 38.36655045 -18.26227699 38.39369736 -19.82910156 38.43212891 C-28.98778644 38.65536942 -37.33855988 38.79970504 -45 33 C-50.15432731 26.83995029 -50.64908655 20.78903856 -50 13 C-48.37879235 7.50590739 -45.94753915 3.90468428 -41 1 C-29.81204091 -4.69693622 -11.7447424 -3.49030306 0 0 Z " fill="#F7FCFC" transform="translate(563,395)"/>
<path d="M0 0 C7.26 0 14.52 0 22 0 C22 53.13 22 106.26 22 161 C15.07 161 8.14 161 1 161 C0 160 0 160 -0.12304783 157.37817287 C-0.12212604 156.19919965 -0.12120424 155.02022642 -0.12025452 153.80552673 C-0.12110894 153.15130393 -0.12196337 152.49708113 -0.12284368 151.82303339 C-0.12450028 149.61498657 -0.11897421 147.40701452 -0.11352539 145.19897461 C-0.11324353 143.62249249 -0.11340123 142.04601024 -0.1139679 140.4695282 C-0.11425592 136.17632451 -0.1083584 131.88314851 -0.10139394 127.58995128 C-0.09516121 123.10827317 -0.09455667 118.62659449 -0.09336853 114.14491272 C-0.09025497 105.65219091 -0.08204126 97.15948191 -0.07201904 88.66676575 C-0.06085866 79.00066461 -0.05534764 69.33456288 -0.05032361 59.66845691 C-0.03985866 39.77896392 -0.02205835 19.88948322 0 0 Z M2 5 C2 55.82 2 106.64 2 159 C7.94 159 13.88 159 20 159 C20 108.18 20 57.36 20 5 C14.06 5 8.12 5 2 5 Z " fill="#1A9486" transform="translate(1113,288)"/>
<path d="M0 0 C3.97915159 -0.02886984 7.95827653 -0.04675406 11.9375 -0.0625 C13.07380859 -0.07087891 14.21011719 -0.07925781 15.38085938 -0.08789062 C16.46044922 -0.09111328 17.54003906 -0.09433594 18.65234375 -0.09765625 C20.15269165 -0.10551147 20.15269165 -0.10551147 21.68334961 -0.11352539 C24 0 24 0 25 1 C25.09685318 3.08827321 25.12186882 5.17988362 25.12025452 7.270401 C25.12110894 7.93279091 25.12196337 8.59518082 25.12284368 9.27764314 C25.12450033 11.5133287 25.11897414 13.74894042 25.11352539 15.98461914 C25.11324353 17.58080544 25.11340123 19.17699187 25.1139679 20.7731781 C25.11425592 25.12009895 25.10835835 29.46699244 25.10139394 33.81390691 C25.09516128 38.35163947 25.09455667 42.88937259 25.09336853 47.42710876 C25.09025495 56.0260784 25.08204122 64.62503539 25.07201904 73.22399944 C25.06085872 83.01101728 25.05534766 92.79803571 25.05032361 102.58505833 C25.03985862 122.72337929 25.02225868 142.86168885 25 163 C21.99136442 164.00287853 20.26841079 164.06235355 17.1484375 163.9140625 C15.74851562 163.84832031 15.74851562 163.84832031 14.3203125 163.78125 C13.34835937 163.7296875 12.37640625 163.678125 11.375 163.625 C10.3953125 163.58117187 9.415625 163.53734375 8.40625 163.4921875 C1.1293504 163.1293504 1.1293504 163.1293504 0 162 C-0.09685318 159.91172679 -0.12186882 157.82011638 -0.12025452 155.729599 C-0.12110894 155.06720909 -0.12196337 154.40481918 -0.12284368 153.72235686 C-0.12450033 151.4866713 -0.11897414 149.25105958 -0.11352539 147.01538086 C-0.11324353 145.41919456 -0.11340123 143.82300813 -0.1139679 142.2268219 C-0.11425592 137.87990105 -0.10835835 133.53300756 -0.10139394 129.18609309 C-0.09516128 124.64836053 -0.09455667 120.11062741 -0.09336853 115.57289124 C-0.09025495 106.9739216 -0.08204122 98.37496461 -0.07201904 89.77600056 C-0.06085872 79.98898272 -0.05534766 70.20196429 -0.05032361 60.41494167 C-0.03985862 40.27662071 -0.02225868 20.13831115 0 0 Z M1 1 C0.97688289 21.8441364 0.95902174 42.68826972 0.94818783 63.53241634 C0.94302447 73.21001051 0.93598103 82.88759658 0.92456055 92.56518555 C0.91461491 100.99700331 0.90814686 109.42881521 0.90591151 117.86063868 C0.90460419 122.32807392 0.90151705 126.7954924 0.89426994 131.26292229 C0.88751162 135.4628416 0.88538265 139.66273713 0.88689232 143.86266136 C0.88661591 145.40868509 0.88460967 146.95470956 0.88079453 148.50072861 C0.8758602 150.60235776 0.87700072 152.70389572 0.87974548 154.80552673 C0.87882369 155.98449996 0.8779019 157.16347319 0.87695217 158.37817287 C0.70172445 160.92611772 0.70172445 160.92611772 2 162 C8.93 162 15.86 162 23 162 C23 108.87 23 55.74 23 1 C15.74 1 8.48 1 1 1 Z " fill="#B4EAE4" transform="translate(1112,287)"/>
<path d="M0 0 C0.33 0 0.66 0 1 0 C1 52.47 1 104.94 1 159 C8.26 159 15.52 159 23 159 C23 159.33 23 159.66 23 160 C15.08 160 7.16 160 -1 160 C-1.17670471 139.43398391 -1.34281168 118.86791337 -1.49477577 98.30169868 C-1.56559971 88.75300026 -1.6402046 79.20435902 -1.72363281 69.65576172 C-1.79631768 61.33568312 -1.86198767 53.01558421 -1.91914403 44.69538391 C-1.94967064 40.28766481 -1.98377074 35.88003725 -2.02626419 31.47241592 C-2.06611407 27.32752083 -2.09661517 23.18266416 -2.11981392 19.03764343 C-2.1300194 17.51297654 -2.14369865 15.98832852 -2.16103554 14.46372604 C-2.18412223 12.38868764 -2.19492765 10.31394426 -2.20254517 8.23880005 C-2.2117631 7.0754973 -2.22098103 5.91219456 -2.23047829 4.71364021 C-2 2 -2 2 0 0 Z " fill="#CBEFED" transform="translate(971,290)"/>
<path d="M0 0 C0 12.21 0 24.42 0 37 C-0.33 37 -0.66 37 -1 37 C-1 25.78 -1 14.56 -1 3 C-10.405 3.99 -10.405 3.99 -20 5 C-20 45.92 -20 86.84 -20 129 C-20.33 129 -20.66 129 -21 129 C-22.11419025 122.74397162 -22.13449532 116.62489829 -22.11352539 110.28149414 C-22.11367142 109.11979706 -22.11381744 107.95809998 -22.1139679 106.76119995 C-22.11327333 102.93583281 -22.10550227 99.11051485 -22.09765625 95.28515625 C-22.09579045 92.62715065 -22.09431809 89.96914775 -22.09336853 87.31114197 C-22.09026735 81.03919886 -22.08207039 74.7672733 -22.07201904 68.4953379 C-22.06082013 61.35142035 -22.05533795 54.20750193 -22.05032361 47.06357777 C-22.03988671 32.37570956 -22.02231087 17.68785509 -22 3 C-20.53626953 2.80083984 -20.53626953 2.80083984 -19.04296875 2.59765625 C-17.13451172 2.33275391 -17.13451172 2.33275391 -15.1875 2.0625 C-13.29064453 1.80146484 -13.29064453 1.80146484 -11.35546875 1.53515625 C-1.72992701 0 -1.72992701 0 0 0 Z " fill="#36A196" transform="translate(744,291)"/>
<path d="M0 0 C4.46839215 -0.21278058 7.82262526 0.40861915 12 2 C11.84152588 2.4940332 11.68305176 2.98806641 11.51977539 3.49707031 C10.79279058 6.99779755 10.76349754 10.48527031 10.68359375 14.046875 C10.66281265 14.81807678 10.64203156 15.58927856 10.62062073 16.3838501 C10.55541428 18.83914572 10.49637516 21.29454521 10.4375 23.75 C10.39428726 25.41797935 10.3506721 27.08594832 10.30664062 28.75390625 C10.19976264 32.83583196 10.09841434 36.91786182 10 41 C6.28579214 43.36796918 3.0135674 43.2581445 -1.3203125 43.265625 C-2.37011795 43.26849518 -2.37011795 43.26849518 -3.44113159 43.27142334 C-4.91534791 43.27278057 -6.38957637 43.26911645 -7.86376953 43.26074219 C-10.12429442 43.25000335 -12.38403045 43.26066908 -14.64453125 43.2734375 C-16.07812676 43.27211645 -17.51172177 43.2695552 -18.9453125 43.265625 C-20.25000488 43.26336914 -21.55469727 43.26111328 -22.89892578 43.25878906 C-26 43 -26 43 -28 41 C-16.12 40.67 -4.24 40.34 8 40 C7.87625 34.10125 7.7525 28.2025 7.625 22.125 C7.59100098 20.26375488 7.55700195 18.40250977 7.52197266 16.48486328 C7.4867745 15.01332769 7.45085412 13.54180912 7.4140625 12.0703125 C7.39702271 10.91970337 7.39702271 10.91970337 7.37963867 9.74584961 C7.41585132 5.40772417 7.41585132 5.40772417 5 2 C2.42938689 1.35232207 2.42938689 1.35232207 0 1 C0 0.67 0 0.34 0 0 Z " fill="#1D9687" transform="translate(556,392)"/>
<path d="M0 0 C14.85 0 29.7 0 45 0 C45 0.33 45 0.66 45 1 C30.48 1 15.96 1 1 1 C1.10968571 8.95571433 1.22023183 16.91133518 1.33904266 24.86690521 C1.39413149 28.57213076 1.44765459 32.27736339 1.49731445 35.98266602 C1.54525875 39.55536753 1.59760953 43.1279804 1.65294075 46.70057487 C1.67322897 48.05960808 1.69196313 49.41866546 1.70907402 50.77774239 C1.73342042 52.68985818 1.76394189 54.60189226 1.79467773 56.51391602 C1.81022202 57.59979507 1.8257663 58.68567413 1.84178162 59.80445862 C1.76247583 65.83283579 1.76247583 65.83283579 4 71 C4.04063832 72.66617115 4.042721 74.33388095 4 76 C2 75 2 75 0.88720703 71.90234375 C-0.62207837 65.23674865 -0.24555648 58.35665392 -0.1953125 51.5625 C-0.19157647 50.07177928 -0.18873229 48.58105609 -0.18673706 47.09033203 C-0.17914703 43.19082712 -0.15953904 39.29147419 -0.1373291 35.39202881 C-0.11314754 30.70044596 -0.10406761 26.00881194 -0.09242249 21.31718445 C-0.07311135 14.21135101 -0.03475688 7.10585021 0 0 Z " fill="#C6EEEC" transform="translate(744,346)"/>
<path d="M0 0 C9.3740625 -0.061875 9.3740625 -0.061875 18.9375 -0.125 C20.89163818 -0.14320801 22.84577637 -0.16141602 24.85913086 -0.18017578 C26.43603238 -0.18602582 28.01293695 -0.19112016 29.58984375 -0.1953125 C30.78389832 -0.2106604 30.78389832 -0.2106604 32.0020752 -0.22631836 C37.43298473 -0.22797843 42.84856393 0.14210799 48 2 C48.495 2.99 48.495 2.99 49 4 C48.16984375 3.855625 47.3396875 3.71125 46.484375 3.5625 C37.03074938 2.13852292 27.74806219 1.80761094 18.1875 1.8125 C16.94129883 1.81185547 15.69509766 1.81121094 14.41113281 1.81054688 C8.10393483 1.72580246 8.10393483 1.72580246 2 3 C2 22.47 2 41.94 2 62 C1.34 62 0.68 62 0 62 C0 41.54 0 21.08 0 0 Z " fill="#E2FAF9" transform="translate(995,307)"/>
<path d="M0 0 C-6.77027821 5.09043474 -12.81419944 4.85662077 -21 5 C-22.38421143 5.0306958 -22.38421143 5.0306958 -23.79638672 5.06201172 C-26.8226433 5.12199158 -29.84828719 5.15936484 -32.875 5.1875 C-33.83720459 5.20071289 -34.79940918 5.21392578 -35.79077148 5.22753906 C-41.83519059 5.23380433 -47.14656013 4.52045204 -53 3 C-53 2.34 -53 1.68 -53 1 C-52.34153076 1.06928711 -51.68306152 1.13857422 -51.00463867 1.20996094 C-44.0974095 1.89320705 -37.2526124 2.22681729 -30.3125 2.25 C-29.27464355 2.25394775 -28.23678711 2.25789551 -27.16748047 2.26196289 C-19.46159816 2.20413598 -12.34430588 1.30379795 -4.8515625 -0.44140625 C-2 -1 -2 -1 0 0 Z " fill="#A7DFD9" transform="translate(677,448)"/>
<path d="M0 0 C10.56 0 21.12 0 32 0 C32 18.81 32 37.62 32 57 C32.66 57 33.32 57 34 57 C34.33 55.68 34.66 54.36 35 53 C35.495 55.475 35.495 55.475 36 58 C35.01 58.495 35.01 58.495 34 59 C33.01 58.67 32.02 58.34 31 58 C31 39.19 31 20.38 31 1 C20.77 1 10.54 1 0 1 C0 0.67 0 0.34 0 0 Z " fill="#3CA096" transform="translate(184,385)"/>
<path d="M0 0 C6.93 0 13.86 0 21 0 C21.33 2.31 21.66 4.62 22 7 C21.34 5.68 20.68 4.36 20 3 C19.175 3.309375 18.35 3.61875 17.5 3.9375 C13.60873845 5.11877583 10.03833047 5.58224168 6 6 C6 5.01 6 4.02 6 3 C5.34 3 4.68 3 4 3 C4 3.66 4 4.32 4 5 C3.01 5 2.02 5 1 5 C0.67 3.35 0.34 1.7 0 0 Z " fill="#17968B" transform="translate(865,288)"/>
<path d="M0 0 C0.66 0 1.32 0 2 0 C6.04286808 6.99260015 6.04286808 6.99260015 5.875 10.9375 C5 13 5 13 3 14 C1.12080452 14.09110781 -0.76166792 14.11752837 -2.64306641 14.11352539 C-3.82413971 14.11344986 -5.00521301 14.11337433 -6.22207642 14.11329651 C-7.50230682 14.10813522 -8.78253723 14.10297394 -10.1015625 14.09765625 C-11.40829926 14.0962413 -12.71503601 14.09482635 -14.06137085 14.09336853 C-17.53676258 14.08954894 -21.01211257 14.07972342 -24.48748779 14.06866455 C-28.03331945 14.05843843 -31.57915785 14.05386833 -35.125 14.04882812 C-42.08335049 14.03810066 -49.04167324 14.02103092 -56 14 C-56 13.34 -56 12.68 -56 12 C-36.2 12 -16.4 12 4 12 C2.68 8.37 1.36 4.74 0 1 C0 0.67 0 0.34 0 0 Z " fill="#0D8F7E" transform="translate(901,378)"/>
<path d="M0 0 C0.74056641 0.00451172 1.48113281 0.00902344 2.24414062 0.01367188 C4.05862899 0.02537825 5.87307534 0.04331102 7.6875 0.0625 C7.6875 0.3925 7.6875 0.7225 7.6875 1.0625 C6.78386719 1.12308594 5.88023437 1.18367188 4.94921875 1.24609375 C3.17998047 1.37177734 3.17998047 1.37177734 1.375 1.5 C-0.38263672 1.62181641 -0.38263672 1.62181641 -2.17578125 1.74609375 C-5.33840958 1.9492371 -5.33840958 1.9492371 -8.3125 3.0625 C-9.87368428 3.12990865 -11.4375252 3.14764456 -13 3.125 C-14.21236328 3.11146484 -14.21236328 3.11146484 -15.44921875 3.09765625 C-16.37154297 3.08025391 -16.37154297 3.08025391 -17.3125 3.0625 C-17.6425 4.3825 -17.9725 5.7025 -18.3125 7.0625 C-19.7975 7.43375 -19.7975 7.43375 -21.3125 7.8125 C-25.50806247 9.01979451 -29.69566283 10.58364331 -33.3125 13.0625 C-33.6425 14.0525 -33.9725 15.0425 -34.3125 16.0625 C-35.3025 16.0625 -36.2925 16.0625 -37.3125 16.0625 C-35.06444886 10.80551887 -31.11999266 7.96998501 -26.3125 5.0625 C-22.0544217 3.38339947 -17.75968371 2.13397172 -13.3125 1.0625 C-12.13880859 0.76666016 -12.13880859 0.76666016 -10.94140625 0.46484375 C-7.29402133 -0.09337415 -3.6786983 -0.04273733 0 0 Z " fill="#39A298" transform="translate(656.3125,324.9375)"/>
<path d="M0 0 C0.845625 0.20496094 1.69125 0.40992188 2.5625 0.62109375 C4.2640625 1.02521484 4.2640625 1.02521484 6 1.4375 C7.670625 1.83775391 7.670625 1.83775391 9.375 2.24609375 C17.72569899 3.98282317 25.9948318 4.27743667 34.5 4.5625 C35.70398438 4.60568359 36.90796875 4.64886719 38.1484375 4.69335938 C41.09886193 4.79873168 44.04936071 4.90085903 47 5 C47 5.33 47 5.66 47 6 C41.02181305 7.03500467 35.18496704 7.18338876 29.125 7.1875 C27.71154297 7.20586914 27.71154297 7.20586914 26.26953125 7.22460938 C18.39443434 7.24094775 11.36920783 5.97019956 3.9375 3.375 C3.18339844 3.11460937 2.42929687 2.85421875 1.65234375 2.5859375 C1.10707031 2.39257812 0.56179688 2.19921875 0 2 C0 1.34 0 0.68 0 0 Z " fill="#C1EDEA" transform="translate(509,446)"/>
<path d="M0 0 C0.66 0 1.32 0 2 0 C2.33 0.99 2.66 1.98 3 3 C3.66 3.33 4.32 3.66 5 4 C5 6.97 5 9.94 5 13 C12.59 12.67 20.18 12.34 28 12 C28 12.99 28 13.98 28 15 C20.41 15 12.82 15 5 15 C0.5 4.875 0.5 4.875 0 0 Z " fill="#359B8F" transform="translate(921,434)"/>
<path d="M0 0 C3.55208312 0.43494895 6.84622329 0.95164948 10.26586914 2.02685547 C14.23843638 3.06213844 17.58510367 3.2282321 21.68359375 3.1953125 C22.38396255 3.1924826 23.08433136 3.18965271 23.80592346 3.18673706 C26.0166317 3.17564885 28.22691671 3.15056703 30.4375 3.125 C31.94725972 3.11495546 33.45702588 3.1058322 34.96679688 3.09765625 C38.64466597 3.07574714 42.3222916 3.04129758 46 3 C46 2.34 46 1.68 46 1 C50.455 0.505 50.455 0.505 55 0 C54.67 0.99 54.34 1.98 54 3 C48.65091182 4.75382932 43.89623953 5.24838119 38.24609375 5.23046875 C37.18927147 5.22978142 37.18927147 5.22978142 36.11109924 5.2290802 C34.63467708 5.22608377 33.15825734 5.2182769 31.68188477 5.20581055 C29.43950021 5.18751632 27.19752972 5.18530166 24.95507812 5.18554688 C18.54001517 5.16371922 12.33721208 5.02592735 6 4 C6 3.34 6 2.68 6 2 C3.03 1.505 3.03 1.505 0 1 C0 0.67 0 0.34 0 0 Z " fill="#C4EEEC" transform="translate(194,458)"/>
<path d="M0 0 C7.75 -0.125 7.75 -0.125 10 1 C12.40838678 1.08639869 14.78733881 1.11567764 17.1953125 1.09765625 C17.90275604 1.0962413 18.61019958 1.09482635 19.33908081 1.09336853 C21.60109669 1.087766 23.86301398 1.07521318 26.125 1.0625 C27.65755065 1.05748532 29.19010286 1.05292236 30.72265625 1.04882812 C34.48180888 1.03779577 38.24088772 1.02052952 42 1 C37.66907492 3.88728339 35.66794648 4.12029542 30.4609375 4.09765625 C29.15898438 4.09443359 27.85703125 4.09121094 26.515625 4.08789062 C25.13541601 4.07953466 23.75520768 4.07106971 22.375 4.0625 C20.98698074 4.05748501 19.59895978 4.0529221 18.2109375 4.04882812 C14.80724868 4.03700976 11.40364561 4.02053434 8 4 C8 3.34 8 2.68 8 2 C5.36 1.67 2.72 1.34 0 1 C0 0.67 0 0.34 0 0 Z " fill="#C8F0F0" transform="translate(624,429)"/>
<path d="M0 0 C6.14154225 0.58490879 12.00679849 1.54066252 18 3 C18.49397281 16.14516543 18.49397281 16.14516543 16 22 C15.01 22.33 14.02 22.66 13 23 C12.01 22.34 11.02 21.68 10 21 C11.32 21 12.64 21 14 21 C14.06058594 20.43152344 14.12117187 19.86304688 14.18359375 19.27734375 C14.70176573 14.50218963 15.29243859 9.7507695 16 5 C13.03 4.67 10.06 4.34 7 4 C7 3.34 7 2.68 7 2 C4.69 2 2.38 2 0 2 C0 1.34 0 0.68 0 0 Z " fill="#399E92" transform="translate(671,326)"/>
<path d="M0 0 C0.77610498 2.99354776 1.39144973 5.95724864 2 9 C7.61 9 13.22 9 19 9 C19 9.66 19 10.32 19 11 C11.08 11 3.16 11 -5 11 C-4.34 8.69 -3.68 6.38 -3 4 C-2.34 3.67 -1.68 3.34 -1 3 C-0.67 2.01 -0.34 1.02 0 0 Z " fill="#309C91" transform="translate(805,438)"/>
<path d="M0 0 C0 0.33 0 0.66 0 1 C-1.74876006 1.31936576 -3.49911917 1.62997349 -5.25 1.9375 C-6.22453125 2.11152344 -7.1990625 2.28554688 -8.203125 2.46484375 C-18.05396277 3.85328488 -27.81276431 4.13556791 -37.75 4.0625 C-38.9359375 4.05798828 -40.121875 4.05347656 -41.34375 4.04882812 C-44.22922228 4.03719316 -47.11458213 4.0208484 -50 4 C-50 3.67 -50 3.34 -50 3 C-49.27820557 2.97494385 -48.55641113 2.9498877 -47.81274414 2.92407227 C-44.562465 2.80848698 -41.31250312 2.68559226 -38.0625 2.5625 C-36.92619141 2.52318359 -35.78988281 2.48386719 -34.61914062 2.44335938 C-32.99975586 2.38051758 -32.99975586 2.38051758 -31.34765625 2.31640625 C-30.34742432 2.27974854 -29.34719238 2.24309082 -28.31665039 2.20532227 C-26.03930812 2.25328159 -26.03930812 2.25328159 -25 1 C-16.70093946 -0.0422076 -8.35151467 -0.13542997 0 0 Z " fill="#3BA196" transform="translate(580,447)"/>
<path d="M0 0 C3.3 0.33 6.6 0.66 10 1 C10 1.66 10 2.32 10 3 C11.32 3.33 12.64 3.66 14 4 C9.71 4 5.42 4 1 4 C0.67 8.62 0.34 13.24 0 18 C1.98 18 3.96 18 6 18 C6 18.66 6 19.32 6 20 C6.66 20.33 7.32 20.66 8 21 C0.25 20.125 0.25 20.125 -2 19 C-1.50873071 12.63440427 -1.00344253 6.30735307 0 0 Z " fill="#3EA098" transform="translate(614,427)"/>
<path d="M0 0 C0 0.33 0 0.66 0 1 C-1.24873901 0.97643433 -1.24873901 0.97643433 -2.52270508 0.95239258 C-5.61447856 0.90123358 -8.70603618 0.8636352 -11.7980957 0.83520508 C-13.79327701 0.81271667 -15.78826213 0.77459802 -17.78320312 0.73632812 C-19.03681641 0.72666016 -20.29042969 0.71699219 -21.58203125 0.70703125 C-22.73936768 0.6913208 -23.8967041 0.67561035 -25.08911133 0.65942383 C-28.37714046 1.04412572 -28.90968474 1.60256772 -31 4 C-34.6875 4.6875 -34.6875 4.6875 -38 5 C-28.83652574 -5.88162569 -12.46743232 -2.51595031 0 0 Z " fill="#B3E9E6" transform="translate(676,345)"/>
<path d="M0 0 C0.94921875 2.51171875 0.94921875 2.51171875 1.6875 5.6875 C1.93886719 6.72261719 2.19023438 7.75773437 2.44921875 8.82421875 C2.99200113 11.95387884 3.09977125 14.83107515 3 18 C1.68 18.33 0.36 18.66 -1 19 C-0.67 18.34 -0.34 17.68 0 17 C0.66 17 1.32 17 2 17 C1.54857119 15.70590408 1.08858979 14.41478941 0.625 13.125 C0.36976563 12.40570313 0.11453125 11.68640625 -0.1484375 10.9453125 C-0.93877783 8.81842006 -0.93877783 8.81842006 -3 7 C-3.33 6.01 -3.66 5.02 -4 4 C-7.63 4 -11.26 4 -15 4 C-12.30468655 2.65234327 -9.72575128 1.41383239 -6.9375 0.3125 C-6.26589844 0.04050781 -5.59429688 -0.23148437 -4.90234375 -0.51171875 C-3 -1 -3 -1 0 0 Z " fill="#3CA497" transform="translate(791,428)"/>
<path d="M0 0 C-3.0466982 3.0466982 -5.29247775 2.97753361 -9.57519531 3.11352539 C-10.9928484 3.11336802 -12.41050802 3.10777532 -13.828125 3.09765625 C-14.57713074 3.0962413 -15.32613647 3.09482635 -16.09783936 3.09336853 C-18.48193412 3.08778659 -20.86593378 3.07523745 -23.25 3.0625 C-24.86979031 3.05748266 -26.48958209 3.05292016 -28.109375 3.04882812 C-32.07295312 3.03782308 -36.03646045 3.02057091 -40 3 C-40 5.31 -40 7.62 -40 10 C-40.33 10 -40.66 10 -41 10 C-41 7.36 -41 4.72 -41 2 C-36.28620997 1.71248519 -31.572263 1.42774953 -26.8581543 1.14550781 C-25.25687202 1.04925322 -23.65563397 0.95225979 -22.05444336 0.85449219 C-19.74344129 0.71351603 -17.43228946 0.57526073 -15.12109375 0.4375 C-14.0597245 0.37187866 -14.0597245 0.37187866 -12.97691345 0.30493164 C-8.63997969 0.04961958 -4.34161361 -0.03967208 0 0 Z " fill="#EDFFFF" transform="translate(1036,388)"/>
<path d="M0 0 C0.33 1.32 0.66 2.64 1 4 C0.34 4 -0.32 4 -1 4 C-1.33 6.31 -1.66 8.62 -2 11 C-2.99 11.33 -3.98 11.66 -5 12 C-4.87625 13.546875 -4.87625 13.546875 -4.75 15.125 C-5.04052381 19.62811903 -6.09558739 21.59768808 -9 25 C-9.99 25 -10.98 25 -12 25 C-10.48611133 19.97735894 -8.36904087 15.46903867 -6 10.8125 C-5.64421875 10.10158203 -5.2884375 9.39066406 -4.921875 8.65820312 C-3.39793609 5.63591383 -1.88290631 2.82435946 0 0 Z " fill="#2DA091" transform="translate(259,357)"/>
<path d="M0 0 C0.66 0 1.32 0 2 0 C0.37487159 5.28166732 -1.71023826 9.84803609 -4 15 C6.23 15 16.46 15 27 15 C27 15.33 27 15.66 27 16 C16.11 16 5.22 16 -6 16 C-5.34 12.7 -4.68 9.4 -4 6 C-3.34 6 -2.68 6 -2 6 C-1.34 4.02 -0.68 2.04 0 0 Z " fill="#148D7F" transform="translate(188,371)"/>
<path d="M0 0 C-6.30053168 3.31299861 -11.32191194 4.57204469 -18.41015625 4.390625 C-19.68952309 4.38213531 -19.68952309 4.38213531 -20.99473572 4.37347412 C-23.68459305 4.3513129 -26.37305416 4.30115859 -29.0625 4.25 C-30.90037121 4.22990866 -32.73826357 4.21166254 -34.57617188 4.1953125 C-39.05130866 4.15151514 -43.52541871 4.08263308 -48 4 C-48 3.67 -48 3.34 -48 3 C-47.03288086 2.98541748 -46.06576172 2.97083496 -45.06933594 2.95581055 C-41.42348303 2.89710148 -37.77820188 2.8198859 -34.1328125 2.73754883 C-32.56585078 2.70463621 -30.99878007 2.67650384 -29.43164062 2.65356445 C-20.66702763 2.5218711 -12.65826078 2.11595538 -4.19628906 -0.46557617 C-2 -1 -2 -1 0 0 Z " fill="#279689" transform="translate(1042,367)"/>
<path d="M0 0 C0.66 0.66 1.32 1.32 2 2 C0.98421875 2.03738281 -0.0315625 2.07476562 -1.078125 2.11328125 C-9.73411359 2.50155573 -17.6436781 3.55165091 -26 6 C-27.33174114 6.33963868 -28.66449318 6.67548432 -30 7 C-30 6.01 -30 5.02 -30 4 C-9.97356121 -1.37236202 -9.97356121 -1.37236202 0 0 Z " fill="#DDFAF6" transform="translate(662,323)"/>
<path d="M0 0 C0.99 0 1.98 0 3 0 C3 0.66 3 1.32 3 2 C6.3 2 9.6 2 13 2 C13 2.33 13 2.66 13 3 C7.47057185 3.78641965 2.14273002 4.13742082 -3.4375 4.09765625 C-4.20304199 4.0962413 -4.96858398 4.09482635 -5.75732422 4.09336853 C-8.17159142 4.08782853 -10.58576144 4.07528779 -13 4.0625 C-14.64973823 4.05747723 -16.29947794 4.05291569 -17.94921875 4.04882812 C-21.96618255 4.03787886 -25.98307487 4.02065666 -30 4 C-30 3.67 -30 3.34 -30 3 C-20.43 2.67 -10.86 2.34 -1 2 C-0.67 1.34 -0.34 0.68 0 0 Z " fill="#429D93" transform="translate(1024,385)"/>
<path d="M0 0 C-6.89146187 4.22164613 -12.3945055 4.555942 -20.375 4.375 C-21.98375 4.37306641 -21.98375 4.37306641 -23.625 4.37109375 C-30.2955354 4.29805869 -36.51815565 3.57735165 -43 2 C-39.01529113 0.83873583 -36.12063246 1.38892425 -32 2 C-28.54130222 2.19537466 -25.08863367 2.23020781 -21.625 2.25 C-20.73039063 2.270625 -19.83578125 2.29125 -18.9140625 2.3125 C-13.36744099 2.3447478 -8.94913779 1.6225332 -3.79052734 -0.45019531 C-2 -1 -2 -1 0 0 Z " fill="#ADE2DF" transform="translate(789,448)"/>
<path d="M0 0 C0.99 0.495 0.99 0.495 2 1 C3.35201312 5.05603936 3.18417967 8.81579445 3.1875 13.0625 C3.19974609 13.89072266 3.21199219 14.71894531 3.22460938 15.57226562 C3.22654297 16.36439453 3.22847656 17.15652344 3.23046875 17.97265625 C3.23457764 18.69718994 3.23868652 19.42172363 3.24291992 20.16821289 C3 22 3 22 1 24 C0.3533402 15.98603754 -0.16677223 8.04212755 0 0 Z " fill="#BDEDEC" transform="translate(1058,324)"/>
<path d="M0 0 C0.33 0.66 0.66 1.32 1 2 C1.66 2 2.32 2 3 2 C3.84480235 4.85120792 4.67601416 7.70527344 5.5 10.5625 C5.73847656 11.36236328 5.97695313 12.16222656 6.22265625 12.98632812 C7.60740344 17.83294329 8.27056929 21.960647 8 27 C7.67 27 7.34 27 7 27 C6.73445313 25.86820312 6.46890625 24.73640625 6.1953125 23.5703125 C5.8389156 22.08845168 5.48212424 20.6066857 5.125 19.125 C4.95097656 18.37863281 4.77695312 17.63226563 4.59765625 16.86328125 C3.61076121 12.51116329 3.61076121 12.51116329 1 9 C0.5859375 6.8359375 0.5859375 6.8359375 0.375 4.375 C0.30023438 3.55773437 0.22546875 2.74046875 0.1484375 1.8984375 C0.09945313 1.27195312 0.05046875 0.64546875 0 0 Z " fill="#379F95" transform="translate(305,332)"/>
<path d="M0 0 C0.33 0 0.66 0 1 0 C1 6.93 1 13.86 1 21 C0.67 21 0.34 21 0 21 C0 16.05 0 11.1 0 6 C-0.66 6 -1.32 6 -2 6 C-1.67 6.99 -1.34 7.98 -1 9 C-1.99609375 10.82421875 -1.99609375 10.82421875 -3.4375 12.6875 C-3.91058594 13.31011719 -4.38367188 13.93273437 -4.87109375 14.57421875 C-5.24363281 15.04472656 -5.61617187 15.51523437 -6 16 C-6 10.23600323 -3.2286707 4.69624829 0 0 Z " fill="#D4F8F8" transform="translate(229,296)"/>
<path d="M0 0 C7.26 0 14.52 0 22 0 C21.67 0.99 21.34 1.98 21 3 C18.24973583 3.05404449 15.50053797 3.09369306 12.75 3.125 C11.97269531 3.14175781 11.19539063 3.15851563 10.39453125 3.17578125 C3.27568856 3.23662606 3.27568856 3.23662606 0 1 C0 0.67 0 0.34 0 0 Z " fill="#D8F7F4" transform="translate(388,449)"/>
<path d="M0 0 C1.2256844 4.10573251 0.56421337 7.44869111 -0.3125 11.5625 C-0.44333984 12.23474609 -0.57417969 12.90699219 -0.70898438 13.59960938 C-1.39742403 16.94868539 -2.07918734 19.11878102 -4 22 C-4.66 22 -5.32 22 -6 22 C-6.33 22.99 -6.66 23.98 -7 25 C-6.38574623 19.2073537 -4.84466956 14.05390934 -2.9375 8.5625 C-2.65583984 7.73556641 -2.37417969 6.90863281 -2.08398438 6.05664062 C-1.39482208 4.03587662 -0.6981769 2.01766718 0 0 Z " fill="#B7E8E6" transform="translate(833,419)"/>
<path d="M0 0 C0.66 0.99 1.32 1.98 2 3 C1.34 3 0.68 3 0 3 C0.185625 3.598125 0.37125 4.19625 0.5625 4.8125 C1 7 1 7 0 10 C-2.0625 10.6875 -2.0625 10.6875 -4 11 C-4.103125 11.928125 -4.20625 12.85625 -4.3125 13.8125 C-5.0070192 17.03254358 -5.47740939 18.02579865 -8 20 C-8.33 19.34 -8.66 18.68 -9 18 C-8.28735352 16.12060547 -8.28735352 16.12060547 -7.12890625 13.8671875 C-6.71962891 13.06152344 -6.31035156 12.25585938 -5.88867188 11.42578125 C-5.2322168 10.16314453 -5.2322168 10.16314453 -4.5625 8.875 C-4.12873047 8.02550781 -3.69496094 7.17601562 -3.24804688 6.30078125 C-2.17240532 4.19677908 -1.08949234 2.0968542 0 0 Z " fill="#35A297" transform="translate(244,386)"/>
<path d="M0 0 C2 3 2 3 4 8 C11.59 8.33 19.18 8.66 27 9 C27.33 7.68 27.66 6.36 28 5 C28 6.65 28 8.3 28 10 C23.89589245 10.05796132 19.79188984 10.09358313 15.6875 10.125 C14.52025391 10.14175781 13.35300781 10.15851563 12.15039062 10.17578125 C10.47299805 10.18544922 10.47299805 10.18544922 8.76171875 10.1953125 C7.2142395 10.21102295 7.2142395 10.21102295 5.63549805 10.22705078 C3 10 3 10 0 8 C-0.40843923 5.28796348 -0.13336867 2.7562858 0 0 Z " fill="#C3EDE8" transform="translate(922,440)"/>
<path d="M0 0 C24.83774238 -0.36585873 24.83774238 -0.36585873 33 4 C28.93116549 5.58938848 25.12121485 4.45743534 21 3.625 C14.01078062 2.29296883 7.11263155 1.39743028 0 1 C0 0.67 0 0.34 0 0 Z " fill="#27978B" transform="translate(652,342)"/>
<path d="M0 0 C0.33 0.66 0.66 1.32 1 2 C2.92469088 2.39368517 2.92469088 2.39368517 5.1875 2.5 C9.0457682 2.83898522 12.36392224 3.60150855 16 5 C12.06903772 6.47780537 8.94746991 5.52900563 4.9375 4.625 C-1.36190376 3.25777722 -7.55584634 2.38852486 -14 2 C-14 1.67 -14 1.34 -14 1 C-9.38 0.67 -4.76 0.34 0 0 Z " fill="#C5F0ED" transform="translate(1030,284)"/>
<path d="M0 0 C0 0.66 0 1.32 0 2 C0.66 1.67 1.32 1.34 2 1 C3.6674606 0.91573906 5.33825187 0.89274857 7.0078125 0.90234375 C7.99394531 0.90556641 8.98007812 0.90878906 9.99609375 0.91210938 C11.02863281 0.92048828 12.06117188 0.92886719 13.125 0.9375 C14.68541016 0.94426758 14.68541016 0.94426758 16.27734375 0.95117188 C18.85161962 0.96298048 21.42578146 0.97944925 24 1 C24 1.33 24 1.66 24 2 C13.64305688 2.76214036 3.3864793 3.13430792 -7 3 C-4.49955934 -0.00052879 -4.2621484 0 0 0 Z " fill="#E7FDFC" transform="translate(992,284)"/>
<path d="M0 0 C0.33 1.32 0.66 2.64 1 4 C0.01 4.33 -0.98 4.66 -2 5 C-2.309375 5.61875 -2.61875 6.2375 -2.9375 6.875 C-4.25637121 9.51274243 -5.41091148 10.5944948 -8 12 C-10.75 11.6875 -10.75 11.6875 -13 11 C-11.66666667 10 -10.33333333 9 -9 8 C-7.948125 7.1646875 -7.948125 7.1646875 -6.875 6.3125 C-5 5 -5 5 -3 5 C-2.690625 4.360625 -2.38125 3.72125 -2.0625 3.0625 C-1 1 -1 1 0 0 Z " fill="#329C92" transform="translate(1056,355)"/>
<path d="M0 0 C3.63 0.33 7.26 0.66 11 1 C11 1.66 11 2.32 11 3 C17.93 3 24.86 3 32 3 C32 3.33 32 3.66 32 4 C28.35423608 4.05878077 24.70859648 4.0938558 21.0625 4.125 C20.04091797 4.14175781 19.01933594 4.15851563 17.96679688 4.17578125 C11.64311648 4.21618815 6.11683473 3.62010013 0 2 C0 1.34 0 0.68 0 0 Z " fill="#CBF1F0" transform="translate(624,449)"/>
<path d="M0 0 C0.99 0.495 0.99 0.495 2 1 C4.01701292 7.86033408 4.27714317 14.90205554 4 22 C2.68 21.67 1.36 21.34 0 21 C0.33 20.67 0.66 20.34 1 20 C1.01662231 18.5086609 0.963192 17.01639195 0.87890625 15.52734375 C0.83056641 14.62822266 0.78222656 13.72910156 0.73242188 12.80273438 C0.67634766 11.85720703 0.62027344 10.91167969 0.5625 9.9375 C0.51029297 8.98810547 0.45808594 8.03871094 0.40429688 7.06054688 C0.27418642 4.70673048 0.13920888 2.35329301 0 0 Z " fill="#BEEDEB" transform="translate(560,356)"/>
<path d="M0 0 C0.33 0 0.66 0 1 0 C2.05556451 5.7626003 1.94831638 11.1059076 1.5625 16.9375 C1.51029297 17.81212891 1.45808594 18.68675781 1.40429688 19.58789062 C1.2757979 21.72564632 1.13877359 23.86288669 1 26 C0.67 26 0.34 26 0 26 C-0.89017921 21.42900043 -1.1343926 17.09153562 -1.125 12.4375 C-1.12757813 11.15746094 -1.13015625 9.87742187 -1.1328125 8.55859375 C-1.02078522 5.55692156 -0.70355355 2.90913811 0 0 Z " fill="#3CA192" transform="translate(492,400)"/>
<path d="M0 0 C0.66 1.32 1.32 2.64 2 4 C15.86 4.495 15.86 4.495 30 5 C30 5.33 30 5.66 30 6 C19.44 6 8.88 6 -2 6 C-1.34 4.02 -0.68 2.04 0 0 Z " fill="#CBF7F7" transform="translate(186,379)"/>
<path d="M0 0 C3.28217533 1.64108767 3.9066035 5.17347434 5.1875 8.4375 C5.47302734 9.13166016 5.75855469 9.82582031 6.05273438 10.54101562 C6.76695073 12.33611416 7.39030809 14.16676255 8 16 C7.67 16.66 7.34 17.32 7 18 C5.125 17.0625 5.125 17.0625 3 15 C2.04648439 12.04514944 1.48803282 9.0630481 1 6 C0.67 6 0.34 6 0 6 C0 4.02 0 2.04 0 0 Z " fill="#369F95" transform="translate(896,312)"/>
<path d="M0 0 C0.99 0.6496875 0.99 0.6496875 2 1.3125 C4.93637291 2.96420976 7.77244369 4.10383433 10.9296875 5.23828125 C14.00823358 6.37095386 16.99520029 7.68540013 20 9 C16.70303895 10.09898702 15.59505097 9.87124444 12.3125 9.0625 C11.50425781 8.86785156 10.69601563 8.67320312 9.86328125 8.47265625 C9.24839844 8.31667969 8.63351563 8.16070312 8 8 C8 7.01 8 6.02 8 5 C5.69 4.67 3.38 4.34 1 4 C0.67 2.68 0.34 1.36 0 0 Z " fill="#C2ECE6" transform="translate(172,448)"/>
<path d="M0 0 C0.33 0 0.66 0 1 0 C1.40652968 5.42039575 0.03993514 9.07015675 -2 14 C-2.66 14 -3.32 14 -4 14 C-4.66 15.32 -5.32 16.64 -6 18 C-6.33 17.34 -6.66 16.68 -7 16 C-6.07421875 13.3203125 -6.07421875 13.3203125 -4.6875 10.125 C-4.23761719 9.07570313 -3.78773438 8.02640625 -3.32421875 6.9453125 C-2.26835603 4.59687447 -1.17764787 2.28894938 0 0 Z " fill="#2A998E" transform="translate(229,416)"/>
<path d="M0 0 C9.9 0 19.8 0 30 0 C29.34 1.98 28.68 3.96 28 6 C26 3 26 3 26 1 C17.42 1 8.84 1 0 1 C0 0.67 0 0.34 0 0 Z " fill="#D3FAF9" transform="translate(231,353)"/>
<path d="M0 0 C9.57 0 19.14 0 29 0 C29.33 1.65 29.66 3.3 30 5 C28.5625 6.8125 28.5625 6.8125 27 8 C27.33 5.69 27.66 3.38 28 1 C18.76 1 9.52 1 0 1 C0 0.67 0 0.34 0 0 Z " fill="#179187" transform="translate(233,351)"/>
<path d="M0 0 C4.13071751 3.54223173 4.39371491 7.79431078 5 13 C5.14597404 17.00722284 5.12394148 20.99255885 5 25 C4.67 25 4.34 25 4 25 C3.22959149 18.93303301 2.90293888 13.11485027 3 7 C2.34 7 1.68 7 1 7 C1 6.34 1 5.68 1 5 C0.34 5 -0.32 5 -1 5 C-0.67 3.35 -0.34 1.7 0 0 Z " fill="#24958B" transform="translate(691,399)"/>
<path d="M0 0 C0.66 0.99 1.32 1.98 2 3 C1.34 3 0.68 3 0 3 C0 4.32 0 5.64 0 7 C0.99 7 1.98 7 3 7 C2.67 7.99 2.34 8.98 2 10 C0.68 10 -0.64 10 -2 10 C-2.103125 10.639375 -2.20625 11.27875 -2.3125 11.9375 C-2.539375 12.618125 -2.76625 13.29875 -3 14 C-3.99 14.33 -4.98 14.66 -6 15 C-4.64475824 9.57903298 -2.63365987 4.9221313 0 0 Z " fill="#2DA192" transform="translate(845,332)"/>
<path d="M0 0 C0.99 0.33 1.98 0.66 3 1 C3.6875 3.0625 3.6875 3.0625 4 5 C2.68 4.67 1.36 4.34 0 4 C0 5.65 0 7.3 0 9 C-0.99 9.33 -1.98 9.66 -3 10 C-3.33 12.31 -3.66 14.62 -4 17 C-4.66 17 -5.32 17 -6 17 C-4.67594074 10.93139507 -2.67149708 5.60236281 0 0 Z " fill="#BAEBE7" transform="translate(873,315)"/>
<path d="M0 0 C0 0.66 0 1.32 0 2 C-1.65 2.33 -3.3 2.66 -5 3 C-5 3.66 -5 4.32 -5 5 C-12.92 5.495 -12.92 5.495 -21 6 C-17.57240444 3.71493629 -14.96336932 3.23268205 -10.9375 2.4375 C-7.41235688 1.73538171 -3.48883359 0 0 0 Z " fill="#C8F1F0" transform="translate(1058,382)"/>
<path d="M0 0 C1.9375 0.3125 1.9375 0.3125 4 1 C4.33 1.99 4.66 2.98 5 4 C5.928125 4.28875 6.85625 4.5775 7.8125 4.875 C11.56530658 6.19951997 12.78868745 7.76808166 15 11 C10.13321757 11 6.72268378 7.96012285 3 5 C0.9375 2.125 0.9375 2.125 0 0 Z " fill="#3BA196" transform="translate(619,378)"/>
<path d="M0 0 C0.99 0.66 1.98 1.32 3 2 C0.36113346 6.2026393 -2.36440339 9.56638098 -6 13 C-6.33 12.01 -6.66 11.02 -7 10 C-6.01 9.67 -5.02 9.34 -4 9 C-4 8.34 -4 7.68 -4 7 C-3.34 7 -2.68 7 -2 7 C-2.04125 6.21625 -2.0825 5.4325 -2.125 4.625 C-2 2 -2 2 0 0 Z " fill="#189488" transform="translate(1075,362)"/>
<path d="M0 0 C0.66 0.33 1.32 0.66 2 1 C1.07737284 5.89871086 -1.67153686 9.38487496 -5 13 C-7.875 14.5 -7.875 14.5 -10 15 C-10 14.34 -10 13.68 -10 13 C-8.68 12.67 -7.36 12.34 -6 12 C-5.67 10.35 -5.34 8.7 -5 7 C-4.01 7 -3.02 7 -2 7 C-1.34 4.69 -0.68 2.38 0 0 Z " fill="#239387" transform="translate(692,428)"/>
<path d="M0 0 C2.08163365 3.12245047 3.32575613 6.07034881 4.6875 9.5625 C5.14511719 10.71878906 5.60273437 11.87507813 6.07421875 13.06640625 C7 16 7 16 6 18 C1.72069465 12.29425954 0 7.27001966 0 0 Z " fill="#4DA8A1" transform="translate(929,392)"/>
<path d="M0 0 C0.66 0 1.32 0 2 0 C2.33 0.99 2.66 1.98 3 3 C3.66 3.33 4.32 3.66 5 4 C5 7.3 5 10.6 5 14 C2.81385576 11.81385576 2.31743465 10.46120051 1.375 7.5625 C1.11460937 6.78003906 0.85421875 5.99757813 0.5859375 5.19140625 C0 3 0 3 0 0 Z " fill="#23998C" transform="translate(921,434)"/>
<path d="M0 0 C-3.1336515 3.1336515 -5.45776767 2.98250863 -9.875 3.125 C-13.32948146 3.0861856 -16.60663466 2.67867307 -20 2 C-20 1.67 -20 1.34 -20 1 C-6.3667426 -0.14806378 -6.3667426 -0.14806378 0 0 Z " fill="#DAFBF9" transform="translate(1036,388)"/>
<path d="M0 0 C1.10844919 3.32534757 0.84454356 5.62182575 0 9 C-1.65 9.33 -3.3 9.66 -5 10 C-5 10.66 -5 11.32 -5 12 C-5.66 11.67 -6.32 11.34 -7 11 C-6.57847656 10.45730469 -6.15695312 9.91460937 -5.72265625 9.35546875 C-5.17480469 8.64003906 -4.62695312 7.92460937 -4.0625 7.1875 C-3.51722656 6.47980469 -2.97195313 5.77210938 -2.41015625 5.04296875 C-0.83143752 2.95874948 -0.83143752 2.95874948 0 0 Z " fill="#CCF1EE" transform="translate(694,429)"/>
<path d="M0 0 C0.33 0 0.66 0 1 0 C0.98839844 0.78246094 0.97679687 1.56492187 0.96484375 2.37109375 C0.95582031 3.38300781 0.94679688 4.39492188 0.9375 5.4375 C0.92589844 6.44683594 0.91429687 7.45617187 0.90234375 8.49609375 C0.71387324 10.94021067 0.71387324 10.94021067 2 12 C2.23192865 13.51469448 2.41215238 15.03754562 2.5625 16.5625 C2.64628906 17.38878906 2.73007812 18.21507812 2.81640625 19.06640625 C2.90728516 20.02353516 2.90728516 20.02353516 3 21 C0.47912857 18.80793788 -0.50134692 17.30813753 -1 14 C-1.09070579 12.3352819 -1.13008286 10.66717967 -1.125 9 C-1.12757813 8.154375 -1.13015625 7.30875 -1.1328125 6.4375 C-1.00833711 4.15301056 -0.63877457 2.19008426 0 0 Z " fill="#D2F8F6" transform="translate(514,404)"/>
<path d="M0 0 C0.82693359 0.00451172 1.65386719 0.00902344 2.50585938 0.01367188 C4.52477146 0.02534189 6.54364574 0.04327282 8.5625 0.0625 C8.5625 0.3925 8.5625 0.7225 8.5625 1.0625 C7.44230469 1.12308594 6.32210937 1.18367188 5.16796875 1.24609375 C3.69530016 1.33051424 2.22264456 1.41516149 0.75 1.5 C0.01201172 1.53931641 -0.72597656 1.57863281 -1.48632812 1.61914062 C-4.66821342 1.80631035 -7.39912378 2.04970793 -10.4375 3.0625 C-12.43711564 3.10170815 -14.43799364 3.10693347 -16.4375 3.0625 C-16.4375 2.4025 -16.4375 1.7425 -16.4375 1.0625 C-10.91041389 0.12029874 -5.59991648 -0.05866149 0 0 Z " fill="#128D84" transform="translate(994.4375,287.9375)"/>
<path d="M0 0 C2 3 2 3 2 7 C-1 9 -1 9 -4 9 C-4.33 8.01 -4.66 7.02 -5 6 C-4.34 5.67 -3.68 5.34 -3 5 C-1.9590934 3.35857037 -0.95495674 1.69287785 0 0 Z " fill="#129185" transform="translate(791,438)"/>
<path d="M0 0 C0.66 0 1.32 0 2 0 C2 2.31 2 4.62 2 7 C1.34 7 0.68 7 0 7 C-0.33 10.63 -0.66 14.26 -1 18 C-3 15 -3 15 -2.79296875 12.6953125 C-2.59316406 11.84710938 -2.39335938 10.99890625 -2.1875 10.125 C-1.99542969 9.28195312 -1.80335938 8.43890625 -1.60546875 7.5703125 C-1.40566406 6.72210938 -1.20585938 5.87390625 -1 5 C-0.66090168 3.33449671 -0.32585622 1.66814466 0 0 Z " fill="#E9FAFB" transform="translate(612,427)"/>
<path d="M0 0 C-0.67546875 0.23074219 -1.3509375 0.46148437 -2.046875 0.69921875 C-7.47297723 2.68303936 -10.61976707 4.13246458 -14 9 C-14.99 9 -15.98 9 -17 9 C-15.49687867 5.17387297 -13.37198449 3.29908033 -10 1 C-6.1182997 -0.66358584 -4.00548142 -1.19733746 0 0 Z " fill="#ADE5DF" transform="translate(532,395)"/>
<path d="M0 0 C0.66 0 1.32 0 2 0 C0.68669236 4.24299393 -1.01709988 8.03419977 -3 12 C-3.68636625 14.23525035 -3.68636625 14.23525035 -4 16 C-4.66 16 -5.32 16 -6 16 C-5.34 12.7 -4.68 9.4 -4 6 C-3.34 6 -2.68 6 -2 6 C-1.34 4.02 -0.68 2.04 0 0 Z " fill="#1D9285" transform="translate(188,371)"/>
<path d="M0 0 C0.33 1.32 0.66 2.64 1 4 C0.34 4 -0.32 4 -1 4 C-1.33 6.31 -1.66 8.62 -2 11 C-2.99 11.33 -3.98 11.66 -5 12 C-5 12.99 -5 13.98 -5 15 C-5.66 15 -6.32 15 -7 15 C-5.67231025 9.20644472 -3.33455096 4.9000081 0 0 Z " fill="#48A89C" transform="translate(259,357)"/>
<path d="M0 0 C0.33 0.99 0.66 1.98 1 3 C1.66 3.33 2.32 3.66 3 4 C2.04956626 5.33897583 1.08940853 6.67105427 0.125 8 C-0.40867188 8.7425 -0.94234375 9.485 -1.4921875 10.25 C-1.98976562 10.8275 -2.48734375 11.405 -3 12 C-3.66 12 -4.32 12 -5 12 C-3.68938409 7.76570244 -2.05643741 3.92592596 0 0 Z " fill="#D5F3F2" transform="translate(205,342)"/>
<path d="M0 0 C0.66 0 1.32 0 2 0 C2.26554688 0.56589844 2.53109375 1.13179688 2.8046875 1.71484375 C3.15789063 2.44832031 3.51109375 3.18179687 3.875 3.9375 C4.22304688 4.66839844 4.57109375 5.39929688 4.9296875 6.15234375 C5.8684977 8.16332459 5.8684977 8.16332459 8 9 C7.67 10.32 7.34 11.64 7 13 C2.18602057 8.94612259 1.11458074 5.9782058 0 0 Z " fill="#349C92" transform="translate(727,430)"/>
<path d="M0 0 C2.22695405 2.22695405 2.96032175 3.967618 4.125 6.875 C4.47820313 7.73867188 4.83140625 8.60234375 5.1953125 9.4921875 C6 12 6 12 6 16 C5.34 16 4.68 16 4 16 C3.32586789 14.08594633 2.6609668 12.16863974 2 10.25 C1.62875 9.18265625 1.2575 8.1153125 0.875 7.015625 C0 4 0 4 0 0 Z " fill="#3CA194" transform="translate(910,344)"/>
<path d="M0 0 C0.99 0 1.98 0 3 0 C1.71291613 5.54436129 0.08135307 10.70201036 -2 16 C-2.33 16 -2.66 16 -3 16 C-3 13.36 -3 10.72 -3 8 C-2.34 8 -1.68 8 -1 8 C-1 7.01 -1 6.02 -1 5 C-0.34 5 0.32 5 1 5 C0.67 3.35 0.34 1.7 0 0 Z " fill="#CCF2F3" transform="translate(815,400)"/>
<path d="M0 0 C-2.4442611 1.27101577 -4.89194667 2.37299588 -7.4375 3.4375 C-10.47929822 4.77162203 -13.20412033 6.22080384 -16 8 C-16 7.01 -16 6.02 -16 5 C-14.68 4.67 -13.36 4.34 -12 4 C-12 3.34 -12 2.68 -12 2 C-7.8803623 0.70756464 -4.33168317 -0.26252625 0 0 Z " fill="#219586" transform="translate(532,393)"/>
<path d="M0 0 C0.66 0 1.32 0 2 0 C1.09864057 5.76870037 -0.76383754 11.14575631 -4 16 C-4.6319296 9.99666876 -2.37544123 5.36595205 0 0 Z " fill="#D0F5F3" transform="translate(810,416)"/>
<path d="M0 0 C1.125 1.6875 1.125 1.6875 2 4 C1.1144582 7.0993963 0.28724116 8.71275884 -2 11 C-2 12.32 -2 13.64 -2 15 C-2.99 15.33 -3.98 15.66 -5 16 C-3.90301833 10.30860098 -2.45946923 5.25432063 0 0 Z " fill="#349F98" transform="translate(817,402)"/>
<path d="M0 0 C0.33 1.32 0.66 2.64 1 4 C0.01 4.33 -0.98 4.66 -2 5 C-2 6.98 -2 8.96 -2 11 C-3.98 11.99 -3.98 11.99 -6 13 C-3.10933941 3.40546697 -3.10933941 3.40546697 0 0 Z " fill="#C7ECEA" transform="translate(198,357)"/>
<path d="M0 0 C0.66 0 1.32 0 2 0 C0.43181728 5.452999 -1.03810217 9.76486783 -5 14 C-5 12.02 -5 10.04 -5 8 C-4.34 8 -3.68 8 -3 8 C-1.92474806 5.34771188 -0.90543849 2.71631546 0 0 Z " fill="#259488" transform="translate(206,336)"/>
<path d="M0 0 C0 0.33 0 0.66 0 1 C-1.91666667 1.47916667 -3.83333333 1.95833333 -5.75 2.4375 C-6.81734375 2.70433594 -7.8846875 2.97117187 -8.984375 3.24609375 C-10.78645833 3.69661458 -12.58854167 4.14713542 -14.390625 4.59765625 C-14.92171875 4.73042969 -15.4528125 4.86320312 -16 5 C-16 4.01 -16 3.02 -16 2 C-10.42932723 0.40837921 -5.78898419 -0.20674944 0 0 Z " fill="#CFF5F5" transform="translate(648,325)"/>
<path d="M0 0 C1.79378179 2.69067269 2.97313958 5.08578257 4.1875 8.0625 C4.55230469 8.94035156 4.91710937 9.81820313 5.29296875 10.72265625 C6 13 6 13 5 15 C1.07017363 12.38011575 0.98313669 10.53755394 0 6 C-0.125 2.5625 -0.125 2.5625 0 0 Z " fill="#44A59D" transform="translate(942,427)"/>
<path d="M0 0 C-1.61992165 0.86375896 -3.24611861 1.71575854 -4.875 2.5625 C-6.23238281 3.27599609 -6.23238281 3.27599609 -7.6171875 4.00390625 C-8.40351562 4.33261719 -9.18984375 4.66132813 -10 5 C-10.66 4.67 -11.32 4.34 -12 4 C-9.75901219 -0.48197563 -4.44176902 -1.46097922 0 0 Z " fill="#35A098" transform="translate(1061,380)"/>
<path d="M0 0 C1.70884005 1.62339805 3.37446717 3.29319053 5 5 C5 5.66 5 6.32 5 7 C5.66 7.33 6.32 7.66 7 8 C5.35 8.33 3.7 8.66 2 9 C0.62584076 5.73637181 0 3.50487744 0 0 Z " fill="#35A099" transform="translate(635,364)"/>
<path d="M0 0 C0.66 0 1.32 0 2 0 C3.90608098 3.21182149 4.22266247 5.53882603 4.125 9.25 C4.10695312 10.14203125 4.08890625 11.0340625 4.0703125 11.953125 C4.03550781 12.96632813 4.03550781 12.96632813 4 14 C1.59960958 9.32024725 0 5.32695729 0 0 Z " fill="#41A59A" transform="translate(129,384)"/>
<path d="M0 0 C0.33 0.66 0.66 1.32 1 2 C0.26821134 4.07196631 -0.55899003 6.1108552 -1.4375 8.125 C-1.91058594 9.22070312 -2.38367188 10.31640625 -2.87109375 11.4453125 C-3.24363281 12.28835938 -3.61617187 13.13140625 -4 14 C-4.33 14 -4.66 14 -5 14 C-4.45323217 9.44360141 -3.72706364 5.2668631 -2 1 C-1.34 0.67 -0.68 0.34 0 0 Z " fill="#D1F4F1" transform="translate(831,364)"/>
<path d="M0 0 C1.9375 0.5625 1.9375 0.5625 4 2 C4.75 5.625 4.75 5.625 5 9 C4.67 8.34 4.34 7.68 4 7 C3.01 7.33 2.02 7.66 1 8 C0.67 5.36 0.34 2.72 0 0 Z " fill="#209A89" transform="translate(297,318)"/>
<path d="M0 0 C3.7952131 1.49097658 5.61042731 3.75700849 8 7 C7.67 7.66 7.34 8.32 7 9 C5.1875 8.875 5.1875 8.875 3 8 C0 2.96428571 0 2.96428571 0 0 Z " fill="#2F9E95" transform="translate(1070,303)"/>
<path d="M0 0 C0.99 0.33 1.98 0.66 3 1 C2.65066406 1.51949219 2.30132812 2.03898437 1.94140625 2.57421875 C-1.54055504 7.87724314 -1.54055504 7.87724314 -3 14 C-3.33 14 -3.66 14 -4 14 C-3.67 10.37 -3.34 6.74 -3 3 C-2.01 3 -1.02 3 0 3 C0 2.01 0 1.02 0 0 Z " fill="#D3F9F8" transform="translate(495,391)"/>
<path d="M0 0 C2.34914492 2.34914492 2.73140357 3.95679446 3.625 7.125 C3.88539063 8.03507812 4.14578125 8.94515625 4.4140625 9.8828125 C4.70410156 10.93082031 4.70410156 10.93082031 5 12 C4.34 12 3.68 12 3 12 C3 11.01 3 10.02 3 9 C2.01 9 1.02 9 0 9 C0 6.03 0 3.06 0 0 Z " fill="#3AA399" transform="translate(922,374)"/>
<path d="M0 0 C-0.75 6.75 -0.75 6.75 -3 9 C-4 8 -4 8 -4.25 5.0625 C-4.1675 4.051875 -4.085 3.04125 -4 2 C-1 0 -1 0 0 0 Z " fill="#2D9A94" transform="translate(848,378)"/>
<path d="M0 0 C0.33 0 0.66 0 1 0 C1.3125 2.3125 1.3125 2.3125 1 5 C-1.3125 6.875 -1.3125 6.875 -4 8 C-4.99 7.67 -5.98 7.34 -7 7 C-6.38125 6.7525 -5.7625 6.505 -5.125 6.25 C-2.62985717 4.78226892 -2.09872287 3.62003145 -1 1 C-0.67 0.67 -0.34 0.34 0 0 Z " fill="#D0F1F1" transform="translate(1075,368)"/>
<path d="M0 0 C0.99 0.33 1.98 0.66 3 1 C1.02 4.96 -0.96 8.92 -3 13 C-3.33 11.68 -3.66 10.36 -4 9 C-3.34 9 -2.68 9 -2 9 C-1.7834375 7.329375 -1.7834375 7.329375 -1.5625 5.625 C-1 2 -1 2 0 0 Z " fill="#CCF2EF" transform="translate(140,317)"/>
<path d="M0 0 C0.93423645 3.01031744 1.04449911 3.86650268 0 7 C-0.99 7 -1.98 7 -3 7 C-3.33 8.65 -3.66 10.3 -4 12 C-4.66 12 -5.32 12 -6 12 C-5.1875 9.0625 -5.1875 9.0625 -4 6 C-3.01 5.67 -2.02 5.34 -1 5 C-0.67 3.35 -0.34 1.7 0 0 Z " fill="#BDEBEA" transform="translate(305,408)"/>
<path d="M0 0 C0.99 0 1.98 0 3 0 C1.68938409 4.23429756 0.05643741 8.07407404 -2 12 C-2.33 12 -2.66 12 -3 12 C-3 10.35 -3 8.7 -3 7 C-2.34 7 -1.68 7 -1 7 C-0.67 4.69 -0.34 2.38 0 0 Z " fill="#E3FCFA" transform="translate(237,394)"/>
<path d="M0 0 C0.33 0 0.66 0 1 0 C0.67 5.28 0.34 10.56 0 16 C-0.99 16 -1.98 16 -3 16 C-2.68954268 14.0830014 -2.37655329 12.16641277 -2.0625 10.25 C-1.88847656 9.18265625 -1.71445313 8.1153125 -1.53515625 7.015625 C-1.11295829 4.63652407 -0.62797116 2.33084789 0 0 Z " fill="#159083" transform="translate(133,338)"/>
<path d="M0 0 C0 0.66 0 1.32 0 2 C-0.99 2 -1.98 2 -3 2 C-3.66 3.32 -4.32 4.64 -5 6 C-7.64 6 -10.28 6 -13 6 C-10.65890118 4.43926745 -8.43666597 3.13626133 -5.9375 1.875 C-5.24527344 1.52179688 -4.55304688 1.16859375 -3.83984375 0.8046875 C-2 0 -2 0 0 0 Z " fill="#B4E7E1" transform="translate(269,449)"/>
<path d="M0 0 C2 3 2 3 2 6 C1.01 6.33 0.02 6.66 -1 7 C-1.66 7.99 -2.32 8.98 -3 10 C-2.25 2.25 -2.25 2.25 0 0 Z " fill="#0C8F81" transform="translate(813,417)"/>
<path d="M0 0 C0.66 0.99 1.32 1.98 2 3 C1.34 3 0.68 3 0 3 C-0.103125 3.928125 -0.20625 4.85625 -0.3125 5.8125 C-1.0070192 9.03254358 -1.47740939 10.02579865 -4 12 C-4.33 11.34 -4.66 10.68 -5 10 C-4.00390625 7.6171875 -4.00390625 7.6171875 -2.5625 4.875 C-1.85287109 3.50988281 -1.85287109 3.50988281 -1.12890625 2.1171875 C-0.75636719 1.41851562 -0.38382813 0.71984375 0 0 Z " fill="#4BAA9D" transform="translate(240,394)"/>
<path d="M0 0 C-1.44950455 3.7910119 -3.15172566 7.3874638 -5 11 C-5.97744926 7.95904675 -6.16271218 6.00367313 -5 3 C-2.53571429 0 -2.53571429 0 0 0 Z " fill="#209587" transform="translate(216,321)"/>
<path d="M0 0 C1.051875 0.5878125 1.051875 0.5878125 2.125 1.1875 C3.78640763 1.86716676 5.45200041 2.53688905 7.125 3.1875 C7.125 3.5175 7.125 3.8475 7.125 4.1875 C-1.44642857 3.47321429 -1.44642857 3.47321429 -4.875 0.1875 C-1.875 -0.8125 -1.875 -0.8125 0 0 Z " fill="#0F8D82" transform="translate(515.875,444.8125)"/>
<path d="M0 0 C2.475 0.495 2.475 0.495 5 1 C5 1.66 5 2.32 5 3 C5.66 3 6.32 3 7 3 C7 3.66 7 4.32 7 5 C8.32 5.33 9.64 5.66 11 6 C9.234375 6.6796875 9.234375 6.6796875 7 7 C5.078125 5.8203125 5.078125 5.8203125 3.25 4.125 C2.63640625 3.57070313 2.0228125 3.01640625 1.390625 2.4453125 C0 1 0 1 0 0 Z " fill="#2B9A8C" transform="translate(159,438)"/>
<path d="M0 0 C0.33 0.66 0.66 1.32 1 2 C1.66 2 2.32 2 3 2 C3 2.66 3 3.32 3 4 C1.68 4.33 0.36 4.66 -1 5 C-1 5.66 -1 6.32 -1 7 C-1.99 7.33 -2.98 7.66 -4 8 C-2.87548273 5.0280615 -1.77706209 2.66559313 0 0 Z " fill="#2C9F94" transform="translate(497,392)"/>
<path d="M0 0 C0.33 0 0.66 0 1 0 C1.25 2.75 1.25 2.75 1 6 C-1 8.375 -1 8.375 -3 10 C-3.33 9.34 -3.66 8.68 -4 8 C-3.22265625 6.0546875 -3.22265625 6.0546875 -2.0625 3.875 C-1.49208984 2.78832031 -1.49208984 2.78832031 -0.91015625 1.6796875 C-0.60980469 1.12539063 -0.30945313 0.57109375 0 0 Z " fill="#26998B" transform="translate(826,380)"/>
<path d="M0 0 C0.66 0.99 1.32 1.98 2 3 C1.34 3.66 0.68 4.32 0 5 C-1.32 5 -2.64 5 -4 5 C-4.33 5.99 -4.66 6.98 -5 8 C-5.66 7.67 -6.32 7.34 -7 7 C-4.66666667 4.66666667 -2.33333333 2.33333333 0 0 Z " fill="#34A197" transform="translate(158,300)"/>
<path d="M0 0 C1.32 0.33 2.64 0.66 4 1 C-0.625 5.875 -0.625 5.875 -4 7 C-3.34 5.68 -2.68 4.36 -2 3 C-1.34 3 -0.68 3 0 3 C0 2.01 0 1.02 0 0 Z " fill="#DEFAF9" transform="translate(1051,356)"/>
<path d="M0 0 C1.46726798 3.81489674 0.43336419 6.29011622 -1 10 C-2.65 9.67 -4.3 9.34 -6 9 C-4.68 8.67 -3.36 8.34 -2 8 C-1.855625 7.236875 -1.71125 6.47375 -1.5625 5.6875 C-1 3 -1 3 0 0 Z " fill="#5FB2AB" transform="translate(687,339)"/>
<path d="M0 0 C1.41750563 0.11509661 2.83401169 0.24253658 4.25 0.375 C5.03890625 0.44460938 5.8278125 0.51421875 6.640625 0.5859375 C9.085877 1.01507113 10.84836903 1.78600638 13 3 C11.02 3.33 9.04 3.66 7 4 C7 3.34 7 2.68 7 2 C4.69 2 2.38 2 0 2 C0 1.34 0 0.68 0 0 Z " fill="#57B0A9" transform="translate(671,326)"/>
<path d="M0 0 C-1 3 -1 3 -4 5 C-6.6875 5.125 -6.6875 5.125 -9 5 C-6.45523312 2.20075644 -3.92372883 0 0 0 Z " fill="#2B9A92" transform="translate(180,286)"/>
<path d="M0 0 C0.99 0 1.98 0 3 0 C3 0.66 3 1.32 3 2 C6.3 2 9.6 2 13 2 C13 2.33 13 2.66 13 3 C8.71 3 4.42 3 0 3 C0 2.01 0 1.02 0 0 Z " fill="#28A091" transform="translate(1024,385)"/>
<path d="M0 0 C0.928125 0.0825 1.85625 0.165 2.8125 0.25 C1.8225 1.735 1.8225 1.735 0.8125 3.25 C-2.8125 3.9375 -2.8125 3.9375 -6.1875 4.25 C-4.36434338 1.00883268 -3.82500054 0.30000004 0 0 Z " fill="#CEF1ED" transform="translate(644.1875,345.75)"/>
<path d="M0 0 C0.66 0.33 1.32 0.66 2 1 C0.36587557 2.70840281 -0.86906094 3.93453047 -3 5 C-3.33 5.99 -3.66 6.98 -4 8 C-4.99 8 -5.98 8 -7 8 C-5.50902342 4.2047869 -3.24299151 2.38957269 0 0 Z " fill="#47A9A2" transform="translate(626,333)"/>
<path d="M0 0 C0.66 1.32 1.32 2.64 2 4 C0.35 6.31 -1.3 8.62 -3 11 C-3 8.04725901 -2.56108169 6.50941597 -1.5 3.8125 C-1.2215625 3.09707031 -0.943125 2.38164062 -0.65625 1.64453125 C-0.33140625 0.83048828 -0.33140625 0.83048828 0 0 Z " fill="#C8EDED" transform="translate(226,301)"/>
<path d="M0 0 C4.5 3 4.5 3 9 6 C6.69 6 4.38 6 2 6 C1.34 4.02 0.68 2.04 0 0 Z " fill="#339E96" transform="translate(749,426)"/>
<path d="M0 0 C2.89932357 2.39509338 3.50168276 4.31245243 4 8 C3.01 7.67 2.02 7.34 1 7 C1 6.34 1 5.68 1 5 C0.34 5 -0.32 5 -1 5 C-0.67 3.35 -0.34 1.7 0 0 Z " fill="#3BA098" transform="translate(691,399)"/>
<path d="M0 0 C0.66 0.33 1.32 0.66 2 1 C-0.20927127 4.48832306 -2.08597051 5.73058503 -6 7 C-4.60667426 3.63279613 -3.0210714 2.0140476 0 0 Z " fill="#3DA196" transform="translate(504,385)"/>
<path d="M0 0 C6.75 1.75 6.75 1.75 9 4 C6.03 3.67 3.06 3.34 0 3 C0 2.01 0 1.02 0 0 Z " fill="#239989" transform="translate(557,328)"/>
<path d="M0 0 C1.32 0.33 2.64 0.66 4 1 C4.33 3.64 4.66 6.28 5 9 C4.67 8.34 4.34 7.68 4 7 C3.34 7 2.68 7 2 7 C1.34 4.69 0.68 2.38 0 0 Z " fill="#CEF3F2" transform="translate(304,327)"/>
<path d="M0 0 C3.0916909 2.52956528 3.90931332 5.22454612 5 9 C3.0625 8.4375 3.0625 8.4375 1 7 C0.25 3.375 0.25 3.375 0 0 Z " fill="#3DA298" transform="translate(887,293)"/>
<path d="M0 0 C2.0625 2.25 2.0625 2.25 4 5 C3.75 7.3125 3.75 7.3125 3 9 C2.34 9 1.68 9 1 9 C0.67 6.03 0.34 3.06 0 0 Z " fill="#E8FEFD" transform="translate(793,437)"/>
<path d="M0 0 C0.66 0 1.32 0 2 0 C2.1875 3.375 2.1875 3.375 2 7 C1.01 7.66 0.02 8.32 -1 9 C-0.67 6.03 -0.34 3.06 0 0 Z " fill="#E4FAFB" transform="translate(834,418)"/>
<path d="M0 0 C4.8 2.46153846 4.8 2.46153846 5.8125 5.1875 C5.874375 5.785625 5.93625 6.38375 6 7 C5.34 7 4.68 7 4 7 C4 6.34 4 5.68 4 5 C3.01 4.67 2.02 4.34 1 4 C0.3125 1.9375 0.3125 1.9375 0 0 Z " fill="#C1EFE8" transform="translate(554,349)"/>
<path d="M0 0 C0.66 0 1.32 0 2 0 C1.67 4.29 1.34 8.58 1 13 C0.67 13 0.34 13 0 13 C-0.19397476 11.02145742 -0.38001321 9.0421352 -0.5625 7.0625 C-0.66691406 5.96035156 -0.77132812 4.85820312 -0.87890625 3.72265625 C-0.91886719 2.82417969 -0.95882812 1.92570312 -1 1 C-0.67 0.67 -0.34 0.34 0 0 Z " fill="#3FA399" transform="translate(634,350)"/>
<path d="M0 0 C2.52259061 1.97420135 2.9929808 2.96745642 3.6875 6.1875 C3.790625 7.115625 3.89375 8.04375 4 9 C3.01 8.67 2.02 8.34 1 8 C0.67 5.36 0.34 2.72 0 0 Z " fill="#078D7F" transform="translate(907,341)"/>
<path d="M0 0 C0.99 0 1.98 0 3 0 C3.66 3.3 4.32 6.6 5 10 C2.90217213 7.90217213 2.3490604 6.6200793 1.375 3.875 C1.11460937 3.15054687 0.85421875 2.42609375 0.5859375 1.6796875 C0.39257812 1.12539063 0.19921875 0.57109375 0 0 Z " fill="#D4F8F8" transform="translate(907,336)"/>
<path d="M0 0 C2.0625 0.4375 2.0625 0.4375 4 1 C1.03 3.475 1.03 3.475 -2 6 C-1.125 1.125 -1.125 1.125 0 0 Z " fill="#D1F5F5" transform="translate(156,298)"/>
<path d="M0 0 C3.53372712 1.96318174 6.24479785 4.04070881 9 7 C6.69 6.34 4.38 5.68 2 5 C2 4.01 2 3.02 2 2 C1.34 2 0.68 2 0 2 C0 1.34 0 0.68 0 0 Z " fill="#26998C" transform="translate(275,294)"/>
<path d="M0 0 C3.14624993 -0.26218749 4.61837017 -0.24754367 7.3125 1.5 C8.1478125 2.2425 8.1478125 2.2425 9 3 C6.03 2.67 3.06 2.34 0 2 C0 1.34 0 0.68 0 0 Z " fill="#D5F3F4" transform="translate(615,425)"/>
<path d="M0 0 C0.33 0 0.66 0 1 0 C1 1.98 1 3.96 1 6 C-0.98 6.99 -0.98 6.99 -3 8 C-1.125 2.25 -1.125 2.25 0 0 Z " fill="#47A59F" transform="translate(229,416)"/>
<path d="M0 0 C2.31 0.33 4.62 0.66 7 1 C7.33 2.32 7.66 3.64 8 5 C5.36 3.68 2.72 2.36 0 1 C0 0.67 0 0.34 0 0 Z " fill="#40A799" transform="translate(548,345)"/>
</svg>
