<?xml version="1.0" encoding="UTF-8"?>
<svg version="1.1" xmlns="http://www.w3.org/2000/svg" width="634" height="200">
<path d="M0 0 C209.22 0 418.44 0 634 0 C634 66 634 132 634 200 C424.78 200 215.56 200 0 200 C0 134 0 68 0 0 Z " fill="#FEFEFE" transform="translate(0,0)"/>
<path d="M0 0 C1.70703125 1.2265625 1.70703125 1.2265625 3 3 C3.10182022 6.10283722 2.49178378 8.91517448 2 12 C6.29 12.33 10.58 12.66 15 13 C15.495 15.97 15.495 15.97 16 19 C20.62 20.32 25.24 21.64 30 23 C30.495 24.98 30.495 24.98 31 27 C31.70125 27.0825 32.4025 27.165 33.125 27.25 C36 28 36 28 38.8125 29.9375 C41.854215 31.90566853 44.13829409 32.56261821 47.6328125 33.296875 C52.70416135 34.80321624 57.34095002 37.53070351 62 40 C62 40.99 62 41.98 62 43 C62.99 43 63.98 43 65 43 C65 43.99 65 44.98 65 46 C59.91554184 46.17235451 56.70548699 45.98125768 52 44 C50.00039395 43.96030559 47.99951978 43.95617491 46 44 C44.93510329 78.65829223 48.23451041 109.83982956 71.6730957 136.46289062 C72.99396796 137.99301238 74.25296675 139.56236407 75.515625 141.140625 C79.41084776 145.62380591 84.10932677 148.68395007 89 152 C90.12341797 152.79083984 90.12341797 152.79083984 91.26953125 153.59765625 C100.591121 159.71954093 117.57941399 168.23307548 129 166 C131.4020923 164.24307398 132.35638332 162.58994144 134 160 C136.62748727 157.45727038 137.53454005 157.02685346 141.25 156.8125 C142.1575 156.874375 143.065 156.93625 144 157 C143.46884894 161.51478398 141.63379708 164.34666857 139 168 C139.85464844 167.98839844 140.70929688 167.97679687 141.58984375 167.96484375 C142.69457031 167.95582031 143.79929687 167.94679687 144.9375 167.9375 C146.03964844 167.92589844 147.14179688 167.91429687 148.27734375 167.90234375 C151 168 151 168 152 169 C154.67058851 169.14115161 157.32432238 169.04247107 160 169 C160 168.34 160 167.68 160 167 C160.99 167.33 161.98 167.66 163 168 C166.24238627 168.25767308 169.47862321 168.44246808 172.7265625 168.60546875 C177.89840515 168.89840515 177.89840515 168.89840515 179 170 C179.04063832 171.66617115 179.042721 173.33388095 179 175 C174.09292023 177.76809628 169.44791446 178.91041711 164 180 C163.33097656 180.18433594 162.66195312 180.36867187 161.97265625 180.55859375 C159.3331109 181.14922469 156.78453951 180.97338666 154.09765625 180.83984375 C151.90581895 180.89874518 151.90581895 180.89874518 149.67041016 181.95678711 C128.84242972 190.09337153 89.92040391 190.13571263 69 182 C69 181.67 69 181.34 69 181 C71.18771244 181.14261094 73.37516282 181.28924461 75.5625 181.4375 C77.38974609 181.55931641 77.38974609 181.55931641 79.25390625 181.68359375 C83 182 83 182 86.09375 182.53125 C92.03647226 183.24437667 97.95861603 183.10325799 103.9375 183.0625 C105.19369141 183.05798828 106.44988281 183.05347656 107.74414062 183.04882812 C110.82947663 183.03709681 113.91471316 183.020681 117 183 C115.741875 182.93941406 114.48375 182.87882813 113.1875 182.81640625 C104.81091418 182.40871451 96.4345623 181.99288426 88.0625 181.5 C86.81597656 181.4278125 85.56945312 181.355625 84.28515625 181.28125 C81.44492246 181.03809086 78.775699 180.63203772 76 180 C76.99 179.34 77.98 178.68 79 178 C73.10358713 176.6727446 73.10358713 176.6727446 67.1875 175.4375 C65.10519962 175.02103992 63.05526698 174.53284699 61 174 C61 173.34 61 172.68 61 172 C60.31550781 172.22558594 59.63101563 172.45117188 58.92578125 172.68359375 C54.94572659 173.11401355 52.74713062 171.82433738 49.1875 170.0625 C48.02605469 169.49660156 46.86460937 168.93070313 45.66796875 168.34765625 C44.78753906 167.90292969 43.90710938 167.45820313 43 167 C43 167.99 43 168.98 43 170 C50.26 172.97 57.52 175.94 65 179 C56.42206251 181.14448437 46.63622347 175.11117071 39.3125 170.75 C32.73406939 166.71898688 26.82793715 162.05346045 21 157 C20.36835938 156.51273438 19.73671875 156.02546875 19.0859375 155.5234375 C4.90702775 144.45223399 -5.69456837 124.14205222 -13 108 C-13.51046875 106.90300781 -14.0209375 105.80601563 -14.546875 104.67578125 C-18.45135769 95.68943321 -20.73152859 86.56010055 -22.82055664 77.0065918 C-24.13428681 71.1025064 -25.82863311 65.73476433 -28.17529297 60.16381836 C-29.83377202 55.81239744 -29.73425442 51.54503488 -29 47 C-26.92112507 43.43621441 -24.39410482 41.30314256 -21 39 C-21.226875 38.401875 -21.45375 37.80375 -21.6875 37.1875 C-22 35 -22 35 -21 33.4375 C-18.20936237 31.43172921 -15.17228994 30.29241442 -12 29 C-11.67 28.67 -11.34 28.34 -11 28 C-11.0849597 26.58205184 -11.19298316 25.1654543 -11.3125 23.75 C-11.40034734 19.5130551 -11.40034734 19.5130551 -9.66796875 17.29296875 C-8 15.9375 -8 15.9375 -5 14 C-5.42546713 11.53229066 -5.68695262 10.28800359 -7.5625 8.5625 C-9 7 -9 7 -9.375 4.4375 C-9.25125 3.633125 -9.1275 2.82875 -9 2 C-5.53076119 -0.31282587 -4.07794425 -0.42478586 0 0 Z " fill="#0F0F0F" transform="translate(305,0)"/>
<path d="M0 0 C2.87602455 -0.10852923 5.74790832 -0.1875515 8.625 -0.25 C9.43324219 -0.28351563 10.24148437 -0.31703125 11.07421875 -0.3515625 C18.12088532 -0.46614244 21.58730357 1.7518056 26.75 6.5625 C34.98664809 15.48553543 33.56969294 28.42716885 33.390625 39.83203125 C33.07501785 47.34828413 31.82156191 55.66856305 26.6592865 61.51959229 C20.11654513 67.35699577 12.30732822 67.55172309 3.96484375 67.390625 C2.84557999 67.38496521 1.72631622 67.37930542 0.57313538 67.37347412 C-2.97252687 67.35123251 -6.51714748 67.30105731 -10.0625 67.25 C-12.47850095 67.22991929 -14.89451786 67.21167129 -17.31054688 67.1953125 C-23.20738165 67.15140784 -29.10361637 67.08461849 -35 67 C-35 67.99 -35 68.98 -35 70 C-24.11 70 -13.22 70 -2 70 C-2 88.60714286 -2 88.60714286 -4.34375 92.390625 C-13.72093048 101.50241358 -27.19445299 102.42808724 -39.47827148 102.44042969 C-49.72995068 102.25237254 -60.33862662 100.37861619 -68 93 C-70.45095375 88.45778696 -70.32240261 84.03819748 -70.3359375 79.0078125 C-70.3459227 77.71156448 -70.3459227 77.71156448 -70.35610962 76.38912964 C-70.36621075 74.56526815 -70.37092743 72.7413699 -70.37060547 70.91748047 C-70.37497486 68.14097592 -70.41130969 65.36606699 -70.44921875 62.58984375 C-70.45508839 60.8125054 -70.4590568 59.03515955 -70.4609375 57.2578125 C-70.47530853 56.4346756 -70.48967957 55.6115387 -70.50448608 54.76345825 C-70.45952816 49.03408186 -69.2720764 45.72519049 -66 41 C-63.96484375 39.2578125 -63.96484375 39.2578125 -61.9375 38.125 C-60.93009766 37.54105469 -60.93009766 37.54105469 -59.90234375 36.9453125 C-55.39082992 34.70345142 -51.12248614 34.83194912 -46.203125 34.7890625 C-44.42186595 34.76098527 -42.64061607 34.73232075 -40.859375 34.703125 C-38.05729515 34.66194678 -35.25538505 34.62505077 -32.453125 34.59863281 C-29.74443326 34.5708955 -27.03651508 34.52501722 -24.328125 34.4765625 C-23.49871399 34.47330963 -22.66930298 34.47005676 -21.8147583 34.46670532 C-16.45041293 34.35430184 -12.83946681 33.29185822 -8 31 C-7.01 31 -6.02 31 -5 31 C-4.71125 30.236875 -4.4225 29.47375 -4.125 28.6875 C-3 26 -3 26 -1 23 C-0.63303819 20.48497823 -0.63303819 20.48497823 -0.5859375 17.67578125 C-0.54726562 16.64775391 -0.50859375 15.61972656 -0.46875 14.56054688 C-0.4378125 13.48869141 -0.406875 12.41683594 -0.375 11.3125 C-0.33632812 10.22904297 -0.29765625 9.14558594 -0.2578125 8.02929688 C-0.16349491 5.35303533 -0.07789995 2.67678157 0 0 Z " fill="#FDDD59" transform="translate(132,66)"/>
<path d="M0 0 C0.96357422 -0.00773437 1.92714844 -0.01546875 2.91992188 -0.0234375 C11.82138009 0.00057183 19.86842526 0.9097309 27.6484375 5.4453125 C32.20261024 10.03925968 33.88769164 15.57816825 33.99328613 21.92298889 C33.98518921 22.71281662 33.97709229 23.50264435 33.96875 24.31640625 C33.97449036 25.57299294 33.97449036 25.57299294 33.98034668 26.85496521 C33.98305138 28.61385307 33.97579189 30.37278216 33.95898438 32.1315918 C33.93752525 34.80934952 33.95884761 37.48443313 33.984375 40.16210938 C33.98173199 41.88021419 33.97660757 43.59831737 33.96875 45.31640625 C33.97684692 46.10825821 33.98494385 46.90011017 33.99328613 47.71595764 C33.89935982 53.33619474 32.63750874 56.60947403 29.4375 61.25 C25.74863121 64.58754795 23.36205818 66.37284135 18.40600586 66.37597656 C17.57431381 66.37978333 16.74262177 66.38359009 15.88572693 66.38751221 C14.98371048 66.38853943 14.08169403 66.38956665 13.15234375 66.390625 C11.24022258 66.4089655 9.3281129 66.42853694 7.41601562 66.44921875 C4.4032065 66.47808692 1.39112983 66.49999737 -1.62182617 66.50048828 C-4.53109624 66.50384522 -7.43868128 66.53854094 -10.34765625 66.578125 C-11.23550308 66.5710553 -12.12334991 66.5639856 -13.0381012 66.55670166 C-19.57903407 66.68246583 -24.23287479 68.44137057 -29.5625 72.25 C-33.64093698 76.53758759 -35.75985479 80.31103088 -35.9765625 86.234375 C-36.01523437 87.16894531 -36.05390625 88.10351562 -36.09375 89.06640625 C-36.1246875 90.03449219 -36.155625 91.00257812 -36.1875 92 C-36.22617187 92.98355469 -36.26484375 93.96710938 -36.3046875 94.98046875 C-36.39878426 97.40346037 -36.48442328 99.82644796 -36.5625 102.25 C-53.50460105 103.1752361 -53.50460105 103.1752361 -59.08984375 98.79296875 C-67.21743088 90.27732706 -68.8539507 77.47095698 -68.71484375 66.21875 C-68.17052578 55.61152797 -66.57203363 46.62916901 -58.5 39.3125 C-54.52751445 35.9652425 -51.61043025 35.12397596 -46.44848633 35.13647461 C-45.40763382 35.13655014 -44.36678131 35.13662567 -43.29438782 35.13670349 C-42.17243515 35.14186478 -41.05048248 35.14702606 -39.89453125 35.15234375 C-38.74458176 35.1537587 -37.59463226 35.15517365 -36.40983582 35.15663147 C-32.73153092 35.16223571 -29.05328655 35.17478896 -25.375 35.1875 C-22.88346442 35.19251445 -20.39192789 35.19707745 -17.90039062 35.20117188 C-11.78773971 35.21220653 -5.67512418 35.22894882 0.4375 35.25 C0.4375 33.93 0.4375 32.61 0.4375 31.25 C-10.4525 31.25 -21.3425 31.25 -32.5625 31.25 C-32.624375 28.053125 -32.68625 24.85625 -32.75 21.5625 C-32.79096802 20.06456909 -32.79096802 20.06456909 -32.83276367 18.53637695 C-32.87864814 13.6395671 -32.85745628 10.1670809 -29.5625 6.25 C-20.94983924 -0.03006513 -10.31556741 -0.08313419 0 0 Z " fill="#3D79A9" transform="translate(95.5625,30.75)"/>
<path d="M0 0 C0 3.63 0 7.26 0 11 C-0.99 10.67 -1.98 10.34 -3 10 C-3 9.01 -3 8.02 -3 7 C-3.66 7 -4.32 7 -5 7 C-5 10.3 -5 13.6 -5 17 C-4.34 16.01 -3.68 15.02 -3 14 C-2.34 13.34 -1.68 12.68 -1 12 C0.83069903 15.12929178 1.23931181 17.37643146 1.1953125 20.984375 C1.18886719 21.91894531 1.18242187 22.85351562 1.17578125 23.81640625 C1.15902344 24.78449219 1.14226562 25.75257812 1.125 26.75 C1.11597656 27.73355469 1.10695313 28.71710938 1.09765625 29.73046875 C1.07412785 32.15389407 1.04125368 34.57682222 1 37 C1.66 37 2.32 37 3 37 C2.7215625 37.9590625 2.7215625 37.9590625 2.4375 38.9375 C2.293125 39.618125 2.14875 40.29875 2 41 C2.33 41.33 2.66 41.66 3 42 C3.46690041 43.80515 3.89797433 45.6196081 4.3125 47.4375 C5.54189735 52.53158706 7.15417926 57.23326885 9.23046875 62.0390625 C10 64 10 64 10 66 C8.5 67.625 8.5 67.625 7 69 C7.5775 69.26425781 8.155 69.52851562 8.75 69.80078125 C14.56239983 72.89870963 18.99924394 77.32024016 21.93359375 83.17578125 C23.25090788 85.42920871 24.86568627 87.19950879 26.625 89.125 C28.66765963 91.36589242 29.91391708 92.77403232 31 95.625 C32.95935851 100.27847646 37.01687918 103.07948597 41.5078125 105.1640625 C43.23570123 105.83974436 44.97011746 106.49899345 46.7109375 107.140625 C50.78692877 108.67086063 53.63704263 110.66123978 56.8125 113.625 C59.9023085 115.92721025 60.62151266 116.31150661 64.1875 116.625 C68.38922596 117.03828452 68.3513438 117.24098313 71 120 C73.64410197 120.86900345 76.2709144 121.41839159 79 122 C78.67 122.66 78.34 123.32 78 124 C70.5520172 124.49653219 63.41215169 122.80643325 56.8125 119.3125 C51.70224491 116.92771429 46.39901124 117.65024719 41 119 C40.236875 119.185625 39.47375 119.37125 38.6875 119.5625 C38.130625 119.706875 37.57375 119.85125 37 120 C36.34 119.01 35.68 118.02 35 117 C31.44327821 115.7811879 31.44327821 115.7811879 28 115 C28 113.02 28 111.04 28 109 C27.24074219 108.95101562 26.48148437 108.90203125 25.69921875 108.8515625 C24.70535156 108.77679688 23.71148437 108.70203125 22.6875 108.625 C21.70136719 108.55539063 20.71523438 108.48578125 19.69921875 108.4140625 C17 108 17 108 14 106 C14 105.01 14 104.02 14 103 C15.32 103 16.64 103 18 103 C18.33 103.99 18.66 104.98 19 106 C21.31 106 23.62 106 26 106 C18.93798228 97.89768505 10.4104542 93.97878754 0.76147461 89.6315918 C-0.71567017 88.9651062 -0.71567017 88.9651062 -2.22265625 88.28515625 C-3.56469116 87.69553101 -3.56469116 87.69553101 -4.93383789 87.09399414 C-7 86 -7 86 -8 84 C-3.62297367 85.22556737 0.69677317 86.53060547 5 88 C3.17367007 82.36881605 0.27164667 80.70161454 -4.6875 77.9375 C-8 76 -8 76 -9 74 C-6.525 73.505 -6.525 73.505 -4 73 C-5.1094072 69.51329166 -6.26337666 66.22515763 -8 63 C-8 63.99 -8 64.98 -8 66 C-8.495 67.485 -8.495 67.485 -9 69 C-9.598125 68.030625 -10.19625 67.06125 -10.8125 66.0625 C-12.71127509 62.76947958 -12.71127509 62.76947958 -16 62 C-16.33 62.99 -16.66 63.98 -17 65 C-17 64.34 -17 63.68 -17 63 C-18.65 63 -20.3 63 -22 63 C-22.4125 61.783125 -22.825 60.56625 -23.25 59.3125 C-24.6160562 55.63264526 -26.34394768 52.93081636 -29 50 C-27.35 50 -25.7 50 -24 50 C-25.39759905 46.45481116 -25.39759905 46.45481116 -27 43 C-27.61875 43.495 -28.2375 43.99 -28.875 44.5 C-31 46 -31 46 -33 46 C-33 43.69 -33 41.38 -33 39 C-33.66 39 -34.32 39 -35 39 C-35 41.31 -35 43.62 -35 46 C-35.99 46.495 -35.99 46.495 -37 47 C-35.35 48.98 -33.7 50.96 -32 53 C-32.66 53.66 -33.32 54.32 -34 55 C-34.99 55 -35.98 55 -37 55 C-37.99 52.03 -38.98 49.06 -40 46 C-40.99 46 -41.98 46 -43 46 C-43.12375 45.2575 -43.2475 44.515 -43.375 43.75 C-43.95486701 41.19858515 -44.73708739 39.2732427 -46 37 C-45.34 36.01 -44.68 35.02 -44 34 C-42.68 34 -41.36 34 -40 34 C-38.93453047 37.1964086 -38.92572162 39.65747276 -39 43 C-38.34 43.33 -37.68 43.66 -37 44 C-37.26333964 40.49099924 -37.67784 37.27619566 -39 34 C-41.08563676 32.67750684 -42.8094107 32.17534326 -45.22265625 31.6953125 C-45.80917969 31.46585938 -46.39570313 31.23640625 -47 31 C-47.74609375 28.9296875 -47.74609375 28.9296875 -48 27 C-47.01 27 -46.02 27 -45 27 C-44.95875 26.38125 -44.9175 25.7625 -44.875 25.125 C-44.58625 24.42375 -44.2975 23.7225 -44 23 C-40.9375 21.75 -40.9375 21.75 -38 21 C-38.33 17.7 -38.66 14.4 -39 11 C-36.68880208 10.57682292 -34.37760417 10.15364583 -32.06640625 9.73046875 C-31.38449219 9.48941406 -30.70257813 9.24835937 -30 9 C-29.67 8.01 -29.34 7.02 -29 6 C-27.02 6 -25.04 6 -23 6 C-23 5.34 -23 4.68 -23 4 C-20.69 4 -18.38 4 -16 4 C-16 3.01 -16 2.02 -16 1 C-14.27327966 0.63409254 -12.54346345 0.28277805 -10.8125 -0.0625 C-9.36810547 -0.35833984 -9.36810547 -0.35833984 -7.89453125 -0.66015625 C-5 -1 -5 -1 0 0 Z " fill="#F2F2F2" transform="translate(348,49)"/>
<path d="M0 0 C0 15.51 0 31.02 0 47 C10.58900253 40.58919021 10.58900253 40.58919021 13 35 C11.35 34.67 9.7 34.34 8 34 C8 33.01 8 32.02 8 31 C15.26 31 22.52 31 30 31 C30 32.32 30 33.64 30 35 C29.28714844 35.14695313 28.57429687 35.29390625 27.83984375 35.4453125 C20.97609511 37.05270451 16.98835437 39.01164563 12 44 C15.23127277 51.58646649 19.99530032 59.48253022 27.5859375 63.30078125 C29.72169984 64.01157913 31.78806556 64.59212556 34 65 C33.505 66.485 33.505 66.485 33 68 C21.10935195 69.52227358 21.10935195 69.52227358 16.20703125 65.984375 C13.92127999 63.42678398 11.92619669 60.83637755 10 58 C9.52691406 57.36320312 9.05382812 56.72640625 8.56640625 56.0703125 C6 52.50043253 6 52.50043253 6 50 C3.3202093 50.76974753 3.3202093 50.76974753 1 53 C0.53912752 56.36708009 0.71473072 59.62114388 1 63 C4.96 64.485 4.96 64.485 9 66 C9 66.66 9 67.32 9 68 C1.74 68 -5.52 68 -13 68 C-12 65 -12 65 -9 63 C-8.5276978 60.72463346 -8.5276978 60.72463346 -8.58007812 58.04711914 C-8.56416626 57.01587418 -8.54825439 55.98462921 -8.53186035 54.9221344 C-8.53165894 53.80443161 -8.53145752 52.68672882 -8.53125 51.53515625 C-8.52363647 50.39090683 -8.51602295 49.24665741 -8.50817871 48.06773376 C-8.49735755 45.64421779 -8.49453273 43.22065511 -8.49902344 40.79711914 C-8.49999523 37.08075453 -8.45840402 33.36645654 -8.4140625 29.65039062 C-8.40885555 27.29948349 -8.40616731 24.94856915 -8.40625 22.59765625 C-8.38985474 21.48197769 -8.37345947 20.36629913 -8.35656738 19.21681213 C-8.38203798 16.38548238 -8.42666009 13.7730266 -9 11 C-11.37564763 8.88412059 -11.37564763 8.88412059 -14 8 C-14 7.01 -14 6.02 -14 5 C-12.421924 4.15675328 -10.8372958 3.32576082 -9.25 2.5 C-8.36828125 2.0359375 -7.4865625 1.571875 -6.578125 1.09375 C-4 0 -4 0 0 0 Z " fill="#111111" transform="translate(586,54)"/>
<path d="M0 0 C14.19 0 28.38 0 43 0 C42.67 4.29 42.34 8.58 42 13 C41.01 13 40.02 13 39 13 C38.55140625 11.86433594 38.1028125 10.72867188 37.640625 9.55859375 C36.22749995 7.08562491 35.55336949 6.16848606 32.79492188 5.32861328 C30.08680327 5.08434553 27.47035364 5.03139906 24.75 5.0625 C21.5325 5.041875 18.315 5.02125 15 5 C15 12.92 15 20.84 15 29 C20.28 28.67 25.56 28.34 31 28 C31.33 26.02 31.66 24.04 32 22 C32.99 22 33.98 22 35 22 C35 28.27 35 34.54 35 41 C33.68 41 32.36 41 31 41 C30.71125 40.21625 30.4225 39.4325 30.125 38.625 C29.15087746 35.90328368 29.15087746 35.90328368 27 34 C23.04 33.67 19.08 33.34 15 33 C15 41.25 15 49.5 15 58 C17.97 58.66 20.94 59.32 24 60 C24 60.99 24 61.98 24 63 C16.08 63 8.16 63 0 63 C0 62.01 0 61.02 0 60 C2.475 59.505 2.475 59.505 5 59 C5.1265644 51.50710035 5.21425223 44.01447527 5.2746582 36.52075195 C5.29983408 33.97051696 5.33397705 31.42035434 5.37719727 28.87036133 C5.43771032 25.20896576 5.46617964 21.54852232 5.48828125 17.88671875 C5.51408768 16.7428923 5.5398941 15.59906586 5.56648254 14.420578 C5.5668602 13.35970474 5.56723785 12.29883148 5.56762695 11.20581055 C5.58428154 9.80349434 5.58428154 9.80349434 5.60127258 8.37284851 C5.21911808 5.73370387 5.21911808 5.73370387 2.46452332 4.36213684 C1.65123062 3.91263168 0.83793793 3.46312653 0 3 C0 2.01 0 1.02 0 0 Z " fill="#141414" transform="translate(411,59)"/>
<path d="M0 0 C0.66 0 1.32 0 2 0 C2 2.31 2 4.62 2 7 C2.928125 6.2575 2.928125 6.2575 3.875 5.5 C6 4 6 4 8 4 C8.33 3.34 8.66 2.68 9 2 C9.99 4.97 10.98 7.94 12 11 C10.35 11.33 8.7 11.66 7 12 C7.804375 12.680625 8.60875 13.36125 9.4375 14.0625 C12.42288711 17.48477302 12.73781251 19.5428126 13 24 C16.19902639 24.08886184 18.92677456 23.91058531 22 23 C23.98 25.97 23.98 25.97 26 29 C25.505 26.525 25.505 26.525 25 24 C25.66 24 26.32 24 27 24 C29.53906064 26.61373889 30.92256852 28.12889581 31.25 31.8125 C31.1675 32.534375 31.085 33.25625 31 34 C29.68 34.66 28.36 35.32 27 36 C28.03125 36.556875 29.0625 37.11375 30.125 37.6875 C33.81882783 39.81652908 36.94037649 42.01500146 40 45 C40 46.32 40 47.64 40 49 C36.95613276 49.08226668 34.92824652 48.97608217 32 48 C36.95 50.31 41.9 52.62 47 55 C47 55.66 47 56.32 47 57 C45.02 57 43.04 57 41 57 C41 57.66 41 58.32 41 59 C36.15619865 58.55965442 34.23590197 57.57065045 31 54 C30.01 53.67 29.02 53.34 28 53 C28.495 53.45375 28.99 53.9075 29.5 54.375 C31 56 31 56 31 58 C26.71293615 58.25218023 23.06102684 58.39788506 19 56.875 C16.36863807 54.40809819 16.23518573 52.52778597 16 49 C16.639375 49.165 17.27875 49.33 17.9375 49.5 C19.80826821 50.03926667 19.80826821 50.03926667 21 50 C21 49.34 21 48.68 21 48 C17.37 46.02 13.74 44.04 10 42 C10 41.01 10 40.02 10 39 C9.37400383 37.31763529 8.71247732 35.6476038 8 34 C8.99 33.34 9.98 32.68 11 32 C11 31.34 11 30.68 11 30 C11.66 30 12.32 30 13 30 C13 29.34 13 28.68 13 28 C12.13375 27.731875 11.2675 27.46375 10.375 27.1875 C0.50462633 23.71459075 0.50462633 23.71459075 -2 19 C-1.0022242 16.00667261 -0.2477975 15.05233685 2 13 C0.35 11.02 -1.3 9.04 -3 7 C-2.01 7 -1.02 7 0 7 C0 4.69 0 2.38 0 0 Z " fill="#161616" transform="translate(313,88)"/>
<path d="M0 0 C0.495 2.97 0.495 2.97 1 6 C0.34 5.67 -0.32 5.34 -1 5 C-1.33 5.99 -1.66 6.98 -2 8 C-0.71029297 7.7834375 -0.71029297 7.7834375 0.60546875 7.5625 C8.76463552 6.28123499 16.7226503 5.43233487 25 6 C26 7 26 7 26.5 9.25 C26 12 26 12 23.0390625 14.53515625 C18.86660046 17.3663944 14.78497032 18.31694493 9.875 19.1875 C8.6231189 19.43318726 8.6231189 19.43318726 7.34594727 19.68383789 C2.55975514 20.60441886 -2.22773399 21.31662636 -7.0625 21.9375 C-12.33039824 22.67083449 -16.37877733 24.33398165 -20.9765625 26.9765625 C-23 28 -23 28 -26 28 C-26 27.34 -26 26.68 -26 26 C-27.98 26.33 -29.96 26.66 -32 27 C-32.33 27.99 -32.66 28.98 -33 30 C-35.74148672 29.62952882 -37.58593199 29.31412056 -39.8125 27.625 C-41 26 -41 26 -41 23 C-41.99 23.33 -42.98 23.66 -44 24 C-44.33 26.31 -44.66 28.62 -45 31 C-46.5625 29.875 -46.5625 29.875 -48 28 C-48 25 -48 25 -47 22 C-43.43810319 18.94694559 -40.59334282 18.67953422 -36 19 C-36 19.99 -36 20.98 -36 22 C-31.545 22.99 -31.545 22.99 -27 24 C-27 23.34 -27 22.68 -27 22 C-27.66 22 -28.32 22 -29 22 C-29.66 20.02 -30.32 18.04 -31 16 C-27.23073331 14.99402985 -23.45934588 13.99625198 -19.6875 13 C-18.61564453 12.71382812 -17.54378906 12.42765625 -16.43945312 12.1328125 C-15.41142578 11.86210938 -14.38339844 11.59140625 -13.32421875 11.3125 C-12.37635498 11.06113281 -11.42849121 10.80976562 -10.4519043 10.55078125 C-8 10 -8 10 -5 10 C-6.32 8.35 -7.64 6.7 -9 5 C-9.66 5.66 -10.32 6.32 -11 7 C-11.495 6.505 -11.495 6.505 -12 6 C-13.51469448 5.76807135 -15.03754562 5.58784762 -16.5625 5.4375 C-17.38878906 5.35371094 -18.21507812 5.26992188 -19.06640625 5.18359375 C-19.70449219 5.12300781 -20.34257812 5.06242187 -21 5 C-17.77988731 3.22391866 -14.62494843 2.26448902 -11.0625 1.375 C-10.04285156 1.11460938 -9.02320313 0.85421875 -7.97265625 0.5859375 C-5.21832521 0.04303388 -2.79607237 -0.1132847 0 0 Z " fill="#F0F0F0" transform="translate(327,28)"/>
<path d="M0 0 C2.48330872 1.71715306 2.84866606 2.68238895 3.45678711 5.69165039 C3.69701865 9.33236075 3.76140585 12.93347438 3.75390625 16.58203125 C3.77453125 17.85175781 3.79515625 19.12148437 3.81640625 20.4296875 C3.86354562 23.56445542 3.88334324 26.69698094 3.87890625 29.83203125 C6.18890625 30.16203125 8.49890625 30.49203125 10.87890625 30.83203125 C10.87890625 31.82203125 10.87890625 32.81203125 10.87890625 33.83203125 C6.66820106 36.2381485 3.74215296 37.36064502 -1.12109375 36.83203125 C-1.78109375 36.46078125 -2.44109375 36.08953125 -3.12109375 35.70703125 C-5.1902328 34.53357137 -5.1902328 34.53357137 -7.68359375 35.70703125 C-12.52201529 37.29051466 -17.08553243 37.71835279 -22.12109375 36.83203125 C-25.47312219 33.70855021 -26.01297295 31.84115875 -26.49609375 27.33203125 C-24.67434144 22.69484355 -22.33841415 21.38242164 -18.04296875 19.0546875 C-13.5182475 17.16132152 -8.97703527 16.36747727 -4.12109375 15.83203125 C-4.26152252 14.18572797 -4.40858704 12.53998946 -4.55859375 10.89453125 C-4.63980469 9.97800781 -4.72101562 9.06148437 -4.8046875 8.1171875 C-4.88154351 5.87043393 -4.88154351 5.87043393 -6.12109375 4.83203125 C-8.99415603 4.33108102 -8.99415603 4.33108102 -12.12109375 4.83203125 C-13.47496311 6.48205953 -14.80787517 8.14946995 -16.12109375 9.83203125 C-19.37109375 10.64453125 -19.37109375 10.64453125 -22.12109375 10.83203125 C-22.78109375 9.51203125 -23.44109375 8.19203125 -24.12109375 6.83203125 C-17.47464264 0.52642379 -9.0549929 -3.38853927 0 0 Z " fill="#0D0D0D" transform="translate(517.12109375,85.16796875)"/>
<path d="M0 0 C0.01213028 1.13965714 0.01213028 1.13965714 0.02450562 2.30233765 C0.10236727 9.45391433 0.18963186 16.6052845 0.28752708 23.75661278 C0.33752552 27.43340641 0.38385493 31.11017082 0.421875 34.78710938 C0.45868346 38.33393703 0.50503067 41.88052221 0.55806351 45.4271431 C0.57663122 46.7819151 0.59173038 48.13673913 0.60334396 49.49158859 C0.62016509 51.38560856 0.65033616 53.27949588 0.68115234 55.17333984 C0.69447601 56.25255707 0.70779968 57.33177429 0.7215271 58.44369507 C0.74800507 61.1655864 0.74800507 61.1655864 3 63 C4.98821313 63.39764263 6.98944339 63.73775349 9 64 C9 65.32 9 66.64 9 68 C2.07 68 -4.86 68 -12 68 C-10 64 -10 64 -8 63 C-7.87329849 55.81024983 -7.78569002 48.62078712 -7.7253418 41.43017578 C-7.70018645 38.98377728 -7.66605834 36.53745401 -7.62280273 34.09130859 C-7.56219929 30.57630869 -7.53379979 27.06230171 -7.51171875 23.546875 C-7.48591232 22.4519574 -7.4601059 21.35703979 -7.43351746 20.22894287 C-7.2349351 14.19750755 -7.2349351 14.19750755 -10.53051758 9.46582031 C-11.34544678 8.98209961 -12.16037598 8.49837891 -13 8 C-13 7.01 -13 6.02 -13 5 C-11.39967863 4.15930585 -9.79458829 3.32768495 -8.1875 2.5 C-6.84751953 1.80390625 -6.84751953 1.80390625 -5.48046875 1.09375 C-3 0 -3 0 0 0 Z " fill="#0A0A0A" transform="translate(476,54)"/>
<path d="M0 0 C1.875 0.1875 1.875 0.1875 4 1 C6.52401 5.53420367 6.44783313 10.31543302 6.625 15.375 C6.65932129 16.28531982 6.69364258 17.19563965 6.72900391 18.13354492 C6.79612594 20.0772733 6.85697564 22.02122667 6.91210938 23.96533203 C6.97135308 26.01088563 7.04057721 28.0561715 7.11914062 30.10107422 C7.23277015 33.17147871 7.30875326 36.24074307 7.375 39.3125 C7.41318848 40.2597998 7.45137695 41.20709961 7.49072266 42.18310547 C7.55602322 47.6576316 7.00200193 51.85073721 3.68554688 56.33081055 C-4.44586416 64.38331015 -17.57136011 62.53599339 -28.125 62.5 C-31.69063449 62.48788717 -35.2548052 62.50177639 -38.8203125 62.53125 C-39.62260284 62.51993042 -40.42489319 62.50861084 -41.25149536 62.49694824 C-46.34035742 62.54206097 -49.84739996 63.52272373 -54.27975464 66.04382324 C-56 67 -56 67 -59 68 C-60.16953416 70.42383077 -60.16953416 70.42383077 -61 73 C-61.33 73.66 -61.66 74.32 -62 75 C-62.15720097 77.9148537 -62.25855654 80.80939636 -62.31640625 83.7265625 C-62.33718735 84.58937836 -62.35796844 85.45219421 -62.37937927 86.34115601 C-62.44486034 89.10235493 -62.50375298 91.86365038 -62.5625 94.625 C-62.6056866 96.49480172 -62.64930093 98.36459362 -62.69335938 100.234375 C-62.80054024 104.82281728 -62.90181175 109.41135683 -63 114 C-63.33 114 -63.66 114 -64 114 C-64.33 108.06 -64.66 102.12 -65 96 C-66.95292969 95.94392578 -66.95292969 95.94392578 -68.9453125 95.88671875 C-70.67190257 95.82103326 -72.39846381 95.75458682 -74.125 95.6875 C-74.9809375 95.66494141 -75.836875 95.64238281 -76.71875 95.61914062 C-81.86230675 95.40152861 -85.49776092 94.75300848 -90 92 C-89.67 91.01 -89.34 90.02 -89 89 C-87.7625 89.9590625 -87.7625 89.9590625 -86.5 90.9375 C-80.46996287 94.48531811 -72.79692996 93.8368084 -66 94 C-66.03927612 93.10861328 -66.03927612 93.10861328 -66.0793457 92.19921875 C-66.18426935 89.46642258 -66.24862029 86.73405142 -66.3125 84 C-66.35439453 83.06542969 -66.39628906 82.13085938 -66.43945312 81.16796875 C-66.55677319 74.45726111 -65.31561294 70.1922966 -61 65 C-54.58124376 58.91041074 -48.75817688 57.56987017 -40.21875 57.62890625 C-38.30598775 57.61152897 -36.39322737 57.59394453 -34.48046875 57.57617188 C-31.48515422 57.56609409 -28.48995971 57.56250571 -25.49462891 57.56420898 C-22.58980985 57.56063338 -19.68590577 57.53327744 -16.78125 57.50390625 C-15.89046753 57.51208878 -14.99968506 57.5202713 -14.08190918 57.52870178 C-8.58861252 57.46315662 -5.22298154 56.85061834 -1 53 C2.93996643 47.6389208 3.58858282 43.57637549 3.49609375 37.03125 C3.4982766 35.77254089 3.4982766 35.77254089 3.50050354 34.48840332 C3.49885191 32.72351592 3.48737354 30.95861301 3.46655273 29.19384766 C3.43758099 26.50750939 3.44596255 23.82314651 3.45898438 21.13671875 C3.45274617 19.414053 3.44435459 17.69139343 3.43359375 15.96875 C3.43652939 15.17376099 3.43946503 14.37877197 3.44248962 13.55969238 C3.35498343 8.33252632 2.3453587 4.68060976 0 0 Z " fill="#C5D1DB" transform="translate(125,39)"/>
<path d="M0 0 C1.12125035 2.94867279 1.62711338 5.87546728 2 9 C-0.93106007 8.4162459 -1.93011719 8.06588951 -4.1875 5.9375 C-8.10784347 3.23681894 -11.38016819 3.63766025 -16 4 C-16.33 5.65 -16.66 7.3 -17 9 C-14.52671365 11.16412555 -12.26778913 12.30766782 -9.1875 13.3125 C-4.26050265 15.04709832 0.61132251 18.22264501 3 23 C3.56460345 27.1404253 3.19641772 28.69959643 0.875 32.25 C-4.3599888 37.25738059 -9.41276202 37.32238977 -16.3671875 37.19921875 C-19.77933366 36.94102965 -23.48147212 36.51852788 -26 34 C-26.14115161 31.32941149 -26.04247107 28.67567762 -26 26 C-23.18915283 26.4015496 -22.20467802 26.74808859 -20.375 29 C-16.75076167 32.05199017 -12.6404336 32.0404219 -8 32 C-7.01 31.505 -7.01 31.505 -6 31 C-6 29.02 -6 27.04 -6 25 C-7.04800781 24.46890625 -8.09601562 23.9378125 -9.17578125 23.390625 C-10.55494777 22.67758653 -11.93383976 21.96401687 -13.3125 21.25 C-14.00279297 20.90195313 -14.69308594 20.55390625 -15.40429688 20.1953125 C-22.06887136 16.7181432 -22.06887136 16.7181432 -24 13 C-24.8220712 8.7933654 -24.77370447 5.16055671 -22.375 1.5625 C-16.03350181 -2.60953828 -6.75719618 -4.02214059 0 0 Z " fill="#121212" transform="translate(561,86)"/>
<path d="M0 0 C0.98477584 4.93275107 0.45232128 9.0792031 -1.75 13.5625 C-5.16458632 17.26163518 -8.59692242 17.21524511 -13.5 17.4375 C-18.58889695 17.38307329 -18.58889695 17.38307329 -21.75 14.4375 C-23.32357321 10.11017366 -23.70045598 8.32843339 -22 4 C-15.1637144 -1.58421864 -7.86911588 -5.24607725 0 0 Z " fill="#111111" transform="translate(514,105)"/>
<path d="M0 0 C3.465 1.98 3.465 1.98 7 4 C7 4.66 7 5.32 7 6 C7.66 6.33 8.32 6.66 9 7 C9.33 7.99 9.66 8.98 10 10 C10.66 10 11.32 10 12 10 C12.99 11.485 12.99 11.485 14 13 C14.33 12.34 14.66 11.68 15 11 C19.92307692 15.30769231 19.92307692 15.30769231 20.3125 18.8125 C20.209375 19.534375 20.10625 20.25625 20 21 C17.69 21.33 15.38 21.66 13 22 C12.01 20.35 11.02 18.7 10 17 C9.38125 17.495 8.7625 17.99 8.125 18.5 C6 20 6 20 4 20 C4 17.69 4 15.38 4 13 C3.34 13 2.68 13 2 13 C2 15.31 2 17.62 2 20 C1.34 20.33 0.68 20.66 0 21 C1.65 22.98 3.3 24.96 5 27 C4.34 27.66 3.68 28.32 3 29 C2.01 29 1.02 29 0 29 C-0.99 26.03 -1.98 23.06 -3 20 C-3.99 20 -4.98 20 -6 20 C-6.185625 18.88625 -6.185625 18.88625 -6.375 17.75 C-6.95486701 15.19858515 -7.73708739 13.2732427 -9 11 C-8.34 10.01 -7.68 9.02 -7 8 C-5.68 8 -4.36 8 -3 8 C-1.93453047 11.1964086 -1.92572162 13.65747276 -2 17 C-1.34 17.33 -0.68 17.66 0 18 C-0.28211877 16.3733152 -0.57602375 14.74867104 -0.875 13.125 C-1.03742188 12.22007813 -1.19984375 11.31515625 -1.3671875 10.3828125 C-1.83044703 7.83494012 -1.83044703 7.83494012 -4 6 C-3.34 5.34 -2.68 4.68 -2 4 C-1.30251417 2.68252676 -0.63040043 1.35085807 0 0 Z " fill="#DFDFDF" transform="translate(311,75)"/>
<path d="M0 0 C-0.99 1.32 -1.98 2.64 -3 4 C-2.34 4.33 -1.68 4.66 -1 5 C2.75 12.5 2.75 12.5 2 17 C0.875 18.8125 0.875 18.8125 -1 20 C-4 20.4375 -4 20.4375 -7 20 C-8.9375 18.3125 -8.9375 18.3125 -10 16 C-9.75925978 12.62963689 -9.41201979 11.41201979 -7 9 C-7.99 8.67 -8.98 8.34 -10 8 C-10 8.99 -10 9.98 -10 11 C-11.65 11 -13.3 11 -15 11 C-14.47731534 13.76276177 -13.89130413 16.3260876 -13 19 C-13.99 19 -14.98 19 -16 19 C-16 19.66 -16 20.32 -16 21 C-15.01 21.33 -14.02 21.66 -13 22 C-13.99 22.33 -14.98 22.66 -16 23 C-16 24.98 -16 26.96 -16 29 C-16.66 29 -17.32 29 -18 29 C-18.0875127 25.77100574 -18.14056146 22.54231884 -18.1875 19.3125 C-18.21263672 18.40048828 -18.23777344 17.48847656 -18.26367188 16.54882812 C-18.35763857 7.93521402 -18.35763857 7.93521402 -15 4 C-10.41576484 0.383666 -5.67422877 -1.82385925 0 0 Z " fill="#508DBD" transform="translate(81,33)"/>
<path d="M0 0 C0 0.33 0 0.66 0 1 C2.475 1.495 2.475 1.495 5 2 C5 2.66 5 3.32 5 4 C3.68 4 2.36 4 1 4 C1.99 5.65 2.98 7.3 4 9 C2.73308493 9.67408308 1.46129251 10.33900497 0.1875 11 C-0.52019531 11.37125 -1.22789062 11.7425 -1.95703125 12.125 C-4 13 -4 13 -7 13 C-7 12.34 -7 11.68 -7 11 C-8.98 11.33 -10.96 11.66 -13 12 C-13.33 12.99 -13.66 13.98 -14 15 C-16.74148672 14.62952882 -18.58593199 14.31412056 -20.8125 12.625 C-22 11 -22 11 -22 8 C-22.99 8.33 -23.98 8.66 -25 9 C-25.33 11.31 -25.66 13.62 -26 16 C-27.5625 14.875 -27.5625 14.875 -29 13 C-29 10 -29 10 -28 7 C-24.43810319 3.94694559 -21.59334282 3.67953422 -17 4 C-17 4.99 -17 5.98 -17 7 C-12.545 7.99 -12.545 7.99 -8 9 C-8 8.34 -8 7.68 -8 7 C-8.66 7 -9.32 7 -10 7 C-10.66 5.02 -11.32 3.04 -12 1 C-3.96428571 -1.27678571 -3.96428571 -1.27678571 0 0 Z " fill="#E4E4E4" transform="translate(308,43)"/>
<path d="M0 0 C0.99 0.33 1.98 0.66 3 1 C1.7934375 1.8971875 1.7934375 1.8971875 0.5625 2.8125 C-2.2579502 5.22020139 -2.86152782 6.532129 -3.20532227 10.17651367 C-3.24197998 10.99869385 -3.2786377 11.82087402 -3.31640625 12.66796875 C-3.35451416 13.47258545 -3.39262207 14.27720215 -3.43188477 15.10620117 C-3.49653931 16.63144409 -3.49653931 16.63144409 -3.5625 18.1875 C-3.706875 21.425625 -3.85125 24.66375 -4 28 C6.89 28 17.78 28 29 28 C29 29.32 29 30.64 29 32 C28.04612648 32.00546844 28.04612648 32.00546844 27.07298279 32.01104736 C20.4375287 32.05294856 13.80276138 32.12234801 7.16772461 32.20751953 C4.69351072 32.23569632 2.21920737 32.25692715 -0.25512695 32.27099609 C-3.81768487 32.29247022 -7.37917083 32.33914675 -10.94140625 32.390625 C-12.59336754 32.39246796 -12.59336754 32.39246796 -14.27870178 32.39434814 C-20.75815312 32.51713498 -24.67943538 33.24877801 -30 37 C-30.99 37.495 -30.99 37.495 -32 38 C-30.78310844 34.21411514 -28.47326852 32.70377168 -25.07006836 30.82910156 C-21.44056914 29.37541842 -17.91512932 29.57833186 -14.0625 29.75 C-13.28326172 29.76804687 -12.50402344 29.78609375 -11.70117188 29.8046875 C-9.80023869 29.85133617 -7.89994831 29.92306171 -6 30 C-6.02094727 29.3702124 -6.04189453 28.7404248 -6.06347656 28.09155273 C-6.14720099 25.20703429 -6.19883621 22.32277232 -6.25 19.4375 C-6.28351562 18.44685547 -6.31703125 17.45621094 -6.3515625 16.43554688 C-6.43652862 10.04184656 -5.84021609 6.18429173 -2 1 C-1.34 0.67 -0.68 0.34 0 0 Z " fill="#EAEBEC" transform="translate(67,34)"/>
<path d="M0 0 C2.42351283 0.938134 4.81121194 1.91055611 7.16015625 3.0234375 C12.80821471 5.75964201 12.80821471 5.75964201 19 6 C19.33 6.66 19.66 7.32 20 8 C21.010625 7.95875 22.02125 7.9175 23.0625 7.875 C28.38520964 8.04397491 33.42083876 9.18205462 38 12 C38.495 12.99 38.495 12.99 39 14 C42.05670818 14.44098201 42.05670818 14.44098201 45.8125 14.5625 C46.50939941 14.59931885 47.20629883 14.6361377 47.92431641 14.67407227 C52.09525713 14.88933778 56.26808313 15.04982816 60.44140625 15.2109375 C61.34463623 15.24888428 62.24786621 15.28683105 63.1784668 15.32592773 C64.95952713 15.39962122 66.74098084 15.46440969 68.52270508 15.51977539 C69.33763428 15.55321045 70.15256348 15.58664551 70.9921875 15.62109375 C71.71776855 15.6461499 72.44334961 15.67120605 73.19091797 15.69702148 C75 16 75 16 77 18 C73.12634335 18.05038777 69.2528201 18.08617252 65.37890625 18.10986328 C63.4322232 18.12456776 61.48563053 18.15001202 59.5390625 18.17578125 C51.87493686 18.21488393 44.58440876 17.70006922 37.02246094 16.43310547 C34.24038756 16.03444649 31.67851429 15.92777965 28.875 16 C25.08995494 16 24.10993603 15.75164381 21 14 C15.26314922 11.02913085 9.52630132 8.62709447 3.44140625 6.44140625 C1 5 1 5 0.15234375 2.33984375 C0.07693359 1.18162109 0.07693359 1.18162109 0 0 Z " fill="#C7C7C7" transform="translate(347,166)"/>
<path d="M0 0 C2.45372684 2.78832595 3.54553505 5.34565417 4.4609375 8.9296875 C5.32399789 12.24433974 6.38911844 15.49798155 7.4140625 18.765625 C8 21 8 21 8 24 C8.59528681 27.47734614 10.05455623 30.06012632 11.875 33.0625 C12.38804687 33.91972656 12.90109375 34.77695313 13.4296875 35.66015625 C14.82064768 37.73275612 16.21798993 39.27755573 18 41 C18.7734375 42.299375 18.7734375 42.299375 19.5625 43.625 C20.77912906 46.11190375 20.77912906 46.11190375 23 47 C23.4125 48.2375 23.825 49.475 24.25 50.75 C25.86137858 55.36928526 28.12340006 57.11317026 32 60 C32.66 60.99 33.32 61.98 34 63 C34.99 63.33 35.98 63.66 37 64 C37.37125 64.721875 37.7425 65.44375 38.125 66.1875 C40.53925351 69.80888027 43.45265085 71.44107603 47.13671875 73.66796875 C47.75160156 74.10753906 48.36648438 74.54710937 49 75 C49 75.66 49 76.32 49 77 C43.61319564 76.62380415 40.79521907 74.60153364 37.0625 70.9375 C36.53744873 70.43508789 36.01239746 69.93267578 35.47143555 69.41503906 C33.96496043 67.9585859 32.47980033 66.48348404 31 65 C30.33484375 64.34644531 29.6696875 63.69289062 28.984375 63.01953125 C24.62097333 58.40125799 21.52561617 53.10446509 18.34619141 47.64306641 C16.12381024 43.82796286 13.79360272 40.19653264 11.1875 36.625 C6.60516959 30.20761597 4.06039677 23.98514328 2.5703125 16.27734375 C1.73314124 12.93439276 0.30000072 9.9419723 -1.1953125 6.84765625 C-2 5 -2 5 -2 3 C-1.34 3 -0.68 3 0 3 C0 2.01 0 1.02 0 0 Z " fill="#DFDFDF" transform="translate(290,84)"/>
<path d="M0 0 C0.33 0.99 0.66 1.98 1 3 C0.34 3 -0.32 3 -1 3 C-0.59007812 3.83402344 -0.18015625 4.66804688 0.2421875 5.52734375 C5.18153176 15.84324695 5.18153176 15.84324695 6 20.5625 C7.75205021 29.95829866 13.39617691 37.87667355 19.06640625 45.34765625 C20.88919211 47.84800291 22.42061191 50.36907822 23.9375 53.0625 C26.76050362 57.93647034 30.28673484 61.88478462 34.14453125 65.96875 C36 68 36 68 37 70 C36.01 70.33 35.02 70.66 34 71 C17.2182651 53.07275419 -0.50587283 27.7327175 -4 3 C-3.34 3 -2.68 3 -2 3 C-2 2.34 -2 1.68 -2 1 C-1.34 0.67 -0.68 0.34 0 0 Z " fill="#171717" transform="translate(289,84)"/>
<path d="M0 0 C0.33 0 0.66 0 1 0 C1.01401855 0.97718994 1.01401855 0.97718994 1.02832031 1.97412109 C1.25498172 14.71382549 1.89557407 27.26724148 3.8125 39.875 C3.96557617 40.91188965 4.11865234 41.9487793 4.27636719 43.01708984 C5.32757329 49.49189497 7.0224029 55.45303362 9.29956055 61.60595703 C10 64 10 64 9 66 C3.27294827 60.7848635 2.49356383 53.35239919 2 46 C1.34 46 0.68 46 0 46 C-0.33 46.66 -0.66 47.32 -1 48 C-1 47.01 -1 46.02 -1 45 C-0.01 44.505 -0.01 44.505 1 44 C1.33 43.01 1.66 42.02 2 41 C1.34 41 0.68 41 0 41 C-0.01981934 40.37432129 -0.03963867 39.74864258 -0.06005859 39.10400391 C-0.15514226 36.27723481 -0.26488746 33.45122185 -0.375 30.625 C-0.4059375 29.64015625 -0.436875 28.6553125 -0.46875 27.640625 C-0.50742187 26.69960937 -0.54609375 25.75859375 -0.5859375 24.7890625 C-0.6173584 23.91975098 -0.6487793 23.05043945 -0.68115234 22.15478516 C-0.81229433 19.79038206 -0.81229433 19.79038206 -3 18 C-3.66 19.32 -4.32 20.64 -5 22 C-5.66 21.67 -6.32 21.34 -7 21 C-7.125 13.25 -7.125 13.25 -6 11 C-5.34 11 -4.68 11 -4 11 C-3.34 11.66 -2.68 12.32 -2 13 C-1.34 8.71 -0.68 4.42 0 0 Z " fill="#303030" transform="translate(349,45)"/>
<path d="M0 0 C2.24090815 2.82719226 3.8930562 5.65131397 5.5 8.875 C11.53806963 20.12297509 20.56377989 31.16458662 30 39.75 C30.66 40.4925 31.32 41.235 32 42 C31.8125 44.3125 31.8125 44.3125 31 46 C27.16023623 44.4356518 24.72935704 42.08848297 22 39 C21.690625 38.21625 21.38125 37.4325 21.0625 36.625 C19.7756955 33.44583593 17.92595362 31.50014365 15.6484375 28.97265625 C13.28685037 26.14658635 11.40594831 23.05891516 9.4921875 19.91796875 C7.8151505 17.76240548 6.45656346 17.11267874 4 16 C2.29503463 14.37253306 0.62102968 12.71108689 -1 11 C-0.67 10.01 -0.34 9.02 0 8 C0.66 8 1.32 8 2 8 C1.34 7.01 0.68 6.02 0 5 C-0.125 2.3125 -0.125 2.3125 0 0 Z " fill="#1F1F1F" transform="translate(356,107)"/>
<path d="M0 0 C0 0.66 0 1.32 0 2 C-5.1868616 5.13058152 -9.48724111 5.52316861 -15.375 5.6875 C-16.62216797 5.73874023 -16.62216797 5.73874023 -17.89453125 5.79101562 C-19.92923351 5.87287146 -21.96459208 5.93812701 -24 6 C-24.03867188 7.80984375 -24.03867188 7.80984375 -24.078125 9.65625 C-24.13444886 11.27086738 -24.1917952 12.88544933 -24.25 14.5 C-24.26417969 15.29148438 -24.27835938 16.08296875 -24.29296875 16.8984375 C-24.537982 22.87676092 -26.02335168 26.80872533 -29 32 C-29.66 31.67 -30.32 31.34 -31 31 C-30.360625 30.01 -29.72125 29.02 -29.0625 28 C-26.03736416 21.42971281 -26.03736416 21.42971281 -26 7 C-36.89 7 -47.78 7 -59 7 C-59 6.01 -59 5.02 -59 4 C-58.37439178 3.99413376 -57.74878357 3.98826752 -57.10421753 3.98222351 C-50.58252917 3.91820272 -44.0613303 3.83376028 -37.54003906 3.73754883 C-35.1074876 3.70433053 -32.67485963 3.67628901 -30.2421875 3.65356445 C-26.74185642 3.61996242 -23.24222445 3.56764166 -19.7421875 3.51171875 C-18.65759247 3.50532883 -17.57299744 3.4989389 -16.45553589 3.49235535 C-10.5305224 3.37744249 -5.25201417 0 0 0 Z " fill="#F1EFE9" transform="translate(156,129)"/>
<path d="M0 0 C0 0.99 0 1.98 0 3 C-1.63631892 4.04892238 -3.30485863 5.04906703 -5 6 C-6.14114227 8.28228453 -6.14970062 9.61691282 -6.19287109 12.1550293 C-6.20893402 13.01319748 -6.22499695 13.87136566 -6.24154663 14.75553894 C-6.28608511 18.69207958 -6.32708491 22.62845154 -6.35009766 26.56518555 C-6.36662874 28.63789114 -6.39388094 30.71054039 -6.43212891 32.78295898 C-6.48707667 35.77617886 -6.50880165 38.76806146 -6.5234375 41.76171875 C-6.54610687 42.68176193 -6.56877625 43.60180511 -6.59213257 44.54972839 C-6.57115699 50.98163472 -5.20964099 54.12013218 -1 59 C-7.51725996 55.85373657 -7.51725996 55.85373657 -9.16650391 52.93701172 C-10.30394528 48.92898017 -10.32477598 45.15611031 -10.3359375 41.0078125 C-10.3425943 40.14364716 -10.3492511 39.27948181 -10.35610962 38.38912964 C-10.36621075 36.56526815 -10.37092743 34.7413699 -10.37060547 32.91748047 C-10.37497486 30.14097592 -10.41130969 27.36606699 -10.44921875 24.58984375 C-10.45508839 22.8125054 -10.4590568 21.03515955 -10.4609375 19.2578125 C-10.47530853 18.4346756 -10.48967957 17.6115387 -10.50448608 16.76345825 C-10.45950429 11.03104078 -9.2704537 7.72921722 -6 3 C-2.70967742 0 -2.70967742 0 0 0 Z " fill="#F1E094" transform="translate(72,104)"/>
<path d="M0 0 C0.28528436 3.3790348 0.42342418 6.62889211 0 10 C-2.82704371 12.9127117 -4.66390479 12.97151736 -8.6875 13.3125 C-12 13 -12 13 -14 11 C-14.5517909 5.81316554 -14.5517909 5.81316554 -12.8125 3.25 C-8.59201061 0.33931766 -5.08697808 -0.23660363 0 0 Z " fill="#EAEAEA" transform="translate(514,105)"/>
<path d="M0 0 C4.50600377 3.96038197 4.76153921 9.09515927 5.23388672 14.84912109 C6.39670216 40.32760745 6.39670216 40.32760745 0 51 C-1.32 51.99 -2.64 52.98 -4 54 C-3.01 50.04 -2.02 46.08 -1 42 C-0.01 42 0.98 42 2 42 C2.05871491 37.70839209 2.09383483 33.41688942 2.125 29.125 C2.14175781 27.92101562 2.15851563 26.71703125 2.17578125 25.4765625 C2.21012365 19.15756116 1.95997818 13.32536193 0.43310547 7.17919922 C-0.0511993 4.7423873 -0.06912728 2.47824037 0 0 Z " fill="#F3D874" transform="translate(160,75)"/>
<path d="M0 0 C13.53 0 27.06 0 41 0 C40.67 0.99 40.34 1.98 40 3 C34.78556667 3.02470935 29.57116739 3.04286444 24.35668945 3.05493164 C22.58259487 3.059962 20.80850444 3.06678699 19.03442383 3.07543945 C16.48517839 3.08756174 13.93598774 3.09324126 11.38671875 3.09765625 C10.19594978 3.10539818 10.19594978 3.10539818 8.98112488 3.11329651 C5.72343714 3.11362877 3.11318479 3.03772826 0 2 C0 1.34 0 0.68 0 0 Z " fill="#F1F1F1" transform="translate(77,98)"/>
<path d="M0 0 C1.875 0.1875 1.875 0.1875 4 1 C6.58566446 5.59878893 6.44648815 10.54794332 6.625 15.6875 C6.68192017 17.0636145 6.68192017 17.0636145 6.73999023 18.4675293 C7.07562617 27.31203098 7.09724324 36.15086517 7 45 C6.01 45 5.02 45 4 45 C3.98541748 43.8855249 3.97083496 42.7710498 3.95581055 41.62280273 C3.8975792 37.4646084 3.82034886 33.30694159 3.73754883 29.14916992 C3.70441587 27.35401 3.67634813 25.55874883 3.65356445 23.76342773 C3.61980336 21.17387988 3.56747875 18.58525029 3.51171875 15.99609375 C3.50213387 14.80348183 3.50213387 14.80348183 3.49235535 13.58677673 C3.35639933 8.36493824 2.3385392 4.6798008 0 0 Z " fill="#DAE5EA" transform="translate(125,39)"/>
<path d="M0 0 C0 0.99 0 1.98 0 3 C1.4540625 3.4021875 1.4540625 3.4021875 2.9375 3.8125 C3.948125 4.204375 4.95875 4.59625 6 5 C6.33 5.99 6.66 6.98 7 8 C6.01 8 5.02 8 4 8 C3.67 8.99 3.34 9.98 3 11 C0.25851328 10.62952882 -1.58593199 10.31412056 -3.8125 8.625 C-5 7 -5 7 -5 4 C-5.99 4.33 -6.98 4.66 -8 5 C-8.33 7.31 -8.66 9.62 -9 12 C-10.5625 10.875 -10.5625 10.875 -12 9 C-12 6 -12 6 -11 3 C-7.43810319 -0.05305441 -4.59334282 -0.32046578 0 0 Z " fill="#E4E4E4" transform="translate(291,47)"/>
<path d="M0 0 C2.9375 0.8125 2.9375 0.8125 4.9375 2.8125 C4.2775 2.8125 3.6175 2.8125 2.9375 2.8125 C2.6075 4.4625 2.2775 6.1125 1.9375 7.8125 C2.9275 8.1425 3.9175 8.4725 4.9375 8.8125 C6.52715571 11.02951147 7.66077486 13.39112473 8.9375 15.8125 C8.2775 16.1425 7.6175 16.4725 6.9375 16.8125 C4.3359375 15.59765625 4.3359375 15.59765625 1.3125 13.875 C0.30960937 13.30910156 -0.69328125 12.74320313 -1.7265625 12.16015625 C-2.49742187 11.71542969 -3.26828125 11.27070313 -4.0625 10.8125 C-4.0625 9.8225 -4.0625 8.8325 -4.0625 7.8125 C-4.68849617 6.13013529 -5.35002268 4.4601038 -6.0625 2.8125 C-4.08959835 0.07235882 -3.46862789 -0.21236497 0 0 Z " fill="#E8E8E8" transform="translate(327.0625,119.1875)"/>
<path d="M0 0 C3.0625 0.3125 3.0625 0.3125 4.9375 1.5 C6.46909584 3.96757108 6.49072025 5.45769831 6.0625 8.3125 C4.9375 10.125 4.9375 10.125 3.0625 11.3125 C0.0625 11.75 0.0625 11.75 -2.9375 11.3125 C-4.875 9.625 -4.875 9.625 -5.9375 7.3125 C-5.61764525 2.8345335 -4.76027546 0.50641228 0 0 Z " fill="#F4F9FB" transform="translate(76.9375,41.6875)"/>
<path d="M0 0 C1.4540625 0.0309375 1.4540625 0.0309375 2.9375 0.0625 C2.40634894 4.57728398 0.57129708 7.40916857 -2.0625 11.0625 C-0.7425 11.7225 0.5775 12.3825 1.9375 13.0625 C-4.9925 12.5675 -4.9925 12.5675 -12.0625 12.0625 C-10.9178125 10.7321875 -10.9178125 10.7321875 -9.75 9.375 C-7.55107252 6.74625383 -5.76553273 4.04280728 -4.0625 1.0625 C-3.0625 0.0625 -3.0625 0.0625 0 0 Z " fill="#0A0A0A" transform="translate(446.0625,156.9375)"/>
<path d="M0 0 C3.5 0.25 3.5 0.25 5.5 2.25 C5.82954432 5.34771665 5.95334601 7.42331023 4.4375 10.1875 C1.31857551 11.89787795 -1.15557801 11.05513863 -4.5 10.25 C-5.88125018 7.48749964 -5.69079306 5.30268901 -5.5 2.25 C-3.5 0.25 -3.5 0.25 0 0 Z " fill="#FDFCF2" transform="translate(114.5,145.75)"/>
<path d="M0 0 C0.66 0 1.32 0 2 0 C2 2.31 2 4.62 2 7 C2.928125 6.2575 2.928125 6.2575 3.875 5.5 C6 4 6 4 8 4 C8.33 3.34 8.66 2.68 9 2 C9.99 4.97 10.98 7.94 12 11 C10.35 11.33 8.7 11.66 7 12 C7.33 12.66 7.66 13.32 8 14 C6.02 14.99 6.02 14.99 4 16 C1.69 13.36 -0.62 10.72 -3 8 C-2.01 7.67 -1.02 7.34 0 7 C0 4.69 0 2.38 0 0 Z " fill="#171717" transform="translate(313,88)"/>
<path d="M0 0 C0.33 0 0.66 0 1 0 C1 13.53 1 27.06 1 41 C0.67 41 0.34 41 0 41 C-0.33 35.06 -0.66 29.12 -1 23 C-2.95292969 22.94392578 -2.95292969 22.94392578 -4.9453125 22.88671875 C-6.67190257 22.82103326 -8.39846381 22.75458682 -10.125 22.6875 C-10.9809375 22.66494141 -11.836875 22.64238281 -12.71875 22.61914062 C-17.86230675 22.40152861 -21.49776092 21.75300848 -26 19 C-25.505 17.515 -25.505 17.515 -25 16 C-24.02933594 16.64453125 -23.05867188 17.2890625 -22.05859375 17.953125 C-17.76537628 20.40639213 -13.92880459 20.65826161 -9.0625 20.75 C-7.89364258 20.79447266 -7.89364258 20.79447266 -6.70117188 20.83984375 C-4.80131823 20.90977701 -2.9006594 20.95724051 -1 21 C-1.00785522 20.15236084 -1.00785522 20.15236084 -1.01586914 19.28759766 C-1.03662422 16.7334097 -1.0496554 14.17923947 -1.0625 11.625 C-1.07087891 10.73554687 -1.07925781 9.84609375 -1.08789062 8.9296875 C-1.09111328 8.07890625 -1.09433594 7.228125 -1.09765625 6.3515625 C-1.10551147 5.17327881 -1.10551147 5.17327881 -1.11352539 3.97119141 C-1 2 -1 2 0 0 Z " fill="#ECECE6" transform="translate(61,112)"/>
<path d="M0 0 C2.45372684 2.78832595 3.54553505 5.34565417 4.4609375 8.9296875 C5.32399789 12.24433974 6.38911844 15.49798155 7.4140625 18.765625 C8 21 8 21 8 24 C8.59429998 27.30622056 9.89737838 29.84671103 11.5625 32.75 C12.01753906 33.54921875 12.47257812 34.3484375 12.94140625 35.171875 C13.29074219 35.77515625 13.64007813 36.3784375 14 37 C13.01 37 12.02 37 11 37 C3.64317002 23.17152012 3.64317002 23.17152012 2.46484375 16.1015625 C1.73475911 12.80084372 0.26984328 9.8795662 -1.1953125 6.84765625 C-2 5 -2 5 -2 3 C-1.34 3 -0.68 3 0 3 C0 2.01 0 1.02 0 0 Z " fill="#D2D2D2" transform="translate(290,84)"/>
<path d="M0 0 C1.46373047 0.68255859 1.46373047 0.68255859 2.95703125 1.37890625 C3.69308594 1.72824219 4.42914063 2.07757813 5.1875 2.4375 C5.1875 3.0975 5.1875 3.7575 5.1875 4.4375 C3.2075 4.4375 1.2275 4.4375 -0.8125 4.4375 C-0.8125 5.0975 -0.8125 5.7575 -0.8125 6.4375 C-5.63569458 5.99902777 -7.67108157 5.10248817 -10.8125 1.4375 C-11.555 0.695 -12.2975 -0.0475 -13.0625 -0.8125 C-13.64 -1.39 -14.2175 -1.9675 -14.8125 -2.5625 C-9.32025425 -4.39324858 -5.03762805 -2.36707824 0 0 Z " fill="#575757" transform="translate(354.8125,140.5625)"/>
<path d="M0 0 C1.32 0 2.64 0 4 0 C5.06546953 3.1964086 5.07427838 5.65747276 5 9 C5.66 9.33 6.32 9.66 7 10 C7.66 8.68 8.32 7.36 9 6 C9 7.98 9 9.96 9 12 C8.01 12.495 8.01 12.495 7 13 C8.65 14.98 10.3 16.96 12 19 C11.34 19.66 10.68 20.32 10 21 C9.01 21 8.02 21 7 21 C6.01 18.03 5.02 15.06 4 12 C3.01 12 2.02 12 1 12 C0.814375 10.88625 0.814375 10.88625 0.625 9.75 C0.04513299 7.19858515 -0.73708739 5.2732427 -2 3 C-1.34 2.01 -0.68 1.02 0 0 Z " fill="#C8C8C8" transform="translate(304,83)"/>
<path d="M0 0 C0 0.66 0 1.32 0 2 C-9.6455883 6.9950368 -16.76590062 9.4736028 -27.6875 9.25 C-29.21600586 9.24226562 -29.21600586 9.24226562 -30.77539062 9.234375 C-35.33327016 9.18667973 -39.53893706 9.00059351 -44 8 C-44 7.34 -44 6.68 -44 6 C-43.26475098 6.01571045 -42.52950195 6.0314209 -41.77197266 6.04760742 C-38.389729 6.11057614 -35.00760928 6.14918566 -31.625 6.1875 C-30.46871094 6.21263672 -29.31242187 6.23777344 -28.12109375 6.26367188 C-18.0052458 6.3493994 -8.97491817 0 0 0 Z " fill="#F0ECE2" transform="translate(124,161)"/>
<path d="M0 0 C0.66 0.33 1.32 0.66 2 1 C2 1.66 2 2.32 2 3 C1.01 3.33 0.02 3.66 -1 4 C-2.05008653 5.97416268 -3.04987876 7.97582866 -4 10 C-4.66 10.66 -5.32 11.32 -6 12 C-6.42455791 14.06778033 -6.42455791 14.06778033 -6.5625 16.375 C-6.74578511 18.61182645 -6.92093559 20.70126897 -7.49560547 22.87255859 C-8.01481235 25.06247573 -8.20411067 27.0822133 -8.31640625 29.328125 C-8.35830078 30.12734375 -8.40019531 30.9265625 -8.44335938 31.75 C-8.48267578 32.575 -8.52199219 33.4 -8.5625 34.25 C-8.60568359 35.09046875 -8.64886719 35.9309375 -8.69335938 36.796875 C-8.79908543 38.86440671 -8.90001295 40.93218281 -9 43 C-9.33 43 -9.66 43 -10 43 C-12.19633023 30.64564247 -12.31361592 15.73490065 -5 5 C-3.42227485 3.16156813 -1.81720871 1.61529664 0 0 Z " fill="#6693B7" transform="translate(38,69)"/>
<path d="M0 0 C6.90245583 0.27792125 13.80435083 0.56729395 20.70605469 0.86328125 C23.79594665 0.99153055 26.88604768 1.10670717 29.9765625 1.21875 C31.77605566 1.29132045 33.57553562 1.3642194 35.375 1.4375 C36.63908691 1.47798462 36.63908691 1.47798462 37.92871094 1.51928711 C43.77304462 1.77304462 43.77304462 1.77304462 46 4 C14.88598505 4.61916858 14.88598505 4.61916858 0 1 C0 0.67 0 0.34 0 0 Z " fill="#C6C6C6" transform="translate(378,180)"/>
<path d="M0 0 C1.65 0 3.3 0 5 0 C4.835 0.78375 4.67 1.5675 4.5 2.375 C4.08183922 5.40666566 4.02422625 7.96762624 4.125 11 C4.19131357 15.38995807 3.38523099 18.22338427 1 22 C1.99 22.33 2.98 22.66 4 23 C3.360625 23.268125 2.72125 23.53625 2.0625 23.8125 C-0.33131686 24.88667752 -0.33131686 24.88667752 -1 28 C-1.66 28 -2.32 28 -3 28 C-3 28.66 -3 29.32 -3 30 C-3.66 29.67 -4.32 29.34 -5 29 C-4.03320312 27.88238281 -4.03320312 27.88238281 -3.046875 26.7421875 C0.11037329 22.00631507 -0.32462956 16.63401861 -0.25 11.125 C-0.22035156 10.05507812 -0.19070312 8.98515625 -0.16015625 7.8828125 C-0.089772 5.25513392 -0.03692006 2.62832636 0 0 Z " fill="#F5E489" transform="translate(132,66)"/>
<path d="M0 0 C0.66 0.33 1.32 0.66 2 1 C2.309375 2.11375 2.61875 3.2275 2.9375 4.375 C3.91204934 7.69993306 4.3498113 8.95212691 7 11 C6.67 11.99 6.34 12.98 6 14 C4.05652964 13.0960603 2.12040093 12.176325 0.1875 11.25 C-0.89144531 10.73953125 -1.97039062 10.2290625 -3.08203125 9.703125 C-5.94522546 8.03197015 -7.35473929 6.84023955 -9 4 C-9 3.34 -9 2.68 -9 2 C-5.44219804 2.60990891 -2.3171411 3.5783681 1 5 C0.67 3.35 0.34 1.7 0 0 Z " fill="#EBEBEB" transform="translate(320,103)"/>
<path d="M0 0 C0.66 0.33 1.32 0.66 2 1 C1.01 1.33 0.02 1.66 -1 2 C-1.60815184 3.84697374 -1.60815184 3.84697374 -2 6 C-2.65140796 7.43362072 -3.3396927 8.85101812 -4.0625 10.25 C-4.42472656 10.95640625 -4.78695312 11.6628125 -5.16015625 12.390625 C-5.57587891 13.18726562 -5.57587891 13.18726562 -6 14 C-6.66 14 -7.32 14 -8 14 C-8.33 20.27 -8.66 26.54 -9 33 C-9.33 33 -9.66 33 -10 33 C-10.14685185 29.66714074 -10.23457648 26.33512655 -10.3125 23 C-10.35439453 22.06542969 -10.39628906 21.13085938 -10.43945312 20.16796875 C-10.55636141 13.48081459 -9.34987479 9.15100281 -5 4 C-2.1875 1.5 -2.1875 1.5 0 0 Z " fill="#D2DBE1" transform="translate(69,100)"/>
<path d="M0 0 C2.18771244 0.14261094 4.37516282 0.28924461 6.5625 0.4375 C7.78066406 0.51871094 8.99882812 0.59992188 10.25390625 0.68359375 C14 1 14 1 17.125 1.5 C22.87991403 2.24256955 28.64154848 2.36961782 34.4375 2.5625 C35.64599609 2.60568359 36.85449219 2.64886719 38.09960938 2.69335938 C41.06630606 2.79889404 44.03307902 2.90100714 47 3 C47 3.33 47 3.66 47 4 C36.63452586 4.88573336 26.5618444 5.13570216 16.1875 4.1875 C15.26372559 4.10516113 14.33995117 4.02282227 13.38818359 3.93798828 C8.66914142 3.45854123 4.45264044 2.7442575 0 1 C0 0.67 0 0.34 0 0 Z " fill="#363636" transform="translate(374,181)"/>
<path d="M0 0 C0.99 0.33 1.98 0.66 3 1 C2.38125 1.845625 1.7625 2.69125 1.125 3.5625 C-4.29905531 11.74649865 -4.16288574 22.01740877 -4.0625 31.5 C-4.05798828 32.32242188 -4.05347656 33.14484375 -4.04882812 33.9921875 C-4.03718489 35.99482396 -4.01925556 37.99742227 -4 40 C-4.66 40 -5.32 40 -6 40 C-6.1475051 35.91705891 -6.23479965 31.83481857 -6.3125 27.75 C-6.35439453 26.61046875 -6.39628906 25.4709375 -6.43945312 24.296875 C-6.55989943 15.81745479 -4.81390663 9.55050968 -1 2 C-0.67 1.34 -0.34 0.68 0 0 Z " fill="#DEE9F1" transform="translate(32,72)"/>
<path d="M0 0 C1.32 0 2.64 0 4 0 C3.67 0.66 3.34 1.32 3 2 C2.67 2.99 2.34 3.98 2 5 C9.26 7.97 16.52 10.94 24 14 C15.50376189 16.12405953 5.76328654 10.22376023 -1.5234375 5.91796875 C-2.01070313 5.61503906 -2.49796875 5.31210938 -3 5 C-2.67 4.01 -2.34 3.02 -2 2 C-1.34 2 -0.68 2 0 2 C0 1.34 0 0.68 0 0 Z " fill="#2F2F2F" transform="translate(346,165)"/>
<path d="M0 0 C2.0625 0.25 2.0625 0.25 5 1 C5.75667969 1.14824219 6.51335937 1.29648438 7.29296875 1.44921875 C8.10378906 1.61035156 8.91460937 1.77148438 9.75 1.9375 C10.52859375 2.09089844 11.3071875 2.24429688 12.109375 2.40234375 C13.04523438 2.69818359 13.04523438 2.69818359 14 3 C14.33 3.66 14.66 4.32 15 5 C12.92118505 5.55875662 10.83669506 6.09643187 8.75 6.625 C7.00976562 7.07746094 7.00976562 7.07746094 5.234375 7.5390625 C1.88384275 8.01655381 0.73177617 7.87978657 -2 6 C1.465 5.505 1.465 5.505 5 5 C2.69 4.01 0.38 3.02 -2 2 C-1.34 1.34 -0.68 0.68 0 0 Z " fill="#7F7F7F" transform="translate(370,174)"/>
<path d="M0 0 C1.06347656 0.00322266 2.12695312 0.00644531 3.22265625 0.00976562 C4.86427734 0.02233398 4.86427734 0.02233398 6.5390625 0.03515625 C7.65667969 0.03966797 8.77429688 0.04417969 9.92578125 0.04882812 C12.67193054 0.06056381 15.41796836 0.07698262 18.1640625 0.09765625 C18.1640625 0.75765625 18.1640625 1.41765625 18.1640625 2.09765625 C8.2640625 2.42765625 -1.6359375 2.75765625 -11.8359375 3.09765625 C-11.8359375 2.43765625 -11.8359375 1.77765625 -11.8359375 1.09765625 C-7.83502346 0.3478092 -4.06844233 -0.02187335 0 0 Z " fill="#E8EAEA" transform="translate(88.8359375,28.90234375)"/>
<path d="M0 0 C1.9375 1.25 1.9375 1.25 3 3 C2.6875 5.1875 2.6875 5.1875 2 7 C1.67 6.34 1.34 5.68 1 5 C-0.98 5.33 -2.96 5.66 -5 6 C-5 6.66 -5 7.32 -5 8 C-6.32 7.67 -7.64 7.34 -9 7 C-9.1875 4.625 -9.1875 4.625 -9 2 C-5.53076119 -0.31282587 -4.07794425 -0.42478586 0 0 Z " fill="#303030" transform="translate(305,0)"/>
<path d="M0 0 C0.99 0.33 1.98 0.66 3 1 C1.7934375 1.8971875 1.7934375 1.8971875 0.5625 2.8125 C-2.2579502 5.22020139 -2.86152782 6.532129 -3.20532227 10.17651367 C-3.24197998 10.99869385 -3.2786377 11.82087402 -3.31640625 12.66796875 C-3.35830078 13.56064453 -3.40019531 14.45332031 -3.44335938 15.37304688 C-3.50233398 16.76620117 -3.50233398 16.76620117 -3.5625 18.1875 C-3.60568359 19.12787109 -3.64886719 20.06824219 -3.69335938 21.03710938 C-3.79938665 23.35792854 -3.90145029 25.67885325 -4 28 C-4.66 27.67 -5.32 27.34 -6 27 C-6.10867663 23.97818586 -6.18762754 20.96033673 -6.25 17.9375 C-6.30027344 16.66616211 -6.30027344 16.66616211 -6.3515625 15.36914062 C-6.44432044 9.36306379 -5.51933535 5.90751763 -2 1 C-1.34 0.67 -0.68 0.34 0 0 Z " fill="#CEDFED" transform="translate(67,34)"/>
<path d="M0 0 C2.38838945 3.04303836 4.35892422 6.18885754 6.25 9.5625 C6.79140625 10.51253906 7.3328125 11.46257812 7.890625 12.44140625 C9 15 9 15 8 18 C4.18315774 16.44499019 1.80804268 13.96404505 -1 11 C-0.67 10.01 -0.34 9.02 0 8 C0.66 8 1.32 8 2 8 C1.34 7.01 0.68 6.02 0 5 C-0.125 2.3125 -0.125 2.3125 0 0 Z " fill="#131313" transform="translate(356,107)"/>
<path d="M0 0 C0.33 0 0.66 0 1 0 C1.18175781 1.03898437 1.36351562 2.07796875 1.55078125 3.1484375 C2.94154978 10.9240555 4.4579687 18.50010625 7 26 C2.70363089 23.11213128 1.30392052 19.90887725 0 15 C-0.99435745 9.79062294 -1.20397183 5.21721126 0 0 Z " fill="#4B4B4B" transform="translate(352,85)"/>
<path d="M0 0 C5.76044212 0.60636233 10.72014369 2.75658279 16 5 C15.67 5.66 15.34 6.32 15 7 C4.90420561 6.65186916 4.90420561 6.65186916 1.3125 4.0625 C0 2 0 2 0 0 Z " fill="#0B0B0B" transform="translate(401,158)"/>
<path d="M0 0 C0 0.33 0 0.66 0 1 C-2.64 1.33 -5.28 1.66 -8 2 C-8 2.66 -8 3.32 -8 4 C-8.66 4 -9.32 4 -10 4 C-10 4.66 -10 5.32 -10 6 C-12.31 6 -14.62 6 -17 6 C-17 4.68 -17 3.36 -17 2 C-17.99 1.67 -18.98 1.34 -20 1 C-13.34362157 -0.23839599 -6.7528064 -0.09139136 0 0 Z " fill="#8C8C8C" transform="translate(352,34)"/>
<path d="M0 0 C4.22797927 3.08290155 4.22797927 3.08290155 6 5 C6.375 7.8125 6.375 7.8125 6 10 C3.6875 10.3125 3.6875 10.3125 1 10 C-0.875 7.6875 -0.875 7.6875 -2 5 C-1.67 4.01 -1.34 3.02 -1 2 C-0.67 2 -0.34 2 0 2 C0 1.34 0 0.68 0 0 Z " fill="#232323" transform="translate(325,86)"/>
<path d="M0 0 C1.89575251 -0.02721176 3.79161979 -0.04649136 5.6875 -0.0625 C6.74324219 -0.07410156 7.79898437 -0.08570313 8.88671875 -0.09765625 C11.72410262 -0.00865425 14.2438919 0.35060162 17 1 C17 1.66 17 2.32 17 3 C11.06 3 5.12 3 -1 3 C-0.67 2.01 -0.34 1.02 0 0 Z " fill="#CECECE" transform="translate(434,170)"/>
<path d="M0 0 C3.66362581 2.67345667 5.77251657 5.07538634 8 9 C8.66 9.33 9.32 9.66 10 10 C10.8515625 11.7421875 10.8515625 11.7421875 11.625 13.875 C11.88539063 14.57367188 12.14578125 15.27234375 12.4140625 15.9921875 C13 18 13 18 13 21 C9.54548678 17.74489415 7.29835753 13.94820595 4.8125 9.9375 C4.34908203 9.20466797 3.88566406 8.47183594 3.40820312 7.71679688 C2.97056641 7.01490234 2.53292969 6.31300781 2.08203125 5.58984375 C1.48225464 4.62872681 1.48225464 4.62872681 0.87036133 3.64819336 C0 2 0 2 0 0 Z " fill="#D5D5D5" transform="translate(303,121)"/>
<path d="M0 0 C4.97093824 0.41153737 9.44508386 0.79600832 14 3 C14 3.66 14 4.32 14 5 C4.26004228 5.57293869 4.26004228 5.57293869 0 2 C0 1.34 0 0.68 0 0 Z " fill="#E5E5E5" transform="translate(330,141)"/>
<path d="M0 0 C3.88762881 3.42912552 4.3583862 6.99559208 5 12 C5.21736872 16.35914285 5.19045875 20.69942223 5.125 25.0625 C5.11597656 26.21427734 5.10695312 27.36605469 5.09765625 28.55273438 C5.07428714 31.36871193 5.04152565 34.18424158 5 37 C4.67 37 4.34 37 4 37 C3.97812622 35.97229492 3.97812622 35.97229492 3.95581055 34.92382812 C3.88076568 31.78202026 3.7842931 28.64121008 3.6875 25.5 C3.66494141 24.42234375 3.64238281 23.3446875 3.61914062 22.234375 C3.40302783 15.79028432 2.54996991 10.91376001 0 5 C-0.1875 2 -0.1875 2 0 0 Z " fill="#F0E6BD" transform="translate(160,75)"/>
<path d="M0 0 C2.83328987 2.83328987 3.7191375 4.35446828 5 8 C4.01 8 3.02 8 2 8 C2 8.66 2 9.32 2 10 C2.99 10.33 3.98 10.66 5 11 C4.01 11.33 3.02 11.66 2 12 C2 13.98 2 15.96 2 18 C1.34 18 0.68 18 0 18 C0 12.06 0 6.12 0 0 Z " fill="#5086B1" transform="translate(63,44)"/>
<path d="M0 0 C0.66 0 1.32 0 2 0 C2 2.31 2 4.62 2 7 C2.928125 6.2575 2.928125 6.2575 3.875 5.5 C6 4 6 4 8 4 C8.33 3.34 8.66 2.68 9 2 C9 2.99 9 3.98 9 5 C6.6875 7 6.6875 7 4 9 C2.9826127 9.98230498 1.97403883 10.97469597 1 12 C-0.32 10.35 -1.64 8.7 -3 7 C-2.01 7 -1.02 7 0 7 C0 4.69 0 2.38 0 0 Z " fill="#2F2F2F" transform="translate(313,88)"/>
<path d="M0 0 C3.22886009 -0.11667875 6.45717445 -0.18740546 9.6875 -0.25 C11.05551758 -0.30027344 11.05551758 -0.30027344 12.45117188 -0.3515625 C19.31654635 -0.45142249 19.31654635 -0.45142249 22.95703125 1.953125 C23.96830078 2.96632813 23.96830078 2.96632813 25 4 C25.99 4.33 26.98 4.66 28 5 C28 6.65 28 8.3 28 10 C27.278125 9.236875 26.55625 8.47375 25.8125 7.6875 C20.23704768 2.35984556 16.16016551 1.51892722 8.6875 1.3125 C7.85154297 1.27833984 7.01558594 1.24417969 6.15429688 1.20898438 C4.10332228 1.12694539 2.05168462 1.0617849 0 1 C0 0.67 0 0.34 0 0 Z " fill="#E6E5E4" transform="translate(132,65)"/>
<path d="M0 0 C0 0.66 0 1.32 0 2 C0.99 2.33 1.98 2.66 3 3 C2.32453125 3.26554687 1.6490625 3.53109375 0.953125 3.8046875 C0.06109375 4.15789062 -0.8309375 4.51109375 -1.75 4.875 C-2.63171875 5.22304687 -3.5134375 5.57109375 -4.421875 5.9296875 C-6.6740248 6.8646709 -8.83649459 7.87780794 -11 9 C-9.1940483 3.08961261 -6.32336089 0 0 0 Z " fill="#E5E6E9" transform="translate(77,98)"/>
<path d="M0 0 C1.8125 0.625 1.8125 0.625 2.8125 2.625 C1.875 4.75 1.875 4.75 0.8125 6.625 C0.4825 5.305 0.1525 3.985 -0.1875 2.625 C-0.1875 3.615 -0.1875 4.605 -0.1875 5.625 C-4.00847239 5.09430939 -6.24921403 4.12798434 -9.1875 1.625 C-5.78433668 -0.64377555 -3.98544885 -0.6832198 0 0 Z " fill="#2D2D2D" transform="translate(321.1875,102.375)"/>
<path d="M0 0 C1.65 1.32 3.3 2.64 5 4 C4.67 4.66 4.34 5.32 4 6 C4.50181113 9.30771283 5.91068609 11.8699142 7.5625 14.75 C8.01753906 15.54921875 8.47257812 16.3484375 8.94140625 17.171875 C9.29074219 17.77515625 9.64007813 18.3784375 10 19 C9.01 19 8.02 19 7 19 C5.8206851 16.77675074 4.65659082 14.54753361 3.5 12.3125 C3.16613281 11.68666016 2.83226562 11.06082031 2.48828125 10.41601562 C0.6304738 6.79518683 -0.43750214 4.08595745 0 0 Z " fill="#ABABAB" transform="translate(294,102)"/>
<path d="M0 0 C3.0831351 1.19899698 6.06279492 2.47700477 9 4 C9 4.66 9 5.32 9 6 C9.99 6.33 10.98 6.66 12 7 C11.34 7.66 10.68 8.32 10 9 C6.7 7.35 3.4 5.7 0 4 C0 2.66666667 0 1.33333333 0 0 Z " fill="#9B9B9B" transform="translate(347,166)"/>
<path d="M0 0 C1.32 0 2.64 0 4 0 C4.33 0.66 4.66 1.32 5 2 C5.99 2 6.98 2 8 2 C8.33 3.32 8.66 4.64 9 6 C8.01 6.33 7.02 6.66 6 7 C5.67 6.34 5.34 5.68 5 5 C2.67843403 4.59270772 0.3431213 4.25561323 -2 4 C-1.34 2.68 -0.68 1.36 0 0 Z " fill="#DDDDDD" transform="translate(399,169)"/>
<path d="M0 0 C0.66 0 1.32 0 2 0 C2 0.99 2 1.98 2 3 C0.36368108 4.04892238 -1.30485863 5.04906703 -3 6 C-4.14654482 8.29308963 -4.19729117 9.79909656 -4.31640625 12.3515625 C-4.35830078 13.20234375 -4.40019531 14.053125 -4.44335938 14.9296875 C-4.48267578 15.81914063 -4.52199219 16.70859375 -4.5625 17.625 C-4.60568359 18.5221875 -4.64886719 19.419375 -4.69335938 20.34375 C-4.79956861 22.56234283 -4.90161194 24.7810488 -5 27 C-5.33 27 -5.66 27 -6 27 C-6.14575327 23.60462148 -6.23421542 20.21005098 -6.3125 16.8125 C-6.35439453 15.85279297 -6.39628906 14.89308594 -6.43945312 13.90429688 C-6.56384506 6.71444279 -6.56384506 6.71444279 -3.54296875 2.88671875 C-2.70378906 2.26410156 -1.86460938 1.64148438 -1 1 C-0.67 0.67 -0.34 0.34 0 0 Z " fill="#FAE780" transform="translate(70,104)"/>
<path d="M0 0 C0.33 0.66 0.66 1.32 1 2 C1.99 1.34 2.98 0.68 4 0 C6.04296875 -0.1953125 6.04296875 -0.1953125 8.1875 -0.125 C10.0746875 -0.063125 10.0746875 -0.063125 12 0 C12 0.33 12 0.66 12 1 C10.02 1.33 8.04 1.66 6 2 C6.66 2.33 7.32 2.66 8 3 C8 4.65 8 6.3 8 8 C7.34 8 6.68 8 6 8 C5.34 7.34 4.68 6.68 4 6 C3.34 6 2.68 6 2 6 C2 5.01 2 4.02 2 3 C0.68 2.67 -0.64 2.34 -2 2 C-1.34 1.34 -0.68 0.68 0 0 Z " fill="#444444" transform="translate(390,166)"/>
<path d="M0 0 C0.33 0.99 0.66 1.98 1 3 C1.66 3 2.32 3 3 3 C3.33 5.97 3.66 8.94 4 12 C0 10 0 10 -1 8 C-1.125 4.4375 -1.125 4.4375 -1 1 C-0.67 0.67 -0.34 0.34 0 0 Z " fill="#212121" transform="translate(339,83)"/>
<path d="M0 0 C5.98993047 -0.3152595 9.63560356 0.31780178 15 3 C11.91190305 4.76462683 10.76687864 5 7 5 C7 4.01 7 3.02 7 2 C4.36 2.33 1.72 2.66 -1 3 C-0.67 2.01 -0.34 1.02 0 0 Z " fill="#1B1B1B" transform="translate(396,167)"/>
<path d="M0 0 C1.98 0.99 3.96 1.98 6 3 C6 3.66 6 4.32 6 5 C5.34 5 4.68 5 4 5 C3.67 6.65 3.34 8.3 3 10 C2.34 10 1.68 10 1 10 C-1.09651475 6.54691689 -1.09651475 6.54691689 -0.625 3.875 C-0.41875 3.25625 -0.2125 2.6375 0 2 C0 1.34 0 0.68 0 0 Z " fill="#5B5B5B" transform="translate(311,75)"/>
<path d="M0 0 C0.66 0 1.32 0 2 0 C3.625 2.5 3.625 2.5 5 5 C4.34 5 3.68 5 3 5 C2.34 6.98 1.68 8.96 1 11 C0.34 10.67 -0.32 10.34 -1 10 C-1.125 2.25 -1.125 2.25 0 0 Z " fill="#484848" transform="translate(343,56)"/>
<path d="M0 0 C2.64 0.99 5.28 1.98 8 3 C7.67 4.65 7.34 6.3 7 8 C4.24542282 7.62005832 3.17979426 7.1926367 1.25 5.125 C0 3 0 3 0 0 Z " fill="#EEEEEE" transform="translate(311,20)"/>
<path d="M0 0 C1.32 0 2.64 0 4 0 C5.31223496 3.93670488 4.24296256 6.12488144 3 10 C1.35 8.35 -0.3 6.7 -2 5 C-1.34 3.35 -0.68 1.7 0 0 Z " fill="#EDEDED" transform="translate(304,83)"/>
<path d="M0 0 C0.928125 0.20625 1.85625 0.4125 2.8125 0.625 C2.4825 1.285 2.1525 1.945 1.8125 2.625 C-0.75 3.25 -0.75 3.25 -3.1875 3.625 C-3.5175 5.935 -3.8475 8.245 -4.1875 10.625 C-5.75 9.5 -5.75 9.5 -7.1875 7.625 C-7.0625 4.5625 -7.0625 4.5625 -6.1875 1.625 C-3.1875 -0.375 -3.1875 -0.375 0 0 Z " fill="#DADADA" transform="translate(286.1875,48.375)"/>
<path d="M0 0 C1.65 0.33 3.3 0.66 5 1 C5 1.66 5 2.32 5 3 C3.68 3 2.36 3 1 3 C1.66 4.32 2.32 5.64 3 7 C-1.75 6.125 -1.75 6.125 -4 5 C-3.34 3.68 -2.68 2.36 -2 1 C-1.34 1.33 -0.68 1.66 0 2 C0 1.34 0 0.68 0 0 Z " fill="#5C5C5C" transform="translate(308,44)"/>
<path d="M0 0 C3.59634744 3.49359465 6.83451967 7.11098131 10 11 C9.01 11.33 8.02 11.66 7 12 C5.821389 10.76125579 4.65747085 9.5085199 3.5 8.25 C2.8503125 7.55390625 2.200625 6.8578125 1.53125 6.140625 C0 4 0 4 0 0 Z " fill="#323232" transform="translate(316,143)"/>
<path d="M0 0 C1.06083461 2.72970856 1.03496104 3.89297016 0.109375 6.7265625 C-0.33921875 7.68304688 -0.7878125 8.63953125 -1.25 9.625 C-1.90742188 11.06746094 -1.90742188 11.06746094 -2.578125 12.5390625 C-4 15 -4 15 -7 17 C-6.01 13.04 -5.02 9.08 -4 5 C-3.01 5 -2.02 5 -1 5 C-0.67 3.35 -0.34 1.7 0 0 Z " fill="#EDDCA1" transform="translate(163,112)"/>
<path d="M0 0 C2.125 0.375 2.125 0.375 4 1 C3.01 1 2.02 1 1 1 C3.35953094 3.35953094 4.77895617 3.49141413 8 4 C7.01 5.485 7.01 5.485 6 7 C5.34 7 4.68 7 4 7 C4 6.34 4 5.68 4 5 C2.35 5.33 0.7 5.66 -1 6 C-1.625 4.125 -1.625 4.125 -2 2 C-1.34 1.34 -0.68 0.68 0 0 Z " fill="#616161" transform="translate(412,171)"/>
<path d="M0 0 C0.33 0.66 0.66 1.32 1 2 C1.66 2 2.32 2 3 2 C3 5.63 3 9.26 3 13 C2.01 13 1.02 13 0 13 C-0.33 13.66 -0.66 14.32 -1 15 C-1 14.01 -1 13.02 -1 12 C-0.34 11.67 0.32 11.34 1 11 C1.33 10.01 1.66 9.02 2 8 C1.34 8 0.68 8 0 8 C0 5.36 0 2.72 0 0 Z " fill="#2A2A2A" transform="translate(349,78)"/>
<path d="M0 0 C0.89203125 0.10183594 1.7840625 0.20367187 2.703125 0.30859375 C3.37859375 0.39238281 4.0540625 0.47617187 4.75 0.5625 C2.22519307 3.08730693 0.61176966 3.11988633 -2.875 3.6875 C-3.87789063 3.85507812 -4.88078125 4.02265625 -5.9140625 4.1953125 C-6.68492187 4.31648438 -7.45578125 4.43765625 -8.25 4.5625 C-7.92 3.9025 -7.59 3.2425 -7.25 2.5625 C-7.91 1.9025 -8.57 1.2425 -9.25 0.5625 C-5.98086376 -0.46865279 -3.38958652 -0.4013984 0 0 Z " fill="#8A8A8A" transform="translate(321.25,39.4375)"/>
<path d="M0 0 C1.32 0 2.64 0 4 0 C4.33 0.99 4.66 1.98 5 3 C7.10584438 3.80563638 7.10584438 3.80563638 9.5625 4.1875 C10.38878906 4.34605469 11.21507812 4.50460938 12.06640625 4.66796875 C13.02353516 4.83232422 13.02353516 4.83232422 14 5 C14 5.33 14 5.66 14 6 C12.22844346 5.88570603 10.45773771 5.75816963 8.6875 5.625 C7.70136719 5.55539063 6.71523438 5.48578125 5.69921875 5.4140625 C3 5 3 5 0 3 C0 2.01 0 1.02 0 0 Z " fill="#C7C7C7" transform="translate(362,152)"/>
<path d="M0 0 C1.875 0.1875 1.875 0.1875 4 1 C6.00142526 4.83606508 6.2191024 8.03084062 6.125 12.3125 C6.10695312 13.38113281 6.08890625 14.44976562 6.0703125 15.55078125 C6.03550781 16.76314453 6.03550781 16.76314453 6 18 C5.67 18 5.34 18 5 18 C5 14.37 5 10.74 5 7 C4.34 7 3.68 7 3 7 C2.01 4.69 1.02 2.38 0 0 Z " fill="#DFE8EF" transform="translate(125,39)"/>
<path d="M0 0 C1.32 0 2.64 0 4 0 C3.67 0.66 3.34 1.32 3 2 C2.67 2.99 2.34 3.98 2 5 C3.32 5.99 4.64 6.98 6 8 C2.17902761 7.46930939 -0.06171403 6.50298434 -3 4 C-2.67 3.34 -2.34 2.68 -2 2 C-1.34 2 -0.68 2 0 2 C0 1.34 0 0.68 0 0 Z " fill="#383838" transform="translate(346,165)"/>
<path d="M0 0 C0.33 0 0.66 0 1 0 C1.83861979 5.36716665 -1.07929595 8.79627239 -4 13 C-4.99 12.67 -5.98 12.34 -7 12 C-6.34 11.34 -5.68 10.68 -5 10 C-4.3574765 7.93125966 -4.3574765 7.93125966 -4 6 C-3.34 6 -2.68 6 -2 6 C-1.855625 5.38125 -1.71125 4.7625 -1.5625 4.125 C-1 2 -1 2 0 0 Z " fill="#E8DEB7" transform="translate(131,84)"/>
<path d="M0 0 C1.9375 0.375 1.9375 0.375 4 1 C5.24546405 3.49092811 4.7767578 4.41080733 4 7 C2.0625 6.1875 2.0625 6.1875 0 5 C-0.33 4.01 -0.66 3.02 -1 2 C-0.67 1.34 -0.34 0.68 0 0 Z " fill="#1F1F1F" transform="translate(383,146)"/>
<path d="M0 0 C3.16115776 1.36983503 3.9927092 1.9890638 6 5 C5.34 5.66 4.68 6.32 4 7 C3.01 7 2.02 7 1 7 C0.67 4.69 0.34 2.38 0 0 Z " fill="#E2E2E2" transform="translate(310,97)"/>
<path d="M0 0 C3.3 0.33 6.6 0.66 10 1 C9.34 1.66 8.68 2.32 8 3 C6.68 3 5.36 3 4 3 C3.34 3.66 2.68 4.32 2 5 C1.01 4.01 0.02 3.02 -1 2 C-0.67 1.34 -0.34 0.68 0 0 Z " fill="#FBD23A" transform="translate(108,157)"/>
<path d="M0 0 C3.25524265 3.02272532 5.61820737 6.25718301 8 10 C7.34 10.66 6.68 11.32 6 12 C0 4.8 0 4.8 0 0 Z " fill="#343434" transform="translate(365,123)"/>
<path d="M0 0 C1.67542976 0.28604898 3.34385343 0.61781233 5 1 C5 1.99 5 2.98 5 4 C2.69 4.33 0.38 4.66 -2 5 C-1.125 1.125 -1.125 1.125 0 0 Z " fill="#E4E4E4" transform="translate(300,1)"/>
<path d="M0 0 C1.58971965 2.38457948 2.86741593 4.6304124 4.125 7.1875 C4.47820312 7.90292969 4.83140625 8.61835937 5.1953125 9.35546875 C5.46085937 9.89816406 5.72640625 10.44085938 6 11 C5.34 11.66 4.68 12.32 4 13 C-0.59225513 4.738041 -0.59225513 4.738041 0 0 Z " fill="#232323" transform="translate(295,109)"/>
<path d="M0 0 C1.65 0 3.3 0 5 0 C4.34 0.7425 3.68 1.485 3 2.25 C0.60788553 4.97242945 0.60788553 4.97242945 1 9 C-0.32 8.67 -1.64 8.34 -3 8 C-2.690625 7.236875 -2.38125 6.47375 -2.0625 5.6875 C-1.32106407 3.81210323 -0.63771783 1.91315348 0 0 Z " fill="#5081A9" transform="translate(71,41)"/>
<path d="M0 0 C3.96 0.33 7.92 0.66 12 1 C7.78370866 3.10814567 5.60209225 3.17700355 1 3 C0.67 2.01 0.34 1.02 0 0 Z " fill="#1B1B1B" transform="translate(413,172)"/>
<path d="M0 0 C2.86724686 0.57344937 3.8614515 0.8614515 6 3 C5.34 3 4.68 3 4 3 C3.67 3.99 3.34 4.98 3 6 C1.68 5.01 0.36 4.02 -1 3 C-0.67 2.01 -0.34 1.02 0 0 Z " fill="#262626" transform="translate(379,143)"/>
<path d="M0 0 C1.20628008 2.33214148 2.1654738 4.49642139 3 7 C2.01 7.33 1.02 7.66 0 8 C-0.66 7.67 -1.32 7.34 -2 7 C-2 5.35 -2 3.7 -2 2 C-1.34 2 -0.68 2 0 2 C0 1.34 0 0.68 0 0 Z " fill="#AFAFAF" transform="translate(355,108)"/>
<path d="M0 0 C0.66 0.33 1.32 0.66 2 1 C2 1.66 2 2.32 2 3 C1.01 3.33 0.02 3.66 -1 4 C-2.70855022 7.00007271 -2.70855022 7.00007271 -4 10 C-4.33 10 -4.66 10 -5 10 C-5.3125 7.8125 -5.3125 7.8125 -5 5 C-2.5 2.1875 -2.5 2.1875 0 0 Z " fill="#568EBA" transform="translate(38,69)"/>
<path d="M0 0 C4.61691161 0.52464905 6.09987886 1.07490914 10 4 C6.7 3.67 3.4 3.34 0 3 C0 2.01 0 1.02 0 0 Z " fill="#E5E5E5" transform="translate(367,176)"/>
<path d="M0 0 C4.24822374 0.47202486 6.19989709 2.96655518 9 6 C8.01 6.495 8.01 6.495 7 7 C5.83040013 6.02433888 4.66438823 5.044375 3.5 4.0625 C2.8503125 3.51722656 2.200625 2.97195312 1.53125 2.41015625 C1.0259375 1.94480469 0.520625 1.47945312 0 1 C0 0.67 0 0.34 0 0 Z " fill="#1E1E1E" transform="translate(324,154)"/>
<path d="M0 0 C0.639375 0.165 1.27875 0.33 1.9375 0.5 C3.80826821 1.03926667 3.80826821 1.03926667 5 1 C5.99 1.33 6.98 1.66 8 2 C7.67 2.99 7.34 3.98 7 5 C4.69 4.34 2.38 3.68 0 3 C0 2.01 0 1.02 0 0 Z " fill="#404040" transform="translate(329,137)"/>
<path d="M0 0 C3.48330216 0.64505596 6.09432866 1.98217268 9 4 C9 4.66 9 5.32 9 6 C2.35384615 4.52307692 2.35384615 4.52307692 0.5625 1.875 C0.376875 1.25625 0.19125 0.6375 0 0 Z " fill="#373737" transform="translate(314,73)"/>
<path d="M0 0 C-0.33 2.64 -0.66 5.28 -1 8 C-2.65 6.35 -4.3 4.7 -6 3 C-2.25 0 -2.25 0 0 0 Z " fill="#090909" transform="translate(350,43)"/>
<path d="M0 0 C0.33 1.32 0.66 2.64 1 4 C0.34 4 -0.32 4 -1 4 C-1.33 4.66 -1.66 5.32 -2 6 C-3.32 5.67 -4.64 5.34 -6 5 C-3.375 1.125 -3.375 1.125 0 0 Z " fill="#434343" transform="translate(375,160)"/>
<path d="M0 0 C2 1 2 1 2.8515625 3.28515625 C3.10679687 4.20167969 3.36203125 5.11820312 3.625 6.0625 C3.88539063 6.98160156 4.14578125 7.90070313 4.4140625 8.84765625 C4.60742188 9.55792969 4.80078125 10.26820312 5 11 C1.17067834 8.57221007 1.17067834 8.57221007 0.390625 5.95703125 C0.26041667 3.97135417 0.13020833 1.98567708 0 0 Z " fill="#313131" transform="translate(354,100)"/>
<path d="M0 0 C0.33 0.99 0.66 1.98 1 3 C0.34 3 -0.32 3 -1 3 C-0.67 4.32 -0.34 5.64 0 7 C-0.66 7 -1.32 7 -2 7 C-2.33 7.66 -2.66 8.32 -3 9 C-3.33 7.02 -3.66 5.04 -4 3 C-3.34 3 -2.68 3 -2 3 C-2 2.34 -2 1.68 -2 1 C-1.34 0.67 -0.68 0.34 0 0 Z " fill="#353535" transform="translate(289,84)"/>
<path d="M0 0 C3.68754757 0.49831724 5.60490662 1.10067643 8 4 C6.25 4.6875 6.25 4.6875 4 5 C1.75 3.6875 1.75 3.6875 0 2 C0 1.34 0 0.68 0 0 Z " fill="#A6A6A6" transform="translate(317,72)"/>
<path d="M0 0 C3.65316671 1.24976756 4.78065836 1.67098753 7 5 C4.36 4.67 1.72 4.34 -1 4 C-0.67 2.68 -0.34 1.36 0 0 Z " fill="#FAE479" transform="translate(150,67)"/>
<path d="M0 0 C-1.26691507 0.67408308 -2.53870749 1.33900497 -3.8125 2 C-4.52019531 2.37125 -5.22789063 2.7425 -5.95703125 3.125 C-8 4 -8 4 -11 4 C-10.3125 2.0625 -10.3125 2.0625 -9 0 C-5.60214108 -1.16242542 -3.3899051 -0.94484589 0 0 Z " fill="#E6E1C0" transform="translate(77,102)"/>
<path d="M0 0 C0.8353125 0.556875 0.8353125 0.556875 1.6875 1.125 C-2.0625 4.125 -2.0625 4.125 -4.3125 4.125 C-4.3125 3.465 -4.3125 2.805 -4.3125 2.125 C-5.3025 1.795 -6.2925 1.465 -7.3125 1.125 C-2.88173077 -1.09038462 -2.88173077 -1.09038462 0 0 Z " fill="#DDDDD7" transform="translate(122.3125,95.875)"/>
<path d="M0 0 C0.33 0.99 0.66 1.98 1 3 C-0.1446875 3.8971875 -0.1446875 3.8971875 -1.3125 4.8125 C-3.3483575 6.46959332 -5.1978279 8.10297674 -7 10 C-7 7 -7 7 -4.625 4.3125 C-2 2 -2 2 0 2 C0 1.34 0 0.68 0 0 Z " fill="#393939" transform="translate(321,90)"/>
<path d="M0 0 C1.97749439 2.96624159 2.40230872 4.58462127 3 8 C3.33 8.99 3.66 9.98 4 11 C3.01 11.495 3.01 11.495 2 12 C-1.57142857 4.71428571 -1.57142857 4.71428571 0 0 Z " fill="#BBBBBB" transform="translate(322,85)"/>
<path d="M0 0 C2.125 0.375 2.125 0.375 4 1 C3.34 1 2.68 1 2 1 C2 1.66 2 2.32 2 3 C1.01 3.495 1.01 3.495 0 4 C-0.65772428 7.02934491 -0.65772428 7.02934491 -1 10 C-1.66 9.67 -2.32 9.34 -3 9 C-2.25 2.25 -2.25 2.25 0 0 Z " fill="#2E2E2E" transform="translate(284,50)"/>
<path d="M0 0 C1.1875 1.625 1.1875 1.625 2 4 C0.625 7.25 0.625 7.25 -1 10 C-1.66 9.67 -2.32 9.34 -3 9 C-2.67 8.67 -2.34 8.34 -2 8 C-2.020625 7.030625 -2.04125 6.06125 -2.0625 5.0625 C-2 2 -2 2 0 0 Z " fill="#507FA4" transform="translate(84,42)"/>
<path d="M0 0 C0.66 0.66 1.32 1.32 2 2 C2.99 2 3.98 2 5 2 C5.33 3.32 5.66 4.64 6 6 C5.01 6.33 4.02 6.66 3 7 C1.5 5.75 1.5 5.75 0 4 C0 2.68 0 1.36 0 0 Z " fill="#9A9A9A" transform="translate(402,169)"/>
<path d="M0 0 C0 0.66 0 1.32 0 2 C-3.41831915 4.5393228 -5.75776898 5.3636198 -10 5 C-3.63636364 0 -3.63636364 0 0 0 Z " fill="#E5E0C7" transform="translate(124,161)"/>
<path d="M0 0 C1.5625 1.8125 1.5625 1.8125 3 4 C2.67 4.99 2.34 5.98 2 7 C1.01 7 0.02 7 -1 7 C-1.33 5.68 -1.66 4.36 -2 3 C-1.34 3 -0.68 3 0 3 C0 2.01 0 1.02 0 0 Z " fill="#B8B8B8" transform="translate(290,84)"/>
<path d="M0 0 C2.92879371 0.62759865 5.36095629 1.58622659 8 3 C8 4.65 8 6.3 8 8 C5.33333333 5.33333333 2.66666667 2.66666667 0 0 Z " fill="#E8E2CC" transform="translate(152,67)"/>
<path d="M0 0 C-0.99 0.33 -1.98 0.66 -3 1 C-3.73323796 3.01508358 -3.73323796 3.01508358 -4 5 C-4.66 5 -5.32 5 -6 5 C-6 4.01 -6 3.02 -6 2 C-6.66 1.67 -7.32 1.34 -8 1 C-4.93251126 -0.86240388 -3.40254489 -1.2151946 0 0 Z " fill="#5F96C0" transform="translate(48,67)"/>
<path d="M0 0 C0.66 0.33 1.32 0.66 2 1 C-0.31 3.31 -2.62 5.62 -5 8 C-5.33 7.34 -5.66 6.68 -6 6 C-2.25 1.125 -2.25 1.125 0 0 Z " fill="#2C2C2C" transform="translate(282,41)"/>
<path d="M0 0 C2.97 0.99 5.94 1.98 9 3 C9 3.33 9 3.66 9 4 C3.48 4.368 3.48 4.368 1.125 2.5625 C0 1 0 1 0 0 Z " fill="#EAE4D2" transform="translate(71,163)"/>
<path d="M0 0 C1.65 0 3.3 0 5 0 C3.37660195 1.70884005 1.70680947 3.37446717 0 5 C-0.66 5 -1.32 5 -2 5 C-2 4.34 -2 3.68 -2 3 C-1.34 3 -0.68 3 0 3 C0 2.01 0 1.02 0 0 Z " fill="#3C6E95" transform="translate(120,91)"/>
<path d="M0 0 C1.32 0.66 2.64 1.32 4 2 C3.67 3.32 3.34 4.64 3 6 C2.34 6 1.68 6 1 6 C-0.0625 4.125 -0.0625 4.125 -1 2 C-0.67 1.34 -0.34 0.68 0 0 Z " fill="#1E1E1E" transform="translate(311,79)"/>
<path d="M0 0 C0 0.66 0 1.32 0 2 C0.66 2.33 1.32 2.66 2 3 C-0.97 3.66 -3.94 4.32 -7 5 C-2.25 0 -2.25 0 0 0 Z " fill="#6296BC" transform="translate(72,34)"/>
<path d="M0 0 C0.99 0 1.98 0 3 0 C3.33 1.65 3.66 3.3 4 5 C2.35 4.67 0.7 4.34 -1 4 C-0.67 2.68 -0.34 1.36 0 0 Z " fill="#598DB5" transform="translate(77,38)"/>
<path d="M0 0 C0.99 0.33 1.98 0.66 3 1 C2.21625 1.598125 1.4325 2.19625 0.625 2.8125 C-2.14574323 4.91085249 -2.14574323 4.91085249 -4 8 C-3.6875 5.125 -3.6875 5.125 -3 2 C-2.01 1.34 -1.02 0.68 0 0 Z " fill="#DEE6EC" transform="translate(67,34)"/>
</svg>
