<?xml version="1.0" encoding="UTF-8"?>
<svg version="1.1" xmlns="http://www.w3.org/2000/svg" width="180" height="180">
<path d="M0 0 C59.4 0 118.8 0 180 0 C180 59.4 180 118.8 180 180 C120.6 180 61.2 180 0 180 C0 120.6 0 61.2 0 0 Z " fill="#E24A22" transform="translate(0,0)"/>
<path d="M0 0 C59.4 0 118.8 0 180 0 C180 59.4 180 118.8 180 180 C120.6 180 61.2 180 0 180 C0 120.6 0 61.2 0 0 Z M42 5 C41.00544091 7.98367726 40.80440368 10.2004192 40.68359375 13.32421875 C40.64169922 14.35224609 40.59980469 15.38027344 40.55664062 16.43945312 C40.51732422 17.51130859 40.47800781 18.58316406 40.4375 19.6875 C40.39431641 20.77095703 40.35113281 21.85441406 40.30664062 22.97070312 C40.20053162 25.64700791 40.09847639 28.32340526 40 31 C37.59454362 32.20272819 36.05003047 32.10071472 33.375 32.0625 C32.14910156 32.04896484 32.14910156 32.04896484 30.8984375 32.03515625 C30.27195312 32.02355469 29.64546875 32.01195313 29 32 C27.18773286 35.62453429 27.81529819 39.88478632 27.8125 43.875 C27.80025391 44.78636719 27.78800781 45.69773438 27.77539062 46.63671875 C27.77345703 47.51714844 27.77152344 48.39757813 27.76953125 49.3046875 C27.76542236 50.10890137 27.76131348 50.91311523 27.75708008 51.74169922 C28.02764867 54.25703542 28.85526623 55.7625902 30 58 C30.51489258 60.44628906 30.51489258 60.44628906 30.89453125 63.265625 C31.042854 64.35955566 31.19117676 65.45348633 31.34399414 66.58056641 C31.49860107 67.79147949 31.65320801 69.00239258 31.8125 70.25 C31.98064209 71.53181152 32.14878418 72.81362305 32.32202148 74.13427734 C34.22896663 88.95293286 35.69678015 103.82462051 37.16137695 118.69238281 C38.40751688 131.1959719 40.00776836 143.59309403 42 156 C48.93 158.475 48.93 158.475 56 161 C54.2675 161.103125 52.535 161.20625 50.75 161.3125 C46.49988548 161.56548301 44.20945602 162.1496974 41 165 C43.97 165 46.94 165 50 165 C49.67 166.65 49.34 168.3 49 170 C48.01 170.33 47.02 170.66 46 171 C58.12890625 177.4705549 73.72487212 176.20610697 87.0625 176.1875 C87.79601685 176.18722809 88.52953369 176.18695618 89.28527832 176.18667603 C99.63041162 176.1691737 109.92624196 175.8953126 120.25 175.1875 C121.35480713 175.11748779 122.45961426 175.04747559 123.59790039 174.9753418 C129.09739843 174.54166018 133.29863512 173.95861755 138 171 C137.67 170.34 137.34 169.68 137 169 C134.36 169.33 131.72 169.66 129 170 C129 168.68 129 167.36 129 166 C129.99 165.67 130.98 165.34 132 165 C132 164.34 132 163.68 132 163 C130.68 162.67 129.36 162.34 128 162 C129.24735567 161.3490741 130.49801832 160.70448331 131.75 160.0625 C132.79414063 159.52302734 132.79414063 159.52302734 133.859375 158.97265625 C135.90726345 158.04213759 137.81823867 157.51347313 140 157 C140.06469482 156.35192383 140.12938965 155.70384766 140.19604492 155.03613281 C141.72952877 139.76184387 143.37495889 124.50306271 145.11627197 109.25115967 C145.43879547 106.42615285 145.76025596 103.6010266 146.08154297 100.77587891 C147.01520519 92.5754052 147.95332052 84.3755738 148.91679382 76.17854309 C149.29798839 72.9249722 149.6730311 69.67070957 150.04690552 66.41629028 C150.22047075 64.91893869 150.39684436 63.42190925 150.5763855 61.92526245 C151.69850405 52.56444192 152.22417615 43.43015903 152 34 C151.32888184 33.83701416 150.65776367 33.67402832 149.96630859 33.50610352 C148.3655599 33.11735026 146.7648112 32.72859701 145.1640625 32.33984375 C142.95838716 31.77890681 142.95838716 31.77890681 141 33 C141.020625 31.783125 141.04125 30.56625 141.0625 29.3125 C141.06824116 26.08022678 140.78766315 23.15065259 140 20 C136.7 20 133.4 20 130 20 C130.01160156 19.15695313 130.02320313 18.31390625 130.03515625 17.4453125 C130.04417969 16.34960938 130.05320312 15.25390625 130.0625 14.125 C130.07410156 13.03445313 130.08570313 11.94390625 130.09765625 10.8203125 C130.19744303 8.04822454 130.19744303 8.04822454 129 6 C127.72125 5.979375 126.4425 5.95875 125.125 5.9375 C124.40570313 5.92589844 123.68640625 5.91429687 122.9453125 5.90234375 C120.91814596 5.87350758 120.91814596 5.87350758 119 7 C118.505 6.01 118.505 6.01 118 5 C113.97047328 4.65892848 113.97047328 4.65892848 110 5 C107.41981677 7.22306403 107.41981677 7.22306403 106 10 C106 10.66 106 11.32 106 12 C101.125 7.25 101.125 7.25 100 5 C97.36 5 94.72 5 92 5 C91.855625 5.78375 91.71125 6.5675 91.5625 7.375 C91 10 91 10 90 12 C89.505 8.535 89.505 8.535 89 5 C81.74 5 74.48 5 67 5 C67 8.96 67 12.92 67 17 C69.31 17 71.62 17 74 17 C74 21.95 74 26.9 74 32 C71.03 32.33 68.06 32.66 65 33 C65 23.76 65 14.52 65 5 C62.03 5 59.06 5 56 5 C56 7.31 56 9.62 56 12 C54.35 12 52.7 12 51 12 C51.020625 11.030625 51.04125 10.06125 51.0625 9.0625 C51.35618499 6.12534105 51.35618499 6.12534105 50 5 C47.32941149 4.85884839 44.67567762 4.95752893 42 5 Z " fill="#FBFBFB" transform="translate(0,0)"/>
<path d="M0 0 C0.33 1.32 0.66 2.64 1 4 C1.99 4 2.98 4 4 4 C4.33 3.34 4.66 2.68 5 2 C5.33 2.99 5.66 3.98 6 5 C6.33 5.33 6.66 5.66 7 6 C7.40397852 8.19976624 7.7478353 10.41069283 8.0625 12.625 C8.23910156 13.83414063 8.41570313 15.04328125 8.59765625 16.2890625 C9.62370242 25.75259516 9.62370242 25.75259516 8 29 C8.54454834 29.1139209 9.08909668 29.2278418 9.65014648 29.34521484 C15.97760468 30.70501287 22.15042789 32.42955136 28.33789062 34.3203125 C34.99281113 36.25294283 41.09283604 36.98230643 47.8125 34.6875 C48.64652344 34.41679687 49.48054688 34.14609375 50.33984375 33.8671875 C51.21769531 33.58101562 52.09554687 33.29484375 53 33 C54.95435119 32.42381678 56.91275456 31.86119713 58.875 31.3125 C59.75929688 31.06113281 60.64359375 30.80976563 61.5546875 30.55078125 C64 30 64 30 68 30 C68.66 27.36 69.32 24.72 70 22 C71.65 21.67 73.3 21.34 75 21 C76.231394 23.46278801 76.07159196 25.2795055 76 28 C76.81706167 24.9595402 77.6278202 21.91743317 78.4375 18.875 C78.66759766 18.0190625 78.89769531 17.163125 79.13476562 16.28125 C80.30530387 11.87052617 81.35456346 7.52547458 82 3 C83.65 3.33 85.3 3.66 87 4 C86.67 5.32 86.34 6.64 86 8 C86.66 8 87.32 8 88 8 C88 7.34 88 6.68 88 6 C88.66 6 89.32 6 90 6 C90.33 5.34 90.66 4.68 91 4 C90.3123528 19.05710246 88.61428751 34.02038383 87 49 C86.30132812 49.27714844 85.60265625 49.55429688 84.8828125 49.83984375 C83.51769531 50.38318359 83.51769531 50.38318359 82.125 50.9375 C80.76761719 51.47697266 80.76761719 51.47697266 79.3828125 52.02734375 C77.03862333 52.94901262 77.03862333 52.94901262 75 54 C76.98 54.495 76.98 54.495 79 55 C79 55.66 79 56.32 79 57 C77.515 57.495 77.515 57.495 76 58 C76.495 59.98 76.495 59.98 77 62 C79.64 61.67 82.28 61.34 85 61 C85 61.66 85 62.32 85 63 C79.36069987 66.54886991 73.79834384 66.77318682 67.25 67.1875 C66.083479 67.26645508 64.91695801 67.34541016 63.71508789 67.42675781 C14.05497968 70.43271523 14.05497968 70.43271523 -7 64 C-6.67 63.34 -6.34 62.68 -6 62 C-5.34 62 -4.68 62 -4 62 C-3.67 60.35 -3.34 58.7 -3 57 C-5.97 57 -8.94 57 -12 57 C-8.79054398 54.1496974 -6.50011452 53.56548301 -2.25 53.3125 C-1.26515625 53.24675781 -0.2803125 53.18101562 0.734375 53.11328125 C1.85585938 53.05720703 1.85585938 53.05720703 3 53 C1.50146484 52.52820313 1.50146484 52.52820313 -0.02734375 52.046875 C-1.33101444 51.61544441 -2.63438474 51.18310536 -3.9375 50.75 C-4.59685547 50.54503906 -5.25621094 50.34007812 -5.93554688 50.12890625 C-10.7183062 48.51012617 -10.7183062 48.51012617 -11.9296875 46.31640625 C-11.96449219 45.16978516 -11.96449219 45.16978516 -12 44 C-12.05542969 42.79730469 -12.11085937 41.59460938 -12.16796875 40.35546875 C-12.1798656 38.96618152 -12.18621714 37.57683758 -12.1875 36.1875 C-12.20586914 35.15786133 -12.20586914 35.15786133 -12.22460938 34.10742188 C-12.24067509 28.44693556 -11.55180953 23.29897708 -8.3125 18.5 C-6 17 -6 17 -2.25 17.25 C-1.1775 17.4975 -0.105 17.745 1 18 C1 16.02 1 14.04 1 12 C-0.65 12.33 -2.3 12.66 -4 13 C-4.75 10.8125 -4.75 10.8125 -5 8 C-3.125 5.375 -3.125 5.375 -1 3 C-0.67 2.01 -0.34 1.02 0 0 Z " fill="#C72A02" transform="translate(53,108)"/>
<path d="M0 0 C6.15234375 -0.09765625 6.15234375 -0.09765625 8 0 C9 1 9 1 9.0625 4.0625 C9.041875 5.031875 9.02125 6.00125 9 7 C10.65 7 12.3 7 14 7 C14 4.69 14 2.38 14 0 C16.97 0 19.94 0 23 0 C23 9.24 23 18.48 23 28 C25.97 27.67 28.94 27.34 32 27 C32 22.05 32 17.1 32 12 C29.69 12 27.38 12 25 12 C25 8.04 25 4.08 25 0 C32.26 0 39.52 0 47 0 C47.495 3.465 47.495 3.465 48 7 C50.36980013 4.04622502 50.36980013 4.04622502 50 0 C55.27415144 -0.52741514 55.27415144 -0.52741514 58 0 C60.375 2.9375 60.375 2.9375 62 6 C62.99 6.495 62.99 6.495 64 7 C64.28875 6.21625 64.5775 5.4325 64.875 4.625 C66 2 66 2 68 0 C70.68839385 -0.26991906 73.29141936 -0.08737357 76 0 C76.495 0.99 76.495 0.99 77 2 C77.66 1.67 78.32 1.34 79 1 C81.6723621 0.86584528 84.32250488 0.95681459 87 1 C88.38226016 3.76452033 88.09525387 6.0461363 88.0625 9.125 C88.05347656 10.22070312 88.04445313 11.31640625 88.03515625 12.4453125 C88.02355469 13.28835937 88.01195312 14.13140625 88 15 C91.3 15 94.6 15 98 15 C99.10228696 19.40914783 99.07654536 23.48382401 99 28 C99.78375 27.79375 100.5675 27.5875 101.375 27.375 C102.24125 27.25125 103.1075 27.1275 104 27 C104.99 27.99 104.99 27.99 106 29 C67.06 29 28.12 29 -12 29 C-12 35.26912701 -11.99485149 39.27960392 -11 45 C-10.91706737 47.67335756 -10.95386782 50.32433328 -11 53 C-13 52 -13 52 -14 49 C-14.09232973 47.46959123 -14.13067608 45.93553364 -14.1328125 44.40234375 C-14.13410156 43.51869141 -14.13539062 42.63503906 -14.13671875 41.72460938 C-14.13285156 40.80486328 -14.12898438 39.88511719 -14.125 38.9375 C-14.12886719 38.01388672 -14.13273437 37.09027344 -14.13671875 36.13867188 C-14.13542969 35.25630859 -14.13414063 34.37394531 -14.1328125 33.46484375 C-14.13168457 32.656521 -14.13055664 31.84819824 -14.12939453 31.01538086 C-14 29 -14 29 -13 27 C-12.37351562 27.01160156 -11.74703125 27.02320312 -11.1015625 27.03515625 C-9.87566406 27.04869141 -9.87566406 27.04869141 -8.625 27.0625 C-7.40683594 27.07990234 -7.40683594 27.07990234 -6.1640625 27.09765625 C-3.95062858 27.14466334 -3.95062858 27.14466334 -2 26 C-1.97494385 25.31897217 -1.9498877 24.63794434 -1.92407227 23.9362793 C-1.80809048 20.85316245 -1.68537384 17.77034954 -1.5625 14.6875 C-1.52318359 13.61564453 -1.48386719 12.54378906 -1.44335938 11.43945312 C-1.40146484 10.41142578 -1.35957031 9.38339844 -1.31640625 8.32421875 C-1.27974854 7.37635498 -1.24309082 6.42849121 -1.20532227 5.4519043 C-1 3 -1 3 0 0 Z " fill="#FAFAF9" transform="translate(42,5)"/>
<path d="M0 0 C0 3.3 0 6.6 0 10 C-18.81 10 -37.62 10 -57 10 C-57 10.66 -57 11.32 -57 12 C-39.18 12 -21.36 12 -3 12 C-3 12.33 -3 12.66 -3 13 C-20.82 13 -38.64 13 -57 13 C-56.67 18.61 -56.34 24.22 -56 30 C-38.84 30 -21.68 30 -4 30 C-4 43.5 -4 43.5 -4.65625 48.640625 C-4.79160156 49.72988281 -4.92695312 50.81914063 -5.06640625 51.94140625 C-5.20949219 53.03324219 -5.35257812 54.12507813 -5.5 55.25 C-5.64308594 56.38824219 -5.78617187 57.52648437 -5.93359375 58.69921875 C-6.2824806 61.46705442 -6.63802596 64.23385089 -7 67 C-11.71838552 68.82301259 -16.33246637 70.47098972 -21.25 71.6875 C-22.24515625 71.93886719 -23.2403125 72.19023437 -24.265625 72.44921875 C-27 73 -27 73 -31 73 C-31 73.66 -31 74.32 -31 75 C-42.2805142 74.95414425 -54.8775229 72.06123855 -65 67 C-65.41064453 65.23413086 -65.41064453 65.23413086 -65.6328125 62.96484375 C-65.71660156 62.15595703 -65.80039063 61.34707031 -65.88671875 60.51367188 C-65.96535156 59.66353516 -66.04398438 58.81339844 -66.125 57.9375 C-66.21136719 57.08349609 -66.29773438 56.22949219 -66.38671875 55.34960938 C-66.59947228 53.23389367 -66.80079953 51.11703476 -67 49 C-62.71 49 -58.42 49 -54 49 C-53.24627901 52.76860494 -52.88755581 55.56668585 -52.9375 59.3125 C-52.94652344 60.19550781 -52.95554687 61.07851562 -52.96484375 61.98828125 C-52.97644531 62.65214844 -52.98804687 63.31601563 -53 64 C-52.21496094 64.06058594 -51.42992188 64.12117188 -50.62109375 64.18359375 C-41.5174538 64.90965092 -41.5174538 64.90965092 -37.0625 65.6875 C-33.57558174 66.04330799 -32.17570168 65.36101501 -29 64 C-27.4505392 63.77116807 -25.89456998 63.58414657 -24.3359375 63.4296875 C-23.52431152 63.34702637 -22.71268555 63.26436523 -21.87646484 63.17919922 C-21.25723145 63.12006348 -20.63799805 63.06092773 -20 63 C-19.83222143 59.39588419 -19.66596812 55.7916996 -19.5 52.1875 C-19.45230469 51.16333984 -19.40460938 50.13917969 -19.35546875 49.08398438 C-19.31035156 48.10107422 -19.26523438 47.11816406 -19.21875 46.10546875 C-19.1559082 44.74651489 -19.1559082 44.74651489 -19.09179688 43.36010742 C-19.02234503 41.57449311 -19 39.78696447 -19 38 C-35.17 38 -51.34 38 -68 38 C-69.07385014 34.77844957 -69.40538546 31.91703323 -69.75390625 28.5390625 C-69.88603516 27.26289062 -70.01816406 25.98671875 -70.15429688 24.671875 C-70.22124756 24.00736328 -70.28819824 23.34285156 -70.35717773 22.65820312 C-70.56110301 20.63883371 -70.77134712 18.62019573 -70.98242188 16.6015625 C-72.08929356 5.78366385 -72.08929356 5.78366385 -72 1 C-47.99177769 0.19372172 -24.02135419 -0.13945945 0 0 Z " fill="#EAE8E7" transform="translate(127,66)"/>
<path d="M0 0 C17.16 0 34.32 0 52 0 C51.525625 4.3725 51.05125 8.745 50.5625 13.25 C50.41498291 14.62317383 50.26746582 15.99634766 50.11547852 17.41113281 C49.99615967 18.49749023 49.87684082 19.58384766 49.75390625 20.703125 C49.63345947 21.81333008 49.5130127 22.92353516 49.38891602 24.06738281 C49.07072329 26.46671177 48.60423881 28.66562101 48 31 C47.80815815 32.40434232 47.6425631 33.81245896 47.5 35.22265625 C47.4175 36.00833984 47.335 36.79402344 47.25 37.60351562 C47.08294025 39.24670488 46.91627542 40.88993432 46.75 42.53320312 C46.6675 43.31759766 46.585 44.10199219 46.5 44.91015625 C46.4278125 45.62308838 46.355625 46.33602051 46.28125 47.07055664 C46 49 46 49 45 52 C44.76926027 55.35427201 44.61886668 58.7072787 44.4765625 62.06640625 C44.31929688 63.03449219 44.16203125 64.00257812 44 65 C41 67 41 67 39 67 C38.34 68.65 37.68 70.3 37 72 C35.515 71.505 35.515 71.505 34 71 C34.14032492 67.81223289 34.28826644 64.6248615 34.4375 61.4375 C34.47681641 60.54224609 34.51613281 59.64699219 34.55664062 58.72460938 C34.79332783 53.7541781 35.19821672 48.91176481 36 44 C35.01 44.495 35.01 44.495 34 45 C32.3351936 45.09039906 30.66676579 45.11755257 28.99951172 45.11352539 C27.43811966 45.11341209 27.43811966 45.11341209 25.84518433 45.11329651 C24.71807037 45.10813522 23.59095642 45.10297394 22.4296875 45.09765625 C21.27832306 45.0962413 20.12695862 45.09482635 18.94070435 45.09336853 C15.25211014 45.08775716 11.56357595 45.0752027 7.875 45.0625 C5.37890712 45.05748647 2.8828133 45.05292331 0.38671875 45.04882812 C-5.74220809 45.03778403 -11.87109976 45.0210348 -18 45 C-18 44.67 -18 44.34 -18 44 C-11.73 44 -5.46 44 1 44 C1 39.71 1 35.42 1 31 C-5.6 31 -12.2 31 -19 31 C-19 33.97 -19 36.94 -19 40 C-19.33 40 -19.66 40 -20 40 C-20 35.71 -20 31.42 -20 27 C-1.19 27 17.62 27 37 27 C37.66 23.04 38.32 19.08 39 15 C38.05310303 15.00523682 37.10620605 15.01047363 36.13061523 15.01586914 C11.40235516 15.13974234 -13.28362575 14.76212537 -38 14 C-38 13.34 -38 12.68 -38 12 C-25.79 12 -13.58 12 -1 12 C-0.67 8.04 -0.34 4.08 0 0 Z " fill="#EE783B" transform="translate(90,49)"/>
<path d="M0 0 C5.27415144 -0.52741514 5.27415144 -0.52741514 8 0 C10.375 2.9375 10.375 2.9375 12 6 C12.66 6.33 13.32 6.66 14 7 C14.28875 6.21625 14.5775 5.4325 14.875 4.625 C16 2 16 2 18 0 C20.68839385 -0.26991906 23.29141936 -0.08737357 26 0 C26.33 0.66 26.66 1.32 27 2 C27.66 1.67 28.32 1.34 29 1 C31.6723621 0.86584528 34.32250488 0.95681459 37 1 C38.38226016 3.76452033 38.09525387 6.0461363 38.0625 9.125 C38.05347656 10.22070312 38.04445312 11.31640625 38.03515625 12.4453125 C38.02355469 13.28835937 38.01195312 14.13140625 38 15 C41.3 15 44.6 15 48 15 C49.10228696 19.40914783 49.07654536 23.48382401 49 28 C49.78375 27.79375 50.5675 27.5875 51.375 27.375 C52.674375 27.189375 52.674375 27.189375 54 27 C54.66 27.66 55.32 28.32 56 29 C49.08946164 29.1397637 42.2124732 28.91632756 35.3125 28.5625 C34.51739014 28.52326416 33.72228027 28.48402832 32.90307617 28.44360352 C27.89558132 28.17282979 22.96925788 27.67581907 18 27 C17.67 24.36 17.34 21.72 17 19 C16.01 20.65 15.02 22.3 14 24 C13.01 23.67 12.02 23.34 11 23 C9.8125 20.4375 9.8125 20.4375 9 18 C8.34 18 7.68 18 7 18 C7 20.97 7 23.94 7 27 C4.36 27 1.72 27 -1 27 C-1.02913821 23.4375173 -1.04684529 19.87506546 -1.0625 16.3125 C-1.07087891 15.30509766 -1.07925781 14.29769531 -1.08789062 13.25976562 C-1.09111328 12.28330078 -1.09433594 11.30683594 -1.09765625 10.30078125 C-1.10289307 9.40528564 -1.10812988 8.50979004 -1.11352539 7.5871582 C-0.99840198 4.96358241 -0.58234285 2.55706947 0 0 Z " fill="#ECE9E9" transform="translate(92,5)"/>
<path d="M0 0 C-3.96 1.98 -3.96 1.98 -8 4 C-6.68 4.33 -5.36 4.66 -4 5 C-4 5.66 -4 6.32 -4 7 C-4.99 7.33 -5.98 7.66 -7 8 C-6.505 9.98 -6.505 9.98 -6 12 C-3.36 11.67 -0.72 11.34 2 11 C2 11.66 2 12.32 2 13 C-3.63930013 16.54886991 -9.20165616 16.77318682 -15.75 17.1875 C-16.916521 17.26645508 -18.08304199 17.34541016 -19.28491211 17.42675781 C-68.94502032 20.43271523 -68.94502032 20.43271523 -90 14 C-89.67 13.34 -89.34 12.68 -89 12 C-88.34 12 -87.68 12 -87 12 C-86.67 10.35 -86.34 8.7 -86 7 C-88.97 7 -91.94 7 -95 7 C-91.81091946 4.17365848 -89.59641344 3.59119098 -85.375 3.375 C-81.54181517 3.24013568 -81.54181517 3.24013568 -78 2 C-75.25519166 2.57739626 -72.58128514 3.21535656 -69.875 3.9375 C-69.12089844 4.13279297 -68.36679688 4.32808594 -67.58984375 4.52929688 C-65.72491694 5.01323358 -63.86223541 5.50580769 -62 6 C-62 6.66 -62 7.32 -62 8 C-57.91680782 8.0885085 -53.83386837 8.14089063 -49.75 8.1875 C-48.61046875 8.21263672 -47.4709375 8.23777344 -46.296875 8.26367188 C-38.38375435 8.33111324 -31.56832082 7.24581694 -24 5 C-22.02906015 4.45163367 -20.05770777 3.90474784 -18.0859375 3.359375 C-15.19191971 2.5460494 -12.29947728 1.72830836 -9.41015625 0.8984375 C-8.47816406 0.63804687 -7.54617187 0.37765625 -6.5859375 0.109375 C-5.7511084 -0.12813477 -4.9162793 -0.36564453 -4.05615234 -0.61035156 C-2 -1 -2 -1 0 0 Z " fill="#AFAEAC" transform="translate(136,158)"/>
<path d="M0 0 C40.26 0 80.52 0 122 0 C122 1.98 122 3.96 122 6 C82.07 6 42.14 6 1 6 C0.34 7.32 -0.32 8.64 -1 10 C-1.125 3.375 -1.125 3.375 0 0 Z " fill="#F5A766" transform="translate(30,34)"/>
<path d="M0 0 C2.475 0.495 2.475 0.495 5 1 C4.79375 1.5775 4.5875 2.155 4.375 2.75 C3.75615542 5.00127445 3.75615542 5.00127445 5 6.75 C6.34734913 9.78153554 5.98097113 11.97506564 5.625 15.25 C5.51414063 16.32765625 5.40328125 17.4053125 5.2890625 18.515625 C5.14597656 19.74539062 5.14597656 19.74539062 5 21 C4.505 19.02 4.505 19.02 4 17 C2.68 17 1.36 17 0 17 C-0.495 16.01 -0.495 16.01 -1 15 C-2.43065307 21.74233308 -3.53491098 28.47861169 -4.4375 35.3125 C-5 38 -5 38 -7 40 C-10.25757583 40.70463984 -13.50411413 41.25215041 -16.79492188 41.76757812 C-20.332019 42.36535084 -23.43988916 43.08742638 -26.7109375 44.5859375 C-29.82679714 45.92553511 -31.6122323 46.34097389 -34.9375 46.1875 C-35.70964844 46.16042969 -36.48179688 46.13335937 -37.27734375 46.10546875 C-37.84582031 46.07066406 -38.41429688 46.03585938 -39 46 C-39 46.66 -39 47.32 -39 48 C-40.65 48 -42.3 48 -44 48 C-44.03867188 46.73542969 -44.03867188 46.73542969 -44.078125 45.4453125 C-44.16320312 43.80175781 -44.16320312 43.80175781 -44.25 42.125 C-44.29640625 41.03445312 -44.3428125 39.94390625 -44.390625 38.8203125 C-44.68846128 35.8667935 -44.68846128 35.8667935 -47.046875 34.6171875 C-47.69140625 34.41351563 -48.3359375 34.20984375 -49 34 C-47 33 -47 33 -43.5 33.125 C-38.31099071 33.19044696 -33.88687379 31.5930778 -29 30 C-27.04564881 29.42381678 -25.08724544 28.86119713 -23.125 28.3125 C-22.24070312 28.06113281 -21.35640625 27.80976563 -20.4453125 27.55078125 C-18 27 -18 27 -14 27 C-13.34 24.36 -12.68 21.72 -12 19 C-10.35 18.67 -8.7 18.34 -7 18 C-5.768606 20.46278801 -5.92840804 22.2795055 -6 25 C-5.18293833 21.9595402 -4.3721798 18.91743317 -3.5625 15.875 C-3.33240234 15.0190625 -3.10230469 14.163125 -2.86523438 13.28125 C-1.69469613 8.87052617 -0.64543654 4.52547458 0 0 Z " fill="#DF3E03" transform="translate(135,111)"/>
<path d="M0 0 C0.33 0.99 0.66 1.98 1 3 C17.17 3 33.34 3 50 3 C52.5871362 10.76140859 50.481888 19.18039459 49 27 C45.37 27 41.74 27 38 27 C38 27.66 38 28.32 38 29 C36.33388095 29.042721 34.66617115 29.04063832 33 29 C32 28 32 28 31.88647461 26.05053711 C31.89171143 25.2178833 31.89694824 24.38522949 31.90234375 23.52734375 C31.90556641 22.62822266 31.90878906 21.72910156 31.91210938 20.80273438 C31.92467773 19.38444336 31.92467773 19.38444336 31.9375 17.9375 C31.94201172 16.98810547 31.94652344 16.03871094 31.95117188 15.06054688 C31.9629989 12.70696935 31.97947975 10.35351523 32 8 C31.21351074 8.00523682 30.42702148 8.01047363 29.61669922 8.01586914 C26.03614101 8.0367201 22.45559562 8.04968601 18.875 8.0625 C17.6375 8.07087891 16.4 8.07925781 15.125 8.08789062 C13.92617187 8.09111328 12.72734375 8.09433594 11.4921875 8.09765625 C9.84259033 8.10551147 9.84259033 8.10551147 8.15966797 8.11352539 C5.02381895 8.0008558 2.07940617 7.58626376 -1 7 C-0.67 4.69 -0.34 2.38 0 0 Z " fill="#E9601E" transform="translate(58,101)"/>
<path d="M0 0 C0 0.66 0 1.32 0 2 C-1.65 2 -3.3 2 -5 2 C-5 2.99 -5 3.98 -5 5 C-3.68 5 -2.36 5 -1 5 C-1.80035539 16.35240938 -2.89645505 27.67380573 -4 39 C-4.66 39 -5.32 39 -6 39 C-6 36.36 -6 33.72 -6 31 C-6.66 31 -7.32 31 -8 31 C-8.12375 31.515625 -8.2475 32.03125 -8.375 32.5625 C-10.57894737 41.15789474 -10.57894737 41.15789474 -12 44 C-11.67 44.99 -11.34 45.98 -11 47 C-11.9375 49.1875 -11.9375 49.1875 -13 51 C-13.33 51 -13.66 51 -14 51 C-14.23866917 43.641034 -13.81147241 36.71383106 -12.57421875 29.45703125 C-11.72786012 24.36160683 -11.10937686 19.24149205 -10.46484375 14.1171875 C-10 11 -10 11 -9 8 C-20.385 7.505 -20.385 7.505 -32 7 C-32 6.67 -32 6.34 -32 6 C-34.31 5.67 -36.62 5.34 -39 5 C-38.67 3.68 -38.34 2.36 -38 1 C-25.32056251 -0.01726146 -12.71460452 -0.11427673 0 0 Z " fill="#E44B24" transform="translate(151,41)"/>
<path d="M0 0 C4.29 0 8.58 0 13 0 C13.75372099 3.76860494 14.11244419 6.56668585 14.0625 10.3125 C14.05347656 11.19550781 14.04445313 12.07851562 14.03515625 12.98828125 C14.02355469 13.65214844 14.01195313 14.31601563 14 15 C15.17755859 15.09087891 15.17755859 15.09087891 16.37890625 15.18359375 C25.4825462 15.90965092 25.4825462 15.90965092 29.9375 16.6875 C33.42441826 17.04330799 34.82429832 16.36101501 38 15 C40.98925039 14.5346683 43.98572374 14.24954793 47 14 C47 14.66 47 15.32 47 16 C46.33613281 16.12117188 45.67226562 16.24234375 44.98828125 16.3671875 C38.22314518 17.42518652 38.22314518 17.42518652 32 20 C31.10613836 22.54775306 31.10613836 22.54775306 31 25 C32.65 25 34.3 25 36 25 C36 25.33 36 25.66 36 26 C24.7194858 25.95414425 12.1224771 23.06123855 2 18 C1.58935547 16.23413086 1.58935547 16.23413086 1.3671875 13.96484375 C1.28339844 13.15595703 1.19960938 12.34707031 1.11328125 11.51367188 C1.03464844 10.66353516 0.95601562 9.81339844 0.875 8.9375 C0.78863281 8.08349609 0.70226563 7.22949219 0.61328125 6.34960938 C0.40052772 4.23389367 0.19920047 2.11703476 0 0 Z " fill="#D4C7CF" transform="translate(60,115)"/>
<path d="M0 0 C0.66 0.33 1.32 0.66 2 1 C2.495 2.485 2.495 2.485 3 4 C3.66 4 4.32 4 5 4 C5 4.99 5 5.98 5 7 C0.40490655 11.32795894 -5.75490728 10.37665176 -11.64453125 10.29296875 C-12.7694548 10.28872391 -13.89437836 10.28447906 -15.0533905 10.28010559 C-18.64000562 10.2633369 -22.22605521 10.22568688 -25.8125 10.1875 C-28.24673667 10.17245087 -30.68098216 10.15876287 -33.11523438 10.14648438 C-39.07701529 10.11343925 -45.03846723 10.06325728 -51 10 C-51 9.34 -51 8.68 -51 8 C-53.64 8 -56.28 8 -59 8 C-59 6.68 -59 5.36 -59 4 C-45.77909739 -0.38954869 -45.77909739 -0.38954869 -41 2 C-41 2.66 -41 3.32 -41 4 C-36.91680782 4.0885085 -32.83386837 4.14089063 -28.75 4.1875 C-27.04070312 4.22520508 -27.04070312 4.22520508 -25.296875 4.26367188 C-16.31815738 4.34019504 -8.49324931 2.8310831 0 0 Z " fill="#8B8D8E" transform="translate(115,162)"/>
<path d="M0 0 C0.99 0.33 1.98 0.66 3 1 C2.34 1 1.68 1 1 1 C1.19471111 2.94999129 1.19471111 2.94999129 2 5 C4.58152302 6.72101535 5.84918025 7 9 7 C8.67 6.01 8.34 5.02 8 4 C10 5 12 6 14 7 C14.309375 6.21625 14.61875 5.4325 14.9375 4.625 C16 2 16 2 17 0 C19.97 0 22.94 0 26 0 C26 6.93 26 13.86 26 21 C23.36 21 20.72 21 18 21 C17.67 18.36 17.34 15.72 17 13 C16.01 14.65 15.02 16.3 14 18 C13.01 17.67 12.02 17.34 11 17 C9.8125 14.4375 9.8125 14.4375 9 12 C8.34 12 7.68 12 7 12 C7 14.97 7 17.94 7 21 C4.69 21 2.38 21 0 21 C0 14.07 0 7.14 0 0 Z " fill="#0D0D0D" transform="translate(92,11)"/>
<path d="M0 0 C2.64 0 5.28 0 8 0 C8 7.26 8 14.52 8 22 C5.36 22 2.72 22 0 22 C0 19.69 0 17.38 0 15 C-1.98 15 -3.96 15 -6 15 C-6 17.31 -6 19.62 -6 22 C-8.64 22 -11.28 22 -14 22 C-14 15.07 -14 8.14 -14 1 C-12.68 1 -11.36 1 -10 1 C-10 1.66 -10 2.32 -10 3 C-9.01 3.33 -8.02 3.66 -7 4 C-7 5.32 -7 6.64 -7 8 C-4.69 8 -2.38 8 0 8 C0 5.36 0 2.72 0 0 Z " fill="#050504" transform="translate(56,10)"/>
<path d="M0 0 C6.6 0 13.2 0 20 0 C20 4.29 20 8.58 20 13 C36.335 13.495 36.335 13.495 53 14 C53 15.65 53 17.3 53 19 C52.505 17.515 52.505 17.515 52 16 C34.84 16 17.68 16 0 16 C0 10.72 0 5.44 0 0 Z " fill="#A5563B" transform="translate(71,80)"/>
<path d="M0 0 C0.89137382 0.00829614 1.78274763 0.01659227 2.70113277 0.02513981 C4.23036373 0.03569904 4.23036373 0.03569904 5.79048824 0.0464716 C6.91833233 0.05941761 8.04617641 0.07236362 9.20819759 0.08570194 C10.97868969 0.10011326 10.97868969 0.10011326 12.7849493 0.11481571 C16.03070179 0.14222385 19.27637386 0.17411828 22.52206445 0.20796561 C25.91065096 0.24225625 29.29928517 0.2708696 32.68791866 0.30007267 C39.10884186 0.35627698 45.52970535 0.41762295 51.95056337 0.48079401 C59.25875579 0.55244634 66.5669961 0.61840051 73.87524617 0.68386447 C88.91264308 0.81869087 103.94996441 0.96071073 118.98725033 1.10743046 C118.47495789 10.12830326 117.88566524 19.10315278 116.79584408 28.07618046 C116.6862788 29.00797123 116.57671352 29.939762 116.46382809 30.89978886 C116.12154436 33.80283646 115.77328859 36.70512789 115.42475033 39.60743046 C115.18802107 41.6060809 114.95169043 43.6047786 114.71576595 45.60352421 C114.14417562 50.43871524 113.56723816 55.27323983 112.98725033 60.10743046 C112.65725033 60.10743046 112.32725033 60.10743046 111.98725033 60.10743046 C111.61645591 50.40564105 112.76639724 40.96547547 113.92475033 31.35743046 C114.10955448 29.780673 114.29380282 28.2038503 114.4774847 26.62696171 C115.24218369 20.10921921 116.03747273 13.60118504 116.98725033 7.10743046 C115.66725033 7.10743046 114.34725033 7.10743046 112.98725033 7.10743046 C112.98725033 6.11743046 112.98725033 5.12743046 112.98725033 4.10743046 C114.63725033 4.10743046 116.28725033 4.10743046 117.98725033 4.10743046 C117.98725033 3.44743046 117.98725033 2.78743046 117.98725033 2.10743046 C102.61918486 2.2145364 87.25116792 2.32727353 71.88319397 2.44676971 C64.74805581 2.50211791 57.61291266 2.55560247 50.47772884 2.60474491 C43.59831493 2.65213095 36.71895577 2.70465064 29.83960438 2.76037121 C27.20844902 2.78083005 24.57727947 2.79953714 21.94609928 2.81650448 C18.27494935 2.84047062 14.60389821 2.87053547 10.93280697 2.90210819 C9.8330151 2.90786366 8.73322323 2.91361912 7.60010433 2.91954899 C6.60585949 2.92933781 5.61161465 2.93912663 4.58724117 2.94921207 C3.283365 2.9588909 3.283365 2.9588909 1.95314789 2.96876526 C-0.0156089 2.89175571 -0.0156089 2.89175571 -1.01274967 4.10743046 C-0.95863551 6.0383822 -0.83101646 7.96735841 -0.67290592 9.89258671 C-0.53272038 11.64732304 -0.53272038 11.64732304 -0.3897028 13.43750858 C-0.28593327 14.6692078 -0.18216373 15.90090702 -0.07524967 17.16993046 C0.02465267 18.40549686 0.12455502 19.64106327 0.2274847 20.91407108 C0.47598794 23.97894435 0.72946297 27.04332636 0.98725033 30.10743046 C1.64725033 29.77743046 2.30725033 29.44743046 2.98725033 29.10743046 C3.01230648 29.91373905 3.03736263 30.72004765 3.06317806 31.55078983 C3.17987713 35.23646921 3.30226624 38.92193898 3.42475033 42.60743046 C3.46406673 43.87586796 3.50338314 45.14430546 3.54389095 46.45118046 C3.77702119 54.04863505 3.77702119 54.04863505 4.51850033 61.60743046 C4.971664 64.99105254 5.08849931 68.19752007 5.04975033 71.60743046 C5.04072689 72.64899296 5.03170345 73.69055546 5.02240658 74.76368046 C5.01080502 75.53711796 4.99920345 76.31055546 4.98725033 77.10743046 C4.65725033 77.10743046 4.32725033 77.10743046 3.98725033 77.10743046 C3.14664893 69.95869207 2.31103497 62.80938271 1.47870541 55.65967655 C1.19564398 53.23311355 0.91148745 50.80667802 0.62616634 48.38037968 C-3.75400619 11.11439342 -3.75400619 11.11439342 -3.01274967 1.10743046 C-2.01274967 0.10743046 -2.01274967 0.10743046 0 0 Z " fill="#D04D21" transform="translate(33.012749671936035,38.89256954193115)"/>
<path d="M0 0 C1.68964597 0.00186847 3.3792925 0.00329034 5.06893921 0.00428772 C9.48457371 0.00807915 13.90017456 0.01788007 18.3157959 0.0289917 C22.83422389 0.03927891 27.35265739 0.0438009 31.87109375 0.04882812 C40.713557 0.05950584 49.55599304 0.07654102 58.3984375 0.09765625 C58.3984375 1.41765625 58.3984375 2.73765625 58.3984375 4.09765625 C29.6884375 4.09765625 0.9784375 4.09765625 -28.6015625 4.09765625 C-28.2715625 3.10765625 -27.9415625 2.11765625 -27.6015625 1.09765625 C-18.39776193 -0.06794338 -9.25741748 -0.03026786 0 0 Z " fill="#D1682A" transform="translate(59.6015625,33.90234375)"/>
<path d="M0 0 C0.62382568 0.35932617 1.24765137 0.71865234 1.89038086 1.08886719 C4.08785216 0.79081712 4.08785216 0.79081712 5.89038086 0.08886719 C5.22631836 2.01464844 5.22631836 2.01464844 3.89038086 4.08886719 C1.49194336 4.88183594 1.49194336 4.88183594 -1.48461914 5.27636719 C-2.55325195 5.42332031 -3.62188477 5.57027344 -4.72290039 5.72167969 C-9.01471329 6.18699735 -13.30569214 6.56244963 -17.61352539 6.84277344 C-20.23754184 7.00838525 -20.23754184 7.00838525 -23.10961914 8.08886719 C-24.8712851 8.18184459 -26.6362734 8.2167874 -28.40039062 8.21826172 C-29.48259384 8.22141388 -30.56479706 8.22456604 -31.67979431 8.22781372 C-32.85159744 8.22578949 -34.02340057 8.22376526 -35.23071289 8.22167969 C-36.44098648 8.22263641 -37.65126007 8.22359314 -38.89820862 8.22457886 C-41.46631929 8.22526029 -44.03443168 8.22340859 -46.60253906 8.21923828 C-50.5001218 8.21393118 -54.39758708 8.21916285 -58.29516602 8.22558594 C-60.79451523 8.22492433 -63.29386436 8.22364148 -65.79321289 8.22167969 C-67.52359047 8.22471603 -67.52359047 8.22471603 -69.28892517 8.22781372 C-76.60947744 8.20703565 -83.82485436 7.81192716 -91.10961914 7.08886719 C-91.10961914 6.42886719 -91.10961914 5.76886719 -91.10961914 5.08886719 C-91.81989258 5.03988281 -92.53016602 4.99089844 -93.26196289 4.94042969 C-94.18106445 4.86566406 -95.10016602 4.79089844 -96.04711914 4.71386719 C-97.4219043 4.60945312 -97.4219043 4.60945312 -98.82446289 4.50292969 C-99.95561523 4.29796875 -99.95561523 4.29796875 -101.10961914 4.08886719 C-101.43961914 3.42886719 -101.76961914 2.76886719 -102.10961914 2.08886719 C-97.47398781 1.94170429 -93.30813968 1.91100497 -88.79711914 3.02636719 C-78.14892979 5.65329197 -66.94890175 5.29295228 -56.04711914 5.27636719 C-55.31260529 5.27576294 -54.57809143 5.27515869 -53.82131958 5.27453613 C-43.54436443 5.25176049 -33.30464771 5.01013563 -23.04711914 4.33886719 C-21.42761353 4.24641724 -21.42761353 4.24641724 -19.77539062 4.15209961 C-13.81817115 3.6967617 -9.28281497 2.668491 -4.04931641 -0.27539062 C-2.10961914 -0.91113281 -2.10961914 -0.91113281 0 0 Z " fill="#EBEAEA" transform="translate(143.109619140625,169.9111328125)"/>
<path d="M0 0 C8.91 0 17.82 0 27 0 C27.33 6.93 27.66 13.86 28 21 C24.37 20.34 20.74 19.68 17 19 C17 18.01 17 17.02 17 16 C15.68 15.67 14.36 15.34 13 15 C12.67 10.71 12.34 6.42 12 2 C14.31 2 16.62 2 19 2 C12.73 1.67 6.46 1.34 0 1 C0 0.67 0 0.34 0 0 Z " fill="#E24211" transform="translate(63,109)"/>
<path d="M0 0 C6.93 0 13.86 0 21 0 C21 2.31 21 4.62 21 7 C19.02 7 17.04 7 15 7 C15 11.95 15 16.9 15 22 C12.36 22 9.72 22 7 22 C7 17.05 7 12.1 7 7 C4.69 7 2.38 7 0 7 C0 4.69 0 2.38 0 0 Z " fill="#030303" transform="translate(67,10)"/>
<path d="M0 0 C6.15234375 -0.09765625 6.15234375 -0.09765625 8 0 C9 1 9 1 9.0625 4.0625 C9.041875 5.031875 9.02125 6.00125 9 7 C10.65 7 12.3 7 14 7 C14 8.98 14 10.96 14 13 C11.69 13 9.38 13 7 13 C6.87625 12.360625 6.7525 11.72125 6.625 11.0625 C6.41875 10.381875 6.2125 9.70125 6 9 C5.34 8.67 4.68 8.34 4 8 C4 7.34 4 6.68 4 6 C2.68 6 1.36 6 0 6 C0 12.93 0 19.86 0 27 C2.64 27 5.28 27 8 27 C8 24.69 8 22.38 8 20 C9.98 20 11.96 20 14 20 C14 22.31 14 24.62 14 27 C16.64 27 19.28 27 22 27 C22 19.74 22 12.48 22 5 C19.36 5 16.72 5 14 5 C14 3.35 14 1.7 14 0 C16.97 0 19.94 0 23 0 C23 9.24 23 18.48 23 28 C14.09 28 5.18 28 -4 28 C-3.34 27.34 -2.68 26.68 -2 26 C-1.64547563 23.62639401 -1.64547563 23.62639401 -1.62109375 20.87890625 C-1.58693359 19.86119141 -1.55277344 18.84347656 -1.51757812 17.79492188 C-1.47793945 16.19487305 -1.47793945 16.19487305 -1.4375 14.5625 C-1.37756066 12.45952177 -1.31392402 10.35664475 -1.24609375 8.25390625 C-1.22216553 7.31877197 -1.1982373 6.3836377 -1.17358398 5.42016602 C-1 3 -1 3 0 0 Z " fill="#F9F6F2" transform="translate(42,5)"/>
<path d="M0 0 C0.33 0 0.66 0 1 0 C1 4.95 1 9.9 1 15 C-0.63710937 15.42152344 -2.27421875 15.84304687 -3.9609375 16.27734375 C-6.09898881 16.83061141 -8.23700799 17.38400325 -10.375 17.9375 C-11.45523438 18.21529297 -12.53546875 18.49308594 -13.6484375 18.77929688 C-14.6796875 19.04677734 -15.7109375 19.31425781 -16.7734375 19.58984375 C-17.72653809 19.83597412 -18.67963867 20.08210449 -19.66162109 20.33569336 C-21.99611383 20.9206543 -21.99611383 20.9206543 -24 22 C-30.84717958 22.48406515 -36.63510708 21.01722898 -43.1875 19.125 C-44.64446289 18.72087891 -44.64446289 18.72087891 -46.13085938 18.30859375 C-50.53076735 17.07215628 -54.77355738 15.75098851 -59 14 C-58.67 12.68 -58.34 11.36 -58 10 C-56.33333333 10.41666667 -54.66666667 10.83333333 -53 11.25 C-51.91460937 11.52070313 -50.82921875 11.79140625 -49.7109375 12.0703125 C-47.089821 12.72697116 -44.47016994 13.3881991 -41.8515625 14.0546875 C-41.1503125 14.23225586 -40.4490625 14.40982422 -39.7265625 14.59277344 C-38.35367832 14.94046018 -36.98125917 15.28998978 -35.609375 15.64160156 C-31.7584574 16.61399692 -27.92675003 17.40430108 -24 18 C-24 17.34 -24 16.68 -24 16 C-16.41 14.02 -8.82 12.04 -1 10 C-0.67 6.7 -0.34 3.4 0 0 Z " fill="#FDA955" transform="translate(120,123)"/>
<path d="M0 0 C0.66 0 1.32 0 2 0 C3.01866229 1.65532623 4.01810813 3.32260138 5 5 C5.99 5.495 5.99 5.495 7 6 C7.28875 5.195625 7.5775 4.39125 7.875 3.5625 C9 1 9 1 11 0 C11 2.97 11 5.94 11 9 C24.365 9.495 24.365 9.495 38 10 C38 10.33 38 10.66 38 11 C2.69 11 -32.62 11 -69 11 C-69 17.26912701 -68.99485149 21.27960392 -68 27 C-67.91706737 29.67335756 -67.95386782 32.32433328 -68 35 C-70 34 -70 34 -71 31 C-71.09232973 29.46959123 -71.13067608 27.93553364 -71.1328125 26.40234375 C-71.13410156 25.51869141 -71.13539062 24.63503906 -71.13671875 23.72460938 C-71.13285156 22.80486328 -71.12898438 21.88511719 -71.125 20.9375 C-71.12886719 20.01388672 -71.13273437 19.09027344 -71.13671875 18.13867188 C-71.13542969 17.25630859 -71.13414063 16.37394531 -71.1328125 15.46484375 C-71.13168457 14.656521 -71.13055664 13.84819824 -71.12939453 13.01538086 C-71 11 -71 11 -70 9 C-46.9 9 -23.8 9 0 9 C0 6.03 0 3.06 0 0 Z " fill="#FAE9D9" transform="translate(99,23)"/>
<path d="M0 0 C0.66 0 1.32 0 2 0 C1.67 7.92 1.34 15.84 1 24 C2.32 23.34 3.64 22.68 5 22 C6.051875 21.7525 6.051875 21.7525 7.125 21.5 C9.22679483 21.10722935 9.22679483 21.10722935 11 19 C10.37392048 24.79947349 9.32599062 30.33809831 7.9375 36 C7.75123047 36.77472656 7.56496094 37.54945313 7.37304688 38.34765625 C6.91923822 40.23270759 6.46017508 42.1164927 6 44 C5.34 43.67 4.68 43.34 4 43 C4 41.02 4 39.04 4 37 C2.04105639 37.11306697 2.04105639 37.11306697 0 38 C-1.29660434 40.49034386 -1.29660434 40.49034386 -2 43 C-2.66 43 -3.32 43 -4 43 C-3.56993086 28.4962889 -2.20708486 14.34086088 0 0 Z " fill="#E44B10" transform="translate(124,93)"/>
<path d="M0 0 C0.66 0 1.32 0 2 0 C2.144375 1.0725 2.28875 2.145 2.4375 3.25 C2.83749442 5.91662949 3.27591924 8.41399729 4 11 C4.66 11 5.32 11 6 11 C6 11.99 6 12.98 6 14 C6.66 14.33 7.32 14.66 8 15 C7.93958131 17.0632984 7.85068362 19.12577414 7.75 21.1875 C7.68039063 22.91033203 7.68039063 22.91033203 7.609375 24.66796875 C6.89990108 28.54733577 5.46779091 30.00068489 3 33 C2.10381919 36.10071259 2.10381919 36.10071259 1.75 39.3125 C1.60046875 40.38113281 1.4509375 41.44976562 1.296875 42.55078125 C1.14992187 43.76314453 1.14992187 43.76314453 1 45 C0.67 45 0.34 45 0 45 C-1.2936377 35.43632128 -2.20663899 25.97116511 -2.25 16.3125 C-2.25902344 15.4884668 -2.26804688 14.66443359 -2.27734375 13.81542969 C-2.25293294 8.8376597 -1.59229114 4.72000589 0 0 Z " fill="#DE4118" transform="translate(40,97)"/>
<path d="M0 0 C1.65 0 3.3 0 5 0 C5 0.66 5 1.32 5 2 C11.6 2 18.2 2 25 2 C24.67 2.66 24.34 3.32 24 4 C21.69 3.67 19.38 3.34 17 3 C17.66 7.29 18.32 11.58 19 16 C20.32 16 21.64 16 23 16 C22.67 17.32 22.34 18.64 22 20 C27.28 20.66 32.56 21.32 38 22 C38 21.34 38 20.68 38 20 C41.63 20 45.26 20 49 20 C43.03719906 23.97520063 34.10847629 25.70270837 27.03515625 24.44140625 C25.70790285 24.16250771 24.38412263 23.86696609 23.0625 23.5625 C20.731875 23.046875 18.40125 22.53125 16 22 C15.67 17.05 15.34 12.1 15 7 C9.39 7 3.78 7 -2 7 C-1.34 6.01 -0.68 5.02 0 4 C0 2.68 0 1.36 0 0 Z " fill="#D54317" transform="translate(58,108)"/>
<path d="M0 0 C17.16 0 34.32 0 52 0 C52 13.5 52 13.5 51 19 C50.67 19 50.34 19 50 19 C49.61936779 16.6739143 49.28730055 14.33944736 49 12 C49.33 11.67 49.66 11.34 50 11 C50 9.02 50 7.04 50 5 C25.745 4.505 25.745 4.505 1 4 C0.67 2.68 0.34 1.36 0 0 Z " fill="#C7C4C3" transform="translate(71,96)"/>
<path d="M0 0 C2.31 0 4.62 0 7 0 C7 4.62 7 9.24 7 14 C10.63 14 14.26 14 18 14 C18 16.31 18 18.62 18 21 C12.06 21 6.12 21 0 21 C0 14.07 0 7.14 0 0 Z " fill="#040304" transform="translate(122,11)"/>
<path d="M0 0 C0.33 0.99 0.66 1.98 1 3 C17.17 3 33.34 3 50 3 C50.96070434 5.88211302 51.10581883 7.69850044 51.0625 10.6875 C51.05347656 11.49574219 51.04445312 12.30398437 51.03515625 13.13671875 C51.02355469 13.75160156 51.01195312 14.36648437 51 15 C50.505 13.02 50.505 13.02 50 11 C49.34 11 48.68 11 48 11 C48 10.01 48 9.02 48 8 C23.745 7.505 23.745 7.505 -1 7 C-0.67 4.69 -0.34 2.38 0 0 Z " fill="#EDB16B" transform="translate(58,101)"/>
<path d="M0 0 C5.27415144 -0.52741514 5.27415144 -0.52741514 8 0 C10.375 2.9375 10.375 2.9375 12 6 C12.66 6.33 13.32 6.66 14 7 C14.28875 6.21625 14.5775 5.4325 14.875 4.625 C16 2 16 2 18 0 C20.68839385 -0.26991906 23.29141936 -0.08737357 26 0 C26 1.98 26 3.96 26 6 C23.03 6 20.06 6 17 6 C16.690625 6.78375 16.38125 7.5675 16.0625 8.375 C15 11 15 11 14 13 C11.525 12.01 11.525 12.01 9 11 C9 11.66 9 12.32 9 13 C7.68 13.33 6.36 13.66 5 14 C4.67 13.34 4.34 12.68 4 12 C3.01 12 2.02 12 1 12 C1.020625 11.195625 1.04125 10.39125 1.0625 9.5625 C1.29633621 7.06645115 1.29633621 7.06645115 0 6 C0 12.93 0 19.86 0 27 C-0.33 27 -0.66 27 -1 27 C-1.02913821 23.4375173 -1.04684529 19.87506546 -1.0625 16.3125 C-1.07087891 15.30509766 -1.07925781 14.29769531 -1.08789062 13.25976562 C-1.09111328 12.28330078 -1.09433594 11.30683594 -1.09765625 10.30078125 C-1.10289307 9.40528564 -1.10812988 8.50979004 -1.11352539 7.5871582 C-0.99840198 4.96358241 -0.58234285 2.55706947 0 0 Z " fill="#2D2D2D" transform="translate(92,5)"/>
<path d="M0 0 C0.99 0.33 1.98 0.66 3 1 C3.33 4.3 3.66 7.6 4 11 C3.34 11 2.68 11 2 11 C2 15.95 2 20.9 2 26 C4.97 26.99 7.94 27.98 11 29 C8.24524562 30.83650292 6.63149045 31.5025707 3.5078125 32.2890625 C2.63769531 32.50820312 1.76757812 32.72734375 0.87109375 32.953125 C-0.03511719 33.17484375 -0.94132812 33.3965625 -1.875 33.625 C-2.77347656 33.85445312 -3.67195313 34.08390625 -4.59765625 34.3203125 C-5.47035156 34.536875 -6.34304687 34.7534375 -7.2421875 34.9765625 C-8.0347998 35.17330566 -8.82741211 35.37004883 -9.64404297 35.57275391 C-12.14326716 36.02598109 -14.46548177 36.07360272 -17 36 C-17 34.35 -17 32.7 -17 31 C-11.45108785 28.18150494 -7.258654 26.4673486 -1 27 C-1.01160156 26.41992188 -1.02320312 25.83984375 -1.03515625 25.2421875 C-1.07480363 21.80985704 -1.10220308 18.57489231 -0.5 15.1875 C0.29071596 10.14668577 0.07415758 5.09215375 0 0 Z " fill="#F1EDE5" transform="translate(108,104)"/>
<path d="M0 0 C0.33 0 0.66 0 1 0 C1.05850924 3.68743234 1.09376673 7.3747437 1.125 11.0625 C1.15013672 12.62000977 1.15013672 12.62000977 1.17578125 14.20898438 C1.21186786 19.89262611 0.81809452 24.55908479 -1 30 C-2.7336878 39.12861539 -3.20086895 48.01176051 -3.01416016 57.27270508 C-2.97846651 59.18147552 -2.98511879 61.09095386 -3 63 C-3.33 63.33 -3.66 63.66 -4 64 C-4.36978426 65.63802872 -4.69668783 67.28587044 -5 68.9375 C-5.8929385 73.78587699 -5.8929385 73.78587699 -7 76 C-5.02 76 -3.04 76 -1 76 C-1 77.32 -1 78.64 -1 80 C-2.32 79.67 -3.64 79.34 -5 79 C-5 79.66 -5 80.32 -5 81 C-5.78375 80.649375 -6.5675 80.29875 -7.375 79.9375 C-8.674375 79.4734375 -8.674375 79.4734375 -10 79 C-10.99 79.495 -10.99 79.495 -12 80 C-14.1640625 79.66015625 -14.1640625 79.66015625 -16.625 79.0625 C-17.44226563 78.86785156 -18.25953125 78.67320312 -19.1015625 78.47265625 C-20.04128906 78.23869141 -20.04128906 78.23869141 -21 78 C-20.401875 77.70351562 -19.80375 77.40703125 -19.1875 77.1015625 C-17.4427656 76.22296411 -15.71766783 75.30540341 -14 74.375 C-11 73 -11 73 -7 73 C-7.02175293 72.24283691 -7.04350586 71.48567383 -7.06591797 70.70556641 C-7.19644816 62.48465069 -6.51347612 54.56774924 -5.40444946 46.42654419 C-4.92653731 42.91801032 -4.47545844 39.40597676 -4.01953125 35.89453125 C-3.92961411 35.20844284 -3.83969696 34.52235443 -3.74705505 33.81547546 C-2.83914572 26.85875325 -2.09440266 19.8902297 -1.39453125 12.91015625 C-0.95995746 8.60314275 -0.48542477 4.30152402 0 0 Z " fill="#FCE5D3" transform="translate(147,84)"/>
<path d="M0 0 C0.33 1.32 0.66 2.64 1 4 C1.99 4 2.98 4 4 4 C4.33 3.34 4.66 2.68 5 2 C5.33 2.99 5.66 3.98 6 5 C6.33 5.33 6.66 5.66 7 6 C7.40397852 8.19976624 7.7478353 10.41069283 8.0625 12.625 C8.23910156 13.83414063 8.41570313 15.04328125 8.59765625 16.2890625 C8.99121488 19.91897215 9.21156268 23.35391978 9 27 C8.34 27.66 7.68 28.32 7 29 C6.34 26.69 5.68 24.38 5 22 C4.67 22.99 4.34 23.98 4 25 C2.68 23.68 1.36 22.36 0 21 C-0.99 22.32 -1.98 23.64 -3 25 C-4.20628008 22.66785852 -5.1654738 20.50357861 -6 18 C-3.69 18 -1.38 18 1 18 C1 16.02 1 14.04 1 12 C-0.65 12.33 -2.3 12.66 -4 13 C-4.75 10.8125 -4.75 10.8125 -5 8 C-3.125 5.375 -3.125 5.375 -1 3 C-0.67 2.01 -0.34 1.02 0 0 Z " fill="#C52F0A" transform="translate(53,108)"/>
<path d="M0 0 C11.22 0 22.44 0 34 0 C34.495 2.97 34.495 2.97 35 6 C23.45 6 11.9 6 0 6 C0 4.02 0 2.04 0 0 Z " fill="#F3F1F0" transform="translate(91,69)"/>
<path d="M0 0 C24.09 0 48.18 0 73 0 C73 9 73 9 72 13 C71.67 13 71.34 13 71 13 C71 9.37 71 5.74 71 2 C69.63911255 2.04543945 69.63911255 2.04543945 68.25073242 2.09179688 C45.49266287 2.83352023 22.76971196 3.13678662 0 3 C0 2.01 0 1.02 0 0 Z " fill="#594D49" transform="translate(56,64)"/>
<path d="M0 0 C-0.33 0.99 -0.66 1.98 -1 3 C-24.1 3 -47.2 3 -71 3 C-71.33 3.99 -71.66 4.98 -72 6 C-72 4.35 -72 2.7 -72 1 C-47.99177769 0.19372172 -24.02135419 -0.13945945 0 0 Z " fill="#BDBBBF" transform="translate(127,66)"/>
<path d="M0 0 C-3.96 1.98 -3.96 1.98 -8 4 C-6.68 4.33 -5.36 4.66 -4 5 C-4 5.66 -4 6.32 -4 7 C-4.99 7.33 -5.98 7.66 -7 8 C-7.73323796 10.01508358 -7.73323796 10.01508358 -8 12 C-16.32870981 14.46345318 -23.88168932 15.41772036 -32.546875 15.29296875 C-33.68408997 15.28872391 -34.82130493 15.28447906 -35.99298096 15.28010559 C-39.57890827 15.26348722 -43.1642463 15.22586708 -46.75 15.1875 C-49.20051264 15.17243139 -51.65103421 15.15874683 -54.1015625 15.14648438 C-60.06790497 15.11363914 -66.03391037 15.06361124 -72 15 C-72 14.67 -72 14.34 -72 14 C-71.37217117 13.99191315 -70.74434235 13.98382629 -70.0974884 13.97549438 C-63.55982289 13.889401 -57.02245892 13.789895 -50.48510742 13.68261719 C-48.04570583 13.64434698 -45.60624818 13.6094907 -43.16674805 13.578125 C-39.65913873 13.53243255 -36.15191466 13.47444395 -32.64453125 13.4140625 C-31.55477493 13.40251129 -30.46501862 13.39096008 -29.34223938 13.37905884 C-28.32155869 13.35918915 -27.30087799 13.33931946 -26.24926758 13.31884766 C-25.35436111 13.30552399 -24.45945465 13.29220032 -23.53742981 13.2784729 C-20.73926708 12.97138559 -18.55612087 12.15344103 -16 11 C-16 10.01 -16 9.02 -16 8 C-16.66 8 -17.32 8 -18 8 C-18 7.34 -18 6.68 -18 6 C-18.66 5.67 -19.32 5.34 -20 5 C-15.57955041 3.28093627 -11.14899197 1.67689863 -6.625 0.25 C-5.37589844 -0.14445313 -5.37589844 -0.14445313 -4.1015625 -0.546875 C-2 -1 -2 -1 0 0 Z " fill="#9A969A" transform="translate(136,158)"/>
<path d="M0 0 C0.33 0 0.66 0 1 0 C1 2.97 1 5.94 1 9 C-17.81 9 -36.62 9 -56 9 C-56 9.66 -56 10.32 -56 11 C-38.18 11 -20.36 11 -2 11 C-2 11.33 -2 11.66 -2 12 C-19.82 12 -37.64 12 -56 12 C-55.67 17.28 -55.34 22.56 -55 28 C-55.66 27.67 -56.32 27.34 -57 27 C-57.42651367 25.25 -57.42651367 25.25 -57.66796875 23 C-57.75626953 22.195625 -57.84457031 21.39125 -57.93554688 20.5625 C-58.01869141 19.716875 -58.10183594 18.87125 -58.1875 18 C-58.28224609 17.154375 -58.37699219 16.30875 -58.47460938 15.4375 C-58.96035764 10.80991344 -58.96035764 10.80991344 -59 9 C-58 8 -58 8 -55.67784119 7.87974548 C-54.64969803 7.88196609 -53.62155487 7.88418671 -52.56225586 7.88647461 C-50.82056374 7.88658791 -50.82056374 7.88658791 -49.04368591 7.88670349 C-47.14840904 7.89444542 -47.14840904 7.89444542 -45.21484375 7.90234375 C-43.28591026 7.90446617 -43.28591026 7.90446617 -41.31800842 7.90663147 C-37.89356557 7.91045582 -34.46916491 7.92028538 -31.04473877 7.93133545 C-27.55261811 7.94155136 -24.06049066 7.94612947 -20.56835938 7.95117188 C-13.71222222 7.96190773 -6.85611313 7.97898316 0 8 C-0.66 7.67 -1.32 7.34 -2 7 C-1.125 2.25 -1.125 2.25 0 0 Z " fill="#FCE4BE" transform="translate(126,67)"/>
<path d="M0 0 C0.495 1.485 0.495 1.485 1 3 C-2.00366514 4.00122171 -3.97739593 4.12112011 -7.11401367 4.11352539 C-8.15486618 4.11344986 -9.19571869 4.11337433 -10.26811218 4.11329651 C-11.39006485 4.10813522 -12.51201752 4.10297394 -13.66796875 4.09765625 C-15.39289299 4.09553383 -15.39289299 4.09553383 -17.15266418 4.09336853 C-20.83096908 4.08776429 -24.50921345 4.07521104 -28.1875 4.0625 C-30.67903558 4.05748555 -33.17057211 4.05292255 -35.66210938 4.04882812 C-41.77476029 4.03779347 -47.88737582 4.02105118 -54 4 C-54 3.67 -54 3.34 -54 3 C-47.73 3 -41.46 3 -35 3 C-35 2.01 -35 1.02 -35 0 C-30.98010377 -0.16861083 -26.95996993 -0.32905633 -22.93945312 -0.48217773 C-21.57380566 -0.53531137 -20.20824074 -0.59061539 -18.84277344 -0.64819336 C-16.87198012 -0.73090914 -14.9008304 -0.80498839 -12.9296875 -0.87890625 C-11.74616699 -0.9260376 -10.56264648 -0.97316895 -9.34326172 -1.02172852 C-6.10940228 -1.00071103 -3.16723681 -0.62627785 0 0 Z " fill="#E7824A" transform="translate(126,90)"/>
<path d="M0 0 C2.64 0 5.28 0 8 0 C8.14285714 7.42857143 8.14285714 7.42857143 7 11 C5.80375 10.979375 4.6075 10.95875 3.375 10.9375 C0.66039384 10.91838306 -1.44215896 11.09727497 -4.125 11.6875 C-8.08807789 12.11826934 -9.84571352 11.42073149 -13 9 C-13.83262954 6.23545224 -13.90403739 3.9268597 -14 1 C-12.68 1 -11.36 1 -10 1 C-10 1.66 -10 2.32 -10 3 C-9.01 3.33 -8.02 3.66 -7 4 C-7 5.32 -7 6.64 -7 8 C-4.69 8 -2.38 8 0 8 C0 5.36 0 2.72 0 0 Z " fill="#101010" transform="translate(56,10)"/>
<path d="M0 0 C0.66 0 1.32 0 2 0 C2 0.66 2 1.32 2 2 C3.04978027 1.99476318 4.09956055 1.98952637 5.18115234 1.98413086 C9.06867625 1.96605761 12.95619644 1.95455946 16.84375 1.94506836 C18.52767562 1.94003347 20.21159686 1.93320519 21.89550781 1.92456055 C24.31316203 1.91245804 26.73075856 1.90676332 29.1484375 1.90234375 C29.9036972 1.89718246 30.65895691 1.89202118 31.43710327 1.88670349 C36.77225659 1.88612829 36.77225659 1.88612829 39 3 C38.67 3.99 38.34 4.98 38 6 C25.46 6 12.92 6 0 6 C0 4.02 0 2.04 0 0 Z " fill="#F99A4F" transform="translate(91,57)"/>
<path d="M0 0 C0.33 0 0.66 0 1 0 C1.42998603 3.91409265 1.85715029 7.82848207 2.28173828 11.74316406 C2.49753938 13.72737551 2.71555385 15.71134582 2.93359375 17.6953125 C3.06894531 18.94570312 3.20429687 20.19609375 3.34375 21.484375 C3.46943359 22.63647461 3.59511719 23.78857422 3.72460938 24.97558594 C4 28 4 28 4 32 C4.83144531 32.19335938 5.66289063 32.38671875 6.51953125 32.5859375 C7.60621094 32.84632813 8.69289063 33.10671875 9.8125 33.375 C11.43091797 33.75785156 11.43091797 33.75785156 13.08203125 34.1484375 C16 35 16 35 19 37 C17.31954393 38.68045607 15.11611727 38.28516903 12.8125 38.4375 C8.55853554 38.77869767 5.02831185 39.5613172 1 41 C-0.66623639 41.03786901 -2.33397597 41.04627845 -4 41 C-4.99 41.495 -4.99 41.495 -6 42 C-6.5625 40.0625 -6.5625 40.0625 -7 38 C-5.33657163 36.33657163 -3.2174291 36.63951903 -0.9375 36.4375 C-0.01839844 36.35371094 0.90070312 36.26992187 1.84765625 36.18359375 C2.55792969 36.12300781 3.26820312 36.06242187 4 36 C4 35.01 4 34.02 4 33 C3.34 33 2.68 33 2 33 C1.95101562 32.27296875 1.90203125 31.5459375 1.8515625 30.796875 C1.4497755 25.39353264 0.88928431 20.13749262 -0.125 14.8125 C-1.06584895 9.56173268 -0.87488972 5.24933833 0 0 Z " fill="#F3DDD0" transform="translate(38,124)"/>
<path d="M0 0 C1.79244141 0.00676758 1.79244141 0.00676758 3.62109375 0.01367188 C6.53911647 0.02534397 9.45703037 0.04171674 12.375 0.0625 C12.375 1.0525 12.375 2.0425 12.375 3.0625 C13.365 3.3925 14.355 3.7225 15.375 4.0625 C2.175 4.0625 -11.025 4.0625 -24.625 4.0625 C-24.295 3.0725 -23.965 2.0825 -23.625 1.0625 C-15.73349953 0.06224837 -7.94697932 -0.05758681 0 0 Z " fill="#F9943A" transform="translate(55.625,33.9375)"/>
<path d="M0 0 C6.15234375 -0.09765625 6.15234375 -0.09765625 8 0 C9 1 9 1 9.0625 4.0625 C9.041875 5.031875 9.02125 6.00125 9 7 C10.65 7 12.3 7 14 7 C14 8.98 14 10.96 14 13 C11.69 13 9.38 13 7 13 C6.87625 12.360625 6.7525 11.72125 6.625 11.0625 C6.41875 10.381875 6.2125 9.70125 6 9 C5.34 8.67 4.68 8.34 4 8 C4 7.34 4 6.68 4 6 C2.68 6 1.36 6 0 6 C0 12.93 0 19.86 0 27 C-0.33 27 -0.66 27 -1 27 C-1.02898816 23.06251542 -1.04679464 19.12505821 -1.0625 15.1875 C-1.07087891 14.06794922 -1.07925781 12.94839844 -1.08789062 11.79492188 C-1.09111328 10.72177734 -1.09433594 9.64863281 -1.09765625 8.54296875 C-1.10289307 7.55321045 -1.10812988 6.56345215 -1.11352539 5.54370117 C-1 3 -1 3 0 0 Z " fill="#505050" transform="translate(42,5)"/>
<path d="M0 0 C6.93 0 13.86 0 21 0 C20.67 1.98 20.34 3.96 20 6 C18.10507254 6.19644384 16.20899097 6.38177288 14.3125 6.5625 C12.72888672 6.71912109 12.72888672 6.71912109 11.11328125 6.87890625 C8.17423745 6.99322288 5.85822507 6.57943575 3 6 C2.01 6.33 1.02 6.66 0 7 C0 4.69 0 2.38 0 0 Z " fill="#373737" transform="translate(67,10)"/>
<path d="M0 0 C7.26 0 14.52 0 22 0 C22 4.29 22 8.58 22 13 C19.69 13 17.38 13 15 13 C15 12.67 15 12.34 15 12 C16.98 12 18.96 12 21 12 C21 9.69 21 7.38 21 5 C14.07 5 7.14 5 0 5 C0 3.35 0 1.7 0 0 Z " fill="#B3B3B3" transform="translate(67,5)"/>
<path d="M0 0 C5.49190896 -0.17434632 10.12799566 0.14639233 15.44268799 1.46669006 C24.08708843 3.26942068 33.09835167 3.14259173 41.890625 3.09765625 C43.49656525 3.09553383 43.49656525 3.09553383 45.13494873 3.09336853 C48.50666266 3.08783481 51.87830663 3.07529534 55.25 3.0625 C57.55598861 3.05747641 59.86197829 3.05291502 62.16796875 3.04882812 C67.77866913 3.03788722 73.38932956 3.02121682 79 3 C79 3.33 79 3.66 79 4 C71.68934834 5.15326328 64.48345706 5.1276612 57.09375 5.09765625 C55.75996962 5.09578772 54.42618854 5.09436587 53.09240723 5.09336853 C49.60723933 5.0895776 46.1221141 5.07977715 42.63696289 5.06866455 C39.07048113 5.05837623 35.50399237 5.05385511 31.9375 5.04882812 C24.95831597 5.0381513 17.97916004 5.02111676 11 5 C11 4.34 11 3.68 11 3 C10.28972656 2.95101562 9.57945313 2.90203125 8.84765625 2.8515625 C7.92855469 2.77679688 7.00945313 2.70203125 6.0625 2.625 C5.14597656 2.55539063 4.22945312 2.48578125 3.28515625 2.4140625 C2.15400391 2.20910156 2.15400391 2.20910156 1 2 C0.67 1.34 0.34 0.68 0 0 Z " fill="#D9DAD9" transform="translate(41,172)"/>
<path d="M0 0 C0 0.66 0 1.32 0 2 C-0.66386719 2.12117187 -1.32773438 2.24234375 -2.01171875 2.3671875 C-8.73718971 3.48851907 -8.73718971 3.48851907 -15 6 C-16.1314312 8.02294091 -16.1314312 8.02294091 -17 10 C-29.06738466 7.7974094 -29.06738466 7.7974094 -32 6 C-32.62109375 3.42578125 -32.62109375 3.42578125 -33 1 C-21.75842697 1.86757624 -21.75842697 1.86757624 -17.0625 2.6875 C-13.61763663 3.03901667 -12.09754098 2.4296343 -9 1 C-5.91223665 0.38244733 -3.14948709 0 0 0 Z " fill="#BCBBBE" transform="translate(107,129)"/>
<path d="M0 0 C0.33 0.99 0.66 1.98 1 3 C2.32 3 3.64 3 5 3 C5.8723412 5.99480917 6.10829766 8.63575911 6.0625 11.75 C6.05347656 12.54921875 6.04445312 13.3484375 6.03515625 14.171875 C6.02355469 14.77515625 6.01195312 15.3784375 6 16 C4.68 16 3.36 16 2 16 C-0.66812465 17.97638863 -1.44295272 19.76912579 -2 23 C-2.66 23 -3.32 23 -4 23 C-4.20963329 17.86398449 -3.46177604 13.90124907 -2 9 C-1.7865992 7.54523113 -1.59901382 6.08643958 -1.4375 4.625 C-1 1 -1 1 0 0 Z " fill="#CC2E03" transform="translate(134,125)"/>
<path d="M0 0 C18.81 0 37.62 0 57 0 C57 0.99 57 1.98 57 3 C38.19 2.67 19.38 2.34 0 2 C0 1.34 0 0.68 0 0 Z " fill="#EFBC68" transform="translate(70,76)"/>
<path d="M0 0 C1.53202706 0.25195908 3.05257128 0.57596777 4.5625 0.9375 C5.80193359 1.22947266 5.80193359 1.22947266 7.06640625 1.52734375 C7.70449219 1.68332031 8.34257813 1.83929688 9 2 C9 2.66 9 3.32 9 4 C5.7 4.66 2.4 5.32 -1 6 C-1 7.32 -1 8.64 -1 10 C1.64 10 4.28 10 7 10 C7 10.66 7 11.32 7 12 C5.3954444 11.85851011 3.79136233 11.71164314 2.1875 11.5625 C1.29417969 11.48128906 0.40085937 11.40007812 -0.51953125 11.31640625 C-3 11 -3 11 -6 10 C-6.33 8.35 -6.66 6.7 -7 5 C-9.97 5 -12.94 5 -16 5 C-12.7958766 2.15358159 -10.55658073 1.59032052 -6.3125 1.375 C-2.84446395 1.47075476 -2.84446395 1.47075476 0 0 Z " fill="#A1A1A1" transform="translate(57,160)"/>
<path d="M0 0 C2.97 0.495 2.97 0.495 6 1 C6 1.66 6 2.32 6 3 C16.56 3 27.12 3 38 3 C37.67 3.66 37.34 4.32 37 5 C34.03 5 31.06 5 28 5 C28 5.66 28 6.32 28 7 C24.06288563 7.14492719 20.12645375 7.23394537 16.1875 7.3125 C15.06794922 7.35439453 13.94839844 7.39628906 12.79492188 7.43945312 C11.72177734 7.45556641 10.64863281 7.47167969 9.54296875 7.48828125 C8.55321045 7.51446533 7.56345215 7.54064941 6.54370117 7.56762695 C4 7 4 7 2.21606445 4.59448242 C1.81476318 3.73830322 1.41346191 2.88212402 1 2 C0.67 1.34 0.34 0.68 0 0 Z " fill="#825648" transform="translate(68,163)"/>
<path d="M0 0 C2.64 0 5.28 0 8 0 C7.93958131 2.0632984 7.85068362 4.12577414 7.75 6.1875 C7.70359375 7.33605469 7.6571875 8.48460938 7.609375 9.66796875 C6.9050581 13.51913743 5.54322341 15.09913579 3 18 C2.20309162 21.18762109 2.20309162 21.18762109 2 24 C1.67 24 1.34 24 1 24 C0.67 16.08 0.34 8.16 0 0 Z " fill="#DD3507" transform="translate(40,112)"/>
<path d="M0 0 C1.32 0 2.64 0 4 0 C4.06058594 1.0621875 4.12117188 2.124375 4.18359375 3.21875 C4.26809258 4.64584143 4.35273575 6.07292431 4.4375 7.5 C4.47681641 8.19609375 4.51613281 8.8921875 4.55664062 9.609375 C4.76594996 13.08713006 5.04893253 16.5176337 5.53125 19.96875 C6.10530444 24.32105816 6.11188362 28.61625395 6.0625 33 C6.05798828 33.77472656 6.05347656 34.54945312 6.04882812 35.34765625 C6.03719758 37.23180524 6.01926906 39.11591365 6 41 C5.67 41 5.34 41 5 41 C5 38.03 5 35.06 5 32 C4.01 32 3.02 32 2 32 C1.34 21.44 0.68 10.88 0 0 Z " fill="#B23E26" transform="translate(52,64)"/>
<path d="M0 0 C0 0.99 0 1.98 0 3 C-0.99 3 -1.98 3 -3 3 C-3 3.66 -3 4.32 -3 5 C-11.76175197 8.55087146 -20.36022224 8.35106869 -29.625 8.1875 C-31.12108021 8.1724192 -32.6171752 8.15873683 -34.11328125 8.14648438 C-37.74249968 8.11376305 -41.37115248 8.06217056 -45 8 C-45 7.67 -45 7.34 -45 7 C-37.08 7 -29.16 7 -21 7 C-21 6.34 -21 5.68 -21 5 C-20.38511719 4.96261719 -19.77023438 4.92523438 -19.13671875 4.88671875 C-18.32847656 4.82097656 -17.52023438 4.75523437 -16.6875 4.6875 C-15.88699219 4.62949219 -15.08648437 4.57148438 -14.26171875 4.51171875 C-11.58440483 3.9059707 -10.83495983 2.97032572 -9 1 C-2.53608247 -1.26804124 -2.53608247 -1.26804124 0 0 Z " fill="#79736E" transform="translate(117,163)"/>
<path d="M0 0 C2.475 0.495 2.475 0.495 5 1 C5 3.97 5 6.94 5 10 C4.34 10 3.68 10 3 10 C3 17.59 3 25.18 3 33 C3.99 33.33 4.98 33.66 6 34 C4.68 34 3.36 34 2 34 C-1.49056337 23.5283099 -0.110599 10.94930103 0 0 Z " fill="#EFE1D8" transform="translate(57,70)"/>
<path d="M0 0 C0.495 0.99 0.495 0.99 1 2 C-4.63956563 5.54903699 -10.20147266 5.77251639 -16.75 6.1875 C-18.49325562 6.30702026 -18.49325562 6.30702026 -20.27172852 6.42895508 C-30.15944047 7.03366242 -40.03370973 7.18382871 -49.9375 7.1875 C-51.00949646 7.18899551 -51.00949646 7.18899551 -52.10314941 7.19052124 C-60.77741686 7.18914802 -69.36662484 6.88901564 -78 6 C-78 5.67 -78 5.34 -78 5 C-76.1123291 5.01571045 -76.1123291 5.01571045 -74.18652344 5.03173828 C-69.415232 5.06856426 -64.64395243 5.09112254 -59.87255859 5.10986328 C-57.82663851 5.11978095 -55.78073204 5.13331922 -53.73486328 5.15087891 C-35.41838776 5.30389123 -17.8069374 4.48564786 0 0 Z " fill="#C3C6C3" transform="translate(137,169)"/>
<path d="M0 0 C6.27 0 12.54 0 19 0 C19 2.97 19 5.94 19 9 C18.67 9 18.34 9 18 9 C18 7.35 18 5.7 18 4 C14.7 4 11.4 4 8 4 C7.67 5.32 7.34 6.64 7 8 C6.34 8 5.68 8 5 8 C5 5.69 5 3.38 5 1 C4.34 1 3.68 1 3 1 C3 3.64 3 6.28 3 9 C2.34 9 1.68 9 1 9 C0.67 9.99 0.34 10.98 0 12 C0 8.04 0 4.08 0 0 Z " fill="#DA4E24" transform="translate(71,80)"/>
<path d="M0 0 C0 0.99 0 1.98 0 3 C2.475 3.495 2.475 3.495 5 4 C1.77988731 5.77608134 -1.37505157 6.73551098 -4.9375 7.625 C-5.95714844 7.88539063 -6.97679688 8.14578125 -8.02734375 8.4140625 C-10.78167479 8.95696612 -13.20392763 9.1132847 -16 9 C-16 7.35 -16 5.7 -16 4 C-10.45108785 1.18150494 -6.258654 -0.5326514 0 0 Z " fill="#F4E7D9" transform="translate(107,131)"/>
<path d="M0 0 C0.144375 1.134375 0.28875 2.26875 0.4375 3.4375 C0.61171478 6.80777201 0.61171478 6.80777201 2 8 C2.14115161 10.67058851 2.04247107 13.32432238 2 16 C0.68 15.67 -0.64 15.34 -2 15 C-1.34 13.35 -0.68 11.7 0 10 C-0.969375 9.87625 -1.93875 9.7525 -2.9375 9.625 C-3.948125 9.41875 -4.95875 9.2125 -6 9 C-6.33 8.34 -6.66 7.68 -7 7 C-7.99 7.495 -7.99 7.495 -9 8 C-9.33 5.69 -9.66 3.38 -10 1 C-6.78548731 -0.60725635 -3.56387464 -0.05748185 0 0 Z " fill="#D2CAC7" transform="translate(72,116)"/>
<path d="M0 0 C2.39763185 2.39763185 2.34280586 3.33273498 2.625 6.625 C2.69976562 7.44226563 2.77453125 8.25953125 2.8515625 9.1015625 C2.90054688 9.72804688 2.94953125 10.35453125 3 11 C3.66 10.67 4.32 10.34 5 10 C5.02505615 10.80630859 5.0501123 11.61261719 5.07592773 12.44335938 C5.1926268 16.12903875 5.31501591 19.81450852 5.4375 23.5 C5.47681641 24.7684375 5.51613281 26.036875 5.55664062 27.34375 C5.78977086 34.94120459 5.78977086 34.94120459 6.53125 42.5 C6.98441367 45.88362208 7.10124898 49.09008961 7.0625 52.5 C7.04896484 54.06234375 7.04896484 54.06234375 7.03515625 55.65625 C7.02355469 56.4296875 7.01195312 57.203125 7 58 C6.67 58 6.34 58 6 58 C5.14067417 50.70482563 4.28673947 43.40903461 3.43652344 36.11279297 C3.14674544 33.63152833 2.85574036 31.15040667 2.56347656 28.66943359 C2.14324281 25.10030541 1.72744594 21.53068382 1.3125 17.9609375 C1.11563599 16.30123428 1.11563599 16.30123428 0.91479492 14.60800171 C0.79467041 13.56737579 0.6745459 12.52674988 0.55078125 11.45458984 C0.44419189 10.5441391 0.33760254 9.63368835 0.2277832 8.69564819 C-0.01812232 5.78553554 -0.03778999 2.91910957 0 0 Z " fill="#CE5C43" transform="translate(31,58)"/>
<path d="M0 0 C0.33 0 0.66 0 1 0 C0.38687885 12.90928326 -1.02211197 25.67308064 -2.5625 38.5 C-2.79922926 40.49865045 -3.0355599 42.49734815 -3.27148438 44.49609375 C-3.84307471 49.33128479 -4.42001216 54.16580937 -5 59 C-5.33 59 -5.66 59 -6 59 C-6.37079442 49.29821059 -5.22085309 39.85804502 -4.0625 30.25 C-3.87769585 28.67324254 -3.69344751 27.09641984 -3.50976562 25.51953125 C-2.74506664 19.00178876 -1.9497776 12.49375458 -1 6 C-2.32 6 -3.64 6 -5 6 C-5 5.01 -5 4.02 -5 3 C-3.35 3 -1.7 3 0 3 C0 2.01 0 1.02 0 0 Z " fill="#C95139" transform="translate(151,40)"/>
<path d="M0 0 C0.33 1.32 0.66 2.64 1 4 C1.99 4 2.98 4 4 4 C4.33 3.34 4.66 2.68 5 2 C5.33 2.99 5.66 3.98 6 5 C5.67 5.66 5.34 6.32 5 7 C4.96984727 9.30883723 5.06653176 11.59934256 5.16015625 13.90625 C5 16 5 16 3 18 C2.34 17.67 1.68 17.34 1 17 C1 15.35 1 13.7 1 12 C-0.65 12.33 -2.3 12.66 -4 13 C-4.75 10.8125 -4.75 10.8125 -5 8 C-3.125 5.375 -3.125 5.375 -1 3 C-0.67 2.01 -0.34 1.02 0 0 Z " fill="#DE3914" transform="translate(53,108)"/>
<path d="M0 0 C0.33 0.99 0.66 1.98 1 3 C0.67 3.33 0.34 3.66 0 4 C-0.36978426 5.63802872 -0.69668783 7.28587044 -1 8.9375 C-1.8929385 13.78587699 -1.8929385 13.78587699 -3 16 C-1.02 16 0.96 16 3 16 C3 17.32 3 18.64 3 20 C1.68 19.67 0.36 19.34 -1 19 C-1 19.66 -1 20.32 -1 21 C-1.78375 20.649375 -2.5675 20.29875 -3.375 19.9375 C-4.24125 19.628125 -5.1075 19.31875 -6 19 C-6.66 19.33 -7.32 19.66 -8 20 C-10.1640625 19.66015625 -10.1640625 19.66015625 -12.625 19.0625 C-13.44226563 18.86785156 -14.25953125 18.67320312 -15.1015625 18.47265625 C-15.72804688 18.31667969 -16.35453125 18.16070312 -17 18 C-16.401875 17.70351562 -15.80375 17.40703125 -15.1875 17.1015625 C-13.4427656 16.22296411 -11.71766783 15.30540341 -10 14.375 C-7 13 -7 13 -3 13 C-2.95101562 12.31292969 -2.90203125 11.62585938 -2.8515625 10.91796875 C-2.77679688 10.01691406 -2.70203125 9.11585938 -2.625 8.1875 C-2.52058594 6.84751953 -2.52058594 6.84751953 -2.4140625 5.48046875 C-2 3 -2 3 0 0 Z " fill="#F4EDE6" transform="translate(143,144)"/>
<path d="M0 0 C20.42105263 4.94736842 20.42105263 4.94736842 25 8 C27.32387947 8.39387788 29.65793749 8.73486085 32 9 C32 9.33 32 9.66 32 10 C25.84765625 10.09765625 25.84765625 10.09765625 24 10 C23.67 9.67 23.34 9.34 23 9 C21.8346875 9.0309375 20.669375 9.061875 19.46875 9.09375 C14.78804271 9.15225884 10.89528089 8.00579068 6.5 6.5 C5.77296875 6.26152344 5.0459375 6.02304688 4.296875 5.77734375 C2.52776065 5.19539824 0.76334654 4.59919543 -1 4 C-0.67 2.68 -0.34 1.36 0 0 Z " fill="#F18C40" transform="translate(62,133)"/>
<path d="M0 0 C2.97 0 5.94 0 9 0 C9 3.3 9 6.6 9 10 C12.3 10 15.6 10 19 10 C19 11.65 19 13.3 19 15 C15.37 15 11.74 15 8 15 C8 10.38 8 5.76 8 1 C5.69 1 3.38 1 1 1 C1 7.93 1 14.86 1 22 C0.67 22 0.34 22 0 22 C0 14.74 0 7.48 0 0 Z " fill="#6F6F6F" transform="translate(121,10)"/>
<path d="M0 0 C12.54 0 25.08 0 38 0 C38 9 38 9 37 13 C36.67 13 36.34 13 36 13 C36 9.37 36 5.74 36 2 C24.12 2 12.24 2 0 2 C0 1.34 0 0.68 0 0 Z " fill="#7F6253" transform="translate(91,64)"/>
<path d="M0 0 C0.33 0 0.66 0 1 0 C1 4.62 1 9.24 1 14 C-1.64 14 -4.28 14 -7 14 C-7.125 6.375 -7.125 6.375 -6 3 C-3.5 1.875 -3.5 1.875 -1 1 C-0.67 0.67 -0.34 0.34 0 0 Z " fill="#030303" transform="translate(117,18)"/>
<path d="M0 0 C1.5625 1.6875 1.5625 1.6875 3 4 C2.71281674 5.6752357 2.36871088 7.34080104 2 9 C2.18814604 12.02050664 2.57577633 15.00432823 3 18 C4.65 18.33 6.3 18.66 8 19 C6.625 20.5 6.625 20.5 5 22 C4.34 22 3.68 22 3 22 C2.01 24.475 2.01 24.475 1 27 C0.01 26.67 -0.98 26.34 -2 26 C-1.86004486 22.79138226 -1.71197743 19.58318712 -1.5625 16.375 C-1.52318359 15.47136719 -1.48386719 14.56773438 -1.44335938 13.63671875 C-1.22421542 9.01783854 -0.8991149 4.54846364 0 0 Z " fill="#EF581B" transform="translate(126,94)"/>
<path d="M0 0 C2.97 0.495 2.97 0.495 6 1 C7.26237731 3.52475462 7.09856404 5.31200466 7.0625 8.125 C7.05347656 9.03507812 7.04445313 9.94515625 7.03515625 10.8828125 C7.02355469 11.58148438 7.01195313 12.28015625 7 13 C4.69 13 2.38 13 0 13 C0 8.71 0 4.42 0 0 Z " fill="#040403" transform="translate(92,19)"/>
<path d="M0 0 C0.9178125 0.20496094 1.835625 0.40992187 2.78125 0.62109375 C9.17877808 2.02559309 15.48033667 3.34803367 22 4 C22 3.34 22 2.68 22 2 C25.63 2 29.26 2 33 2 C27.03719906 5.97520063 18.10847629 7.70270837 11.03515625 6.44140625 C9.70835599 6.16035989 8.38405168 5.86727394 7.0625 5.5625 C6.37865234 5.41490234 5.69480469 5.26730469 4.99023438 5.11523438 C3.32448128 4.75412706 1.66187077 4.37857288 0 4 C0 2.68 0 1.36 0 0 Z " fill="#64473E" transform="translate(74,126)"/>
<path d="M0 0 C0.33 0 0.66 0 1 0 C1 4.95 1 9.9 1 15 C-2.5578125 16.0209375 -2.5578125 16.0209375 -6.1875 17.0625 C-6.92508545 17.28043213 -7.6626709 17.49836426 -8.42260742 17.72290039 C-12.30826866 18.79703254 -15.12664801 19.19585042 -19 18 C-17 16 -17 16 -14.9375 15.5 C-14.298125 15.335 -13.65875 15.17 -13 15 C-12.67 14.34 -12.34 13.68 -12 13 C-9.49609375 12.1484375 -9.49609375 12.1484375 -6.4375 11.375 C-5.42558594 11.11460937 -4.41367188 10.85421875 -3.37109375 10.5859375 C-2.19740234 10.29589844 -2.19740234 10.29589844 -1 10 C-0.67 6.7 -0.34 3.4 0 0 Z " fill="#F37832" transform="translate(120,123)"/>
<path d="M0 0 C11.55 0.33 23.1 0.66 35 1 C35 1.33 35 1.66 35 2 C23.78 2 12.56 2 1 2 C1 8.26912701 1.00514851 12.27960392 2 18 C2.08293263 20.67335756 2.04613218 23.32433328 2 26 C0 25 0 25 -1 22 C-1.09232973 20.46959123 -1.13067608 18.93553364 -1.1328125 17.40234375 C-1.13410156 16.51869141 -1.13539062 15.63503906 -1.13671875 14.72460938 C-1.13285156 13.80486328 -1.12898438 12.88511719 -1.125 11.9375 C-1.12886719 11.01388672 -1.13273437 10.09027344 -1.13671875 9.13867188 C-1.13542969 8.25630859 -1.13414063 7.37394531 -1.1328125 6.46484375 C-1.13168457 5.656521 -1.13055664 4.84819824 -1.12939453 4.01538086 C-1 2 -1 2 0 0 Z " fill="#FADDC8" transform="translate(29,32)"/>
<path d="M0 0 C0.66 0 1.32 0 2 0 C3.01866229 1.65532623 4.01810813 3.32260138 5 5 C5.66 5.33 6.32 5.66 7 6 C7.433125 4.7934375 7.433125 4.7934375 7.875 3.5625 C9 1 9 1 11 0 C11 3.3 11 6.6 11 10 C7.37 10 3.74 10 0 10 C0 6.7 0 3.4 0 0 Z " fill="#F2F1EF" transform="translate(99,23)"/>
<path d="M0 0 C4.29 0 8.58 0 13 0 C13.33 2.97 13.66 5.94 14 9 C13.34 8.67 12.68 8.34 12 8 C12 5.69 12 3.38 12 1 C8.7 1.33 5.4 1.66 2 2 C2.66 3.98 3.32 5.96 4 8 C4.66 7.67 5.32 7.34 6 7 C6 8.98 6 10.96 6 13 C6.99 13.33 7.98 13.66 9 14 C7.35 14.33 5.7 14.66 4 15 C4 15.99 4 16.98 4 18 C3.34 18 2.68 18 2 18 C1.34 12.06 0.68 6.12 0 0 Z " fill="#D3CCBE" transform="translate(60,115)"/>
<path d="M0 0 C5.28 0.66 10.56 1.32 16 2 C16 2.66 16 3.32 16 4 C3.79 4 -8.42 4 -21 4 C-21 3.34 -21 2.68 -21 2 C-14.07 2 -7.14 2 0 2 C0 1.34 0 0.68 0 0 Z " fill="#EE843F" transform="translate(112,86)"/>
<path d="M0 0 C2.01822917 0.06510417 4.03645833 0.13020833 6.0546875 0.1953125 C6.0546875 2.1753125 6.0546875 4.1553125 6.0546875 6.1953125 C3.0846875 6.1953125 0.1146875 6.1953125 -2.9453125 6.1953125 C-3.2546875 6.9790625 -3.5640625 7.7628125 -3.8828125 8.5703125 C-4.9453125 11.1953125 -4.9453125 11.1953125 -5.9453125 13.1953125 C-6.6053125 13.1953125 -7.2653125 13.1953125 -7.9453125 13.1953125 C-7.9453125 11.2153125 -7.9453125 9.2353125 -7.9453125 7.1953125 C-7.2853125 7.1953125 -6.6253125 7.1953125 -5.9453125 7.1953125 C-5.6565625 6.4115625 -5.3678125 5.6278125 -5.0703125 4.8203125 C-3.1395571 0.31521658 -3.1395571 0.31521658 0 0 Z " fill="#848484" transform="translate(111.9453125,4.8046875)"/>
<path d="M0 0 C0.66 0 1.32 0 2 0 C1.62356156 11.94218506 0.56100106 23.32247943 -2 35 C-2.33 35 -2.66 35 -3 35 C-3.60377168 23.14818557 -1.77481934 11.68580075 0 0 Z " fill="#9A3A18" transform="translate(124,93)"/>
<path d="M0 0 C5.94 0 11.88 0 18 0 C18 1.32 18 2.64 18 4 C12.39 4 6.78 4 1 4 C0.67 2.68 0.34 1.36 0 0 Z " fill="#D1752C" transform="translate(121,34)"/>
<path d="M0 0 C-3.96 1.98 -3.96 1.98 -8 4 C-6.68 4.33 -5.36 4.66 -4 5 C-4 5.66 -4 6.32 -4 7 C-7.46902655 9.10619469 -7.46902655 9.10619469 -9.875 8.625 C-10.57625 8.41875 -11.2775 8.2125 -12 8 C-12.70640625 7.82339844 -13.4128125 7.64679688 -14.140625 7.46484375 C-16.09375 6.9765625 -18.046875 6.48828125 -20 6 C-19 4 -19 4 -15.25390625 2.67578125 C-13.6925262 2.21310074 -12.12857231 1.75904052 -10.5625 1.3125 C-9.77294922 1.07466797 -8.98339844 0.83683594 -8.16992188 0.59179688 C-2.25527291 -1.12763646 -2.25527291 -1.12763646 0 0 Z " fill="#C3ADA6" transform="translate(136,158)"/>
<path d="M0 0 C0.33 0 0.66 0 1 0 C1.86784885 31.89678317 1.86784885 31.89678317 -4 43 C-3.31101495 33.37782572 -2.41565559 23.7841252 -1.4375 14.1875 C-1.29738472 12.80144657 -1.15741006 11.41537892 -1.01757812 10.02929688 C-0.67975939 6.68605627 -0.34054343 3.34296397 0 0 Z " fill="#FDE8D4" transform="translate(152,37)"/>
<path d="M0 0 C0.62390625 0.35964844 1.2478125 0.71929687 1.890625 1.08984375 C4.08809631 0.79179368 4.08809631 0.79179368 5.890625 0.08984375 C5.265625 2.02734375 5.265625 2.02734375 3.890625 4.08984375 C-1.62218882 5.52174344 -7.33132034 5.20213353 -12.984375 5.15234375 C-13.95890625 5.14783203 -14.9334375 5.14332031 -15.9375 5.13867188 C-18.32818934 5.12695281 -20.7187494 5.11054594 -23.109375 5.08984375 C-23.109375 4.75984375 -23.109375 4.42984375 -23.109375 4.08984375 C-22.34753906 4.0640625 -21.58570312 4.03828125 -20.80078125 4.01171875 C-14.44312092 3.66248398 -9.61797383 2.88922074 -4.046875 -0.265625 C-2.109375 -0.91015625 -2.109375 -0.91015625 0 0 Z " fill="#D6D5D5" transform="translate(143.109375,169.91015625)"/>
<path d="M0 0 C7.26 0 14.52 0 22 0 C22 0.99 22 1.98 22 3 C14.74 3 7.48 3 0 3 C0 2.01 0 1.02 0 0 Z " fill="#C76524" transform="translate(42,34)"/>
<path d="M0 0 C2.97 0 5.94 0 9 0 C9 7.59 9 15.18 9 23 C8.67 23 8.34 23 8 23 C8 17.06 8 11.12 8 5 C5.36 5 2.72 5 0 5 C0 3.35 0 1.7 0 0 Z " fill="#9B9B9B" transform="translate(56,5)"/>
<path d="M0 0 C0.33 0 0.66 0 1 0 C0.03644647 16.8929385 0.03644647 16.8929385 -1 24 C-1.66 24 -2.32 24 -3 24 C-3.02895225 20.70835171 -3.0467823 17.41673601 -3.0625 14.125 C-3.07506836 12.71927734 -3.07506836 12.71927734 -3.08789062 11.28515625 C-3.09111328 10.38925781 -3.09433594 9.49335937 -3.09765625 8.5703125 C-3.10289307 7.74289551 -3.10812988 6.91547852 -3.11352539 6.06298828 C-3 4 -3 4 -2 2 C-1.34 2 -0.68 2 0 2 C0 1.34 0 0.68 0 0 Z " fill="#C43C22" transform="translate(143,112)"/>
<path d="M0 0 C6.6 0 13.2 0 20 0 C20 0.99 20 1.98 20 3 C13.07 3 6.14 3 -1 3 C-0.67 2.01 -0.34 1.02 0 0 Z " fill="#8B8B8B" transform="translate(68,6)"/>
<path d="M0 0 C2.64 0 5.28 0 8 0 C8 1.98 8 3.96 8 6 C5.36 6 2.72 6 0 6 C0 12.93 0 19.86 0 27 C-0.33 27 -0.66 27 -1 27 C-1.02913821 23.4375173 -1.04684529 19.87506546 -1.0625 16.3125 C-1.07087891 15.30509766 -1.07925781 14.29769531 -1.08789062 13.25976562 C-1.09111328 12.28330078 -1.09433594 11.30683594 -1.09765625 10.30078125 C-1.10289307 9.40528564 -1.10812988 8.50979004 -1.11352539 7.5871582 C-0.99840198 4.96358241 -0.58234285 2.55706947 0 0 Z " fill="#8E8E8E" transform="translate(92,5)"/>
<path d="M0 0 C1.65 0.33 3.3 0.66 5 1 C4.67 1.99 4.34 2.98 4 4 C3.34 4 2.68 4 2 4 C2 5.65 2 7.3 2 9 C1.01 9.495 1.01 9.495 0 10 C-0.62215622 12.80419732 -0.62215622 12.80419732 -1 16.125 C-1.66612841 20.9306407 -2.49992513 25.39262718 -4 30 C-4.33 30 -4.66 30 -5 30 C-5.32610795 23.15173312 -4.11185667 17.13910694 -2.5 10.5 C-2.26152344 9.48679687 -2.02304688 8.47359375 -1.77734375 7.4296875 C-1.19277966 4.95113574 -0.60018531 2.47480666 0 0 Z " fill="#D83E0C" transform="translate(135,111)"/>
<path d="M0 0 C0.66 0 1.32 0 2 0 C2 0.66 2 1.32 2 2 C8.93 2.99 15.86 3.98 23 5 C23 5.33 23 5.66 23 6 C19.97892098 6.0543251 16.95883472 6.09382927 13.9375 6.125 C13.08994141 6.14175781 12.24238281 6.15851563 11.36914062 6.17578125 C6.16581799 6.21596135 1.92530179 5.69745815 -3 4 C-2.67 3.34 -2.34 2.68 -2 2 C-1.34 2 -0.68 2 0 2 C0 1.34 0 0.68 0 0 Z " fill="#B7B7B6" transform="translate(49,168)"/>
<path d="M0 0 C0.33 0 0.66 0 1 0 C1 4.29 1 8.58 1 13 C-5.6 13.33 -12.2 13.66 -19 14 C-18.67 12.35 -18.34 10.7 -18 9 C-17.67 9.66 -17.34 10.32 -17 11 C-9.08 10.505 -9.08 10.505 -1 10 C-0.67 6.7 -0.34 3.4 0 0 Z " fill="#E26033" transform="translate(90,80)"/>
<path d="M0 0 C1.875 0.3125 1.875 0.3125 4 1 C4.66 1.99 5.32 2.98 6 4 C7.65 3.67 9.3 3.34 11 3 C11 3.99 11 4.98 11 6 C6.82262526 7.59138085 3.46839215 8.21278058 -1 8 C-1.125 2.25 -1.125 2.25 0 0 Z " fill="#F16D13" transform="translate(95,120)"/>
<path d="M0 0 C2.28304899 0.0179485 4.52425196 0.11763285 6.796875 0.33203125 C6.796875 1.65203125 6.796875 2.97203125 6.796875 4.33203125 C6.178125 4.45578125 5.559375 4.57953125 4.921875 4.70703125 C2.60566668 5.20400481 2.60566668 5.20400481 0.796875 7.33203125 C-1.66591301 7.33203125 -3.05536619 6.47750262 -5.203125 5.33203125 C-4.06475685 2.29638286 -3.36675282 0.50740069 0 0 Z " fill="#2E2E2E" transform="translate(111.203125,10.66796875)"/>
<path d="M0 0 C4.29 0 8.58 0 13 0 C13 1.98 13 3.96 13 6 C12.67 5.34 12.34 4.68 12 4 C8.04 4 4.08 4 0 4 C0 2.68 0 1.36 0 0 Z " fill="#E6994F" transform="translate(139,34)"/>
<path d="M0 0 C2.32590854 3.63423209 2.16265833 6.77088331 2 11 C2.69867188 11.04898438 3.39734375 11.09796875 4.1171875 11.1484375 C5.02726562 11.22320312 5.93734375 11.29796875 6.875 11.375 C7.77992187 11.44460937 8.68484375 11.51421875 9.6171875 11.5859375 C12 12 12 12 14 14 C8.34264585 15.55577239 5.20333134 14.24281523 0 12 C-0.19477739 10.37585622 -0.38059458 8.75063577 -0.5625 7.125 C-0.66691406 6.22007812 -0.77132812 5.31515625 -0.87890625 4.3828125 C-1 2 -1 2 0 0 Z " fill="#AF3015" transform="translate(42,144)"/>
<path d="M0 0 C0.99 0.33 1.98 0.66 3 1 C3.33 4.3 3.66 7.6 4 11 C3.34 11 2.68 11 2 11 C2.05220703 11.90492187 2.05220703 11.90492187 2.10546875 12.828125 C2.14607422 14.02695313 2.14607422 14.02695313 2.1875 15.25 C2.22230469 16.03890625 2.25710937 16.8278125 2.29296875 17.640625 C1.93460826 20.52662145 0.78912224 21.7630813 -1 24 C-0.96970703 23.37955811 -0.93941406 22.75911621 -0.90820312 22.11987305 C-0.77138831 19.30911782 -0.63568164 16.49831015 -0.5 13.6875 C-0.45230469 12.71103516 -0.40460938 11.73457031 -0.35546875 10.72851562 C-0.31035156 9.79072266 -0.26523438 8.85292969 -0.21875 7.88671875 C-0.17685547 7.02264404 -0.13496094 6.15856934 -0.09179688 5.26831055 C-0.02077599 3.51337696 0 1.75637008 0 0 Z " fill="#F9E1CD" transform="translate(108,104)"/>
<path d="M0 0 C1.98 0 3.96 0 6 0 C6 2.64 6 5.28 6 8 C4.125 9.0625 4.125 9.0625 2 10 C1.34 9.67 0.68 9.34 0 9 C0 6.03 0 3.06 0 0 Z " fill="#2E2E2E" transform="translate(122,11)"/>
<path d="M0 0 C2.64 0 5.28 0 8 0 C8 0.33 8 0.66 8 1 C5.69 1 3.38 1 1 1 C2.06645115 2.29633621 2.06645115 2.29633621 4.5625 2.0625 C5.366875 2.041875 6.17125 2.02125 7 2 C7 2.99 7 3.98 7 5 C4.69 5 2.38 5 0 5 C0 12.26 0 19.52 0 27 C-0.33 27 -0.66 27 -1 27 C-1.02898816 23.06251542 -1.04679464 19.12505821 -1.0625 15.1875 C-1.07087891 14.06794922 -1.07925781 12.94839844 -1.08789062 11.79492188 C-1.09111328 10.72177734 -1.09433594 9.64863281 -1.09765625 8.54296875 C-1.10289307 7.55321045 -1.10812988 6.56345215 -1.11352539 5.54370117 C-1 3 -1 3 0 0 Z " fill="#999999" transform="translate(42,5)"/>
<path d="M0 0 C1.65 0 3.3 0 5 0 C4.75 1.875 4.75 1.875 4 4 C1.85331506 5.38495802 0.56128588 6 -2 6 C-2.33 6.99 -2.66 7.98 -3 9 C-3.33 8.01 -3.66 7.02 -4 6 C-6.50447516 4.78130071 -6.50447516 4.78130071 -9 4 C-5.91190305 2.23537317 -4.76687864 2 -1 2 C-0.67 1.34 -0.34 0.68 0 0 Z M-4 4 C-3 6 -3 6 -3 6 Z " fill="#181818" transform="translate(113,15)"/>
<path d="M0 0 C3.3 0 6.6 0 10 0 C9.01 2.31 8.02 4.62 7 7 C6.34 6.67 5.68 6.34 5 6 C4.66666667 4.66666667 4.33333333 3.33333333 4 2 C3.34 1.67 2.68 1.34 2 1 C1.67 7.27 1.34 13.54 1 20 C0.67 20 0.34 20 0 20 C0 13.4 0 6.8 0 0 Z " fill="#EF5417" transform="translate(90,109)"/>
<path d="M0 0 C0.66 0 1.32 0 2 0 C2.05397335 2.4377963 2.09365616 4.87439685 2.125 7.3125 C2.15013672 8.34793945 2.15013672 8.34793945 2.17578125 9.40429688 C2.21217794 13.17135396 2.14378864 14.78431704 0 18 C-0.39013716 19.9896995 -0.73202649 21.99019869 -1 24 C-1.66 24 -2.32 24 -3 24 C-3 21.36 -3 18.72 -3 16 C-2.01 16 -1.02 16 0 16 C0 10.72 0 5.44 0 0 Z " fill="#E5462C" transform="translate(40,80)"/>
<path d="M0 0 C11.22 0 22.44 0 34 0 C29 4 29 4 26.1875 4.25 C25.465625 4.1675 24.74375 4.085 24 4 C24.33 3.01 24.66 2.02 25 1 C16.75 1 8.5 1 0 1 C0 0.67 0 0.34 0 0 Z " fill="#EAEFE7" transform="translate(91,69)"/>
<path d="M0 0 C1.32 0 2.64 0 4 0 C4 6.93 4 13.86 4 21 C1.64073796 18.64073796 1.66842602 17.87599311 1.3671875 14.6484375 C1.28339844 13.79765625 1.19960938 12.946875 1.11328125 12.0703125 C1.03464844 11.18085937 0.95601562 10.29140625 0.875 9.375 C0.78863281 8.4778125 0.70226563 7.580625 0.61328125 6.65625 C0.4009076 4.4381252 0.19682915 2.21954931 0 0 Z " fill="#921E0C" transform="translate(52,64)"/>
<path d="M0 0 C10.16544293 -0.35529703 10.16544293 -0.35529703 15 2 C17.32998156 2.76439746 19.66904024 3.49429144 22.01171875 4.21875 C24 5 24 5 26 7 C24.02 7 22.04 7 20 7 C20 6.34 20 5.68 20 5 C18.33710937 4.70996094 18.33710937 4.70996094 16.640625 4.4140625 C15.17702524 4.15136511 13.71348673 3.88832633 12.25 3.625 C11.52039063 3.49867188 10.79078125 3.37234375 10.0390625 3.2421875 C6.4061572 2.58165926 3.1812995 1.92552338 0 0 Z " fill="#B23E26" transform="translate(54,159)"/>
<path d="M0 0 C0.33 0 0.66 0 1 0 C0.88968914 4.20885247 0.75916008 8.41684554 0.625 12.625 C0.5940625 13.81480469 0.563125 15.00460938 0.53125 16.23046875 C0.49257812 17.38417969 0.45390625 18.53789062 0.4140625 19.7265625 C0.3826416 20.78439941 0.3512207 21.84223633 0.31884766 22.93212891 C-0.01995688 26.19201999 -0.85610583 28.93757455 -2 32 C-2.33 32 -2.66 32 -3 32 C-2.45707868 21.2558729 -1.4598439 10.65827777 0 0 Z " fill="#F9D2C1" transform="translate(143,120)"/>
<path d="M0 0 C2.64 0 5.28 0 8 0 C7.34 2.31 6.68 4.62 6 7 C4.02 7 2.04 7 0 7 C0 4.69 0 2.38 0 0 Z " fill="#353535" transform="translate(56,10)"/>
<path d="M0 0 C1.32 0.66 2.64 1.32 4 2 C-2.54158399 5.65111665 -8.63879629 5.29887594 -16 5 C-12.7958766 2.15358159 -10.55658073 1.59032052 -6.3125 1.375 C-2.84446395 1.47075476 -2.84446395 1.47075476 0 0 Z " fill="#C1B1B2" transform="translate(57,160)"/>
<path d="M0 0 C0.33 0.99 0.66 1.98 1 3 C1.66 3 2.32 3 3 3 C3 10.26 3 17.52 3 25 C2.67 25 2.34 25 2 25 C1.66178803 22.14633646 1.3293022 19.29219404 1 16.4375 C0.90460937 15.63763672 0.80921875 14.83777344 0.7109375 14.01367188 C0.17285824 9.30547833 -0.10176703 4.73852735 0 0 Z " fill="#BB4424" transform="translate(38,117)"/>
<path d="M0 0 C-0.33 0.66 -0.66 1.32 -1 2 C-3.29296875 2.34375 -3.29296875 2.34375 -6.1875 2.5 C-10.46457778 2.79917383 -13.93836168 3.61309911 -18 5 C-20.375 4.625 -20.375 4.625 -22 4 C-19.27576321 1.27576321 -16.34003562 1.01933006 -12.6875 0.3125 C-12.02298828 0.17005859 -11.35847656 0.02761719 -10.67382812 -0.11914062 C-6.81779997 -0.88576937 -3.79164519 -1.09275654 0 0 Z " fill="#DAD2D0" transform="translate(57,160)"/>
<path d="M0 0 C7.40315583 1.79354806 14.72764611 3.73141173 22 6 C18.95161559 6.92565097 16.53510031 7.04155806 13.375 6.6875 C12.21097656 6.56955078 12.21097656 6.56955078 11.0234375 6.44921875 C9 6 9 6 7 4 C4.31160615 3.73008094 1.70858064 3.91262643 -1 4 C-0.67 2.68 -0.34 1.36 0 0 Z " fill="#DC8453" transform="translate(62,133)"/>
<path d="M0 0 C1.32 0 2.64 0 4 0 C3.9131724 2.12577907 3.8050049 4.25069581 3.6875 6.375 C3.62949219 7.55835937 3.57148437 8.74171875 3.51171875 9.9609375 C3.34285156 10.96382812 3.17398438 11.96671875 3 13 C2.01 13.66 1.02 14.32 0 15 C0 10.05 0 5.1 0 0 Z " fill="#D83B10" transform="translate(44,112)"/>
<path d="M0 0 C0.33 0 0.66 0 1 0 C1 1.98 1 3.96 1 6 C-0.98 6 -2.96 6 -5 6 C-5.33 6.66 -5.66 7.32 -6 8 C-7.32 8 -8.64 8 -10 8 C-10.33 8.99 -10.66 9.98 -11 11 C-11.66 9.35 -12.32 7.7 -13 6 C-14.98 6 -16.96 6 -19 6 C-15.60425384 3.73616923 -15.03312121 3.8433473 -11.1875 4.375 C-7.42266748 4.84353699 -3.80154077 5.10004055 0 5 C0 3.35 0 1.7 0 0 Z " fill="#131313" transform="translate(87,11)"/>
<path d="M0 0 C0.99 0.33 1.98 0.66 3 1 C2.34 1 1.68 1 1 1 C1.19471111 2.94999129 1.19471111 2.94999129 2 5 C4.58152302 6.72101535 5.84918025 7 9 7 C8.67 6.01 8.34 5.02 8 4 C9.32 4.66 10.64 5.32 12 6 C11.67 6.66 11.34 7.32 11 8 C10.34 8 9.68 8 9 8 C9 8.66 9 9.32 9 10 C8.01 10.33 7.02 10.66 6 11 C6 10.34 6 9.68 6 9 C3.03 8.505 3.03 8.505 0 8 C0 5.36 0 2.72 0 0 Z " fill="#151515" transform="translate(92,11)"/>
<path d="M0 0 C4.29 0 8.58 0 13 0 C13.33 2.97 13.66 5.94 14 9 C13.34 8.67 12.68 8.34 12 8 C12 5.69 12 3.38 12 1 C8.7 1.33 5.4 1.66 2 2 C2 5.63 2 9.26 2 13 C1.67 13 1.34 13 1 13 C0.67 8.71 0.34 4.42 0 0 Z " fill="#EBB49F" transform="translate(60,115)"/>
<path d="M0 0 C2.97 0 5.94 0 9 0 C9 1.32 9 2.64 9 4 C5.37 4 1.74 4 -2 4 C-1.34 2.68 -0.68 1.36 0 0 Z " fill="#C3641B" transform="translate(109,34)"/>
<path d="M0 0 C-7.18052459 3.48901845 -13.0412201 4.54470737 -21 4 C-21.33 3.34 -21.66 2.68 -22 2 C-18.7 2.33 -15.4 2.66 -12 3 C-12 2.34 -12 1.68 -12 1 C-3.96428571 -1.27678571 -3.96428571 -1.27678571 0 0 Z " fill="#E09961" transform="translate(108,138)"/>
<path d="M0 0 C0.99 0 1.98 0 3 0 C4.43023178 4.67209049 5.40380045 9.13103697 6 14 C4.68 13.67 3.36 13.34 2 13 C2.66 11.35 3.32 9.7 4 8 C2.68 7.34 1.36 6.68 0 6 C0 4.02 0 2.04 0 0 Z " fill="#C3CECD" transform="translate(68,118)"/>
<path d="M0 0 C1.32 0 2.64 0 4 0 C4 0.66 4 1.32 4 2 C4.99 2.33 5.98 2.66 7 3 C6.67 4.32 6.34 5.64 6 7 C4.35 7 2.7 7 1 7 C0.67 4.69 0.34 2.38 0 0 Z " fill="#242424" transform="translate(42,11)"/>
<path d="M0 0 C1.26457031 0.30164063 2.52914062 0.60328125 3.83203125 0.9140625 C5.10433594 1.21054688 6.37664062 1.50703125 7.6875 1.8125 C8.66332031 2.05226562 9.63914062 2.29203125 10.64453125 2.5390625 C10.64453125 3.1990625 10.64453125 3.8590625 10.64453125 4.5390625 C12.29453125 4.5390625 13.94453125 4.5390625 15.64453125 4.5390625 C15.64453125 4.8690625 15.64453125 5.1990625 15.64453125 5.5390625 C7.90251544 5.15329195 0.967819 4.11517478 -6.35546875 1.5390625 C-3.35546875 -0.4609375 -3.35546875 -0.4609375 0 0 Z " fill="#E1C3B2" transform="translate(80.35546875,135.4609375)"/>
<path d="M0 0 C1.89646998 0.11493757 3.79218332 0.24239642 5.6875 0.375 C6.74324219 0.44460937 7.79898438 0.51421875 8.88671875 0.5859375 C11.90677269 0.98760089 14.24078054 1.74069019 17 3 C16.67 3.66 16.34 4.32 16 5 C10.63486869 4.152874 5.3212615 3.08318169 0 2 C0 1.34 0 0.68 0 0 Z " fill="#85898A" transform="translate(74,130)"/>
<path d="M0 0 C0.33 0 0.66 0 1 0 C1.22114415 2.79119779 1.42743301 5.5821212 1.625 8.375 C1.68945312 9.1690625 1.75390625 9.963125 1.8203125 10.78125 C1.96058587 12.85028224 1.98758237 14.92625536 2 17 C1.34 17.66 0.68 18.32 0 19 C-2.0095763 12.97127109 -1.29479052 6.15025498 0 0 Z " fill="#B24D2B" transform="translate(60,118)"/>
<path d="M0 0 C1.32 0 2.64 0 4 0 C4 0.99 4 1.98 4 3 C4.99 3.33 5.98 3.66 7 4 C-0.92 4 -8.84 4 -17 4 C-17 3.67 -17 3.34 -17 3 C-11.39 3 -5.78 3 0 3 C0 2.01 0 1.02 0 0 Z " fill="#EA8639" transform="translate(64,34)"/>
<path d="M0 0 C0.33 0 0.66 0 1 0 C1 1.98 1 3.96 1 6 C2.65 6 4.3 6 6 6 C6 7.65 6 9.3 6 11 C4.02 11 2.04 11 0 11 C0 7.37 0 3.74 0 0 Z " fill="#989898" transform="translate(50,6)"/>
<path d="M0 0 C0 0.66 0 1.32 0 2 C-0.65226562 2.10957031 -1.30453125 2.21914062 -1.9765625 2.33203125 C-7.14115799 3.26897114 -11.3758974 4.40599122 -16 7 C-16.99 7.33 -17.98 7.66 -19 8 C-19.66 7.34 -20.32 6.68 -21 6 C-6.78640777 0 -6.78640777 0 0 0 Z " fill="#B1B5B8" transform="translate(107,129)"/>
<path d="M0 0 C2.52259061 1.97420135 2.9929808 2.96745642 3.6875 6.1875 C3.790625 7.115625 3.89375 8.04375 4 9 C5.32 9 6.64 9 8 9 C7.67 9.99 7.34 10.98 7 12 C5.35 12 3.7 12 2 12 C0.70756464 7.8803623 -0.26252625 4.33168317 0 0 Z " fill="#C94D2C" transform="translate(73,115)"/>
<path d="M0 0 C0.33 0 0.66 0 1 0 C1.08114106 1.77007714 1.13925505 3.54122098 1.1875 5.3125 C1.22230469 6.29863281 1.25710937 7.28476563 1.29296875 8.30078125 C1 11 1 11 -0.1875 12.84375 C-2.63173202 14.40300146 -4.31264373 14.29950739 -7.1875 14.1875 C-8.08855469 14.16042969 -8.98960938 14.13335937 -9.91796875 14.10546875 C-10.60503906 14.07066406 -11.29210937 14.03585938 -12 14 C-8.43904445 12.12498358 -4.8877114 11.04669153 -1 10 C-0.67 6.7 -0.34 3.4 0 0 Z " fill="#CB7C4F" transform="translate(120,123)"/>
<path d="M0 0 C0.66 0 1.32 0 2 0 C3.03789581 1.64333504 4.03567924 3.31243867 5 5 C5.66 5.66 6.32 6.32 7 7 C4.35261084 8.4606285 3.10551666 9 0 9 C0 6.03 0 3.06 0 0 Z " fill="#D1D1D1" transform="translate(99,23)"/>
<path d="M0 0 C5.28 0 10.56 0 16 0 C16 1.32 16 2.64 16 4 C15.21625 3.649375 14.4325 3.29875 13.625 2.9375 C12.75875 2.628125 11.8925 2.31875 11 2 C10.01 2.495 10.01 2.495 9 3 C6.8359375 2.66015625 6.8359375 2.66015625 4.375 2.0625 C3.14910156 1.77052734 3.14910156 1.77052734 1.8984375 1.47265625 C0.95871094 1.23869141 0.95871094 1.23869141 0 1 C0 0.67 0 0.34 0 0 Z " fill="#D1D1D1" transform="translate(126,161)"/>
<path d="M0 0 C3.63 0 7.26 0 11 0 C8.37443155 1.75037897 7.0625129 2.38241433 4.125 3.0625 C3.42632812 3.22621094 2.72765625 3.38992187 2.0078125 3.55859375 C-0.32250876 4.07090173 -2.65483484 4.56028153 -5 5 C-5 4.01 -5 3.02 -5 2 C-3.35 2 -1.7 2 0 2 C0 1.34 0 0.68 0 0 Z " fill="#80655B" transform="translate(96,128)"/>
<path d="M0 0 C0 0.66 0 1.32 0 2 C-1.91345327 2.53251766 -3.8309295 3.05059483 -5.75 3.5625 C-6.81734375 3.85253906 -7.8846875 4.14257812 -8.984375 4.44140625 C-11.84335927 4.97098494 -13.31597383 4.98370862 -16 4 C-10.45108785 1.18150494 -6.258654 -0.5326514 0 0 Z " fill="#CFD2CA" transform="translate(107,131)"/>
<path d="M0 0 C0.33 0 0.66 0 1 0 C1 1.98 1 3.96 1 6 C1.66 6 2.32 6 3 6 C2.67 9.3 2.34 12.6 2 16 C1.34 16 0.68 16 0 16 C0 10.72 0 5.44 0 0 Z " fill="#DD5226" transform="translate(50,64)"/>
<path d="M0 0 C0 1.32 0 2.64 0 4 C-2.64 3.67 -5.28 3.34 -8 3 C-8 2.01 -8 1.02 -8 0 C-4.71023192 -1.09658936 -3.28696233 -0.79953138 0 0 Z " fill="#807780" transform="translate(72,166)"/>
<path d="M0 0 C3.96 0 7.92 0 12 0 C13.20272819 2.40545638 13.10071472 3.94996953 13.0625 6.625 C13.05347656 7.44226563 13.04445313 8.25953125 13.03515625 9.1015625 C13.02355469 9.72804688 13.01195313 10.35453125 13 11 C12.67 9.68 12.34 8.36 12 7 C11.34 7 10.68 7 10 7 C10 5.35 10 3.7 10 2 C6.7 1.67 3.4 1.34 0 1 C0 0.67 0 0.34 0 0 Z " fill="#D7854E" transform="translate(96,105)"/>
<path d="M0 0 C3.3 0 6.6 0 10 0 C7.09961601 1.450192 5.03884551 2.37715911 2 3.125 C1.34 3.29257813 0.68 3.46015625 0 3.6328125 C-2 4 -2 4 -6 4 C-6 3.34 -6 2.68 -6 2 C-4.02 2 -2.04 2 0 2 C0 1.34 0 0.68 0 0 Z " fill="#B83926" transform="translate(102,163)"/>
<path d="M0 0 C0.66 0 1.32 0 2 0 C1.67 4.62 1.34 9.24 1 14 C0.34 14 -0.32 14 -1 14 C-1.18451025 4.58997722 -1.18451025 4.58997722 0 0 Z " fill="#F78046" transform="translate(139,50)"/>
<path d="M0 0 C0.99 0 1.98 0 3 0 C2.67 1.65 2.34 3.3 2 5 C2.99 4.67 3.98 4.34 5 4 C5.33 5.32 5.66 6.64 6 8 C4.68 8.33 3.36 8.66 2 9 C2 8.34 2 7.68 2 7 C1.34 7 0.68 7 0 7 C0 4.69 0 2.38 0 0 Z " fill="#F48442" transform="translate(91,50)"/>
<path d="M0 0 C3.53586014 3.17320782 5.58578031 5.16743695 6 10 C5.01 10 4.02 10 3 10 C0.70366176 6.55549263 0.45983515 4.06187717 0 0 Z " fill="#565656" transform="translate(99,6)"/>
<path d="M0 0 C-0.99 1.485 -0.99 1.485 -2 3 C-4.6015625 3.51171875 -4.6015625 3.51171875 -7.625 3.6875 C-9.12933594 3.78611328 -9.12933594 3.78611328 -10.6640625 3.88671875 C-11.82035156 3.94279297 -11.82035156 3.94279297 -13 4 C-13 3.34 -13 2.68 -13 2 C-11.21089097 1.47044766 -9.41860852 0.9516063 -7.625 0.4375 C-6.62726563 0.14746094 -5.62953125 -0.14257812 -4.6015625 -0.44140625 C-2 -1 -2 -1 0 0 Z " fill="#E7E7E7" transform="translate(149,171)"/>
<path d="M0 0 C-3.34520258 1.93242285 -6.44767482 2.5463853 -10.25 3.125 C-11.32765625 3.29257813 -12.4053125 3.46015625 -13.515625 3.6328125 C-14.33546875 3.75398437 -15.1553125 3.87515625 -16 4 C-11.34158975 -1.14031476 -6.42886252 -0.40532233 0 0 Z " fill="#B33820" transform="translate(128,159)"/>
<path d="M0 0 C1.625 1.625 1.625 1.625 3 4 C2.25 6.75 2.25 6.75 1 10 C0.54811249 12.6632519 0.27820887 15.31064761 0 18 C-0.33 18 -0.66 18 -1 18 C-1.18451025 5.33029613 -1.18451025 5.33029613 0 0 Z " fill="#E5632E" transform="translate(126,94)"/>
<path d="M0 0 C2.64 0 5.28 0 8 0 C8 1.65 8 3.3 8 5 C5.36 5 2.72 5 0 5 C0.33 4.34 0.66 3.68 1 3 C1.66 3.33 2.32 3.66 3 4 C3 3.34 3 2.68 3 2 C2.01 1.34 1.02 0.68 0 0 Z " fill="#AEAEAE" transform="translate(110,5)"/>
<path d="M0 0 C0.99 0.66 1.98 1.32 3 2 C-2.5825192 5.32575612 -6.49686791 6.46450943 -13 6 C-13 5.67 -13 5.34 -13 5 C-9.7 4.34 -6.4 3.68 -3 3 C-3 2.34 -3 1.68 -3 1 C-2.01 0.67 -1.02 0.34 0 0 Z " fill="#818186" transform="translate(117,165)"/>
<path d="M0 0 C0.33 0 0.66 0 1 0 C0.98839844 0.61488281 0.97679687 1.22976562 0.96484375 1.86328125 C0.95582031 2.67152344 0.94679687 3.47976562 0.9375 4.3125 C0.92589844 5.11300781 0.91429687 5.91351563 0.90234375 6.73828125 C0.90342145 9.16861334 0.90342145 9.16861334 2 12 C1.0625 14.1875 1.0625 14.1875 0 16 C-0.33 16 -0.66 16 -1 16 C-1.02712153 14.083412 -1.04645097 12.1667127 -1.0625 10.25 C-1.07410156 9.18265625 -1.08570313 8.1153125 -1.09765625 7.015625 C-1.01510087 4.46631499 -0.74617558 2.42066409 0 0 Z " fill="#E25625" transform="translate(138,76)"/>
<path d="M0 0 C2.64 0 5.28 0 8 0 C7.34 1.32 6.68 2.64 6 4 C4.35 4 2.7 4 1 4 C0.67 2.68 0.34 1.36 0 0 Z " fill="#F08E4C" transform="translate(101,34)"/>
<path d="M0 0 C2.97 0.495 2.97 0.495 6 1 C6 1.66 6 2.32 6 3 C7.98 3 9.96 3 12 3 C12 3.66 12 4.32 12 5 C4.61538462 4.50769231 4.61538462 4.50769231 1.5 1.9375 C1.005 1.298125 0.51 0.65875 0 0 Z " fill="#916354" transform="translate(68,163)"/>
<path d="M0 0 C2.1257443 2.90569365 1.97321906 4.22604933 1.5390625 7.890625 C1.24788408 9.34651712 0.94273948 10.79967302 0.625 12.25 C0.47289062 12.99507812 0.32078125 13.74015625 0.1640625 14.5078125 C-0.21198391 16.34103877 -0.60440246 18.1708931 -1 20 C-1.33 20 -1.66 20 -2 20 C-1.85879984 17.41633755 -1.71221667 14.83317115 -1.5625 12.25 C-1.52318359 11.52039062 -1.48386719 10.79078125 -1.44335938 10.0390625 C-1.23852902 6.5727027 -0.9147998 3.34666974 0 0 Z " fill="#E35C2B" transform="translate(141,52)"/>
<path d="M0 0 C0 0.99 0 1.98 0 3 C-3.63 3 -7.26 3 -11 3 C-11 2.34 -11 1.68 -11 1 C-3.375 0 -3.375 0 0 0 Z " fill="#DDE8E3" transform="translate(91,72)"/>
<path d="M0 0 C2.64 0 5.28 0 8 0 C8.33 0.99 8.66 1.98 9 3 C6.03 3 3.06 3 0 3 C0 2.01 0 1.02 0 0 Z " fill="#8C8C8C" transform="translate(121,6)"/>
<path d="M0 0 C-0.66 0.66 -1.32 1.32 -2 2 C-2.99 2 -3.98 2 -5 2 C-5 2.66 -5 3.32 -5 4 C-6.9375 3.625 -6.9375 3.625 -9 3 C-9.33 2.34 -9.66 1.68 -10 1 C-3.375 -1.125 -3.375 -1.125 0 0 Z " fill="#8D8986" transform="translate(69,164)"/>
<path d="M0 0 C0.99 0 1.98 0 3 0 C5 3 5 3 5 7 C2.03 6.505 2.03 6.505 -1 6 C-0.67 4.02 -0.34 2.04 0 0 Z " fill="#C34020" transform="translate(135,150)"/>
<path d="M0 0 C-3.00617269 3.00617269 -5.82381598 2.59585316 -10 3 C-10.33 2.34 -10.66 1.68 -11 1 C-3.375 -1.125 -3.375 -1.125 0 0 Z " fill="#F98E44" transform="translate(112,139)"/>
<path d="M0 0 C2.15502531 3.23253796 2.46856135 4.25150923 2 8 C0.48046875 9.65625 0.48046875 9.65625 -1 11 C-1.22174933 9.54364629 -1.42698698 8.08477044 -1.625 6.625 C-1.74101562 5.81289062 -1.85703125 5.00078125 -1.9765625 4.1640625 C-1.98429688 3.44992188 -1.99203125 2.73578125 -2 2 C-1.34 1.34 -0.68 0.68 0 0 Z " fill="#F27F42" transform="translate(130,61)"/>
<path d="M0 0 C0.33 0.66 0.66 1.32 1 2 C2.89533342 2.46523063 2.89533342 2.46523063 5.0625 2.625 C6.361875 2.74875 7.66125 2.8725 9 3 C9 3.66 9 4.32 9 5 C6.03 5 3.06 5 0 5 C0 3.35 0 1.7 0 0 Z " fill="#A5A5A5" transform="translate(130,20)"/>
<path d="M0 0 C2.97 0.495 2.97 0.495 6 1 C6 1.99 6 2.98 6 4 C4.125 5.0625 4.125 5.0625 2 6 C1.34 5.67 0.68 5.34 0 5 C0 3.35 0 1.7 0 0 Z " fill="#1B1B1B" transform="translate(122,15)"/>
<path d="M0 0 C5.42039575 -0.40652968 9.07015675 0.96006486 14 3 C14 3.33 14 3.66 14 4 C12.41590006 3.88512252 10.83271037 3.75765492 9.25 3.625 C8.36828125 3.55539063 7.4865625 3.48578125 6.578125 3.4140625 C4.00933618 3.00149945 2.24158985 2.28839043 0 1 C0 0.67 0 0.34 0 0 Z " fill="#FCAC62" transform="translate(79,141)"/>
<path d="M0 0 C0 0.66 0 1.32 0 2 C-3.97193147 5.12940055 -7.04230204 5.29162929 -12 5 C-10.66666667 4.33333333 -9.33333333 3.66666667 -8 3 C-6.96875 2.46375 -5.9375 1.9275 -4.875 1.375 C-2 0 -2 0 0 0 Z " fill="#918A92" transform="translate(120,167)"/>
<path d="M0 0 C1.62463842 -0.05395478 3.24978541 -0.09277195 4.875 -0.125 C5.77992187 -0.14820313 6.68484375 -0.17140625 7.6171875 -0.1953125 C10 0 10 0 12 2 C7.31034294 3.11658501 4.46236469 2.80619523 0 1 C0 0.67 0 0.34 0 0 Z " fill="#AB3A20" transform="translate(44,156)"/>
<path d="M0 0 C0.33 1.32 0.66 2.64 1 4 C1.66 4 2.32 4 3 4 C2.67 5.32 2.34 6.64 2 8 C1.01 8 0.02 8 -1 8 C-1.04241723 5.66705225 -1.04092937 3.33297433 -1 1 C-0.67 0.67 -0.34 0.34 0 0 Z " fill="#EF3916" transform="translate(43,104)"/>
<path d="M0 0 C-2.96178773 1.67110042 -5.37071192 2.32682752 -8.75 2.625 C-9.54921875 2.69976562 -10.3484375 2.77453125 -11.171875 2.8515625 C-11.77515625 2.90054688 -12.3784375 2.94953125 -13 3 C-9.21656826 -0.94792877 -5.07874402 -0.29300446 0 0 Z " fill="#C5C4C4" transform="translate(54,162)"/>
<path d="M0 0 C0.66 0 1.32 0 2 0 C2.309375 1.11375 2.61875 2.2275 2.9375 3.375 C3.82326483 6.7945155 3.82326483 6.7945155 5 9 C3.68 9.33 2.36 9.66 1 10 C0.67 6.7 0.34 3.4 0 0 Z " fill="#D32403" transform="translate(43,144)"/>
<path d="M0 0 C0.99 0 1.98 0 3 0 C2.34 3.3 1.68 6.6 1 10 C0.67 10 0.34 10 0 10 C0 6.7 0 3.4 0 0 Z " fill="#BD2808" transform="translate(41,136)"/>
<path d="M0 0 C0.33 0 0.66 0 1 0 C1 2.97 1 5.94 1 9 C-0.98 9 -2.96 9 -5 9 C-5 8.67 -5 8.34 -5 8 C-3.35 8 -1.7 8 0 8 C-0.66 7.67 -1.32 7.34 -2 7 C-1.125 2.25 -1.125 2.25 0 0 Z " fill="#FBE5DB" transform="translate(126,67)"/>
<path d="M0 0 C-0.66 0 -1.32 0 -2 0 C-2 0.66 -2 1.32 -2 2 C-4.31 2.33 -6.62 2.66 -9 3 C-9 2.34 -9 1.68 -9 1 C-5.57367167 -0.61798838 -3.61944899 -1.34053666 0 0 Z " fill="#F5EEEE" transform="translate(100,137)"/>
<path d="M0 0 C0.12375 0.639375 0.2475 1.27875 0.375 1.9375 C0.58125 2.618125 0.7875 3.29875 1 4 C1.66 4.33 2.32 4.66 3 5 C-0.63 4.34 -4.26 3.68 -8 3 C-8 2.67 -8 2.34 -8 2 C-6.865625 1.855625 -5.73125 1.71125 -4.5625 1.5625 C-1.19222799 1.38828522 -1.19222799 1.38828522 0 0 Z " fill="#CE4F18" transform="translate(88,125)"/>
<path d="M0 0 C0.33 0 0.66 0 1 0 C1 1.98 1 3.96 1 6 C-0.75 7.125 -0.75 7.125 -3 8 C-5.25 7.125 -5.25 7.125 -7 6 C-5.02 5.67 -3.04 5.34 -1 5 C-0.67 3.35 -0.34 1.7 0 0 Z " fill="#1B1B1B" transform="translate(63,11)"/>
<path d="M0 0 C4.3890815 0.51035831 7.33708062 1.52214277 11 4 C9 5 9 5 6.8359375 4.44140625 C6.02382812 4.15136719 5.21171875 3.86132812 4.375 3.5625 C3.55773437 3.27503906 2.74046875 2.98757812 1.8984375 2.69140625 C1.27195312 2.46324219 0.64546875 2.23507813 0 2 C0 1.34 0 0.68 0 0 Z " fill="#B23103" transform="translate(80,143)"/>
<path d="M0 0 C3.3 0.33 6.6 0.66 10 1 C10 1.66 10 2.32 10 3 C6.65155086 4.05236973 5.40920111 4.20005388 2.1875 2.625 C1.465625 2.08875 0.74375 1.5525 0 1 C0 0.67 0 0.34 0 0 Z " fill="#CD4D12" transform="translate(86,144)"/>
<path d="M0 0 C1.32 0 2.64 0 4 0 C4 0.99 4 1.98 4 3 C2.02 3.33 0.04 3.66 -2 4 C-1.34 2.68 -0.68 1.36 0 0 Z " fill="#E76D2A" transform="translate(102,123)"/>
<path d="M0 0 C0.66 0.99 1.32 1.98 2 3 C1.34 4.32 0.68 5.64 0 7 C-0.66 6.67 -1.32 6.34 -2 6 C-2 4.35 -2 2.7 -2 1 C-1.34 0.67 -0.68 0.34 0 0 Z " fill="#DD3503" transform="translate(56,119)"/>
<path d="M0 0 C1.32 0 2.64 0 4 0 C4 0.66 4 1.32 4 2 C4.66 2 5.32 2 6 2 C6 2.66 6 3.32 6 4 C4.68 4.33 3.36 4.66 2 5 C2 4.34 2 3.68 2 3 C1.34 3 0.68 3 0 3 C0 2.01 0 1.02 0 0 Z " fill="#2F2F2F" transform="translate(42,11)"/>
<path d="M0 0 C0 0.66 0 1.32 0 2 C-2.97 2 -5.94 2 -9 2 C-6.98558063 -2.02883874 -3.72407517 -0.90585612 0 0 Z " fill="#C69890" transform="translate(66,162)"/>
<path d="M0 0 C2.64 0 5.28 0 8 0 C8 0.66 8 1.32 8 2 C8.66 2.33 9.32 2.66 10 3 C2.25 2.25 2.25 2.25 0 0 Z " fill="#E7BEAB" transform="translate(64,133)"/>
<path d="M0 0 C0.66 0.66 1.32 1.32 2 2 C1.625 4.625 1.625 4.625 1 7 C-0.32 6.34 -1.64 5.68 -3 5 C-2.01 3.35 -1.02 1.7 0 0 Z " fill="#E1440C" transform="translate(127,129)"/>
<path d="M0 0 C0.99 0 1.98 0 3 0 C2.67 2.64 2.34 5.28 2 8 C1.34 8 0.68 8 0 8 C0 5.36 0 2.72 0 0 Z " fill="#EF4025" transform="translate(37,96)"/>
<path d="M0 0 C0.99 0.33 1.98 0.66 3 1 C2.34 1 1.68 1 1 1 C1.33 2.32 1.66 3.64 2 5 C2.66 5 3.32 5 4 5 C4 5.99 4 6.98 4 8 C2.68 8 1.36 8 0 8 C0 5.36 0 2.72 0 0 Z " fill="#1D1D1D" transform="translate(92,11)"/>
<path d="M0 0 C0 0.99 0 1.98 0 3 C-2.70879335 4.35439668 -5.00933268 4.06501451 -8 4 C-2.7826087 0 -2.7826087 0 0 0 Z " fill="#A29E9B" transform="translate(128,167)"/>
<path d="M0 0 C2.97 0 5.94 0 9 0 C6.08235 1.9451 4.37462715 2.45276317 1 3 C0.67 2.01 0.34 1.02 0 0 Z " fill="#A82A10" transform="translate(128,156)"/>
<path d="M0 0 C0 0.66 0 1.32 0 2 C-4.02040985 2.69584017 -7.08263419 3.1700097 -11 2 C-3.375 0 -3.375 0 0 0 Z " fill="#A5A9AA" transform="translate(107,129)"/>
</svg>
