<?xml version="1.0" encoding="UTF-8"?>
<svg version="1.1" xmlns="http://www.w3.org/2000/svg" width="270" height="180">
<path d="M0 0 C89.1 0 178.2 0 270 0 C270 59.4 270 118.8 270 180 C180.9 180 91.8 180 0 180 C0 120.6 0 61.2 0 0 Z " fill="#FBFBFB" transform="translate(0,0)"/>
<path d="M0 0 C8.15568174 -0.10482881 16.30892772 -0.20499499 24.46469879 -0.25875092 C28.2624846 -0.2851664 32.05971346 -0.32046835 35.85717773 -0.37719727 C39.51414195 -0.43148603 43.1705658 -0.46141327 46.82790184 -0.47438622 C48.22384336 -0.48363205 49.61975496 -0.5016876 51.01546669 -0.52865028 C52.96875847 -0.56488701 54.92259292 -0.5670419 56.8762207 -0.56762695 C58.5450103 -0.58428154 58.5450103 -0.58428154 60.24751282 -0.60127258 C63 0 63 0 64.94523621 2.34797668 C66 5 66 5 65 8 C64.505 7.505 64.505 7.505 64 7 C64 22.18 64 37.36 64 53 C64.66 52.67 65.32 52.34 66 52 C65.01 54.97 64.02 57.94 63 61 C62.01 61 61.02 61 60 61 C59.67 61.99 59.34 62.98 59 64 C58.67 63.34 58.34 62.68 58 62 C49.75 61.67 41.5 61.34 33 61 C33.495 63.97 33.495 63.97 34 67 C31 63.25 31 63.25 31 61 C20.605 61.495 20.605 61.495 10 62 C9.01 64.475 9.01 64.475 8 67 C7.34 66.67 6.68 66.34 6 66 C6.66 64.35 7.32 62.7 8 61 C5.36 61 2.72 61 0 61 C0 40.87 0 20.74 0 0 Z " fill="#DD0302" transform="translate(34,60)"/>
<path d="M0 0 C1.19882813 0.00483398 1.19882813 0.00483398 2.421875 0.00976562 C3.246875 0.01814453 4.071875 0.02652344 4.921875 0.03515625 C5.76234375 0.03966797 6.6028125 0.04417969 7.46875 0.04882812 C9.53648901 0.06057664 11.60419124 0.07851103 13.671875 0.09765625 C13.011875 0.42765625 12.351875 0.75765625 11.671875 1.09765625 C12.166875 3.07765625 12.166875 3.07765625 12.671875 5.09765625 C12.011875 5.09765625 11.351875 5.09765625 10.671875 5.09765625 C10.671875 14.00765625 10.671875 22.91765625 10.671875 32.09765625 C3.741875 31.60265625 3.741875 31.60265625 -3.328125 31.09765625 C-3.328125 35.71765625 -3.328125 40.33765625 -3.328125 45.09765625 C-1.018125 44.76765625 1.291875 44.43765625 3.671875 44.09765625 C3.176875 42.11765625 3.176875 42.11765625 2.671875 40.09765625 C6.04945733 37.8459347 8.74931288 38.16007472 12.69921875 38.29296875 C15.82487282 37.98349805 17.51883366 36.25069759 19.671875 34.09765625 C19.671875 35.08765625 19.671875 36.07765625 19.671875 37.09765625 C20.661875 37.09765625 21.651875 37.09765625 22.671875 37.09765625 C22.011875 34.78765625 21.351875 32.47765625 20.671875 30.09765625 C23.25234936 31.38789343 23.34210464 32.36855016 24.296875 35.03515625 C24.68746094 36.10056641 24.68746094 36.10056641 25.0859375 37.1875 C25.671875 39.09765625 25.671875 39.09765625 25.671875 41.09765625 C26.331875 41.09765625 26.991875 41.09765625 27.671875 41.09765625 C28.331875 40.10765625 28.991875 39.11765625 29.671875 38.09765625 C32.16796875 37.76953125 32.16796875 37.76953125 35.109375 37.84765625 C36.56150391 37.87085937 36.56150391 37.87085937 38.04296875 37.89453125 C40.671875 38.09765625 40.671875 38.09765625 43.671875 39.09765625 C43.341875 40.41765625 43.011875 41.73765625 42.671875 43.09765625 C39.371875 43.09765625 36.071875 43.09765625 32.671875 43.09765625 C32.671875 44.41765625 32.671875 45.73765625 32.671875 47.09765625 C33.59419922 47.47857422 33.59419922 47.47857422 34.53515625 47.8671875 C35.34339844 48.21136719 36.15164062 48.55554688 36.984375 48.91015625 C37.78488281 49.24660156 38.58539063 49.58304688 39.41015625 49.9296875 C41.69298998 51.10856019 43.11897458 52.05569304 44.671875 54.09765625 C44.60460904 57.86454986 44.49220233 60.1894367 41.921875 63.03515625 C39.31784872 64.26483533 37.51875274 64.33489606 34.671875 64.09765625 C35.001875 65.74765625 35.331875 67.39765625 35.671875 69.09765625 C35.176875 68.13859375 35.176875 68.13859375 34.671875 67.16015625 C31.64857668 64.04237985 28.93530776 64.37722561 24.671875 64.09765625 C24.341875 63.10765625 24.011875 62.11765625 23.671875 61.09765625 C23.011875 61.09765625 22.351875 61.09765625 21.671875 61.09765625 C21.46691406 61.78472656 21.26195312 62.47179687 21.05078125 63.1796875 C20.78136719 64.08074219 20.51195312 64.98179688 20.234375 65.91015625 C19.96753906 66.80347656 19.70070313 67.69679688 19.42578125 68.6171875 C18.86799627 70.4523868 18.27842925 72.27799351 17.671875 74.09765625 C16.7128125 73.81921875 16.7128125 73.81921875 15.734375 73.53515625 C15.05375 73.39078125 14.373125 73.24640625 13.671875 73.09765625 C12.25610023 74.28189951 12.25610023 74.28189951 12.609375 77.66015625 C12.63 78.79453125 12.650625 79.92890625 12.671875 81.09765625 C13.331875 79.77765625 13.991875 78.45765625 14.671875 77.09765625 C15.90555442 79.56501509 15.671875 81.36575226 15.671875 84.09765625 C16.001875 84.75765625 16.331875 85.41765625 16.671875 86.09765625 C15.351875 85.76765625 14.031875 85.43765625 12.671875 85.09765625 C12.341875 87.07765625 12.011875 89.05765625 11.671875 91.09765625 C9.06763908 91.12462762 6.46368256 91.14448114 3.859375 91.16015625 C3.12138672 91.16853516 2.38339844 91.17691406 1.62304688 91.18554688 C-1.62734568 91.20025453 -4.22217395 91.13297327 -7.328125 90.09765625 C-6.833125 88.61265625 -6.833125 88.61265625 -6.328125 87.09765625 C-5.998125 87.09765625 -5.668125 87.09765625 -5.328125 87.09765625 C-4.998125 72.57765625 -4.668125 58.05765625 -4.328125 43.09765625 C-6.968125 43.42765625 -9.608125 43.75765625 -12.328125 44.09765625 C-12.658125 50.69765625 -12.988125 57.29765625 -13.328125 64.09765625 C-14.978125 64.09765625 -16.628125 64.09765625 -18.328125 64.09765625 C-20.01113169 62.41464956 -19.55621577 60.27756898 -19.64453125 57.96875 C-19.68642578 56.93427734 -19.72832031 55.89980469 -19.77148438 54.83398438 C-19.81080078 53.74537109 -19.85011719 52.65675781 -19.890625 51.53515625 C-19.93380859 50.44267578 -19.97699219 49.35019531 -20.02148438 48.22460938 C-20.12794568 45.51576061 -20.22996016 42.80681633 -20.328125 40.09765625 C-22.308125 40.59265625 -22.308125 40.59265625 -24.328125 41.09765625 C-24.328125 44.72765625 -24.328125 48.35765625 -24.328125 52.09765625 C-29.938125 52.09765625 -35.548125 52.09765625 -41.328125 52.09765625 C-41.328125 53.08765625 -41.328125 54.07765625 -41.328125 55.09765625 C-40.668125 55.09765625 -40.008125 55.09765625 -39.328125 55.09765625 C-39.328125 56.41765625 -39.328125 57.73765625 -39.328125 59.09765625 C-37.91156707 59.12489775 -36.49485455 59.14416092 -35.078125 59.16015625 C-34.28921875 59.17175781 -33.5003125 59.18335938 -32.6875 59.1953125 C-30.42121498 59.10150931 -28.4992355 58.73006688 -26.328125 58.09765625 C-26.658125 59.74765625 -26.988125 61.39765625 -27.328125 63.09765625 C-31.05213371 64.33899249 -34.459885 64.63877111 -38.328125 64.09765625 C-42.08024776 62.08262736 -43.96456595 60.64299483 -46.328125 57.09765625 C-46.911483 52.03616773 -47.06589809 46.53024125 -44.328125 42.09765625 C-41.98330296 39.38645577 -40.38035794 38.19917336 -36.77734375 37.8515625 C-34.28129175 37.84803202 -31.8176591 37.92363057 -29.328125 38.09765625 C-28.668125 35.78765625 -28.008125 33.47765625 -27.328125 31.09765625 C-26.338125 31.42765625 -25.348125 31.75765625 -24.328125 32.09765625 C-24.039375 31.29328125 -23.750625 30.48890625 -23.453125 29.66015625 C-22.328125 27.09765625 -22.328125 27.09765625 -20.328125 26.09765625 C-21.01504121 22.91821549 -21.79968847 19.98060378 -23.328125 17.09765625 C-25.75201554 15.6594812 -27.47410986 15.47460165 -30.328125 15.09765625 C-30.328125 14.43765625 -30.328125 13.77765625 -30.328125 13.09765625 C-28.678125 12.76765625 -27.028125 12.43765625 -25.328125 12.09765625 C-25.328125 11.43765625 -25.328125 10.77765625 -25.328125 10.09765625 C-21.12095956 6.97621092 -16.27440099 5.61710051 -11.328125 4.09765625 C-11.328125 5.41765625 -11.328125 6.73765625 -11.328125 8.09765625 C-9.7447997 6.84881355 -9.7447997 6.84881355 -8.328125 5.09765625 C-8.328125 3.77765625 -8.328125 2.45765625 -8.328125 1.09765625 C-5.47652109 0.28331482 -2.96186369 -0.02115617 0 0 Z " fill="#F5F5F3" transform="translate(191.328125,43.90234375)"/>
<path d="M0 0 C16 0 16 0 18 1 C17.67 1.99 17.34 2.98 17 4 C16.34 4 15.68 4 15 4 C15.99 5.485 15.99 5.485 17 7 C17.66 7 18.32 7 19 7 C19.10957031 7.59167969 19.21914063 8.18335938 19.33203125 8.79296875 C20.26552356 13.44525155 21.28011784 17.03350518 24 21 C26.00617975 24.78945063 27.15360017 28.50656077 28.0625 32.6875 C28.23910156 33.49574219 28.41570313 34.30398437 28.59765625 35.13671875 C28.79681641 36.05904297 28.79681641 36.05904297 29 37 C28.34 36.67 27.68 36.34 27 36 C26.67 36.66 26.34 37.32 26 38 C24.125 37.875 24.125 37.875 22 37 C20.75 33.9375 20.75 33.9375 20 31 C19.01 31.33 18.02 31.66 17 32 C17 67.31 17 102.62 17 139 C18.485 137.02 18.485 137.02 20 135 C19.67 137.31 19.34 139.62 19 142 C21.64 141.01 24.28 140.02 27 139 C27 139.66 27 140.32 27 141 C27.66 141.33 28.32 141.66 29 142 C25.38026598 143.31626692 22.90432869 144 19 144 C19 144.99 19 145.98 19 147 C14 149 14 149 0 148 C0 99.16 0 50.32 0 0 Z " fill="#CFDFE8" transform="translate(12,16)"/>
<path d="M0 0 C1.27423828 -0.00193359 1.27423828 -0.00193359 2.57421875 -0.00390625 C3.91419922 0.00189453 3.91419922 0.00189453 5.28125 0.0078125 C6.17457031 0.00394531 7.06789062 0.00007812 7.98828125 -0.00390625 C8.83777344 -0.00261719 9.68726563 -0.00132813 10.5625 0 C11.34689453 0.00112793 12.13128906 0.00225586 12.93945312 0.00341797 C14.78125 0.1328125 14.78125 0.1328125 15.78125 1.1328125 C15.87783904 3.04376189 15.90312192 4.95833116 15.90150452 6.87171936 C15.90287918 8.11838882 15.90425385 9.36505829 15.90567017 10.64950562 C15.90213056 12.04376244 15.89849574 13.43801903 15.89477539 14.83227539 C15.89449353 16.29053241 15.89465124 17.74878957 15.8952179 19.20704651 C15.8955059 23.17794735 15.88960877 27.14881825 15.88264394 31.11971211 C15.87641081 35.26506351 15.87580663 39.41041552 15.87461853 43.55577087 C15.87150509 51.41100577 15.86329154 59.26622682 15.85326904 67.12145561 C15.84210829 76.06205649 15.83659755 85.00265802 15.83157361 93.94326413 C15.82110893 112.33978811 15.80350925 130.7362992 15.78125 149.1328125 C13.17748726 149.40846977 10.57669032 149.65408515 7.96875 149.8828125 C7.23076172 149.96402344 6.49277344 150.04523438 5.73242188 150.12890625 C3.57421875 150.3046875 3.57421875 150.3046875 -0.21875 150.1328125 C-2.11328125 148.17578125 -2.11328125 148.17578125 -3.21875 146.1328125 C-3.8375 145.9884375 -4.45625 145.8440625 -5.09375 145.6953125 C-8.34988805 144.83339361 -9.98458594 142.5531569 -12.21875 140.1328125 C-10.23875 140.7928125 -8.25875 141.4528125 -6.21875 142.1328125 C-5.62142181 139.37016961 -5.21875 136.97248481 -5.21875 134.1328125 C-4.55875 134.1328125 -3.89875 134.1328125 -3.21875 134.1328125 C-2.72375 136.6078125 -2.72375 136.6078125 -2.21875 139.1328125 C-0.96741519 136.63014288 -1.09568882 134.94787474 -1.09849548 132.14682007 C-1.09712082 131.09230148 -1.09574615 130.0377829 -1.09432983 128.9513092 C-1.09792511 127.78965744 -1.10152039 126.62800568 -1.10522461 125.43115234 C-1.10507858 124.21166397 -1.10493256 122.9921756 -1.1047821 121.73573303 C-1.10536045 118.38676069 -1.11038454 115.03784957 -1.11735606 111.68888807 C-1.12359652 108.1908381 -1.12419395 104.69278735 -1.12538147 101.19473267 C-1.12849274 94.56846389 -1.13670338 87.94221156 -1.14673096 81.31595004 C-1.15789843 73.77312321 -1.16340415 66.2302956 -1.16842639 58.68746257 C-1.17888616 43.16923634 -1.19648166 27.65102654 -1.21875 12.1328125 C-1.87875 12.1328125 -2.53875 12.1328125 -3.21875 12.1328125 C-3.21875 12.7928125 -3.21875 13.4528125 -3.21875 14.1328125 C-3.87875 14.1328125 -4.53875 14.1328125 -5.21875 14.1328125 C-4.88875 12.1528125 -4.55875 10.1728125 -4.21875 8.1328125 C-6.52875 8.4628125 -8.83875 8.7928125 -11.21875 9.1328125 C-10.24055976 7.81958462 -9.2611689 6.50725098 -8.28125 5.1953125 C-7.73597656 4.46441406 -7.19070312 3.73351562 -6.62890625 2.98046875 C-4.36361778 0.0123761 -3.73343286 0.00536854 0 0 Z " fill="#B8C5CC" transform="translate(245.21875,14.8671875)"/>
<path d="M0 0 C0.33 0 0.66 0 1 0 C1 20.13 1 40.26 1 61 C3.64 61 6.28 61 9 61 C8.505 63.475 8.505 63.475 8 66 C9.44197868 64.55802132 10.11786244 62.82308429 11 61 C14.458176 60.9131671 17.91607344 60.85966718 21.375 60.8125 C22.35984375 60.78736328 23.3446875 60.76222656 24.359375 60.73632812 C25.77089844 60.72182617 25.77089844 60.72182617 27.2109375 60.70703125 C28.08024902 60.6913208 28.94956055 60.67561035 29.84521484 60.65942383 C30.55629395 60.77181396 31.26737305 60.8842041 32 61 C32.66 61.99 33.32 62.98 34 64 C34 63.01 34 62.02 34 61 C42.58 61 51.16 61 60 61 C59.34 63.31 58.68 65.62 58 68 C57.34 68 56.68 68 56 68 C56.66 66.35 57.32 64.7 58 63 C56.35 62.67 54.7 62.34 53 62 C53 64.97 53 67.94 53 71 C53.99 71.33 54.98 71.66 56 72 C53.56107586 74.86021444 53.10151721 74.98772537 49.05859375 75.4765625 C47.51875016 75.54022528 45.97824316 75.5891985 44.4375 75.625 C39.05410516 75.56034175 39.05410516 75.56034175 34 77 C34 76.34 34 75.68 34 75 C33.34 75 32.68 75 32 75 C32 75.721875 32 76.44375 32 77.1875 C30.6226013 81.06143385 28.3402892 81.91177468 24.8125 83.7890625 C22.67664734 84.94813188 22.67664734 84.94813188 22 88 C22 88.33 22 88.66 22 89 C20.75 90.625 20.75 90.625 19 92 C16.8125 91.6875 16.8125 91.6875 15 91 C14.67 91.66 14.34 92.32 14 93 C13.34 93 12.68 93 12 93 C11.67 93.66 11.34 94.32 11 95 C6.71702233 96.42765922 2.46254673 97.34694438 -2 98 C-2 96.35 -2 94.7 -2 93 C-2.2165625 94.1446875 -2.2165625 94.1446875 -2.4375 95.3125 C-3 98 -3 98 -4 101 C-5 100 -5 100 -5.12025452 98.05747986 C-5.11803391 97.20698563 -5.11581329 96.35649139 -5.11352539 95.48022461 C-5.11344986 94.51930405 -5.11337433 93.55838348 -5.11329651 92.56834412 C-5.10813522 91.523564 -5.10297394 90.47878387 -5.09765625 89.40234375 C-5.0962413 88.33834854 -5.09482635 87.27435333 -5.09336853 86.17811584 C-5.08775064 82.76454917 -5.07519511 79.351047 -5.0625 75.9375 C-5.05748731 73.62955824 -5.052924 71.32161545 -5.04882812 69.01367188 C-5.0377754 63.34242574 -5.02101987 57.67121747 -5 52 C-3.515 51.505 -3.515 51.505 -2 51 C-1.26676204 48.98491642 -1.26676204 48.98491642 -1 47 C-2.485 47.495 -2.485 47.495 -4 48 C-4 47.34 -4 46.68 -4 46 C-2.515 45.505 -2.515 45.505 -1 45 C-1.00523682 43.70787598 -1.01047363 42.41575195 -1.01586914 41.08447266 C-1.03393367 36.30241587 -1.04543736 31.52036211 -1.05493164 26.73828125 C-1.05996852 24.66633599 -1.06679825 22.5943943 -1.07543945 20.52246094 C-1.08753321 17.54881918 -1.09323467 14.57522431 -1.09765625 11.6015625 C-1.10281754 10.67131256 -1.10797882 9.74106262 -1.11329651 8.78262329 C-1.11337204 7.92188202 -1.11344757 7.06114075 -1.11352539 6.17431641 C-1.115746 5.41486725 -1.11796661 4.65541809 -1.12025452 3.87295532 C-1 2 -1 2 0 0 Z " fill="#F8F6F5" transform="translate(33,60)"/>
<path d="M0 0 C0 17.49 0 34.98 0 53 C-26.45777027 54.15033784 -26.45777027 54.15033784 -36.4375 53.5625 C-37.47841797 53.51029297 -38.51933594 53.45808594 -39.59179688 53.40429688 C-42.06187871 53.27908535 -44.53099326 53.14461841 -47 53 C-47 52.34 -47 51.68 -47 51 C-46.34 51 -45.68 51 -45 51 C-45 50.01 -45 49.02 -45 48 C-42.69 48 -40.38 48 -38 48 C-37.97421875 47.08476563 -37.9484375 46.16953125 -37.921875 45.2265625 C-37.86515625 44.03804687 -37.8084375 42.84953125 -37.75 41.625 C-37.68039063 39.84996094 -37.68039063 39.84996094 -37.609375 38.0390625 C-37 35 -37 35 -34.953125 33.5859375 C-33.98632812 33.29589844 -33.98632812 33.29589844 -33 33 C-31.73973202 35.52053595 -32.08125555 36.8542098 -32.4375 39.625 C-32.53933594 40.44226563 -32.64117187 41.25953125 -32.74609375 42.1015625 C-32.82988281 42.72804687 -32.91367187 43.35453125 -33 44 C-33.66 44 -34.32 44 -35 44 C-34.34 45.32 -33.68 46.64 -33 48 C-30.84622436 45.37801226 -29.59927826 43.35595828 -29 40 C-27.515 40.495 -27.515 40.495 -26 41 C-26 41.99 -26 42.98 -26 44 C-22.46588679 46.12046792 -19.05606165 46.53199289 -15 47 C-15 45.68 -15 44.36 -15 43 C-15.763125 42.401875 -16.52625 41.80375 -17.3125 41.1875 C-20.63797187 38.48072057 -21.44877822 35.94856454 -23 32 C-23.86625 30.948125 -23.86625 30.948125 -24.75 29.875 C-26 28 -26 28 -25.859375 25.6640625 C-24.48366624 21.39936533 -21.29287194 19.21258111 -18.03125 16.28125 C-15.80313624 13.77890685 -15.32414961 12.28780318 -15 9 C-16.65 9 -18.3 9 -20 9 C-19.67 7.68 -19.34 6.36 -19 5 C-17.35 5 -15.7 5 -14 5 C-14 4.01 -14 3.02 -14 2 C-11.44667906 0.72333953 -9.27980073 0.67096147 -6.4375 0.4375 C-4.95056641 0.31181641 -4.95056641 0.31181641 -3.43359375 0.18359375 C-1 0 -1 0 0 0 Z " fill="#E20102" transform="translate(95,61)"/>
<path d="M0 0 C16 0 16 0 18 1 C17.67 1.99 17.34 2.98 17 4 C16.34 4 15.68 4 15 4 C15 3.01 15 2.02 15 1 C10.38 1 5.76 1 1 1 C1 5.29 1 9.58 1 14 C4.96 14 8.92 14 13 14 C13 14.33 13 14.66 13 15 C9.04 15 5.08 15 1 15 C1 19.62 1 24.24 1 29 C5.62 29 10.24 29 15 29 C15 29.33 15 29.66 15 30 C10.38 30 5.76 30 1 30 C1 34.29 1 38.58 1 43 C5.62 43 10.24 43 15 43 C15 43.66 15 44.32 15 45 C10.38 45 5.76 45 1 45 C1 49.29 1 53.58 1 58 C5.62 58 10.24 58 15 58 C15 58.66 15 59.32 15 60 C10.38 60 5.76 60 1 60 C1 64.29 1 68.58 1 73 C5.62 73 10.24 73 15 73 C15 73.33 15 73.66 15 74 C10.38 74 5.76 74 1 74 C1 78.62 1 83.24 1 88 C5.62 88 10.24 88 15 88 C15 85.03 15 82.06 15 79 C15.33 79 15.66 79 16 79 C16.33 98.8 16.66 118.6 17 139 C18.485 137.02 18.485 137.02 20 135 C19.67 137.31 19.34 139.62 19 142 C21.64 141.01 24.28 140.02 27 139 C27 139.66 27 140.32 27 141 C27.66 141.33 28.32 141.66 29 142 C25.38026598 143.31626692 22.90432869 144 19 144 C19 144.99 19 145.98 19 147 C14 149 14 149 0 148 C0 99.16 0 50.32 0 0 Z " fill="#C1CDD5" transform="translate(12,16)"/>
<path d="M0 0 C0.9075 0.165 1.815 0.33 2.75 0.5 C9.29843959 1.43740444 16.61247661 1.92083042 23 0 C23 0.66 23 1.32 23 2 C22.34 2 21.68 2 21 2 C21.33 2.99 21.66 3.98 22 5 C21.34 5 20.68 5 20 5 C20 17.87 20 30.74 20 44 C20.66 44 21.32 44 22 44 C22.495 46.475 22.495 46.475 23 49 C19.04 48.34 15.08 47.68 11 47 C11 46.67 11 46.34 11 46 C13.475 45.505 13.475 45.505 16 45 C16 44.34 16 43.68 16 43 C14.35 43 12.7 43 11 43 C10.70867187 42.443125 10.41734375 41.88625 10.1171875 41.3125 C7.16961108 35.82518793 3.86852666 30.87886352 0 26 C-3.39108784 28.18500716 -4.82782906 29.21238929 -5.70703125 33.234375 C-5.74183594 34.39453125 -5.77664062 35.5546875 -5.8125 36.75 C-5.86019531 37.92046875 -5.90789062 39.0909375 -5.95703125 40.296875 C-5.97121094 41.18890625 -5.98539062 42.0809375 -6 43 C-7.32 43 -8.64 43 -10 43 C-10 31.45 -10 19.9 -10 8 C-8.35 8 -6.7 8 -5 8 C-5 8.66 -5 9.32 -5 10 C-4.01 10.33 -3.02 10.66 -2 11 C-1.01 10.01 -0.02 9.02 1 8 C-0.22880216 6.7058258 -0.22880216 6.7058258 -3 5 C-2.34 5 -1.68 5 -1 5 C-0.67 3.35 -0.34 1.7 0 0 Z " fill="#C4ABA9" transform="translate(124,65)"/>
<path d="M0 0 C2.58047436 1.29023718 2.67022964 2.27089391 3.625 4.9375 C4.01558594 6.00291016 4.01558594 6.00291016 4.4140625 7.08984375 C5 9 5 9 5 11 C5.66 11 6.32 11 7 11 C7.66 10.01 8.32 9.02 9 8 C11.49609375 7.671875 11.49609375 7.671875 14.4375 7.75 C15.88962891 7.77320312 15.88962891 7.77320312 17.37109375 7.796875 C20 8 20 8 23 9 C22.67 10.32 22.34 11.64 22 13 C18.7 13 15.4 13 12 13 C12 14.32 12 15.64 12 17 C12.92232422 17.38091797 12.92232422 17.38091797 13.86328125 17.76953125 C14.67152344 18.11371094 15.47976562 18.45789063 16.3125 18.8125 C17.11300781 19.14894531 17.91351563 19.48539063 18.73828125 19.83203125 C21.02111498 21.01090394 22.44709958 21.95803679 24 24 C23.93273404 27.76689361 23.82032733 30.09178045 21.25 32.9375 C18.64597372 34.16717908 16.84687774 34.23723981 14 34 C14.495 36.475 14.495 36.475 15 39 C14.505 38.0409375 14.505 38.0409375 14 37.0625 C10.97670168 33.9447236 8.26343276 34.27956936 4 34 C3.67 33.01 3.34 32.02 3 31 C2.34 30.67 1.68 30.34 1 30 C0.67 29.34 0.34 28.68 0 28 C-0.33 29.65 -0.66 31.3 -1 33 C-1.78375 32.79375 -2.5675 32.5875 -3.375 32.375 C-4.24125 32.25125 -5.1075 32.1275 -6 32 C-6.66 32.66 -7.32 33.32 -8 34 C-12.23670507 34.70339119 -15.86621203 34.69133413 -19.5625 32.4375 C-21.57975697 29.01693383 -21.6269883 26.90126052 -21 23 C-18.40212489 20.40212489 -15.8344178 18.09208925 -12.0546875 17.90234375 C-10.03645833 17.93489583 -8.01822917 17.96744792 -6 18 C-6.33 16.02 -6.66 14.04 -7 12 C-10.3 12.66 -13.6 13.32 -17 14 C-17.33 12.68 -17.66 11.36 -18 10 C-14.62241767 7.74827845 -11.92256212 8.06241847 -7.97265625 8.1953125 C-4.84700218 7.8858418 -3.15304134 6.15304134 -1 4 C-1 4.99 -1 5.98 -1 7 C-0.01 7 0.98 7 2 7 C1.34 4.69 0.68 2.38 0 0 Z " fill="#F0F0F0" transform="translate(212,74)"/>
<path d="M0 0 C1.32 0.33 2.64 0.66 4 1 C4 2.32 4 3.64 4 5 C2.98679688 5.16435547 2.98679688 5.16435547 1.953125 5.33203125 C0.61507812 5.56986328 0.61507812 5.56986328 -0.75 5.8125 C-2.07257813 6.03873047 -2.07257813 6.03873047 -3.421875 6.26953125 C-6.25738304 7.0729252 -7.88555229 7.95360348 -10 10 C-10.63650811 14.62149859 -10.63650811 14.62149859 -8.75390625 18.69921875 C-6.52711189 20.35071657 -5.24837745 20.37204818 -2.5 20.3125 C-1.33984375 20.30669922 -1.33984375 20.30669922 -0.15625 20.30078125 C2.29324946 20.11825461 2.29324946 20.11825461 5 18 C5 18.66 5 19.32 5 20 C6.32 20 7.64 20 9 20 C9 13.73 9 7.46 9 1 C9.33 1 9.66 1 10 1 C10.06058594 1.90363281 10.12117188 2.80726562 10.18359375 3.73828125 C10.30927734 5.50751953 10.30927734 5.50751953 10.4375 7.3125 C10.51871094 8.48425781 10.59992188 9.65601562 10.68359375 10.86328125 C10.8867371 14.02590958 10.8867371 14.02590958 12 17 C11.26826437 19.46494472 10.48151812 21.79517347 9.5625 24.1875 C9.31951172 24.84169922 9.07652344 25.49589844 8.82617188 26.16992188 C8.2256707 27.78303286 7.61390797 29.3919435 7 31 C6.360625 30.814375 5.72125 30.62875 5.0625 30.4375 C4.0415625 30.2209375 4.0415625 30.2209375 3 30 C1.58422523 31.18424326 1.58422523 31.18424326 1.9375 34.5625 C1.958125 35.696875 1.97875 36.83125 2 38 C2.66 36.68 3.32 35.36 4 34 C5.23367942 36.46735884 5 38.26809601 5 41 C5.33 41.66 5.66 42.32 6 43 C4.68 42.67 3.36 42.34 2 42 C1.67 43.98 1.34 45.96 1 48 C-1.60423592 48.02697137 -4.20819244 48.04682489 -6.8125 48.0625 C-7.55048828 48.07087891 -8.28847656 48.07925781 -9.04882812 48.08789062 C-12.29922068 48.10259828 -14.89404895 48.03531702 -18 47 C-17.67 46.01 -17.34 45.02 -17 44 C-16.67 44 -16.34 44 -16 44 C-15.67 30.47 -15.34 16.94 -15 3 C-10.05 3 -5.1 3 0 3 C0 2.01 0 1.02 0 0 Z " fill="#ABB8A3" transform="translate(202,87)"/>
<path d="M0 0 C3.3 0 6.6 0 10 0 C10 18.15 10 36.3 10 55 C15.94 55 21.88 55 28 55 C29.98 55.66 31.96 56.32 34 57 C34 57.33 34 57.66 34 58 C23.11 58 12.22 58 1 58 C-0.69088617 53.77278457 -1.2498794 52.1297136 -1.24291992 47.89013672 C-1.24599655 46.89915985 -1.24907318 45.90818298 -1.25224304 44.88717651 C-1.24505753 43.82870514 -1.23787201 42.77023376 -1.23046875 41.6796875 C-1.23001053 40.58407501 -1.22955231 39.48846252 -1.2290802 38.35964966 C-1.22606386 36.04818638 -1.21819609 33.73672503 -1.20581055 31.42529297 C-1.18753152 27.88111196 -1.18530112 24.33719203 -1.18554688 20.79296875 C-1.18063224 18.54687273 -1.17480417 16.30077849 -1.16796875 14.0546875 C-1.16685593 12.99216766 -1.1657431 11.92964783 -1.16459656 10.83493042 C-1.15821671 9.85025787 -1.15183685 8.86558533 -1.14526367 7.85107422 C-1.14145187 6.98457245 -1.13764008 6.11807068 -1.13371277 5.22531128 C-1 3 -1 3 0 0 Z " fill="#E50002" transform="translate(36,61)"/>
<path d="M0 0 C1.20366211 0.00966797 1.20366211 0.00966797 2.43164062 0.01953125 C3.26501953 0.03628906 4.09839844 0.05304687 4.95703125 0.0703125 C6.22450195 0.08384766 6.22450195 0.08384766 7.51757812 0.09765625 C9.60168368 0.12120547 11.68564342 0.15707603 13.76953125 0.1953125 C12.77953125 0.6903125 12.77953125 0.6903125 11.76953125 1.1953125 C12.09953125 2.5153125 12.42953125 3.8353125 12.76953125 5.1953125 C12.10953125 5.1953125 11.44953125 5.1953125 10.76953125 5.1953125 C10.76953125 14.1053125 10.76953125 23.0153125 10.76953125 32.1953125 C3.83953125 31.7003125 3.83953125 31.7003125 -3.23046875 31.1953125 C-3.23046875 35.8153125 -3.23046875 40.4353125 -3.23046875 45.1953125 C-1.97234375 45.0715625 -0.71421875 44.9478125 0.58203125 44.8203125 C1.64357422 44.71589844 1.64357422 44.71589844 2.7265625 44.609375 C5.06941267 44.26865859 5.06941267 44.26865859 7.76953125 42.1953125 C10.95703125 42.0703125 10.95703125 42.0703125 13.76953125 42.1953125 C12.28453125 42.6903125 12.28453125 42.6903125 10.76953125 43.1953125 C10.76953125 44.1853125 10.76953125 45.1753125 10.76953125 46.1953125 C5.81953125 46.1953125 0.86953125 46.1953125 -4.23046875 46.1953125 C-4.23046875 45.2053125 -4.23046875 44.2153125 -4.23046875 43.1953125 C-6.87046875 43.5253125 -9.51046875 43.8553125 -12.23046875 44.1953125 C-12.56046875 50.7953125 -12.89046875 57.3953125 -13.23046875 64.1953125 C-14.88046875 64.1953125 -16.53046875 64.1953125 -18.23046875 64.1953125 C-18.23046875 55.9453125 -18.23046875 47.6953125 -18.23046875 39.1953125 C-16.91046875 39.1953125 -15.59046875 39.1953125 -14.23046875 39.1953125 C-14.23046875 39.8553125 -14.23046875 40.5153125 -14.23046875 41.1953125 C-13.69421875 40.7003125 -13.15796875 40.2053125 -12.60546875 39.6953125 C-9.63045809 37.8163584 -7.68643892 38.08169156 -4.23046875 38.1953125 C-4.32389686 33.38946192 -4.42996534 28.58412156 -4.54785156 23.77880859 C-4.58617727 22.1434701 -4.62102382 20.50804626 -4.65234375 18.87255859 C-4.69791717 16.5241034 -4.75592242 14.17623755 -4.81640625 11.828125 C-4.82795746 11.09473907 -4.83950867 10.36135315 -4.85140991 9.60574341 C-4.84914972 5.44554145 -4.84914972 5.44554145 -7.23046875 2.1953125 C-4.12961304 0.12807536 -3.50115194 -0.04966173 0 0 Z " fill="#A2AE99" transform="translate(191.23046875,43.8046875)"/>
<path d="M0 0 C3.13269705 3.13269705 3.05494397 5.97328423 3.0625 10.25 C3.041875 11.4875 3.02125 12.725 3 14 C3.33 11.03 3.66 8.06 4 5 C4.66 5 5.32 5 6 5 C8.17204 7.96187272 9.83561997 10.50685991 11 14 C11.99 13.67 12.98 13.34 14 13 C14.33 13.33 14.66 13.66 15 14 C15.33 12.02 15.66 10.04 16 8 C16.33 8 16.66 8 17 8 C17 19.22 17 30.44 17 42 C16.67 42 16.34 42 16 42 C15.67 39.69 15.34 37.38 15 35 C13.515 35.495 13.515 35.495 12 36 C12.33 36.99 12.66 37.98 13 39 C10.52921266 41.60082878 7.80522856 43.77020294 5 46 C4.34 46.66 3.68 47.32 3 48 C1.515 48.495 1.515 48.495 0 49 C0 32.83 0 16.66 0 0 Z " fill="#F6F6F6" transform="translate(97,65)"/>
<path d="M0 0 C0.99 0.33 1.98 0.66 3 1 C5.48674479 1.01980343 7.95305738 1.00181443 10.4375 0.9375 C18.66384922 0.73646507 18.66384922 0.73646507 22 3 C22.66 3.66 23.32 4.32 24 5 C27.57539179 5.83679382 29.47955362 6.17348213 33 5 C33.99 7.475 33.99 7.475 35 10 C35 9.34 35 8.68 35 8 C38.7952131 9.49097658 40.61042731 11.75700849 43 15 C42.443125 15.103125 41.88625 15.20625 41.3125 15.3125 C38.52870742 16.14011401 36.40148127 17.37737752 34 19 C33.67 19.66 33.34 20.32 33 21 C32.01 21 31.02 21 30 21 C29.505 19.02 29.505 19.02 29 17 C8.21 17 -12.58 17 -34 17 C-34 16.67 -34 16.34 -34 16 C-31.36 16 -28.72 16 -26 16 C-26.33 15.01 -26.66 14.02 -27 13 C-26.34 13 -25.68 13 -25 13 C-25 13.99 -25 14.98 -25 16 C-17.41 16 -9.82 16 -2 16 C-1.67 14.35 -1.34 12.7 -1 11 C-0.34 10.34 0.32 9.68 1 9 C0.67 10.98 0.34 12.96 0 15 C0.66 15.33 1.32 15.66 2 16 C1.85936865 13.70800823 1.71234057 11.41640814 1.5625 9.125 C1.48128906 7.84882812 1.40007812 6.57265625 1.31640625 5.2578125 C1.20793973 2.11699848 1.20793973 2.11699848 0 0 Z " fill="#FAF6F7" transform="translate(68,43)"/>
<path d="M0 0 C0 9.9 0 19.8 0 30 C-1.32 29.67 -2.64 29.34 -4 29 C-3.97679687 29.81984375 -3.95359375 30.6396875 -3.9296875 31.484375 C-3.90261719 33.10085937 -3.90261719 33.10085937 -3.875 34.75 C-3.85179687 35.81734375 -3.82859375 36.8846875 -3.8046875 37.984375 C-3.99512313 40.92470106 -4.47329896 42.52361878 -6 45 C-6.99 45 -7.98 45 -9 45 C-9.495 43.515 -9.495 43.515 -10 42 C-13.05118615 40.9637481 -15.99478045 40.14360279 -19.1875 39.6875 C-22.02670378 38.61056063 -23.27198847 36.40687321 -25 34 C-23.4221875 34.433125 -23.4221875 34.433125 -21.8125 34.875 C-18.1579822 35.409561 -18.1579822 35.409561 -16.421875 33.73046875 C-14.87406096 31.88293507 -14.87406096 31.88293507 -13 29 C-13.37125 28.236875 -13.7425 27.47375 -14.125 26.6875 C-14.41375 25.800625 -14.7025 24.91375 -15 24 C-14.34 23.01 -13.68 22.02 -13 21 C-11.68 21 -10.36 21 -9 21 C-9.03480469 19.73542969 -9.06960937 18.47085938 -9.10546875 17.16796875 C-9.13360677 15.50782577 -9.16090691 13.84766844 -9.1875 12.1875 C-9.21263672 11.35412109 -9.23777344 10.52074219 -9.26367188 9.66210938 C-9.27333984 8.85966797 -9.28300781 8.05722656 -9.29296875 7.23046875 C-9.31653442 6.12288208 -9.31653442 6.12288208 -9.34057617 4.99291992 C-9 3 -9 3 -7.85668945 1.2355957 C-6 0 -6 0 0 0 Z " fill="#E8E9E7" transform="translate(187,87)"/>
<path d="M0 0 C1.65 0 3.3 0 5 0 C5 4.95 5 9.9 5 15 C6.32 13.68 7.64 12.36 9 11 C9.66 11 10.32 11 11 11 C11.39638672 10.12601563 11.39638672 10.12601563 11.80078125 9.234375 C13.82162545 5.46915389 16.54353645 2.50939254 20 0 C23.9375 -0.4375 23.9375 -0.4375 27 0 C23.19524578 4.56030824 19.25030379 8.85089392 15 13 C16.35713426 17.34282962 18.73099209 20.45421524 21.46875 24.00390625 C27 31.21428571 27 31.21428571 27 34 C24.6875 34.21875 24.6875 34.21875 22 34 C20.375 32.53125 20.375 32.53125 19 30.5 C18.50242187 29.778125 18.00484375 29.05625 17.4921875 28.3125 C15.28865934 24.89760819 13.09386447 21.48359753 11 18 C7.60891216 20.18500716 6.17217094 21.21238929 5.29296875 25.234375 C5.25816406 26.39453125 5.22335938 27.5546875 5.1875 28.75 C5.13980469 29.92046875 5.09210937 31.0909375 5.04296875 32.296875 C5.02878906 33.18890625 5.01460937 34.0809375 5 35 C3.35 35 1.7 35 0 35 C0 23.45 0 11.9 0 0 Z " fill="#FBD9D8" transform="translate(52,73)"/>
<path d="M0 0 C8.15568174 -0.10482881 16.30892772 -0.20499499 24.46469879 -0.25875092 C28.2624846 -0.2851664 32.05971346 -0.32046835 35.85717773 -0.37719727 C39.51414195 -0.43148603 43.1705658 -0.46141327 46.82790184 -0.47438622 C48.22384336 -0.48363205 49.61975496 -0.5016876 51.01546669 -0.52865028 C52.96875847 -0.56488701 54.92259292 -0.5670419 56.8762207 -0.56762695 C58.5450103 -0.58428154 58.5450103 -0.58428154 60.24751282 -0.60127258 C63 0 63 0 64.94523621 2.34797668 C66 5 66 5 65 8 C64.505 7.505 64.505 7.505 64 7 C64 22.18 64 37.36 64 53 C64.66 52.67 65.32 52.34 66 52 C65.01 54.97 64.02 57.94 63 61 C62.01 61 61.02 61 60 61 C59.67 61.99 59.34 62.98 59 64 C58.67 63.34 58.34 62.68 58 62 C49.75 61.67 41.5 61.34 33 61 C33.495 63.97 33.495 63.97 34 67 C31 63.25 31 63.25 31 61 C20.605 61.495 20.605 61.495 10 62 C9.01 64.475 9.01 64.475 8 67 C7.34 66.67 6.68 66.34 6 66 C6.66 64.35 7.32 62.7 8 61 C5.36 61 2.72 61 0 61 C0 40.87 0 20.74 0 0 Z M2 1 C1.02675254 3.91974237 0.86811072 5.81079493 0.85473633 8.85107422 C0.84835648 9.83574677 0.84197662 10.82041931 0.83540344 11.83493042 C0.83429062 12.89745026 0.8331778 13.95997009 0.83203125 15.0546875 C0.82870285 16.14838654 0.82537445 17.24208557 0.82194519 18.368927 C0.81687978 20.68393533 0.81453675 22.99895097 0.81469727 25.31396484 C0.81251298 28.85396379 0.79435901 32.39365005 0.77539062 35.93359375 C0.77245619 38.1822906 0.77047173 40.43098893 0.76953125 42.6796875 C0.76234573 43.73815887 0.75516022 44.79663025 0.74775696 45.88717651 C0.75083359 46.87815338 0.75391022 47.86913025 0.75708008 48.89013672 C0.75565506 49.75822968 0.75423004 50.62632263 0.75276184 51.52072144 C0.93483667 54.50753613 0.93483667 54.50753613 3 59 C22.14 59 41.28 59 61 59 C61 39.86 61 20.72 61 1 C41.53 1 22.06 1 2 1 Z " fill="#BE3B3F" transform="translate(34,60)"/>
<path d="M0 0 C2.734375 1.3515625 2.734375 1.3515625 5 4 C5.62163247 7.59973017 5.4699843 11.1109012 5.3125 14.75 C5.28994141 15.73355469 5.26738281 16.71710938 5.24414062 17.73046875 C5.18528805 20.1551947 5.10313431 22.57681983 5 25 C3.824375 24.690625 3.824375 24.690625 2.625 24.375 C1.325625 24.189375 1.325625 24.189375 0 24 C-0.66 24.66 -1.32 25.32 -2 26 C-6.23670507 26.70339119 -9.86621203 26.69133413 -13.5625 24.4375 C-15.57975697 21.01693383 -15.6269883 18.90126052 -15 15 C-12.40212489 12.40212489 -9.8344178 10.09208925 -6.0546875 9.90234375 C-4.03645833 9.93489583 -2.01822917 9.96744792 0 10 C-0.33 8.02 -0.66 6.04 -1 4 C-4.3 4.66 -7.6 5.32 -11 6 C-11.33 4.68 -11.66 3.36 -12 2 C-8.38341254 -0.41105831 -4.19684135 -0.92221095 0 0 Z " fill="#464747" transform="translate(206,82)"/>
<path d="M0 0 C1.32 0 2.64 0 4 0 C4.33 4.95 4.66 9.9 5 15 C6.01320313 13.9171875 7.02640625 12.834375 8.0703125 11.71875 C9.4210621 10.31171917 10.77266979 8.90551174 12.125 7.5 C13.12273437 6.42685547 13.12273437 6.42685547 14.140625 5.33203125 C19.21839684 0.10491318 19.21839684 0.10491318 23.4921875 -0.46875 C24.31976563 -0.3140625 25.14734375 -0.159375 26 0 C22 4.66666667 18 9.33333333 14 14 C15.78819164 16.62738292 17.58114227 19.25148307 19.375 21.875 C19.88289063 22.62136719 20.39078125 23.36773437 20.9140625 24.13671875 C21.40390625 24.85214844 21.89375 25.56757812 22.3984375 26.3046875 C22.84880371 26.96452637 23.29916992 27.62436523 23.76318359 28.30419922 C25.03042186 30.13350705 25.03042186 30.13350705 27 32 C27 32.99 27 33.98 27 35 C25.02 35 23.04 35 21 35 C20.70867187 34.443125 20.41734375 33.88625 20.1171875 33.3125 C17.16961108 27.82518793 13.86852666 22.87886352 10 18 C6.60891216 20.18500716 5.17217094 21.21238929 4.29296875 25.234375 C4.25816406 26.39453125 4.22335938 27.5546875 4.1875 28.75 C4.13980469 29.92046875 4.09210938 31.0909375 4.04296875 32.296875 C4.02878906 33.18890625 4.01460938 34.0809375 4 35 C2.68 35 1.36 35 0 35 C0 23.45 0 11.9 0 0 Z " fill="#302E2C" transform="translate(114,73)"/>
<path d="M0 0 C16 0 16 0 18 1 C17.67 1.99 17.34 2.98 17 4 C16.34 4 15.68 4 15 4 C15 3.01 15 2.02 15 1 C10.38 1 5.76 1 1 1 C1 5.29 1 9.58 1 14 C4.96 14 8.92 14 13 14 C13 14.33 13 14.66 13 15 C9.04 15 5.08 15 1 15 C1 19.62 1 24.24 1 29 C5.62 29 10.24 29 15 29 C15 29.33 15 29.66 15 30 C10.38 30 5.76 30 1 30 C1 34.29 1 38.58 1 43 C5.62 43 10.24 43 15 43 C15 43.66 15 44.32 15 45 C10.38 45 5.76 45 1 45 C1 49.29 1 53.58 1 58 C5.62 58 10.24 58 15 58 C15 58.66 15 59.32 15 60 C10.38 60 5.76 60 1 60 C1 64.29 1 68.58 1 73 C5.62 73 10.24 73 15 73 C15 73.33 15 73.66 15 74 C10.38 74 5.76 74 1 74 C1 78.62 1 83.24 1 88 C5.62 88 10.24 88 15 88 C15 88.33 15 88.66 15 89 C10.38 89 5.76 89 1 89 C1 93.62 1 98.24 1 103 C5.62 103 10.24 103 15 103 C15 103.33 15 103.66 15 104 C10.38 104 5.76 104 1 104 C1 108.29 1 112.58 1 117 C5.62 117 10.24 117 15 117 C15 117.66 15 118.32 15 119 C10.38 119 5.76 119 1 119 C1 123.29 1 127.58 1 132 C5.62 132 10.24 132 15 132 C15 132.33 15 132.66 15 133 C10.38 133 5.76 133 1 133 C1 137.62 1 142.24 1 147 C5.62 147 10.24 147 15 147 C15.495 146.01 15.495 146.01 16 145 C16.66 145.66 17.32 146.32 18 147 C14 149 14 149 0 148 C0 99.16 0 50.32 0 0 Z " fill="#9EACB4" transform="translate(12,16)"/>
<path d="M0 0 C0 0.66 0 1.32 0 2 C0.928125 2.0928125 0.928125 2.0928125 1.875 2.1875 C4 3 4 3 5.25 5.1875 C6 8 6 8 6 14 C0.72 14 -4.56 14 -10 14 C-10 14.99 -10 15.98 -10 17 C-9.34 17 -8.68 17 -8 17 C-8 18.32 -8 19.64 -8 21 C-6.58344207 21.0272415 -5.16672955 21.04650467 -3.75 21.0625 C-2.96109375 21.07410156 -2.1721875 21.08570312 -1.359375 21.09765625 C0.90691002 21.00385306 2.8288895 20.63241063 5 20 C4.67 21.65 4.34 23.3 4 25 C0.27599129 26.24133624 -3.13176 26.54111486 -7 26 C-10.75212276 23.98497111 -12.63644095 22.54533858 -15 19 C-15.583358 13.93851148 -15.73777309 8.432585 -13 4 C-8.85539379 -0.51030676 -5.78389599 -0.39212854 0 0 Z " fill="#282828" transform="translate(160,82)"/>
<path d="M0 0 C2.31 0 4.62 0 7 0 C6.51251534 0.8459095 6.51251534 0.8459095 6.0151825 1.70890808 C4.89335618 4.24067673 4.75220302 5.90255241 4.75708008 8.6574707 C4.75400345 9.57555008 4.75092682 10.49362946 4.74775696 11.43952942 C4.75494247 12.42499252 4.76212799 13.41045563 4.76953125 14.42578125 C4.76998947 15.44673386 4.77044769 16.46768646 4.7709198 17.51957703 C4.77393942 19.67899742 4.78181704 21.83841568 4.79418945 23.99780273 C4.81237367 27.28963009 4.8146995 30.58117466 4.81445312 33.87304688 C4.81937156 35.97396075 4.8252013 38.07487272 4.83203125 40.17578125 C4.83314407 41.15517166 4.8342569 42.13456207 4.83540344 43.14363098 C4.87018382 48.20018165 5.13587234 53.01564268 6 58 C4.35 58 2.7 58 1 58 C-0.58921694 54.48107415 -1.2492465 51.74416386 -1.24291992 47.89013672 C-1.24599655 46.89915985 -1.24907318 45.90818298 -1.25224304 44.88717651 C-1.24505753 43.82870514 -1.23787201 42.77023376 -1.23046875 41.6796875 C-1.23001053 40.58407501 -1.22955231 39.48846252 -1.2290802 38.35964966 C-1.22606386 36.04818638 -1.21819609 33.73672503 -1.20581055 31.42529297 C-1.18753152 27.88111196 -1.18530112 24.33719203 -1.18554688 20.79296875 C-1.18063224 18.54687273 -1.17480417 16.30077849 -1.16796875 14.0546875 C-1.16685593 12.99216766 -1.1657431 11.92964783 -1.16459656 10.83493042 C-1.15821671 9.85025787 -1.15183685 8.86558533 -1.14526367 7.85107422 C-1.14145187 6.98457245 -1.13764008 6.11807068 -1.13371277 5.22531128 C-1 3 -1 3 0 0 Z " fill="#DB0208" transform="translate(36,61)"/>
<path d="M0 0 C0.639375 0.495 1.27875 0.99 1.9375 1.5 C3.70974339 3.09802862 3.70974339 3.09802862 5 3 C9.66666667 3 14.33333333 3 19 3 C19 7.29 19 11.58 19 16 C16.69 16 14.38 16 12 16 C12.474375 15.608125 12.94875 15.21625 13.4375 14.8125 C15.35179633 12.59191626 15.61266988 10.86624291 16 8 C9.33355166 9.21675535 6.15877791 12.24321355 1.625 17.125 C0.38985163 18.42101811 -0.84702946 19.71538791 -2.0859375 21.0078125 C-2.6226709 21.58160645 -3.1594043 22.15540039 -3.71240234 22.74658203 C-5 24 -5 24 -6 24 C-6 18.72 -6 13.44 -6 8 C-5.67 8.66 -5.34 9.32 -5 10 C-4.01 10.33 -3.02 10.66 -2 11 C-1.01 10.01 -0.02 9.02 1 8 C-0.22880216 6.7058258 -0.22880216 6.7058258 -3 5 C-2.34 5 -1.68 5 -1 5 C-0.67 3.35 -0.34 1.7 0 0 Z " fill="#F8F7F7" transform="translate(124,65)"/>
<path d="M0 0 C7.59 0 15.18 0 23 0 C22.34 2.31 21.68 4.62 21 7 C20.34 7 19.68 7 19 7 C19.66 5.35 20.32 3.7 21 2 C18.525 1.505 18.525 1.505 16 1 C16 3.97 16 6.94 16 10 C16.99 10.33 17.98 10.66 19 11 C17.42702086 12.86562642 16.54489783 13.90238443 14.09887695 14.34057617 C13.40238037 14.32486572 12.70588379 14.30915527 11.98828125 14.29296875 C11.23095703 14.28330078 10.47363281 14.27363281 9.69335938 14.26367188 C8.51483398 14.2259668 8.51483398 14.2259668 7.3125 14.1875 C6.11657227 14.16719727 6.11657227 14.16719727 4.89648438 14.14648438 C2.93070033 14.11117089 0.96526418 14.05736447 -1 14 C-0.67 9.38 -0.34 4.76 0 0 Z " fill="#D9ECCD" transform="translate(70,121)"/>
<path d="M0 0 C1.93742341 -0.02703381 3.87495479 -0.04641125 5.8125 -0.0625 C6.89144531 -0.07410156 7.97039062 -0.08570312 9.08203125 -0.09765625 C12 0 12 0 15 1 C14.67 2.32 14.34 3.64 14 5 C10.7 5 7.4 5 4 5 C4 6.32 4 7.64 4 9 C4.61488281 9.25394531 5.22976562 9.50789063 5.86328125 9.76953125 C6.67152344 10.11371094 7.47976562 10.45789063 8.3125 10.8125 C9.11300781 11.14894531 9.91351563 11.48539063 10.73828125 11.83203125 C13.02111498 13.01090394 14.44709958 13.95803679 16 16 C15.93273404 19.76689361 15.82032733 22.09178045 13.25 24.9375 C10.64597372 26.16717908 8.84687774 26.23723981 6 26 C6.33 27.65 6.66 29.3 7 31 C6.62875 30.38125 6.2575 29.7625 5.875 29.125 C3.51377094 26.4489404 1.39868348 25.9063156 -2 25 C-2 23.68 -2 22.36 -2 21 C2.29 21 6.58 21 11 21 C10.47790318 16.94133772 10.47790318 16.94133772 7.78515625 15.62109375 C6.88667969 15.23050781 5.98820313 14.83992188 5.0625 14.4375 C0.20338983 12.30508475 0.20338983 12.30508475 -2 9 C-2.37916206 5.3031699 -1.72586006 3.22571464 0 0 Z " fill="#2E2E2E" transform="translate(220,82)"/>
<path d="M0 0 C0.99 0.33 1.98 0.66 3 1 C5.48674479 1.01980343 7.95305738 1.00181443 10.4375 0.9375 C18.80284462 0.73306831 18.80284462 0.73306831 22 3 C23.93928471 6.77083139 24.88032903 10.92119862 26 15 C25.34 15 24.68 15 24 15 C21.95830515 12.09451118 21 10.59857954 21 7 C20.01 7 19.02 7 18 7 C18 9.64 18 12.28 18 15 C17.34 13.68 16.68 12.36 16 11 C15.34 11 14.68 11 14 11 C14 9.02 14 7.04 14 5 C11.29686424 4.78082683 9.56041618 4.67148017 7.1875 6.0625 C5.39157863 8.99268751 5.81022426 11.6472953 6 15 C8.97 15 11.94 15 15 15 C15.33 14.34 15.66 13.68 16 13 C16 13.99 16 14.98 16 16 C19.96 16 23.92 16 28 16 C28 16.33 28 16.66 28 17 C7.54 17 -12.92 17 -34 17 C-34 16.67 -34 16.34 -34 16 C-31.36 16 -28.72 16 -26 16 C-26.33 15.01 -26.66 14.02 -27 13 C-26.34 13 -25.68 13 -25 13 C-25 13.99 -25 14.98 -25 16 C-17.41 16 -9.82 16 -2 16 C-1.67 14.35 -1.34 12.7 -1 11 C-0.34 10.34 0.32 9.68 1 9 C0.67 10.98 0.34 12.96 0 15 C0.66 15.33 1.32 15.66 2 16 C1.85936865 13.70800823 1.71234057 11.41640814 1.5625 9.125 C1.48128906 7.84882812 1.40007812 6.57265625 1.31640625 5.2578125 C1.20793973 2.11699848 1.20793973 2.11699848 0 0 Z " fill="#D6BFB0" transform="translate(68,43)"/>
<path d="M0 0 C2.625 0.375 2.625 0.375 5 1 C5 1.99 5 2.98 5 4 C5.66 4 6.32 4 7 4 C7 3.34 7 2.68 7 2 C7.66 2 8.32 2 9 2 C9 3.65 9 5.3 9 7 C10.32 7 11.64 7 13 7 C13.33 6.01 13.66 5.02 14 4 C18.27699513 0.50064035 21.72095072 0.73157377 27 1 C26.44504396 6.83731537 23.04971228 9.03655911 18.8359375 12.71875 C16.71192312 14.84825553 16.71192312 14.84825553 17.09375 17.5859375 C17.9797029 20.23428097 17.9797029 20.23428097 20.125 23.125 C20.74375 24.07375 21.3625 25.0225 22 26 C21.67 26.99 21.34 27.98 21 29 C18.36 25.37 15.72 21.74 13 18 C15.00993705 13.98012591 16.93846389 11.85483005 20.125 8.75 C21.03507812 7.85796875 21.94515625 6.9659375 22.8828125 6.046875 C23.58148438 5.37140625 24.28015625 4.6959375 25 4 C20.63694702 3.62123246 20.63694702 3.62123246 16.83984375 5.5390625 C16.21207031 6.22742188 15.58429688 6.91578125 14.9375 7.625 C14.26332031 8.34945312 13.58914062 9.07390625 12.89453125 9.8203125 C11.2703042 11.68901084 9.68438072 13.57722377 8.125 15.5 C7.073125 16.7375 7.073125 16.7375 6 18 C5.34 18 4.68 18 4 18 C4 13.05 4 8.1 4 3 C2.35 3 0.7 3 -1 3 C-1 13.89 -1 24.78 -1 36 C-1.33 36 -1.66 36 -2 36 C-2.04936883 31.19451403 -2.08570443 26.38917506 -2.10986328 21.58349609 C-2.11993254 19.94805328 -2.13358881 18.31262851 -2.15087891 16.67724609 C-2.17508705 14.3290563 -2.18647357 11.98110412 -2.1953125 9.6328125 C-2.21079636 8.53273361 -2.21079636 8.53273361 -2.22659302 7.41043091 C-2.22699368 5.60537303 -2.12212755 3.8009217 -2 2 C-1.34 1.34 -0.68 0.68 0 0 Z " fill="#D00606" transform="translate(53,70)"/>
<path d="M0 0 C0.66 0 1.32 0 2 0 C2.67119549 1.4562545 3.33681807 2.91507867 4 4.375 C4.556875 5.59316406 4.556875 5.59316406 5.125 6.8359375 C6 9 6 9 6 11 C4.68 11.33 3.36 11.66 2 12 C1.67 18.93 1.34 25.86 1 33 C-1.64 33.66 -4.28 34.32 -7 35 C-7 35.99 -7 36.98 -7 38 C-6.34 38.66 -5.68 39.32 -5 40 C-7.97 40 -10.94 40 -14 40 C-14 35.38 -14 30.76 -14 26 C-9.71 26 -5.42 26 -1 26 C-0.67 17.42 -0.34 8.84 0 0 Z " fill="#DCECCE" transform="translate(202,49)"/>
<path d="M0 0 C4.95 0 9.9 0 15 0 C15 4.62 15 9.24 15 14 C10.05 14 5.1 14 0 14 C0 9.38 0 4.76 0 0 Z " fill="#D6EAF5" transform="translate(246,75)"/>
<path d="M0 0 C0.33 1.32 0.66 2.64 1 4 C1.99 3.67 2.98 3.34 4 3 C4 4.98 4 6.96 4 9 C2.35 9.33 0.7 9.66 -1 10 C-0.67 11.65 -0.34 13.3 0 15 C-0.99 15.33 -1.98 15.66 -3 16 C-4.20882096 18.00016466 -4.20882096 18.00016466 -5 20 C-5.66 20 -6.32 20 -7 20 C-7.33 20.66 -7.66 21.32 -8 22 C-8.13535156 21.37351562 -8.27070313 20.74703125 -8.41015625 20.1015625 C-9.48228668 15.29097767 -9.48228668 15.29097767 -12.7578125 11.95703125 C-14.89503065 11.33633778 -14.89503065 11.33633778 -18 11 C-18 10.34 -18 9.68 -18 9 C-16.35 8.67 -14.7 8.34 -13 8 C-13 7.34 -13 6.68 -13 6 C-9.0018221 3.12630963 -4.60022425 1.63736795 0 0 Z " fill="#F0F0F0" transform="translate(179,48)"/>
<path d="M0 0 C0.99 0.33 1.98 0.66 3 1 C3 1.66 3 2.32 3 3 C3.66 3 4.32 3 5 3 C6.75 5.25 6.75 5.25 8 8 C7.1875 10.3125 7.1875 10.3125 6 12 C4.68 12 3.36 12 2 12 C2.33 12.33 2.66 12.66 3 13 C3.66 13 4.32 13 5 13 C4.690625 13.5775 4.38125 14.155 4.0625 14.75 C1.64143155 19.87696847 1.16810602 25.41184261 2 31 C4.19022918 33.82424288 5.83017207 35.41508603 9 37 C14.60703213 37.21377721 14.60703213 37.21377721 20 36 C21.20882096 33.99983534 21.20882096 33.99983534 22 32 C23.70884005 33.62339805 25.37446717 35.29319053 27 37 C27 37.66 27 38.32 27 39 C25.515 39.495 25.515 39.495 24 40 C23.34 39.67 22.68 39.34 22 39 C21.67 39.99 21.34 40.98 21 42 C21 41.34 21 40.68 21 40 C20.27554688 40.02320313 19.55109375 40.04640625 18.8046875 40.0703125 C13.34862546 40.17215899 9.16850099 39.890915 4 38 C2.02 38.495 2.02 38.495 0 39 C0 26.13 0 13.26 0 0 Z " fill="#F1EDEC" transform="translate(144,70)"/>
<path d="M0 0 C5.37118412 6.71398016 9.23772029 14.29351334 11.0625 22.6875 C11.23910156 23.49574219 11.41570313 24.30398437 11.59765625 25.13671875 C11.73042969 25.75160156 11.86320312 26.36648437 12 27 C11.34 26.67 10.68 26.34 10 26 C9.67 26.66 9.34 27.32 9 28 C7.125 27.875 7.125 27.875 5 27 C3.75 23.9375 3.75 23.9375 3 21 C2.01 21.33 1.02 21.66 0 22 C-1.55073147 20.44926853 -1.12969128 18.96937747 -1.1328125 16.81640625 C-1.13410156 15.97142578 -1.13539062 15.12644531 -1.13671875 14.25585938 C-1.13091797 12.92264648 -1.13091797 12.92264648 -1.125 11.5625 C-1.12886719 10.67755859 -1.13273437 9.79261719 -1.13671875 8.88085938 C-1.13478516 7.61145508 -1.13478516 7.61145508 -1.1328125 6.31640625 C-1.13168457 5.53724854 -1.13055664 4.75809082 -1.12939453 3.95532227 C-1 2 -1 2 0 0 Z " fill="#ECEEEE" transform="translate(29,26)"/>
<path d="M0 0 C4.29 0 8.58 0 13 0 C13 4.62 13 9.24 13 14 C8.71 14 4.42 14 0 14 C0 9.38 0 4.76 0 0 Z " fill="#D8EAF4" transform="translate(246,149)"/>
<path d="M0 0 C1.8671875 0.23046875 1.8671875 0.23046875 4 1 C5.1953125 2.92578125 5.1953125 2.92578125 6.125 5.3125 C6.43695313 6.09238281 6.74890625 6.87226562 7.0703125 7.67578125 C7.37710938 8.44277344 7.68390625 9.20976563 8 10 C8.58394531 11.04220703 8.58394531 11.04220703 9.1796875 12.10546875 C10 14 10 14 9 17 C9.39397335 19.63804589 9.39397335 19.63804589 10 22 C9.401875 21.773125 8.80375 21.54625 8.1875 21.3125 C7.465625 21.209375 6.74375 21.10625 6 21 C5.505 21.495 5.01 21.99 4.5 22.5 C4.005 22.995 3.51 23.49 3 24 C0.90625 23.59375 0.90625 23.59375 -1 23 C-1.02894547 19.54168414 -1.04678 16.08339928 -1.0625 12.625 C-1.07087891 11.64015625 -1.07925781 10.6553125 -1.08789062 9.640625 C-1.09111328 8.69960937 -1.09433594 7.75859375 -1.09765625 6.7890625 C-1.10289307 5.91975098 -1.10812988 5.05043945 -1.11352539 4.15478516 C-1 2 -1 2 0 0 Z " fill="#F4F4F2" transform="translate(204,59)"/>
<path d="M0 0 C16 0 16 0 18 1 C17.67 1.99 17.34 2.98 17 4 C16.34 4 15.68 4 15 4 C15 3.01 15 2.02 15 1 C10.38 1 5.76 1 1 1 C1 5.29 1 9.58 1 14 C4.96 14 8.92 14 13 14 C13 14.33 13 14.66 13 15 C9.04 15 5.08 15 1 15 C1 19.62 1 24.24 1 29 C5.62 29 10.24 29 15 29 C15 29.33 15 29.66 15 30 C10.38 30 5.76 30 1 30 C1 34.29 1 38.58 1 43 C5.62 43 10.24 43 15 43 C15 43.66 15 44.32 15 45 C10.38 45 5.76 45 1 45 C1 49.29 1 53.58 1 58 C5.62 58 10.24 58 15 58 C15 58.66 15 59.32 15 60 C10.38 60 5.76 60 1 60 C1 64.29 1 68.58 1 73 C0.67 73 0.34 73 0 73 C0 48.91 0 24.82 0 0 Z " fill="#A6B6BE" transform="translate(12,16)"/>
<path d="M0 0 C4.29 0 8.58 0 13 0 C13.33 4.29 13.66 8.58 14 13 C9.38 13 4.76 13 0 13 C0 8.71 0 4.42 0 0 Z " fill="#D9EBF5" transform="translate(13,150)"/>
<path d="M0 0 C4.29 0 8.58 0 13 0 C14.125 10.75 14.125 10.75 13 13 C8.38 13 3.76 13 -1 13 C-0.67 8.71 -0.34 4.42 0 0 Z " fill="#DDEED0" transform="translate(188,120)"/>
<path d="M0 0 C0 4.29 0 8.58 0 13 C-6.51813472 13.88082902 -6.51813472 13.88082902 -10 13 C-12.70699778 9.98635013 -14.37748923 6.69352046 -16 3 C-12.30998392 -2.07543728 -5.5881293 -0.16598404 0 0 Z " fill="#F3D1CA" transform="translate(143,83)"/>
<path d="M0 0 C4.29 0 8.58 0 13 0 C14.49640828 4.48922485 13.54749697 8.31585924 13 13 C8.71 13 4.42 13 0 13 C0 8.71 0 4.42 0 0 Z " fill="#DCEECE" transform="translate(188,46)"/>
<path d="M0 0 C4.62 0 9.24 0 14 0 C13.67 4.29 13.34 8.58 13 13 C8.71 13 4.42 13 0 13 C0 8.71 0 4.42 0 0 Z " fill="#D9EDF5" transform="translate(13,17)"/>
<path d="M0 0 C0 4.62 0 9.24 0 14 C-4.29 14 -8.58 14 -13 14 C-13 9.71 -13 5.42 -13 1 C-1.125 0 -1.125 0 0 0 Z " fill="#D9EBF5" transform="translate(259,16)"/>
<path d="M0 0 C4.29 0 8.58 0 13 0 C13 4.29 13 8.58 13 13 C8.71 13 4.42 13 0 13 C0 8.71 0 4.42 0 0 Z " fill="#D9EDF7" transform="translate(13,135)"/>
<path d="M0 0 C4.29 0 8.58 0 13 0 C13 4.29 13 8.58 13 13 C8.71 13 4.42 13 0 13 C0 8.71 0 4.42 0 0 Z " fill="#D7EBF6" transform="translate(246,135)"/>
<path d="M0 0 C4.29 0 8.58 0 13 0 C13 4.29 13 8.58 13 13 C8.71 13 4.42 13 0 13 C0 8.71 0 4.42 0 0 Z " fill="#DAEDF8" transform="translate(13,120)"/>
<path d="M0 0 C4.29 0 8.58 0 13 0 C13 4.29 13 8.58 13 13 C8.71 13 4.42 13 0 13 C0 8.71 0 4.42 0 0 Z " fill="#DAEDF7" transform="translate(246,120)"/>
<path d="M0 0 C4.29 0 8.58 0 13 0 C13 4.29 13 8.58 13 13 C8.71 13 4.42 13 0 13 C0 8.71 0 4.42 0 0 Z " fill="#D9EDF8" transform="translate(13,105)"/>
<path d="M0 0 C4.29 0 8.58 0 13 0 C13 4.29 13 8.58 13 13 C8.71 13 4.42 13 0 13 C0 8.71 0 4.42 0 0 Z " fill="#DAEDF7" transform="translate(246,105)"/>
<path d="M0 0 C4.29 0 8.58 0 13 0 C13 4.29 13 8.58 13 13 C8.71 13 4.42 13 0 13 C0 8.71 0 4.42 0 0 Z " fill="#D8ECF6" transform="translate(246,90)"/>
<path d="M0 0 C4.29 0 8.58 0 13 0 C13 4.29 13 8.58 13 13 C8.71 13 4.42 13 0 13 C0 8.71 0 4.42 0 0 Z " fill="#D9EDF8" transform="translate(13,76)"/>
<path d="M0 0 C4.29 0 8.58 0 13 0 C13 4.29 13 8.58 13 13 C8.71 13 4.42 13 0 13 C0 8.71 0 4.42 0 0 Z " fill="#DAECF7" transform="translate(246,61)"/>
<path d="M0 0 C4.29 0 8.58 0 13 0 C13 4.29 13 8.58 13 13 C8.71 13 4.42 13 0 13 C0 8.71 0 4.42 0 0 Z " fill="#DDEFD0" transform="translate(188,61)"/>
<path d="M0 0 C4.29 0 8.58 0 13 0 C13 4.29 13 8.58 13 13 C8.71 13 4.42 13 0 13 C0 8.71 0 4.42 0 0 Z " fill="#D9EDF7" transform="translate(13,61)"/>
<path d="M0 0 C4.29 0 8.58 0 13 0 C13 4.29 13 8.58 13 13 C8.71 13 4.42 13 0 13 C0 8.71 0 4.42 0 0 Z " fill="#D9EDF7" transform="translate(246,46)"/>
<path d="M0 0 C4.29 0 8.58 0 13 0 C13 4.29 13 8.58 13 13 C8.71 13 4.42 13 0 13 C0 8.71 0 4.42 0 0 Z " fill="#D9EDF7" transform="translate(13,46)"/>
<path d="M0 0 C4.29 0 8.58 0 13 0 C13 4.29 13 8.58 13 13 C8.71 13 4.42 13 0 13 C0 8.71 0 4.42 0 0 Z " fill="#D8ECF6" transform="translate(246,31)"/>
<path d="M0 0 C4.29 0 8.58 0 13 0 C13 4.29 13 8.58 13 13 C8.71 13 4.42 13 0 13 C0 8.71 0 4.42 0 0 Z " fill="#D8ECF7" transform="translate(13,32)"/>
<path d="M0 0 C1.32 0 2.64 0 4 0 C4 0.66 4 1.32 4 2 C4.99 1.34 5.98 0.68 7 0 C9.33199388 -0.07905064 11.66832622 -0.08798769 14 0 C14 0.99 14 1.98 14 3 C11.36 3.66 8.72 4.32 6 5 C5.67 11.6 5.34 18.2 5 25 C3.35 25 1.7 25 0 25 C0 16.75 0 8.5 0 0 Z " fill="#333332" transform="translate(173,83)"/>
<path d="M0 0 C0.66 0.33 1.32 0.66 2 1 C2 1.66 2 2.32 2 3 C3.65 3 5.3 3 7 3 C6.34 4.32 5.68 5.64 5 7 C7.31 6.34 9.62 5.68 12 5 C9.84545751 7.35716404 7.80280126 8.78966144 4.9375 10.1875 C4.24527344 10.53167969 3.55304688 10.87585938 2.83984375 11.23046875 C1 12 1 12 -1 12 C-1 12.66 -1 13.32 -1 14 C-0.34 14.33 0.32 14.66 1 15 C-1.64 14.67 -4.28 14.34 -7 14 C-7.33 15.32 -7.66 16.64 -8 18 C-8.33 17.01 -8.66 16.02 -9 15 C-9.66 14.67 -10.32 14.34 -11 14 C-11 11.03 -11 8.06 -11 5 C-8.525 5.495 -8.525 5.495 -6 6 C-6.66 7.65 -7.32 9.3 -8 11 C-7.34 11 -6.68 11 -6 11 C-5.690625 10.21625 -5.38125 9.4325 -5.0625 8.625 C-4 6 -4 6 -3 4 C-2.01 4 -1.02 4 0 4 C0 2.68 0 1.36 0 0 Z " fill="#F4F5F4" transform="translate(97,117)"/>
<path d="M0 0 C0.33 0 0.66 0 1 0 C1.06058594 0.90363281 1.12117187 1.80726562 1.18359375 2.73828125 C1.26738281 3.91777344 1.35117188 5.09726563 1.4375 6.3125 C1.51871094 7.48425781 1.59992188 8.65601562 1.68359375 9.86328125 C1.8867371 13.02590958 1.8867371 13.02590958 3 16 C2.26826437 18.46494472 1.48151812 20.79517347 0.5625 23.1875 C0.31951172 23.84169922 0.07652344 24.49589844 -0.17382812 25.16992188 C-0.7743293 26.78303286 -1.38609203 28.3919435 -2 30 C-2.639375 29.814375 -3.27875 29.62875 -3.9375 29.4375 C-4.9584375 29.2209375 -4.9584375 29.2209375 -6 29 C-7.41577477 30.18424326 -7.41577477 30.18424326 -7.0625 33.5625 C-7.041875 34.696875 -7.02125 35.83125 -7 37 C-6.34 35.68 -5.68 34.36 -5 33 C-3.76632058 35.46735884 -4 37.26809601 -4 40 C-3.67 40.66 -3.34 41.32 -3 42 C-4.98 41.67 -6.96 41.34 -9 41 C-9.08120751 38.10359882 -9.14059421 35.20949088 -9.1875 32.3125 C-9.21263672 31.49587891 -9.23777344 30.67925781 -9.26367188 29.83789062 C-9.32170486 25.05984178 -9.14903871 21.86576907 -6 18 C-5.34 17.67 -4.68 17.34 -4 17 C-4 17.66 -4 18.32 -4 19 C-2.68 19 -1.36 19 0 19 C0 12.73 0 6.46 0 0 Z " fill="#E3E5E1" transform="translate(211,88)"/>
<path d="M0 0 C4.95 0 9.9 0 15 0 C15 0.33 15 0.66 15 1 C10.38 1 5.76 1 1 1 C1 5.29 1 9.58 1 14 C5.95 14 10.9 14 16 14 C16 19.28 16 24.56 16 30 C13.05613377 31.47193312 10.62609964 30.84936173 7.375 30.5625 C5.27125 30.376875 3.1675 30.19125 1 30 C1 34.62 1 39.24 1 44 C5.95 44 10.9 44 16 44 C16 44.33 16 44.66 16 45 C10.72 45 5.44 45 0 45 C0 30.15 0 15.3 0 0 Z M1 16 C1 20.29 1 24.58 1 29 C5.29 29 9.58 29 14 29 C14 24.71 14 20.42 14 16 C9.71 16 5.42 16 1 16 Z " fill="#A6B5BC" transform="translate(245,45)"/>
<path d="M0 0 C5.23490497 0 5.35915977 0.06383853 9 3 C10.32 3.33 11.64 3.66 13 4 C13 6.97 13 9.94 13 13 C8.71 13 4.42 13 0 13 C0 8.71 0 4.42 0 0 Z " fill="#DCEED0" transform="translate(188,105)"/>
<path d="M0 0 C3.83577661 3.40825971 6.13162199 7.94129369 8.76953125 12.28515625 C11.33588202 15.40882313 13.11619697 16.10799959 17 17 C15.02 13.535 15.02 13.535 13 10 C13.99 10.33 14.98 10.66 16 11 C16 11.66 16 12.32 16 13 C16.99 13.33 17.98 13.66 19 14 C18.67 15.32 18.34 16.64 18 18 C11.66169154 18.36567164 11.66169154 18.36567164 8.625 16.6875 C7 15 7 15 6 12 C5.34 11.67 4.68 11.34 4 11 C3.9175 11.7425 3.835 12.485 3.75 13.25 C2.8603054 16.51221354 1.51496251 17.80954878 -1 20 C-1.33 18.35 -1.66 16.7 -2 15 C-1.34 15 -0.68 15 0 15 C0 11.7 0 8.4 0 5 C-0.99 5.33 -1.98 5.66 -3 6 C-3.33 10.29 -3.66 14.58 -4 19 C-5.32 19.33 -6.64 19.66 -8 20 C-8.66 19.34 -9.32 18.68 -10 18 C-8.35 18 -6.7 18 -5 18 C-5.05800781 17.11957031 -5.11601563 16.23914063 -5.17578125 15.33203125 C-5.53990054 5.95856027 -5.53990054 5.95856027 -3.88671875 3.0234375 C-2.5 1.6875 -2.5 1.6875 0 0 Z " fill="#D30B0F" transform="translate(62,90)"/>
<path d="M0 0 C3.01884775 3.01884775 2.9753819 5.24462154 3.11352539 9.48339844 C3.11336809 10.85873412 3.10777949 12.23407656 3.09765625 13.609375 C3.0962413 14.33618469 3.09482635 15.06299438 3.09336853 15.81182861 C3.08778792 18.12459494 3.07523904 20.43726312 3.0625 22.75 C3.05748249 24.32161318 3.05292002 25.89322789 3.04882812 27.46484375 C3.03782485 31.30993343 3.02057361 35.1549501 3 39 C4.32 39 5.64 39 7 39 C7.33 38.34 7.66 37.68 8 37 C8.66 37 9.32 37 10 37 C9.56643364 41.91375208 7.39377542 44.52729957 4 48 C2.02 48.495 2.02 48.495 0 49 C0 32.83 0 16.66 0 0 Z " fill="#F9E3E1" transform="translate(97,65)"/>
<path d="M0 0 C1.65 0 3.3 0 5 0 C5.10331031 7.42686315 4.99862699 14.63512596 4 22 C3.01 22 2.02 22 1 22 C0.67 20.68 0.34 19.36 0 18 C-0.99 18 -1.98 18 -3 18 C-2.67 12.72 -2.34 7.44 -2 2 C-1.34 2 -0.68 2 0 2 C0 1.34 0 0.68 0 0 Z " fill="#F9F8F6" transform="translate(182,88)"/>
<path d="M0 0 C1.93166016 0.01740234 1.93166016 0.01740234 3.90234375 0.03515625 C5.19269531 0.04417969 6.48304688 0.05320312 7.8125 0.0625 C8.81152344 0.07410156 9.81054688 0.08570312 10.83984375 0.09765625 C10.83984375 4.38765625 10.83984375 8.67765625 10.83984375 13.09765625 C8.52984375 13.09765625 6.21984375 13.09765625 3.83984375 13.09765625 C4.31421875 12.70578125 4.78859375 12.31390625 5.27734375 11.91015625 C7.19164008 9.68957251 7.45251363 7.96389916 7.83984375 5.09765625 C3.53143662 6.17475803 0.20407652 7.13713141 -3.16015625 10.09765625 C-4.16015625 9.09765625 -4.16015625 9.09765625 -4.29296875 7.28515625 C-4.29039063 6.56328125 -4.2878125 5.84140625 -4.28515625 5.09765625 C-4.28773437 4.37578125 -4.2903125 3.65390625 -4.29296875 2.91015625 C-4.05785518 -0.29845253 -3.28213777 0.10142577 0 0 Z " fill="#F4D9D6" transform="translate(132.16015625,67.90234375)"/>
<path d="M0 0 C2.9375 1.0625 2.9375 1.0625 6 3 C7.1875 6.375 7.1875 6.375 7 10 C4.875 12.9375 4.875 12.9375 2 15 C-0.8125 15.3125 -0.8125 15.3125 -3 15 C-2.67 16.65 -2.34 18.3 -2 20 C-2.37125 19.38125 -2.7425 18.7625 -3.125 18.125 C-5.48622906 15.4489404 -7.60131652 14.9063156 -11 14 C-11 12.68 -11 11.36 -11 10 C-6.71 10 -2.42 10 2 10 C1.37158027 6.0285831 1.37158027 6.0285831 -1 4 C-0.625 1.875 -0.625 1.875 0 0 Z " fill="#303030" transform="translate(229,93)"/>
<path d="M0 0 C7.59 0 15.18 0 23 0 C22.34 2.31 21.68 4.62 21 7 C20.34 7 19.68 7 19 7 C19.66 5.35 20.32 3.7 21 2 C18.525 1.505 18.525 1.505 16 1 C16 3.97 16 6.94 16 10 C16.99 10.33 17.98 10.66 19 11 C18.01 11.99 17.02 12.98 16 14 C14.68 13.34 13.36 12.68 12 12 C12.66 11.67 13.32 11.34 14 11 C14 10.34 14 9.68 14 9 C13.01 8.67 12.02 8.34 11 8 C11.66 7.67 12.32 7.34 13 7 C13.33 5.35 13.66 3.7 14 2 C10.04 2 6.08 2 2 2 C2.020625 3.27875 2.04125 4.5575 2.0625 5.875 C2.125 9.75 2.125 9.75 1 12 C4.3 12 7.6 12 11 12 C11 12.33 11 12.66 11 13 C5.06 13.495 5.06 13.495 -1 14 C-0.67 9.38 -0.34 4.76 0 0 Z " fill="#C5BDAD" transform="translate(70,121)"/>
<path d="M0 0 C0 0.66 0 1.32 0 2 C-0.63808594 2.13277344 -1.27617187 2.26554687 -1.93359375 2.40234375 C-3.17302734 2.66724609 -3.17302734 2.66724609 -4.4375 2.9375 C-5.26121094 3.11152344 -6.08492187 3.28554687 -6.93359375 3.46484375 C-8.97661204 3.80752994 -8.97661204 3.80752994 -10 5 C-10.04063832 6.66617115 -10.042721 8.33388095 -10 10 C-7.69 10.33 -5.38 10.66 -3 11 C-3 12.32 -3 13.64 -3 15 C-10.99180328 15.6147541 -10.99180328 15.6147541 -14.5625 13.4375 C-16.57975697 10.01693383 -16.6269883 7.90126052 -16 4 C-11.96720601 -1.4234126 -6.12541843 -0.386191 0 0 Z " fill="#2C3228" transform="translate(207,93)"/>
<path d="M0 0 C1.125 4.75 1.125 4.75 0 7 C0.66 7 1.32 7 2 7 C2 4.69 2 2.38 2 0 C2.33 0 2.66 0 3 0 C3.33 3.96 3.66 7.92 4 12 C3.01 11.67 2.02 11.34 1 11 C-0.56118428 10.93259135 -2.1250252 10.91485544 -3.6875 10.9375 C-4.49574219 10.94652344 -5.30398437 10.95554687 -6.13671875 10.96484375 C-6.75160156 10.97644531 -7.36648437 10.98804688 -8 11 C-8.75 7.75 -8.75 7.75 -9 4 C-6.46998447 0.20497671 -4.46653861 -0.49628207 0 0 Z " fill="#D8E9C6" transform="translate(82,47)"/>
<path d="M0 0 C4.95 0 9.9 0 15 0 C15 0.33 15 0.66 15 1 C10.38 1 5.76 1 1 1 C1 5.62 1 10.24 1 15 C5.62 14.67 10.24 14.34 15 14 C15 14.66 15 15.32 15 16 C12.56292912 16.2757817 10.12904951 16.52131492 7.6875 16.75 C6.99720703 16.83121094 6.30691406 16.91242188 5.59570312 16.99609375 C3.57421875 17.171875 3.57421875 17.171875 0 17 C-1.86328125 15.04296875 -1.86328125 15.04296875 -3 13 C-3.928125 12.7834375 -3.928125 12.7834375 -4.875 12.5625 C-8.13113805 11.70058111 -9.76583594 9.4203444 -12 7 C-10.02 7.66 -8.04 8.32 -6 9 C-5.40267181 6.23735711 -5 3.83967231 -5 1 C-4.34 1 -3.68 1 -3 1 C-2.67 2.65 -2.34 4.3 -2 6 C-1.34 4.02 -0.68 2.04 0 0 Z " fill="#A0AAB0" transform="translate(245,148)"/>
<path d="M0 0 C2.734375 1.3515625 2.734375 1.3515625 5 4 C5.62163247 7.59973017 5.4699843 11.1109012 5.3125 14.75 C5.28994141 15.73355469 5.26738281 16.71710938 5.24414062 17.73046875 C5.18528805 20.1551947 5.10313431 22.57681983 5 25 C4.01 25 3.02 25 2 25 C2.0721875 24.34773438 2.144375 23.69546875 2.21875 23.0234375 C3.24901355 13.95756335 3.24901355 13.95756335 2 5 C0.58344207 4.9727585 -0.83327045 4.95349533 -2.25 4.9375 C-3.03890625 4.92589844 -3.8278125 4.91429688 -4.640625 4.90234375 C-6.90691002 4.99614694 -8.8288895 5.36758937 -11 6 C-11.33 4.68 -11.66 3.36 -12 2 C-8.38341254 -0.41105831 -4.19684135 -0.92221095 0 0 Z " fill="#3A3C3A" transform="translate(206,82)"/>
<path d="M0 0 C1.32 0.33 2.64 0.66 4 1 C4 2.32 4 3.64 4 5 C2.98679688 5.16435547 2.98679688 5.16435547 1.953125 5.33203125 C0.61507812 5.56986328 0.61507812 5.56986328 -0.75 5.8125 C-2.07257813 6.03873047 -2.07257813 6.03873047 -3.421875 6.26953125 C-6.25023238 7.07089917 -7.86946954 7.98568029 -10 10 C-10.80946422 13.10197397 -10.80946422 13.10197397 -11 16 C-11.99 16 -12.98 16 -14 16 C-14 11.71 -14 7.42 -14 3 C-9.38 3 -4.76 3 0 3 C0 2.01 0 1.02 0 0 Z " fill="#DBE9CE" transform="translate(202,87)"/>
<path d="M0 0 C1.11375 0.2475 1.11375 0.2475 2.25 0.5 C8.68502825 1.35800377 15.71328458 1.89503862 22 0 C22 0.66 22 1.32 22 2 C21.34 2 20.68 2 20 2 C20.33 2.99 20.66 3.98 21 5 C20.34 5 19.68 5 19 5 C19 9.29 19 13.58 19 18 C14.71 18 10.42 18 6 18 C11.625 11.25 11.625 11.25 15 9 C14.625 11.4375 14.625 11.4375 14 14 C13.01 14.495 13.01 14.495 12 15 C14.97 15.495 14.97 15.495 18 16 C18 11.71 18 7.42 18 3 C15.70800823 3.14063135 13.41640814 3.28765943 11.125 3.4375 C9.84882813 3.51871094 8.57265625 3.59992188 7.2578125 3.68359375 C4.11699848 3.79206027 4.11699848 3.79206027 2 5 C1.34 3.35 0.68 1.7 0 0 Z " fill="#B0A2A0" transform="translate(125,65)"/>
<path d="M0 0 C-10.75150784 13.31139066 -10.75150784 13.31139066 -17 14 C-17.66 13.34 -18.32 12.68 -19 12 C-18.01 11.67 -17.02 11.34 -16 11 C-15.29108245 9.68864264 -14.62946893 8.35129238 -14 7 C-9.92521216 1.7103018 -7.02741316 -1.00391617 0 0 Z " fill="#FCDDDC" transform="translate(79,73)"/>
<path d="M0 0 C0.99 0.495 0.99 0.495 2 1 C2 4.96 2 8.92 2 13 C2.66 13 3.32 13 4 13 C4.98844951 16.94647618 4.96191905 20.27392964 4.5625 24.3125 C4.46066406 25.38113281 4.35882813 26.44976562 4.25390625 27.55078125 C4.17011719 28.35902344 4.08632813 29.16726562 4 30 C2.68 30 1.36 30 0 30 C0 20.1 0 10.2 0 0 Z " fill="#FDECEA" transform="translate(53,77)"/>
<path d="M0 0 C2.58047436 1.29023718 2.67022964 2.27089391 3.625 4.9375 C3.88539063 5.64777344 4.14578125 6.35804687 4.4140625 7.08984375 C5 9 5 9 5 11 C5.391875 12.0725 5.78375 13.145 6.1875 14.25 C7.15461047 18.7135868 6.3935675 20.22552817 4 24 C2.90341064 20.71023192 3.20046862 19.28696233 4 16 C3.01 15.67 2.02 15.34 1 15 C1 14.34 1 13.68 1 13 C0.38125 12.7525 -0.2375 12.505 -0.875 12.25 C-3.35068687 10.79371361 -3.95125002 9.62187494 -5 7 C-3.68 6.01 -2.36 5.02 -1 4 C-1 4.99 -1 5.98 -1 7 C-0.01 7 0.98 7 2 7 C1.34 4.69 0.68 2.38 0 0 Z " fill="#DEDEDE" transform="translate(212,74)"/>
<path d="M0 0 C2.59875 -0.020625 5.1975 -0.04125 7.875 -0.0625 C8.69210449 -0.071604 9.50920898 -0.08070801 10.35107422 -0.09008789 C15.77777778 -0.11111111 15.77777778 -0.11111111 18 1 C17.67 1.99 17.34 2.98 17 4 C16.34 4 15.68 4 15 4 C15 3.01 15 2.02 15 1 C10.38 1 5.76 1 1 1 C1 5.29 1 9.58 1 14 C4.96 14 8.92 14 13 14 C13 14.33 13 14.66 13 15 C9.04 15 5.08 15 1 15 C1 19.62 1 24.24 1 29 C5.62 29 10.24 29 15 29 C15 29.33 15 29.66 15 30 C10.05 30 5.1 30 0 30 C0 20.1 0 10.2 0 0 Z " fill="#9EADB4" transform="translate(12,16)"/>
<path d="M0 0 C0.33 0 0.66 0 1 0 C1 11.22 1 22.44 1 34 C0.67 34 0.34 34 0 34 C-0.33 31.36 -0.66 28.72 -1 26 C-2.32 26 -3.64 26 -5 26 C-3.125 21.25 -3.125 21.25 -2 19 C-1.34 19 -0.68 19 0 19 C0 17.35 0 15.7 0 14 C-0.66 14 -1.32 14 -2 14 C-4.04169485 11.09451118 -5 9.59857954 -5 6 C-4.01 5.67 -3.02 5.34 -2 5 C-1.67 5.33 -1.34 5.66 -1 6 C-0.67 4.02 -0.34 2.04 0 0 Z " fill="#BDBDBC" transform="translate(113,73)"/>
<path d="M0 0 C0.99 0.66 1.98 1.32 3 2 C2 5 2 5 0 6 C0 6.66 0 7.32 0 8 C0.66 8.33 1.32 8.66 2 9 C1.835 9.5775 1.67 10.155 1.5 10.75 C0.85537969 13.26664369 0.85537969 13.26664369 1 17 C0.34 17.66 -0.32 18.32 -1 19 C-2.32 19 -3.64 19 -5 19 C-5 15.37 -5 11.74 -5 8 C-4.34 8 -3.68 8 -3 8 C-2.690625 6.865625 -2.38125 5.73125 -2.0625 4.5625 C-1 1 -1 1 0 0 Z " fill="#F4F4F4" transform="translate(36,139)"/>
<path d="M0 0 C1.8871875 0.061875 1.8871875 0.061875 3.8125 0.125 C3.25754396 5.96231537 -0.13778772 8.16155911 -4.3515625 11.84375 C-6.47557688 13.97325553 -6.47557688 13.97325553 -6.09375 16.7109375 C-5.2077971 19.35928097 -5.2077971 19.35928097 -3.0625 22.25 C-2.44375 23.19875 -1.825 24.1475 -1.1875 25.125 C-1.5175 26.115 -1.8475 27.105 -2.1875 28.125 C-4.8275 24.495 -7.4675 20.865 -10.1875 17.125 C-8.17756295 13.10512591 -6.24903611 10.97983005 -3.0625 7.875 C-2.15242188 6.98296875 -1.24234375 6.0909375 -0.3046875 5.171875 C0.39398438 4.49640625 1.09265625 3.8209375 1.8125 3.125 C-2.9772321 2.89071687 -2.9772321 2.89071687 -7.1875 5.125 C-7.1875 4.135 -7.1875 3.145 -7.1875 2.125 C-4.09861478 0.06574319 -3.47814073 -0.1140374 0 0 Z " fill="#B6181E" transform="translate(76.1875,70.875)"/>
<path d="M0 0 C2.27521866 2.16687491 4.15794162 4.45620509 6 7 C5 9 5 9 3 11 C3 11.66 3 12.32 3 13 C3.66 13.33 4.32 13.66 5 14 C2.03 14.66 -0.94 15.32 -4 16 C-3.67 15.01 -3.34 14.02 -3 13 C-2.96079185 11.00038436 -2.95556653 8.99950636 -3 7 C-2.67 7 -2.34 7 -2 7 C-1.34 4.69 -0.68 2.38 0 0 Z " fill="#D3C1BE" transform="translate(129,98)"/>
<path d="M0 0 C3.875 0.875 3.875 0.875 5 2 C5.07313567 4.53049402 5.09247527 7.03304837 5.0625 9.5625 C5.05798828 10.27341797 5.05347656 10.98433594 5.04882812 11.71679688 C5.03700864 13.47790013 5.01907263 15.23896036 5 17 C3.68 17.33 2.36 17.66 1 18 C1 17.01 1 16.02 1 15 C0.34 14.67 -0.32 14.34 -1 14 C-0.67 13.01 -0.34 12.02 0 11 C0.0685495 9.10529184 0.08480372 7.2083166 0.0625 5.3125 C0.05347656 4.31863281 0.04445312 3.32476562 0.03515625 2.30078125 C0.02355469 1.54152344 0.01195312 0.78226562 0 0 Z " fill="#F3F6F1" transform="translate(182,115)"/>
<path d="M0 0 C1.32 0 2.64 0 4 0 C4 5.94 4 11.88 4 18 C3.34 17.01 2.68 16.02 2 15 C1.67 20.61 1.34 26.22 1 32 C0.67 32 0.34 32 0 32 C0 21.44 0 10.88 0 0 Z " fill="#202020" transform="translate(114,73)"/>
<path d="M0 0 C0.66 0 1.32 0 2 0 C2.67119549 1.4562545 3.33681807 2.91507867 4 4.375 C4.556875 5.59316406 4.556875 5.59316406 5.125 6.8359375 C6 9 6 9 6 11 C4.68 11.33 3.36 11.66 2 12 C1.67 18.93 1.34 25.86 1 33 C0.34 33 -0.32 33 -1 33 C-0.67 22.11 -0.34 11.22 0 0 Z " fill="#D5DCD0" transform="translate(202,49)"/>
<path d="M0 0 C1.0209375 0.7425 1.0209375 0.7425 2.0625 1.5 C6.63340795 3.83408066 11.16254898 3.54798433 16 2 C15.67 3.65 15.34 5.3 15 7 C11.29661796 8.23446068 7.85339582 8.44981274 4 8 C1 6.5 1 6.5 -1 5 C-0.67 3.35 -0.34 1.7 0 0 Z " fill="#2F2F2F" transform="translate(149,100)"/>
<path d="M0 0 C6.47459459 0.61081081 6.47459459 0.61081081 8.6875 2.25 C11.08103063 5.44137417 10.71818431 9.11094342 11 13 C6.05 13 1.1 13 -4 13 C-1 10 -1 10 2.6875 9.8125 C3.780625 9.874375 4.87375 9.93625 6 10 C6 10.66 6 11.32 6 12 C6.66 12 7.32 12 8 12 C8 9.69 8 7.38 8 5 C3.545 4.01 3.545 4.01 -1 3 C-0.67 2.01 -0.34 1.02 0 0 Z " fill="#232323" transform="translate(155,83)"/>
<path d="M0 0 C1.65420222 0.53739056 3.29833295 1.10586008 4.9375 1.6875 C5.85402344 2.00074219 6.77054688 2.31398438 7.71484375 2.63671875 C10 4 10 4 10.81640625 6.64453125 C10.87699219 7.42183594 10.93757812 8.19914062 11 9 C6.545 9.495 6.545 9.495 2 10 C0.68373308 6.38026598 0 3.90432869 0 0 Z " fill="#CBCBCB" transform="translate(220,94)"/>
<path d="M0 0 C0.33 0 0.66 0 1 0 C1.66 2.97 2.32 5.94 3 9 C4.65 7.68 6.3 6.36 8 5 C7.65930765 8.15140423 7.41923159 9.60781561 5.0625 11.8125 C3 13 3 13 1 13 C1.33 13.66 1.66 14.32 2 15 C2.06982019 17.82771783 1.99703129 20.64101392 1.9375 23.46875 C1.82047338 25.99511297 1.82047338 25.99511297 3 28 C1.68 28 0.36 28 -1 28 C-0.67 18.76 -0.34 9.52 0 0 Z " fill="#363636" transform="translate(115,80)"/>
<path d="M0 0 C1.65 0.33 3.3 0.66 5 1 C5 5.95 5 10.9 5 16 C5.66 16.33 6.32 16.66 7 17 C6.01 17.33 5.02 17.66 4 18 C4 13.05 4 8.1 4 3 C2.35 3 0.7 3 -1 3 C-1 13.89 -1 24.78 -1 36 C-1.33 36 -1.66 36 -2 36 C-2.04936883 31.19451403 -2.08570443 26.38917506 -2.10986328 21.58349609 C-2.11993254 19.94805328 -2.13358881 18.31262851 -2.15087891 16.67724609 C-2.17508705 14.3290563 -2.18647357 11.98110412 -2.1953125 9.6328125 C-2.21079636 8.53273361 -2.21079636 8.53273361 -2.22659302 7.41043091 C-2.22699368 5.60537303 -2.12212755 3.8009217 -2 2 C-1.34 1.34 -0.68 0.68 0 0 Z " fill="#AD0B17" transform="translate(53,70)"/>
<path d="M0 0 C1.70884005 1.62339805 3.37446717 3.29319053 5 5 C5 5.66 5 6.32 5 7 C4.01 7.33 3.02 7.66 2 8 C1.34 7.67 0.68 7.34 0 7 C-0.33 7.99 -0.66 8.98 -1 10 C-1 9.34 -1 8.68 -1 8 C-1.74765625 8.02320312 -2.4953125 8.04640625 -3.265625 8.0703125 C-4.25046875 8.08835937 -5.2353125 8.10640625 -6.25 8.125 C-7.22453125 8.14820312 -8.1990625 8.17140625 -9.203125 8.1953125 C-12.0196498 7.99862781 -13.60949036 7.44568916 -16 6 C-15.67 5.34 -15.34 4.68 -15 4 C-14.34 4.33 -13.68 4.66 -13 5 C-7.39296787 5.21377721 -7.39296787 5.21377721 -2 4 C-0.79117904 1.99983534 -0.79117904 1.99983534 0 0 Z " fill="#CFCFCF" transform="translate(166,102)"/>
<path d="M0 0 C0.99 1.32 1.98 2.64 3 4 C3.66 4 4.32 4 5 4 C5.66 6.64 6.32 9.28 7 12 C5.68 11.01 4.36 10.02 3 9 C1.84429296 12.46712111 1.67164707 15.5414956 1.4375 19.1875 C1.35371094 20.45980469 1.26992188 21.73210938 1.18359375 23.04296875 C1.12300781 24.01878906 1.06242187 24.99460937 1 26 C0.67 26 0.34 26 0 26 C0 21.71 0 17.42 0 13 C-4.29 13 -8.58 13 -13 13 C-13 12.67 -13 12.34 -13 12 C-7.06 11.505 -7.06 11.505 -1 11 C-0.67 7.37 -0.34 3.74 0 0 Z " fill="#B7C2C7" transform="translate(26,19)"/>
<path d="M0 0 C1 3 1 3 0 6 C1.87178116 9.18288354 1.87178116 9.18288354 4 12 C3.67 12.66 3.34 13.32 3 14 C2.01 14 1.02 14 0 14 C-0.7115625 14.99 -0.7115625 14.99 -1.4375 16 C-1.953125 16.66 -2.46875 17.32 -3 18 C-4.32 18 -5.64 18 -7 18 C-7 17.34 -7 16.68 -7 16 C-5.68 16 -4.36 16 -3 16 C-3.05220703 14.64455078 -3.05220703 14.64455078 -3.10546875 13.26171875 C-3.13253906 12.08222656 -3.15960938 10.90273437 -3.1875 9.6875 C-3.22230469 8.51574219 -3.25710937 7.34398438 -3.29296875 6.13671875 C-3 3 -3 3 -1.48828125 1.08203125 C-0.99714844 0.72496094 -0.50601563 0.36789063 0 0 Z " fill="#DDDDDD" transform="translate(121,92)"/>
<path d="M0 0 C4.95 0 9.9 0 15 0 C15 4.62 15 9.24 15 14 C14.01 13.67 13.02 13.34 12 13 C12 9.37 12 5.74 12 2 C8.04 2 4.08 2 0 2 C0 1.34 0 0.68 0 0 Z " fill="#CDDDE5" transform="translate(246,75)"/>
<path d="M0 0 C0.22223194 2.74086056 0.34781139 4.43963721 -1.125 6.8125 C-3.80231137 8.50813053 -5.90089373 8.2694875 -9 8 C-10 7 -10 7 -10.0625 4.4375 C-10.041875 3.633125 -10.02125 2.82875 -10 2 C-8.824375 1.7834375 -8.824375 1.7834375 -7.625 1.5625 C-0.33333333 0 -0.33333333 0 0 0 Z " fill="#CED0C5" transform="translate(206,96)"/>
<path d="M0 0 C0.99 0.66 1.98 1.32 3 2 C2.34 2 1.68 2 1 2 C1 2.66 1 3.32 1 4 C1.99 4 2.98 4 4 4 C4 6.31 4 8.62 4 11 C3.01 11.33 2.02 11.66 1 12 C1 12.66 1 13.32 1 14 C0.34 14 -0.32 14 -1 14 C-0.67 12.02 -0.34 10.04 0 8 C-2.31 8.33 -4.62 8.66 -7 9 C-6.02180976 7.68677212 -5.0424189 6.37443848 -4.0625 5.0625 C-3.51722656 4.33160156 -2.97195312 3.60070312 -2.41015625 2.84765625 C-1 1 -1 1 0 0 Z " fill="#D5D6D5" transform="translate(241,15)"/>
<path d="M0 0 C1.4384798 0.06423833 2.87666999 0.14163547 4.3125 0.25 C4.3125 1.9 4.3125 3.55 4.3125 5.25 C2.3325 6.24 2.3325 6.24 0.3125 7.25 C-0.0175 6.59 -0.3475 5.93 -0.6875 5.25 C-1.6775 5.745 -1.6775 5.745 -2.6875 6.25 C-3.0175 7.24 -3.3475 8.23 -3.6875 9.25 C-5.0075 7.6 -6.3275 5.95 -7.6875 4.25 C-5.84004374 0.30875998 -4.09551026 -0.02575793 0 0 Z " fill="#F1CCC4" transform="translate(134.6875,82.75)"/>
<path d="M0 0 C1.65 0 3.3 0 5 0 C5 4.29 5 8.58 5 13 C2.69 13 0.38 13 -2 13 C-1.525625 12.608125 -1.05125 12.21625 -0.5625 11.8125 C1.35179633 9.59191626 1.61266988 7.86624291 2 5 C0.35 5 -1.3 5 -3 5 C-2.01 4.34 -1.02 3.68 0 3 C0 2.01 0 1.02 0 0 Z " fill="#E5C9C2" transform="translate(138,68)"/>
<path d="M0 0 C0.66 0.33 1.32 0.66 2 1 C2 1.66 2 2.32 2 3 C3.65 3 5.3 3 7 3 C6.34 4.32 5.68 5.64 5 7 C7.31 6.34 9.62 5.68 12 5 C9.62905707 7.65171248 7.16431913 9.1490052 4 10.75 C3.13375 11.19859375 2.2675 11.6471875 1.375 12.109375 C-1 13 -1 13 -4 12 C0.75 9 0.75 9 3 9 C3 8.34 3 7.68 3 7 C2.01 7 1.02 7 0 7 C0 6.34 0 5.68 0 5 C-0.99 5.33 -1.98 5.66 -3 6 C-3 5.34 -3 4.68 -3 4 C-2.01 4 -1.02 4 0 4 C0 2.68 0 1.36 0 0 Z " fill="#D6D2D1" transform="translate(97,117)"/>
<path d="M0 0 C0.33 0 0.66 0 1 0 C1 1.65 1 3.3 1 5 C-0.98 5.66 -2.96 6.32 -5 7 C-4.67 7.66 -4.34 8.32 -4 9 C-5.6875 9.6875 -5.6875 9.6875 -8 10 C-10.75 8.5625 -10.75 8.5625 -13 7 C-12.34 5.68 -11.68 4.36 -11 3 C-7.7 3 -4.4 3 -1 3 C-0.67 2.01 -0.34 1.02 0 0 Z " fill="#DDDDDD" transform="translate(235,83)"/>
<path d="M0 0 C4.62 0 9.24 0 14 0 C14.33 0.99 14.66 1.98 15 3 C11.04 3 7.08 3 3 3 C3.66 3.33 4.32 3.66 5 4 C5 4.66 5 5.32 5 6 C7.97 6.495 7.97 6.495 11 7 C11 7.33 11 7.66 11 8 C4.25 8.125 4.25 8.125 2 7 C2 5.68 2 4.36 2 3 C1.34 3 0.68 3 0 3 C0 2.01 0 1.02 0 0 Z " fill="#C6C6C6" transform="translate(150,96)"/>
<path d="M0 0 C5.57142857 5.14285714 5.57142857 5.14285714 6 9 C5.38125 9.28875 4.7625 9.5775 4.125 9.875 C1.86674235 10.93720042 1.86674235 10.93720042 0 13 C-1.6875 10.4375 -1.6875 10.4375 -3 7 C-2.36490421 4.34847509 -1.31240999 2.43038886 0 0 Z " fill="#DFE1E0" transform="translate(123,90)"/>
<path d="M0 0 C0.99 0.103125 1.98 0.20625 3 0.3125 C5 3.3125 5 3.3125 5 6.3125 C1.37 6.3125 -2.26 6.3125 -6 6.3125 C-4.54010695 0.47292781 -4.54010695 0.47292781 0 0 Z " fill="#B4B4B4" transform="translate(156,85.6875)"/>
<path d="M0 0 C1.93742341 -0.02703381 3.87495479 -0.04641125 5.8125 -0.0625 C6.89144531 -0.07410156 7.97039062 -0.08570312 9.08203125 -0.09765625 C12 0 12 0 15 1 C14.67 2.32 14.34 3.64 14 5 C12.22992286 5.08114106 10.45877902 5.13925505 8.6875 5.1875 C7.70136719 5.22230469 6.71523437 5.25710937 5.69921875 5.29296875 C3 5 3 5 1.14453125 3.61328125 C0 2 0 2 0 0 Z " fill="#353535" transform="translate(220,82)"/>
<path d="M0 0 C-3.50897269 4.18423892 -7.08060535 8.19588166 -11 12 C-11.66 11.67 -12.32 11.34 -13 11 C-11.14172184 3.73582173 -7.97798767 -0.92767298 0 0 Z " fill="#221C15" transform="translate(140,73)"/>
<path d="M0 0 C6 2 6 2 7.25 4.1875 C7.62125 5.5796875 7.62125 5.5796875 8 7 C8.37125 8.258125 8.7425 9.51625 9.125 10.8125 C9.558125 12.3903125 9.558125 12.3903125 10 14 C9.34 14 8.68 14 8 14 C5.95830515 11.09451118 5 9.59857954 5 6 C4.01 6 3.02 6 2 6 C2 8.64 2 11.28 2 14 C1.67 14 1.34 14 1 14 C0.67 9.38 0.34 4.76 0 0 Z " fill="#CACBCD" transform="translate(84,44)"/>
<path d="M0 0 C0.66 0 1.32 0 2 0 C2.33 1.65 2.66 3.3 3 5 C3.66 4.34 4.32 3.68 5 3 C5 5.64 5 8.28 5 11 C2.9375 11.8125 2.9375 11.8125 0 12 C-2.54689275 10.58973707 -4.76642506 8.86023965 -7 7 C-4 7 -4 7 -1 8 C-0.40267181 5.23735711 0 2.83967231 0 0 Z " fill="#D1D0CF" transform="translate(240,149)"/>
<path d="M0 0 C6.52307692 0.61538462 6.52307692 0.61538462 8.9375 2.5625 C9.288125 3.036875 9.63875 3.51125 10 4 C9.1028125 4.37125 9.1028125 4.37125 8.1875 4.75 C5.71352479 6.16370012 4.56629745 7.65055383 3 10 C2.01 9.67 1.02 9.34 0 9 C0 6 0 3 0 0 Z " fill="#F2F2F2" transform="translate(145,107)"/>
<path d="M0 0 C0.33 0.66 0.66 1.32 1 2 C1.99 2.33 2.98 2.66 4 3 C4.99 2.01 5.98 1.02 7 0 C6.71125 0.639375 6.4225 1.27875 6.125 1.9375 C4.9000926 5.27197014 4.26472391 8.51931333 3.66015625 12.01171875 C3 14 3 14 0 16 C0 10.72 0 5.44 0 0 Z " fill="#B6B6B6" transform="translate(118,73)"/>
<path d="M0 0 C0.33 0.99 0.66 1.98 1 3 C7.27 3 13.54 3 20 3 C20 3.66 20 4.32 20 5 C12.41 5 4.82 5 -3 5 C-3 4.34 -3 3.68 -3 3 C-2.34 3 -1.68 3 -1 3 C-0.67 2.01 -0.34 1.02 0 0 Z " fill="#FCF6F0" transform="translate(46,54)"/>
<path d="M0 0 C2.31 0 4.62 0 7 0 C7 2.31 7 4.62 7 7 C8.258125 6.87625 9.51625 6.7525 10.8125 6.625 C11.87404297 6.52058594 11.87404297 6.52058594 12.95703125 6.4140625 C15.29988142 6.07334609 15.29988142 6.07334609 18 4 C21.1875 3.875 21.1875 3.875 24 4 C23.01 4.33 22.02 4.66 21 5 C21 5.99 21 6.98 21 8 C16.05 8 11.1 8 6 8 C6 7.01 6 6.02 6 5 C4.35 5 2.7 5 1 5 C1 4.67 1 4.34 1 4 C2.65 4 4.3 4 6 4 C6 3.01 6 2.02 6 1 C4.02 1 2.04 1 0 1 C0 0.67 0 0.34 0 0 Z " fill="#858D7F" transform="translate(181,82)"/>
<path d="M0 0 C1 3 1 3 0 7 C2.64 6.01 5.28 5.02 8 4 C8 4.66 8 5.32 8 6 C8.66 6.33 9.32 6.66 10 7 C6.38026598 8.31626692 3.90432869 9 0 9 C-0.33 9.99 -0.66 10.98 -1 12 C-3 10.9375 -3 10.9375 -5 9 C-5.25 5.3125 -5.25 5.3125 -5 2 C-4.5359375 2.9590625 -4.5359375 2.9590625 -4.0625 3.9375 C-3.1654837 5.93610821 -3.1654837 5.93610821 -2 7 C-1.855625 6.21625 -1.71125 5.4325 -1.5625 4.625 C-1 2 -1 2 0 0 Z " fill="#BDC0C1" transform="translate(31,151)"/>
<path d="M0 0 C0.66 0.33 1.32 0.66 2 1 C1.67 1.99 1.34 2.98 1 4 C1 4.33 1 4.66 1 5 C-0.25 6.625 -0.25 6.625 -2 8 C-4.1875 7.6875 -4.1875 7.6875 -6 7 C-6.33 7.66 -6.66 8.32 -7 9 C-10.0625 9.625 -10.0625 9.625 -13 10 C-10.6875 7.5 -10.6875 7.5 -8 5 C-7.01 5 -6.02 5 -5 5 C-5 4.34 -5 3.68 -5 3 C-2.625 1.3125 -2.625 1.3125 0 0 Z " fill="#CBCBCB" transform="translate(54,144)"/>
<path d="M0 0 C1.12588014 0.95729916 2.2506715 1.91587895 3.375 2.875 C4.00148437 3.40867187 4.62796875 3.94234375 5.2734375 4.4921875 C6.55836651 5.61432007 7.79371975 6.79371975 9 8 C9 8.99 9 9.98 9 11 C6.1875 11.3125 6.1875 11.3125 3 11 C0.50911464 8.1769966 0.0253032 6.44702321 -0.1875 2.6875 C-0.125625 1.800625 -0.06375 0.91375 0 0 Z " fill="#41352F" transform="translate(132,97)"/>
<path d="M0 0 C0.81210938 0.29003906 1.62421875 0.58007812 2.4609375 0.87890625 C3.27820313 1.16636719 4.09546875 1.45382813 4.9375 1.75 C5.56398437 1.97816406 6.19046875 2.20632812 6.8359375 2.44140625 C6.8359375 3.77473958 6.8359375 5.10807292 6.8359375 6.44140625 C2.8759375 6.44140625 -1.0840625 6.44140625 -5.1640625 6.44140625 C-4.5040625 5.78140625 -3.8440625 5.12140625 -3.1640625 4.44140625 C-3.4825802 2.33319828 -3.4825802 2.33319828 -4.1640625 0.44140625 C-2.1640625 -0.55859375 -2.1640625 -0.55859375 0 0 Z " fill="#F5DFDD" transform="translate(135.1640625,106.55859375)"/>
<path d="M0 0 C0 0.33 0 0.66 0 1 C-1.65 1 -3.3 1 -5 1 C-5 1.66 -5 2.32 -5 3 C-5.66 3 -6.32 3 -7 3 C-6.81566406 3.85851562 -6.63132813 4.71703125 -6.44140625 5.6015625 C-5.97804327 9.16904739 -6.27242855 11.85403352 -6.9375 15.375 C-7.13214844 16.43460938 -7.32679688 17.49421875 -7.52734375 18.5859375 C-7.76130859 19.78089844 -7.76130859 19.78089844 -8 21 C-8.33 21 -8.66 21 -9 21 C-9.08086376 18.06195004 -9.1404283 15.12611925 -9.1875 12.1875 C-9.21263672 11.35412109 -9.23777344 10.52074219 -9.26367188 9.66210938 C-9.27333984 8.85966797 -9.28300781 8.05722656 -9.29296875 7.23046875 C-9.3086792 6.49207764 -9.32438965 5.75368652 -9.34057617 4.99291992 C-8.4283813 -0.34489137 -4.66964894 -0.31130993 0 0 Z " fill="#D6D5D5" transform="translate(187,87)"/>
<path d="M0 0 C2 1 2 1 3 3.9375 C3.33 4.948125 3.66 5.95875 4 7 C4.66 7.66 5.32 8.32 6 9 C3.03 9 0.06 9 -3 9 C-3.1875 5.625 -3.1875 5.625 -3 2 C-2.01 1.34 -1.02 0.68 0 0 Z " fill="#D3E4C7" transform="translate(191,80)"/>
<path d="M0 0 C0.66 0 1.32 0 2 0 C3.38550197 2.77100394 3.1877467 4.9334706 3 8 C2.01 9.485 2.01 9.485 1 11 C0.34 11 -0.32 11 -1 11 C-1 11.66 -1 12.32 -1 13 C-3.64 13 -6.28 13 -9 13 C-9 12.34 -9 11.68 -9 11 C-7.329375 10.5978125 -7.329375 10.5978125 -5.625 10.1875 C-1.78159049 9.34190981 -1.78159049 9.34190981 0 6 C0.16699232 2.87478167 0.16699232 2.87478167 0 0 Z " fill="#DEDEDE" transform="translate(235,97)"/>
<path d="M0 0 C0.66 0 1.32 0 2 0 C3.75 2.25 3.75 2.25 5 5 C4.1875 7.3125 4.1875 7.3125 3 9 C2.01 9 1.02 9 0 9 C-2 6 -2 6 -1.6875 3.9375 C-1 2 -1 2 0 0 Z " fill="#DFDFDF" transform="translate(147,73)"/>
<path d="M0 0 C0 0.33 0 0.66 0 1 C-1.65 1 -3.3 1 -5 1 C-5.33 1.99 -5.66 2.98 -6 4 C-7.31647119 4.69937532 -8.65022151 5.36729133 -10 6 C-10.33 6.66 -10.66 7.32 -11 8 C-11.99 8 -12.98 8 -14 8 C-13.6858889 5.06829636 -12.9610478 3.95750669 -10.9375 1.75 C-6.97597894 -0.6100551 -4.55355001 -0.30871526 0 0 Z " fill="#3D3D3D" transform="translate(160,82)"/>
<path d="M0 0 C0.99 0.99 1.98 1.98 3 3 C2.01 3.33 1.02 3.66 0 4 C-0.99 4.66 -1.98 5.32 -3 6 C-3.58592634 9.11610554 -3.58592634 9.11610554 -3.6875 12.625 C-3.75324219 13.81351563 -3.81898437 15.00203125 -3.88671875 16.2265625 C-3.92410156 17.14179687 -3.96148437 18.05703125 -4 19 C-5.875 19.625 -5.875 19.625 -8 20 C-8.66 19.34 -9.32 18.68 -10 18 C-8.35 18 -6.7 18 -5 18 C-5.05800781 17.11957031 -5.11601563 16.23914063 -5.17578125 15.33203125 C-5.53990054 5.95856027 -5.53990054 5.95856027 -3.88671875 3.0234375 C-2.5 1.6875 -2.5 1.6875 0 0 Z " fill="#B61B1E" transform="translate(62,90)"/>
<path d="M0 0 C0.99 0.495 0.99 0.495 2 1 C2 4.96 2 8.92 2 13 C2.66 13 3.32 13 4 13 C4.33 14.32 4.66 15.64 5 17 C3.35 17.66 1.7 18.32 0 19 C0 12.73 0 6.46 0 0 Z " fill="#F9FCF4" transform="translate(53,77)"/>
<path d="M0 0 C2.475 0.99 2.475 0.99 5 2 C5 6.62 5 11.24 5 16 C4.01 15.67 3.02 15.34 2 15 C2.185625 14.4225 2.37125 13.845 2.5625 13.25 C3.16852477 11.01880801 3.16852477 11.01880801 2.4375 8.9375 C2.293125 8.298125 2.14875 7.65875 2 7 C2.66 6.01 3.32 5.02 4 4 C2.35 4 0.7 4 -1 4 C-0.67 2.68 -0.34 1.36 0 0 Z " fill="#F2F4EF" transform="translate(65,43)"/>
<path d="M0 0 C0.33 0.66 0.66 1.32 1 2 C0.401875 2.268125 -0.19625 2.53625 -0.8125 2.8125 C-2.97224808 3.98493467 -4.35790256 5.19369282 -6 7 C-6.99 6.67 -7.98 6.34 -9 6 C-9 6.66 -9 7.32 -9 8 C-11.64 8.66 -14.28 9.32 -17 10 C-16.67 9.34 -16.34 8.68 -16 8 C-15.01 8 -14.02 8 -13 8 C-13 7.34 -13 6.68 -13 6 C-9.0018221 3.12630963 -4.60022425 1.63736795 0 0 Z " fill="#BCBCBC" transform="translate(179,48)"/>
<path d="M0 0 C0.66 0.33 1.32 0.66 2 1 C1.67 5.62 1.34 10.24 1 15 C5.62 15 10.24 15 15 15 C15 15.33 15 15.66 15 16 C10.05 16 5.1 16 0 16 C0 12.04 0 8.08 0 4 C-0.99 4 -1.98 4 -3 4 C-3 3.34 -3 2.68 -3 2 C-2.01 1.34 -1.02 0.68 0 0 Z " fill="#98A3A9" transform="translate(245,15)"/>
<path d="M0 0 C0.66 0.33 1.32 0.66 2 1 C1.02134105 3.93597684 0.32439236 5.71553285 -2.03125 7.78125 C-4.57755161 10.6508915 -4.58536957 12.46350008 -4.75 16.25 C-4.80671875 17.32765625 -4.8634375 18.4053125 -4.921875 19.515625 C-4.94765625 20.33546875 -4.9734375 21.1553125 -5 22 C-5.99 21.67 -6.98 21.34 -8 21 C-7.34 21 -6.68 21 -6 21 C-6.33 16.71 -6.66 12.42 -7 8 C-5.5459375 7.13375 -5.5459375 7.13375 -4.0625 6.25 C-0.90530708 4.35207138 -0.90530708 4.35207138 -0.125 1.75 C-0.08375 1.1725 -0.0425 0.595 0 0 Z " fill="#181818" transform="translate(123,85)"/>
<path d="M0 0 C0.33 0.99 0.66 1.98 1 3 C1.66 3.66 2.32 4.32 3 5 C0.42910583 7.11180592 -1.63060567 8.66306057 -5 9 C-5.66 8.34 -6.32 7.68 -7 7 C-6.01 6.67 -5.02 6.34 -4 6 C-2.90833725 4.06669397 -2.90833725 4.06669397 -2 2 C-1.34 1.34 -0.68 0.68 0 0 Z " fill="#F7D1D0" transform="translate(67,78)"/>
<path d="M0 0 C0.99 0.33 1.98 0.66 3 1 C2.67 3.31 2.34 5.62 2 8 C1.34 8 0.68 8 0 8 C0 7.34 0 6.68 0 6 C-1.32 6 -2.64 6 -4 6 C-4.33 6.66 -4.66 7.32 -5 8 C-5 7.34 -5 6.68 -5 6 C-6.98 6 -8.96 6 -11 6 C-11 5.67 -11 5.34 -11 5 C-7.37 5 -3.74 5 0 5 C-0.33 3.68 -0.66 2.36 -1 1 C-0.67 0.67 -0.34 0.34 0 0 Z " fill="#3C3C3C" transform="translate(161,87)"/>
<path d="M0 0 C1.65 0.33 3.3 0.66 5 1 C5 5.95 5 10.9 5 16 C5.66 16.33 6.32 16.66 7 17 C6.01 17.33 5.02 17.66 4 18 C4 13.05 4 8.1 4 3 C2.35 3 0.7 3 -1 3 C-0.67 2.01 -0.34 1.02 0 0 Z " fill="#BC2427" transform="translate(53,70)"/>
<path d="M0 0 C0.66 0.99 1.32 1.98 2 3 C1.67 3.66 1.34 4.32 1 5 C2.32 5.33 3.64 5.66 5 6 C4.67 6.99 4.34 7.98 4 9 C1.69 9 -0.62 9 -3 9 C-2.30058404 5.85262818 -1.23921302 2.97411124 0 0 Z " fill="#F9F2F3" transform="translate(38,50)"/>
<path d="M0 0 C1.051875 0.7115625 1.051875 0.7115625 2.125 1.4375 C5.16081337 3.08739857 7.59168786 3.60368464 11 4 C11 4.33 11 4.66 11 5 C9.35 5 7.7 5 6 5 C6 5.66 6 6.32 6 7 C3.03 6.505 3.03 6.505 0 6 C0 4 0 2 0 0 Z " fill="#242424" transform="translate(149,100)"/>
<path d="M0 0 C2.96404505 2.80804268 5.44499019 5.18315774 7 9 C6.38125 8.814375 5.7625 8.62875 5.125 8.4375 C2.95839822 7.76313824 2.95839822 7.76313824 1 9 C-0.5625 7.25 -0.5625 7.25 -2 5 C-1.75203633 2.83031791 -1.55766393 1.55766393 0 0 Z " fill="#2A2623" transform="translate(130,92)"/>
<path d="M0 0 C0.66 0.33 1.32 0.66 2 1 C3 4 3 4 2.0625 6.1875 C1.5365625 7.0846875 1.5365625 7.0846875 1 8 C1.99 8.99 2.98 9.98 4 11 C2.125 10.6875 2.125 10.6875 0 10 C-2.14915785 6.77626323 -2.38286803 5.73296326 -2 2 C-1.34 1.34 -0.68 0.68 0 0 Z " fill="#262626" transform="translate(220,84)"/>
<path d="M0 0 C1.37478516 0.01740234 1.37478516 0.01740234 2.77734375 0.03515625 C3.69644531 0.04417969 4.61554688 0.05320312 5.5625 0.0625 C6.27277344 0.07410156 6.98304688 0.08570312 7.71484375 0.09765625 C8.04484375 1.08765625 8.37484375 2.07765625 8.71484375 3.09765625 C5.08484375 3.75765625 1.45484375 4.41765625 -2.28515625 5.09765625 C-2.61515625 3.77765625 -2.94515625 2.45765625 -3.28515625 1.09765625 C-2.28515625 0.09765625 -2.28515625 0.09765625 0 0 Z " fill="#21291E" transform="translate(197.28515625,82.90234375)"/>
<path d="M0 0 C0 0.99 0 1.98 0 3 C0.66 3 1.32 3 2 3 C2 7.29 2 11.58 2 16 C1.67 16 1.34 16 1 16 C0.85304687 14.84371094 0.85304687 14.84371094 0.703125 13.6640625 C0.55359375 12.66117188 0.4040625 11.65828125 0.25 10.625 C0.11078125 9.62726563 -0.0284375 8.62953125 -0.171875 7.6015625 C-0.74386889 4.85438953 -0.74386889 4.85438953 -3.078125 3.6484375 C-3.71234375 3.43445313 -4.3465625 3.22046875 -5 3 C-2.25 0 -2.25 0 0 0 Z " fill="#BEBEBE" transform="translate(165,80)"/>
<path d="M0 0 C0.99 0 1.98 0 3 0 C6 5.75 6 5.75 6 8 C3.03 7.505 3.03 7.505 0 7 C0 4.69 0 2.38 0 0 Z " fill="#FAFAF8" transform="translate(86,50)"/>
<path d="M0 0 C1 3 1 3 0 6 C0.87914688 8.6569191 0.87914688 8.6569191 2 11 C1.01 10.34 0.02 9.68 -1 9 C-1.33 10.98 -1.66 12.96 -2 15 C-2.33 15 -2.66 15 -3 15 C-3.08107583 13.06318839 -3.13922475 11.1254066 -3.1875 9.1875 C-3.22230469 8.10855469 -3.25710937 7.02960938 -3.29296875 5.91796875 C-3 3 -3 3 -1.48828125 1.11328125 C-0.99714844 0.74589844 -0.50601563 0.37851563 0 0 Z " fill="#A4A4A4" transform="translate(121,92)"/>
<path d="M0 0 C5.68372093 3.14418605 5.68372093 3.14418605 7.0625 6.875 C6.98760025 10.61998765 5.89890733 12.80983569 4 16 C3 13 3 13 3.6875 10.6875 C4.14087649 6.78846216 2.25297469 5.07223822 0 2 C0 1.34 0 0.68 0 0 Z " fill="#C8C8C8" transform="translate(212,82)"/>
<path d="M0 0 C0.66 0.33 1.32 0.66 2 1 C4.37123246 1.23029956 6.74741943 1.41119942 9.125 1.5625 C10.40632812 1.64628906 11.68765625 1.73007813 13.0078125 1.81640625 C14.48894531 1.90728516 14.48894531 1.90728516 16 2 C16 1.34 16 0.68 16 0 C16.66 0 17.32 0 18 0 C18 1.32 18 2.64 18 4 C15.39576408 4.02697137 12.79180756 4.04682489 10.1875 4.0625 C9.44951172 4.07087891 8.71152344 4.07925781 7.95117188 4.08789062 C4.70077932 4.10259828 2.10595105 4.03531702 -1 3 C-0.67 2.01 -0.34 1.02 0 0 Z " fill="#979E93" transform="translate(185,131)"/>
<path d="M0 0 C0.66 0 1.32 0 2 0 C1.69381595 3.67420866 1.24228216 4.78135513 -1.5625 7.3125 C-2.366875 7.869375 -3.17125 8.42625 -4 9 C-4 8.34 -4 7.68 -4 7 C-4.99 6.67 -5.98 6.34 -7 6 C-6.34 5.67 -5.68 5.34 -5 5 C-4.67 4.34 -4.34 3.68 -4 3 C-3.01 2.67 -2.02 2.34 -1 2 C-0.67 1.34 -0.34 0.68 0 0 Z " fill="#D2D3D3" transform="translate(105,102)"/>
<path d="M0 0 C0.33 0 0.66 0 1 0 C1.06058594 0.90363281 1.12117187 1.80726562 1.18359375 2.73828125 C1.26738281 3.91777344 1.35117188 5.09726563 1.4375 6.3125 C1.51871094 7.48425781 1.59992188 8.65601562 1.68359375 9.86328125 C1.8867371 13.02590958 1.8867371 13.02590958 3 16 C2.0625 18.1875 2.0625 18.1875 1 20 C-0.32 19.67 -1.64 19.34 -3 19 C-2.01 19 -1.02 19 0 19 C0 12.73 0 6.46 0 0 Z " fill="#9B9B9B" transform="translate(211,88)"/>
<path d="M0 0 C0 0.99 0 1.98 0 3 C-1.28745036 3.38922918 -2.58019597 3.76098036 -3.875 4.125 C-4.95394531 4.43824219 -4.95394531 4.43824219 -6.0546875 4.7578125 C-6.69664062 4.83773437 -7.33859375 4.91765625 -8 5 C-8.66 4.34 -9.32 3.68 -10 3 C-7.29536552 -0.8183075 -4.37912428 -0.24787496 0 0 Z " fill="#232222" transform="translate(187,83)"/>
<path d="M0 0 C2.475 0.99 2.475 0.99 5 2 C5 3.32 5 4.64 5 6 C4.01 6 3.02 6 2 6 C1.34 6.66 0.68 7.32 0 8 C-0.66 6.02 -1.32 4.04 -2 2 C-1.34 1.34 -0.68 0.68 0 0 Z " fill="#D6D6D6" transform="translate(33,20)"/>
<path d="M0 0 C0.33 0 0.66 0 1 0 C1 5.94 1 11.88 1 18 C0.01 18 -0.98 18 -2 18 C-1.42085333 11.98673249 -0.77662055 5.99107278 0 0 Z " fill="#1A1A1A" transform="translate(210,89)"/>
<path d="M0 0 C0.33 0.99 0.66 1.98 1 3 C1.66 3 2.32 3 3 3 C2 6 2 6 1 7 C0.01 7.33 -0.98 7.66 -2 8 C-4 5 -4 5 -4 2 C-2.68 1.34 -1.36 0.68 0 0 Z " fill="#454545" transform="translate(149,96)"/>
<path d="M0 0 C1.32 0.33 2.64 0.66 4 1 C3.34 1 2.68 1 2 1 C2 1.66 2 2.32 2 3 C4.475 3.99 4.475 3.99 7 5 C7 5.66 7 6.32 7 7 C4.03 6.505 4.03 6.505 1 6 C0.67 6.99 0.34 7.98 0 9 C0 6.03 0 3.06 0 0 Z " fill="#DEF0D4" transform="translate(188,105)"/>
<path d="M0 0 C4.29 0 8.58 0 13 0 C13 0.66 13 1.32 13 2 C12.22914063 2.06058594 11.45828125 2.12117188 10.6640625 2.18359375 C9.66117188 2.26738281 8.65828125 2.35117187 7.625 2.4375 C6.12839844 2.55931641 6.12839844 2.55931641 4.6015625 2.68359375 C2.02072387 2.84965626 2.02072387 2.84965626 0 4 C0 2.68 0 1.36 0 0 Z " fill="#E2EAD7" transform="translate(188,46)"/>
<path d="M0 0 C0.66 0.33 1.32 0.66 2 1 C2 2.98 2 4.96 2 7 C4.31 7 6.62 7 9 7 C9 7.66 9 8.32 9 9 C5.7 9 2.4 9 -1 9 C-1.09765625 2.84765625 -1.09765625 2.84765625 -1 1 C-0.67 0.67 -0.34 0.34 0 0 Z " fill="#E4F1DC" transform="translate(72,124)"/>
<path d="M0 0 C2.0625 1.75 2.0625 1.75 4 4 C3.9375 6.1875 3.9375 6.1875 3 8 C2.01 8.33 1.02 8.66 0 9 C-1.125 7.3125 -1.125 7.3125 -2 5 C-1.125 2.25 -1.125 2.25 0 0 Z " fill="#F6F6F6" transform="translate(122,92)"/>
<path d="M0 0 C1.5 1.125 1.5 1.125 3 3 C3.1875 6.1875 3.1875 6.1875 3 9 C2.34 9 1.68 9 1 9 C-1.04169485 6.09451118 -2 4.59857954 -2 1 C-1.34 0.67 -0.68 0.34 0 0 Z " fill="#D2D3D0" transform="translate(110,78)"/>
<path d="M0 0 C1.32 0 2.64 0 4 0 C4 2.64 4 5.28 4 8 C2.68 7.34 1.36 6.68 0 6 C0 4.02 0 2.04 0 0 Z " fill="#F0D3CF" transform="translate(139,98)"/>
<path d="M0 0 C5.75 -0.125 5.75 -0.125 8 1 C8 1.99 8 2.98 8 4 C5.69 4.33 3.38 4.66 1 5 C0.67 3.35 0.34 1.7 0 0 Z " fill="#F6F6F6" transform="translate(223,99)"/>
<path d="M0 0 C2.24027294 2.88035092 4.16172132 5.84866512 6 9 C4.68 9 3.36 9 2 9 C1.67 9.66 1.34 10.32 1 11 C-1.78637633 6.8204355 -0.79562512 4.85331323 0 0 Z " fill="#FDDFDD" transform="translate(65,85)"/>
<path d="M0 0 C1.0625 1.8125 1.0625 1.8125 2 4 C1.67 4.99 1.34 5.98 1 7 C-1.31 6.01 -3.62 5.02 -6 4 C-4 1 -4 1 -1.875 0.3125 C-1.25625 0.209375 -0.6375 0.10625 0 0 Z " fill="#FBF4F8" transform="translate(64,85)"/>
<path d="M0 0 C0.33 1.32 0.66 2.64 1 4 C0.01 4.66 -0.98 5.32 -2 6 C0.97 6.495 0.97 6.495 4 7 C4 7.33 4 7.66 4 8 C1.36 8 -1.28 8 -4 8 C-4 4 -4 4 -2 1.75 C-1.01 0.88375 -1.01 0.88375 0 0 Z " fill="#BEA7A0" transform="translate(139,74)"/>
<path d="M0 0 C0.33 1.32 0.66 2.64 1 4 C-4.75 3.125 -4.75 3.125 -7 2 C-7 1.34 -7 0.68 -7 0 C-3.86650268 -1.04449911 -3.01031744 -0.93423645 0 0 Z " fill="#F9F9F9" transform="translate(160,99)"/>
<path d="M0 0 C1.3921875 0.2784375 1.3921875 0.2784375 2.8125 0.5625 C6.01343771 1.24123881 6.01343771 1.24123881 9 0 C9.33 1.32 9.66 2.64 10 4 C8.1875 4.625 8.1875 4.625 6 5 C5.01 4.34 4.02 3.68 3 3 C2.67 3.66 2.34 4.32 2 5 C1.34 3.35 0.68 1.7 0 0 Z " fill="#CACCC9" transform="translate(92,48)"/>
<path d="M0 0 C0.33 0 0.66 0 1 0 C1 2.64 1 5.28 1 8 C1.99 8.33 2.98 8.66 4 9 C3.01 9.99 2.02 10.98 1 12 C-0.32 11.34 -1.64 10.68 -3 10 C-2.34 9.67 -1.68 9.34 -1 9 C-0.53348793 6.87423218 -0.53348793 6.87423218 -0.375 4.4375 C-0.30023438 3.61121094 -0.22546875 2.78492187 -0.1484375 1.93359375 C-0.09945312 1.29550781 -0.05046875 0.65742187 0 0 Z " fill="#A3ADA4" transform="translate(85,123)"/>
<path d="M0 0 C1.32 0.33 2.64 0.66 4 1 C0.535 3.97 0.535 3.97 -3 7 C-3.66 6.34 -4.32 5.68 -5 5 C-2.75 2.4375 -2.75 2.4375 0 0 Z " fill="#342E26" transform="translate(134,73)"/>
<path d="M0 0 C0.99 0 1.98 0 3 0 C3 1.65 3 3.3 3 5 C1.02 5.99 1.02 5.99 -1 7 C-1.04254356 5.00045254 -1.04080783 2.99958364 -1 1 C-0.67 0.67 -0.34 0.34 0 0 Z " fill="#EAEBE7" transform="translate(203,96)"/>
<path d="M0 0 C0.99 0.33 1.98 0.66 3 1 C3.33 1.99 3.66 2.98 4 4 C3.195625 4.12375 2.39125 4.2475 1.5625 4.375 C0.2940625 4.684375 0.2940625 4.684375 -1 5 C-1.33 5.66 -1.66 6.32 -2 7 C-2.33 5.35 -2.66 3.7 -3 2 C-2.01 1.34 -1.02 0.68 0 0 Z " fill="#F0F2F2" transform="translate(30,18)"/>
<path d="M0 0 C1.1875 1.625 1.1875 1.625 2 4 C0.625 7.25 0.625 7.25 -1 10 C-1.33 10 -1.66 10 -2 10 C-2.1953125 3.9453125 -2.1953125 3.9453125 -2 2 C-1.34 1.34 -0.68 0.68 0 0 Z " fill="#F6F7F3" transform="translate(205,116)"/>
<path d="M0 0 C2.96404505 2.80804268 5.44499019 5.18315774 7 9 C4.625 8.6875 4.625 8.6875 2 8 C-0.1519437 4.77208445 -0.20086443 3.71599191 0 0 Z " fill="#363533" transform="translate(124,86)"/>
<path d="M0 0 C1.32 0 2.64 0 4 0 C5.4606285 2.64738916 6 3.89448334 6 7 C5.01 7 4.02 7 3 7 C3 6.01 3 5.02 3 4 C2.34 3.67 1.68 3.34 1 3 C0.67 2.01 0.34 1.02 0 0 Z " fill="#2E2E2B" transform="translate(173,83)"/>
<path d="M0 0 C0 1.32 0 2.64 0 4 C-1.65 4.66 -3.3 5.32 -5 6 C-5.33 5.01 -5.66 4.02 -6 3 C-3.375 0 -3.375 0 0 0 Z " fill="#E90207" transform="translate(75,82)"/>
<path d="M0 0 C1.65 0.33 3.3 0.66 5 1 C4.67 1.99 4.34 2.98 4 4 C4.99 4.33 5.98 4.66 7 5 C7 5.66 7 6.32 7 7 C6.236875 6.690625 5.47375 6.38125 4.6875 6.0625 C2.81210323 5.32106407 0.91315348 4.63771783 -1 4 C-0.67 2.68 -0.34 1.36 0 0 Z " fill="#C5C5C5" transform="translate(115,57)"/>
<path d="M0 0 C2.475 0.99 2.475 0.99 5 2 C4.67 2.66 4.34 3.32 4 4 C3.34 4 2.68 4 2 4 C2 7.3 2 10.6 2 14 C1.67 14 1.34 14 1 14 C0.67 9.38 0.34 4.76 0 0 Z " fill="#A3A89D" transform="translate(84,44)"/>
<path d="M0 0 C3.3 0 6.6 0 10 0 C10 0.33 10 0.66 10 1 C7.69 1.33 5.38 1.66 3 2 C5.31 2.33 7.62 2.66 10 3 C10 3.33 10 3.66 10 4 C7.03 4 4.06 4 1 4 C0.67 2.68 0.34 1.36 0 0 Z " fill="#DEEFFA" transform="translate(246,17)"/>
<path d="M0 0 C2.64 0 5.28 0 8 0 C7.67 0.99 7.34 1.98 7 3 C5.02 3 3.04 3 1 3 C0.67 2.01 0.34 1.02 0 0 Z " fill="#FADEDC" transform="translate(34,121)"/>
<path d="M0 0 C0.33 0 0.66 0 1 0 C1 1.98 1 3.96 1 6 C-1.31 6 -3.62 6 -6 6 C-4.71034824 4.62437146 -3.37310707 3.29233607 -2 2 C-1.34 2 -0.68 2 0 2 C0 1.34 0 0.68 0 0 Z " fill="#F9D5D1" transform="translate(142,75)"/>
<path d="M0 0 C0.66 0.33 1.32 0.66 2 1 C2.625 3.0625 2.625 3.0625 3 5 C2.01 5.66 1.02 6.32 0 7 C-0.33 6.01 -0.66 5.02 -1 4 C-1.99 3.67 -2.98 3.34 -4 3 C-2.68 2.01 -1.36 1.02 0 0 Z " fill="#C9C9C9" transform="translate(220,32)"/>
<path d="M0 0 C5.53846154 -0.36923077 5.53846154 -0.36923077 7.875 1.5 C8.24625 1.995 8.6175 2.49 9 3 C6.36 3 3.72 3 1 3 C0.67 2.01 0.34 1.02 0 0 Z " fill="#F0CCCB" transform="translate(134,108)"/>
<path d="M0 0 C0 0.66 0 1.32 0 2 C1.65 2 3.3 2 5 2 C5 2.33 5 2.66 5 3 C3.35 3 1.7 3 0 3 C0.33 4.65 0.66 6.3 1 8 C0.5875 7.38125 0.175 6.7625 -0.25 6.125 C-2.05573879 3.93231719 -3.4090534 3.07211583 -6 2 C-2.25 0 -2.25 0 0 0 Z " fill="#616161" transform="translate(226,105)"/>
<path d="M0 0 C0.99 0.33 1.98 0.66 3 1 C3 1.66 3 2.32 3 3 C3.99 3.33 4.98 3.66 6 4 C5.67 5.32 5.34 6.64 5 8 C2.69 8 0.38 8 -2 8 C-1.67 7.34 -1.34 6.68 -1 6 C0.65 6.33 2.3 6.66 4 7 C2.02 3.535 2.02 3.535 0 0 Z " fill="#D24546" transform="translate(75,100)"/>
<path d="M0 0 C1.43088528 2.86177057 0.59991697 4.93375773 0 8 C-0.99 8 -1.98 8 -3 8 C-3 5.69 -3 3.38 -3 1 C-2.01 0.67 -1.02 0.34 0 0 Z " fill="#E3F3DA" transform="translate(191,95)"/>
<path d="M0 0 C2.97 0 5.94 0 9 0 C9 0.66 9 1.32 9 2 C4.545 2.495 4.545 2.495 0 3 C0 2.01 0 1.02 0 0 Z " fill="#212524" transform="translate(198,93)"/>
<path d="M0 0 C1.32 0.99 2.64 1.98 4 3 C3.67 3.99 3.34 4.98 3 6 C1.0625 6.8125 1.0625 6.8125 -1 7 C-1.66 6.34 -2.32 5.68 -3 5 C-2.34 5 -1.68 5 -1 5 C-0.67 3.35 -0.34 1.7 0 0 Z " fill="#F0F0F0" transform="translate(124,65)"/>
<path d="M0 0 C0.99 0.66 1.98 1.32 3 2 C1.75453595 5.73639216 0.36595047 6.18756513 -3 8 C-1.125 1.125 -1.125 1.125 0 0 Z " fill="#C7C7C7" transform="translate(36,139)"/>
<path d="M0 0 C1.23367942 2.46735884 1 4.26809601 1 7 C1.33 7.66 1.66 8.32 2 9 C0.68 8.67 -0.64 8.34 -2 8 C-2 4.23312136 -1.76462683 3.08809695 0 0 Z " fill="#C8C8C5" transform="translate(206,121)"/>
<path d="M0 0 C2.4750171 1.11431765 4.67883419 2.58150978 7 4 C7 4.33 7 4.66 7 5 C0.25 4.125 0.25 4.125 -2 3 C-2 2.34 -2 1.68 -2 1 C-1.34 0.67 -0.68 0.34 0 0 Z " fill="#C6D7BC" transform="translate(192,105)"/>
<path d="M0 0 C1.625 1 1.625 1 3 3 C2.65009645 5.8158905 1.84980278 8.2716858 1 11 C0.67 11 0.34 11 0 11 C-0.19406478 9.35492782 -0.38007935 7.70890406 -0.5625 6.0625 C-0.66691406 5.14597656 -0.77132812 4.22945313 -0.87890625 3.28515625 C-0.91886719 2.53105469 -0.95882812 1.77695313 -1 1 C-0.67 0.67 -0.34 0.34 0 0 Z " fill="#C8B7B7" transform="translate(129,98)"/>
<path d="M0 0 C0.99 0.33 1.98 0.66 3 1 C2.67 2.32 2.34 3.64 2 5 C0.02 5 -1.96 5 -4 5 C-2.68 3.35 -1.36 1.7 0 0 Z " fill="#F0F0F0" transform="translate(154,87)"/>
<path d="M0 0 C1.65 0.33 3.3 0.66 5 1 C3.6875 3 3.6875 3 2 5 C1.01 5 0.02 5 -1 5 C-0.67 3.35 -0.34 1.7 0 0 Z " fill="#EEF2F0" transform="translate(204,43)"/>
<path d="M0 0 C2.475 0.99 2.475 0.99 5 2 C4.67 2.66 4.34 3.32 4 4 C3.01 4 2.02 4 1 4 C0.67 4.66 0.34 5.32 0 6 C-0.99 5.67 -1.98 5.34 -3 5 C-2.01 3.35 -1.02 1.7 0 0 Z " fill="#CCCCCC" transform="translate(51,32)"/>
<path d="M0 0 C0.33 0.66 0.66 1.32 1 2 C1.66 2 2.32 2 3 2 C3 2.66 3 3.32 3 4 C3.66 4 4.32 4 5 4 C4.67 4.66 4.34 5.32 4 6 C2.68 6 1.36 6 0 6 C0 4.02 0 2.04 0 0 Z " fill="#E7E6E8" transform="translate(203,130)"/>
<path d="M0 0 C1.65 0 3.3 0 5 0 C5.33 0.99 5.66 1.98 6 3 C5.01 3.66 4.02 4.32 3 5 C2.01 4.67 1.02 4.34 0 4 C0 2.68 0 1.36 0 0 Z " fill="#F9F9F9" transform="translate(145,107)"/>
<path d="M0 0 C0.66 0 1.32 0 2 0 C2 0.66 2 1.32 2 2 C2.66 2 3.32 2 4 2 C4 3.32 4 4.64 4 6 C4.66 6 5.32 6 6 6 C5.67 6.66 5.34 7.32 5 8 C2.5 6.25 2.5 6.25 0 4 C0 2.68 0 1.36 0 0 Z " fill="#D70608" transform="translate(75,96)"/>
<path d="M0 0 C1.485 0.99 1.485 0.99 3 2 C2.39816251 4.02045442 1.72693904 6.02111039 1 8 C0.01 8.495 0.01 8.495 -1 9 C-0.67 6.03 -0.34 3.06 0 0 Z " fill="#F9F9F9" transform="translate(214,88)"/>
<path d="M0 0 C1.32 0.33 2.64 0.66 4 1 C4 2.32 4 3.64 4 5 C2.68 5 1.36 5 0 5 C0 3.35 0 1.7 0 0 Z " fill="#ECF0E7" transform="translate(202,87)"/>
<path d="M0 0 C0.99 0 1.98 0 3 0 C3 1.32 3 2.64 3 4 C1.35 4.66 -0.3 5.32 -2 6 C-2 5.01 -2 4.02 -2 3 C-1.34 3 -0.68 3 0 3 C0 2.01 0 1.02 0 0 Z " fill="#CC0E13" transform="translate(60,80)"/>
<path d="M0 0 C0.66 0.99 1.32 1.98 2 3 C1.67 3.99 1.34 4.98 1 6 C1.33 6.99 1.66 7.98 2 9 C1.01 9 0.02 9 -1 9 C-1.09765625 2.84765625 -1.09765625 2.84765625 -1 1 C-0.67 0.67 -0.34 0.34 0 0 Z " fill="#D9C8C5" transform="translate(129,68)"/>
<path d="M0 0 C2.24087517 2.24087517 2.66556265 2.90645453 3 6 C2.411438 8.354248 1.75407101 10.69342986 1 13 C0.67 13 0.34 13 0 13 C0 8.71 0 4.42 0 0 Z " fill="#F7DFDD" transform="translate(97,65)"/>
<path d="M0 0 C0.33 0 0.66 0 1 0 C1 1.98 1 3.96 1 6 C-0.98 6.66 -2.96 7.32 -5 8 C-5 6 -5 6 -3.625 4.5625 C-3.08875 4.046875 -2.5525 3.53125 -2 3 C-1.34 2.01 -0.68 1.02 0 0 Z " fill="#BDBABA" transform="translate(182,51)"/>
<path d="M0 0 C0.66 0.33 1.32 0.66 2 1 C1.67 2.32 1.34 3.64 1 5 C-0.65 4.67 -2.3 4.34 -4 4 C-4 3.34 -4 2.68 -4 2 C-2.68 2 -1.36 2 0 2 C0 1.34 0 0.68 0 0 Z " fill="#F0EEEE" transform="translate(179,106)"/>
<path d="M0 0 C-0.66 0 -1.32 0 -2 0 C-2.33 1.65 -2.66 3.3 -3 5 C-3.66 4.67 -4.32 4.34 -5 4 C-5 3.34 -5 2.68 -5 2 C-5.66 1.67 -6.32 1.34 -7 1 C-3.375 -1.125 -3.375 -1.125 0 0 Z " fill="#E0E0E0" transform="translate(220,103)"/>
<path d="M0 0 C0.66 0.33 1.32 0.66 2 1 C3.54023996 1.06950541 5.08334988 1.08452357 6.625 1.0625 C7.44226563 1.05347656 8.25953125 1.04445313 9.1015625 1.03515625 C9.72804687 1.02355469 10.35453125 1.01195313 11 1 C11 1.66 11 2.32 11 3 C6.71 3 2.42 3 -2 3 C-1.34 2.01 -0.68 1.02 0 0 Z " fill="#A38A84" transform="translate(133,80)"/>
<path d="M0 0 C1.32 0 2.64 0 4 0 C4 0.66 4 1.32 4 2 C3.34 2 2.68 2 2 2 C2 2.66 2 3.32 2 4 C1.34 4 0.68 4 0 4 C-0.33 4.66 -0.66 5.32 -1 6 C-1.042721 4.33388095 -1.04063832 2.66617115 -1 1 C-0.67 0.67 -0.34 0.34 0 0 Z " fill="#B5B7A8" transform="translate(197,97)"/>
<path d="M0 0 C0.66 0.33 1.32 0.66 2 1 C2 2.65 2 4.3 2 6 C0.68 6 -0.64 6 -2 6 C-1.34 4.02 -0.68 2.04 0 0 Z " fill="#EDEDED" transform="translate(218,92)"/>
<path d="M0 0 C1.134375 0.020625 2.26875 0.04125 3.4375 0.0625 C3.4375 0.3925 3.4375 0.7225 3.4375 1.0625 C2.2928125 1.2171875 2.2928125 1.2171875 1.125 1.375 C-1.73309424 2.10614039 -2.71992885 2.83201913 -4.5625 5.0625 C-4.5625 0.08004386 -4.5625 0.08004386 0 0 Z " fill="#AFAFAF" transform="translate(227.5625,85.9375)"/>
<path d="M0 0 C1.24546405 2.49092811 0.7767578 3.41080733 0 6 C0.66 6 1.32 6 2 6 C1.67 6.99 1.34 7.98 1 9 C-0.32 7.35 -1.64 5.7 -3 4 C-2.01 2.68 -1.02 1.36 0 0 Z " fill="#B39F9A" transform="translate(130,83)"/>
<path d="M0 0 C1.98 1.65 3.96 3.3 6 5 C5.01 5.33 4.02 5.66 3 6 C0.3125 4.5625 0.3125 4.5625 -2 3 C-1.34 2.67 -0.68 2.34 0 2 C0 1.34 0 0.68 0 0 Z " fill="#BBBBBB" transform="translate(105,52)"/>
<path d="M0 0 C0.99 0.33 1.98 0.66 3 1 C2.67 1.99 2.34 2.98 2 4 C-0.31 4 -2.62 4 -5 4 C-3.36587557 2.29159719 -2.13093906 1.06546953 0 0 Z " fill="#BDBDBE" transform="translate(212,38)"/>
</svg>
