<?xml version="1.0" standalone="no"?>
<!DOCTYPE svg PUBLIC "-//W3C//DTD SVG 20010904//EN"
 "http://www.w3.org/TR/2001/REC-SVG-20010904/DTD/svg10.dtd">
<svg version="1.0" xmlns="http://www.w3.org/2000/svg"
 width="270.000000pt" height="180.000000pt" viewBox="0 0 270.000000 180.000000"
 preserveAspectRatio="xMidYMid meet">

<g transform="translate(0.000000,180.000000) scale(0.100000,-0.100000)"
fill="#000000" stroke="none">
<path d="M270 1630 c0 -5 5 -10 11 -10 5 0 7 5 4 10 -3 6 -8 10 -11 10 -2 0
-4 -4 -4 -10z"/>
<path d="M2440 1629 c0 -5 5 -7 10 -4 6 3 10 8 10 11 0 2 -4 4 -10 4 -5 0 -10
-5 -10 -11z"/>
<path d="M2179 1453 c-13 -16 -12 -17 4 -4 16 13 21 21 13 21 -2 0 -10 -8 -17
-17z"/>
<path d="M1860 1338 c-12 -22 -12 -22 6 -6 10 10 15 20 12 24 -4 3 -12 -5 -18
-18z"/>
<path d="M2021 1334 c0 -11 3 -14 6 -6 3 7 2 16 -1 19 -3 4 -6 -2 -5 -13z"/>
<path d="M1050 1246 c0 -2 7 -7 16 -10 8 -3 12 -2 9 4 -6 10 -25 14 -25 6z"/>
<path d="M340 901 c0 -277 1 -300 18 -305 9 -3 27 -4 40 -1 16 3 22 -1 22 -13
0 -13 2 -14 9 -4 6 11 63 14 259 15 137 1 248 -1 246 -5 -3 -4 1 -5 8 -2 7 3
23 26 36 52 12 26 16 39 9 29 -8 -9 -17 -17 -21 -17 -3 0 -6 115 -6 257 l0
256 21 -19 c21 -19 21 -18 -1 19 l-22 37 -309 0 -309 0 0 -299z m230 92 l0
-77 83 81 c80 78 88 82 137 74 2 -1 -27 -32 -64 -70 l-69 -70 39 -53 c100
-135 110 -158 70 -158 -19 0 -36 19 -82 89 l-59 90 -27 -26 c-25 -24 -28 -34
-28 -90 0 -61 -1 -63 -25 -63 l-25 0 0 174 c0 158 2 175 18 179 29 6 32 -1 32
-80z"/>
<path d="M1550 1190 c-9 -6 -10 -10 -3 -10 6 0 15 5 18 10 8 12 4 12 -15 0z"/>
<path d="M1740 1155 c-7 -9 -11 -17 -9 -20 3 -2 10 5 17 15 14 24 10 26 -8 5z"/>
<path d="M1446 1135 c-11 -8 -15 -15 -9 -15 6 0 16 7 23 15 16 19 11 19 -14 0z"/>
<path d="M1689 1073 c-13 -16 -12 -17 4 -4 16 13 21 21 13 21 -2 0 -10 -8 -17
-17z"/>
<path d="M1142 898 c3 -155 5 -173 21 -176 15 -3 17 5 17 57 0 53 4 65 28 92
l29 32 60 -89 c47 -70 65 -90 86 -92 15 -2 27 0 27 5 0 4 -31 53 -69 107 l-68
99 64 62 c34 34 63 64 63 68 0 4 -12 7 -28 7 -21 0 -45 -18 -102 -75 -41 -41
-78 -75 -83 -75 -5 0 -8 10 -7 23 1 12 2 46 1 75 -1 45 -4 52 -21 52 -20 0
-20 -5 -18 -172z"/>
<path d="M1510 967 c-49 -24 -75 -117 -50 -181 12 -33 66 -66 107 -66 47 0 83
17 83 38 0 17 -4 18 -38 9 -45 -12 -92 -3 -92 18 0 8 -4 15 -10 15 -5 0 -10 9
-10 20 0 18 7 20 58 20 33 0 64 -5 71 -12 11 -10 13 -10 7 0 -4 7 -1 12 8 12
21 0 21 51 1 91 -24 46 -84 62 -135 36z m56 -44 c13 -17 14 -17 8 0 -8 21 0
22 20 1 31 -31 20 -44 -39 -44 -59 0 -67 8 -35 40 24 24 29 25 46 3z"/>
<path d="M1796 959 c-21 -17 -26 -18 -26 -5 0 9 -9 16 -20 16 -20 0 -20 -5
-18 -122 3 -115 4 -123 23 -123 18 0 20 8 23 87 3 80 5 89 29 107 17 14 33 19
49 15 21 -5 24 -3 24 20 0 22 -4 26 -29 26 -15 0 -40 -9 -55 -21z"/>
<path d="M1967 969 c-18 -7 -27 -17 -25 -28 4 -17 11 -17 65 -7 22 4 36 1 47
-10 29 -29 19 -41 -40 -49 -67 -8 -104 -38 -104 -84 0 -56 86 -93 135 -57 17
12 21 12 31 -2 6 -8 17 -13 25 -10 21 8 10 211 -12 233 -20 21 -85 28 -122 14z
m103 -143 c0 -24 -41 -66 -65 -66 -29 0 -48 23 -40 49 6 21 23 28 73 30 21 1
32 -4 32 -13z"/>
<path d="M2219 974 c-8 -3 -22 -17 -31 -32 -24 -41 -6 -71 65 -105 40 -20 57
-33 57 -47 0 -26 -42 -36 -92 -23 -36 10 -38 9 -38 -13 0 -18 7 -24 35 -30 19
-3 35 -11 35 -18 0 -7 3 -8 8 0 4 5 23 15 42 20 21 6 41 20 50 37 22 40 -1 75
-73 109 -60 29 -66 38 -42 58 12 10 27 11 60 3 40 -9 45 -8 51 9 3 11 4 22 1
24 -7 7 -109 14 -128 8z"/>
<path d="M1275 680 c-3 -5 -1 -10 4 -10 6 0 11 5 11 10 0 6 -2 10 -4 10 -3 0
-8 -4 -11 -10z"/>
<path d="M694 481 c4 -6 2 -19 -5 -27 -10 -12 -9 -13 5 -8 19 7 21 30 4 40 -7
4 -8 3 -4 -5z"/>
<path d="M855 470 c-3 -5 -1 -10 4 -10 6 0 11 5 11 10 0 6 -2 10 -4 10 -3 0
-8 -4 -11 -10z"/>
<path d="M1860 465 c7 -9 15 -13 17 -11 7 7 -7 26 -19 26 -6 0 -6 -6 2 -15z"/>
<path d="M2010 456 c0 -2 7 -7 16 -10 8 -3 12 -2 9 4 -6 10 -25 14 -25 6z"/>
<path d="M610 399 c-22 -18 -22 -19 -3 -10 12 6 25 16 28 21 9 15 3 12 -25
-11z"/>
<path d="M266 175 c-3 -8 -1 -15 4 -15 6 0 10 7 10 15 0 8 -2 15 -4 15 -2 0
-6 -7 -10 -15z"/>
<path d="M2440 181 c0 -6 4 -13 10 -16 6 -3 7 1 4 9 -7 18 -14 21 -14 7z"/>
</g>
</svg>
