<?xml version="1.0" encoding="UTF-8"?>
<svg version="1.1" xmlns="http://www.w3.org/2000/svg" width="600" height="373">
<path d="M0 0 C198 0 396 0 600 0 C600 123.09 600 246.18 600 373 C402 373 204 373 0 373 C0 249.91 0 126.82 0 0 Z " fill="#FDFDFD" transform="translate(0,0)"/>
<path d="M0 0 C8.58 0 17.16 0 26 0 C28.0109375 3.650625 28.0109375 3.650625 30.0625 7.375 C35.01582655 16.32242948 40.12256455 25.17838003 45.24707031 34.02856445 C49.9761568 42.20331524 54.64668656 50.40907115 59.26098633 58.64916992 C64.0528743 67.17716099 69.03598633 75.56117675 74 84 C74 56.28 74 28.56 74 0 C83.24 0 92.48 0 102 0 C102 48.18 102 96.36 102 146 C93.42 146 84.84 146 76 146 C75.14277344 144.24945313 74.28554687 142.49890625 73.40234375 140.6953125 C70.35537972 134.60495126 67.03445594 128.73076898 63.5625 122.875 C62.32487203 120.77121488 61.08791638 118.66703413 59.8515625 116.5625 C59.21766602 115.48484375 58.58376953 114.4071875 57.93066406 113.296875 C54.73547688 107.84065248 51.58874017 102.3566789 48.4375 96.875 C43.54085626 88.37158198 38.61026701 79.88929735 33.625 71.4375 C33.07126709 70.49696777 32.51753418 69.55643555 31.94702148 68.58740234 C31.44114502 67.73227051 30.93526855 66.87713867 30.4140625 65.99609375 C29.9701416 65.24513428 29.5262207 64.4941748 29.06884766 63.72045898 C28.11431796 62.03848943 28.11431796 62.03848943 27 61 C27 89.05 27 117.1 27 146 C18.09 146 9.18 146 0 146 C0 97.82 0 49.64 0 0 Z " fill="#C7C1BB" transform="translate(63,170)"/>
<path d="M0 0 C9.57 0 19.14 0 29 0 C29 19.47 29 38.94 29 59 C33.95 59 38.9 59 44 59 C44.66 57.02 45.32 55.04 46 53 C46.81382281 51.37284532 47.67575558 49.76893733 48.58203125 48.19140625 C49.09580322 47.29035156 49.6095752 46.38929688 50.13891602 45.4609375 C50.69119873 44.50445312 51.24348145 43.54796875 51.8125 42.5625 C52.98453529 40.51181035 54.1564053 38.46102623 55.328125 36.41015625 C55.93205078 35.35715332 56.53597656 34.30415039 57.15820312 33.21923828 C60.14872941 27.99215986 63.10411712 22.74531449 66.0625 17.5 C67.11556133 15.63523361 68.16892876 13.77064004 69.22265625 11.90625 C69.66359619 11.12572266 70.10453613 10.34519531 70.55883789 9.54101562 C72.36502752 6.35639397 74.18355302 3.17878222 76 0 C86.89 0 97.78 0 109 0 C107.599184 3.50204001 106.35063237 6.29028243 104.453125 9.45703125 C103.94499268 10.31014893 103.43686035 11.1632666 102.91333008 12.04223633 C102.36443115 12.95642334 101.81553223 13.87061035 101.25 14.8125 C100.07096013 16.79127686 98.89259854 18.770458 97.71484375 20.75 C96.79807861 22.28914063 96.79807861 22.28914063 95.86279297 23.859375 C92.22162099 29.99830506 88.63441474 36.16889333 85.05541992 42.34423828 C82.37232972 46.96711737 79.66777981 51.56914185 76.859375 56.1171875 C76.38395264 56.89537842 75.90853027 57.67356934 75.41870117 58.4753418 C74.54305927 59.90363906 73.65594985 61.32499797 72.75512695 62.73754883 C71.18432062 65.314917 70.0200143 67.35111542 69.92578125 70.40625 C71.60133684 74.45195512 73.82725329 78.0921471 76.125 81.8125 C76.65633545 82.68559814 77.1876709 83.55869629 77.73510742 84.45825195 C81.87371722 91.23481463 86.09422723 97.96036324 90.3125 104.6875 C95.74969557 113.35867574 101.13381222 122.0591665 106.4375 130.8125 C107.09468018 131.88653076 107.75186035 132.96056152 108.42895508 134.06713867 C109.02861084 135.06205322 109.6282666 136.05696777 110.24609375 137.08203125 C110.77904053 137.96093018 111.3119873 138.8398291 111.86108398 139.74536133 C113 142 113 142 113 145 C101.45 145 89.9 145 78 145 C76.02 141.37 74.04 137.74 72 134 C70.32453895 131.05438974 68.64146668 128.11636494 66.9375 125.1875 C66.47851318 124.39633789 66.01952637 123.60517578 65.54663086 122.79003906 C61.20881469 115.32809623 56.81858006 107.89713098 52.41577148 100.47338867 C51.89829346 99.60045166 51.38081543 98.72751465 50.84765625 97.828125 C50.34121582 97.00376953 49.83477539 96.17941406 49.31298828 95.33007812 C48 93 48 93 47.26123047 90.84179688 C46.56060892 88.57035685 46.56060892 88.57035685 44 86 C39.05 85.67 34.1 85.34 29 85 C29 105.13 29 125.26 29 146 C19.43 146 9.86 146 0 146 C0 97.82 0 49.64 0 0 Z " fill="#C7C1BB" transform="translate(434,170)"/>
<path d="M0 0 C37.95 0 75.9 0 115 0 C115 15.84 115 31.68 115 48 C107.08 48 99.16 48 91 48 C91 39.75 91 31.5 91 23 C84.73 23 78.46 23 72 23 C72 55.67 72 88.34 72 122 C79.59 122 87.18 122 95 122 C95 129.59 95 137.18 95 145 C70.25 145 45.5 145 20 145 C20 137.41 20 129.82 20 122 C27.59 122 35.18 122 43 122 C43 89.33 43 56.66 43 23 C36.73 23 30.46 23 24 23 C24 31.25 24 39.5 24 48 C16.08 48 8.16 48 0 48 C0 32.16 0 16.32 0 0 Z " fill="#C7C1BB" transform="translate(305,170)"/>
<path d="M0 0 C9.57 0 19.14 0 29 0 C29 39.6 29 79.2 29 120 C42.53 120 56.06 120 70 120 C70 108.78 70 97.56 70 86 C78.58 86 87.16 86 96 86 C96.02094549 93.66837567 96.04098358 101.33664831 96.05175018 109.00502777 C96.0570399 112.57571125 96.06411339 116.14637115 96.07543945 119.71704102 C96.08834176 123.81006097 96.09322906 127.9030558 96.09765625 131.99609375 C96.10281754 133.28148544 96.10797882 134.56687714 96.11329651 135.89122009 C96.11337204 137.07236893 96.11344757 138.25351776 96.11352539 139.47045898 C96.115746 140.51636703 96.11796661 141.56227509 96.12025452 142.63987732 C96 145 96 145 95 146 C92.04750243 146.09526915 89.11854768 146.12551146 86.16577148 146.11352539 C85.22399331 146.11364593 84.28221514 146.11376646 83.31189823 146.11389065 C80.24827312 146.11314129 77.18470805 146.10551202 74.12109375 146.09765625 C72.23571807 146.0961869 70.35034199 146.09516615 68.46496582 146.09460449 C61.45580435 146.08935078 54.44665159 146.07538971 47.4375 146.0625 C23.9559375 146.0315625 23.9559375 146.0315625 0 146 C0 97.82 0 49.64 0 0 Z " fill="#C7C1BB" transform="translate(192,170)"/>
<path d="M0 0 C16.56861869 -0.58649978 16.56861869 -0.58649978 22 4 C29.17822733 13.29505807 30.0634391 27.57521512 29 39 C27.4984126 48.08569191 25.07255777 54.84003033 18 61 C15.07081707 61.97639431 13.20974262 62.12136181 10.16137695 62.11352539 C8.69019157 62.11341209 8.69019157 62.11341209 7.18928528 62.11329651 C6.13295395 62.10813522 5.07662262 62.10297394 3.98828125 62.09765625 C2.36323921 62.09553383 2.36323921 62.09553383 0.70536804 62.09336853 C-2.75894925 62.08776559 -6.2232022 62.07521258 -9.6875 62.0625 C-12.03450428 62.05748538 -14.38150956 62.05292241 -16.72851562 62.04882812 C-22.48569908 62.03779521 -28.24284494 62.0210542 -34 62 C-34 63.32 -34 64.64 -34 66 C-24.1 66 -14.2 66 -4 66 C-3.9175 68.51625 -3.835 71.0325 -3.75 73.625 C-3.71358398 74.40568848 -3.67716797 75.18637695 -3.63964844 75.99072266 C-3.55916938 81.10373917 -4.56556433 83.99905948 -8 88 C-18.1116859 95.30879753 -30.98402977 95.94604265 -43 95 C-51.05258913 93.68726939 -57.01810406 91.47793631 -62.3659668 85.13696289 C-65.61454682 78.90044642 -65.13661126 71.98906284 -64.98803711 65.09790039 C-64.93750627 62.43782994 -64.96730706 59.78706267 -65.00585938 57.12695312 C-65.00934046 43.02970934 -65.00934046 43.02970934 -60.62890625 37.91015625 C-55.62194299 33.41938849 -51.82799208 32.72906866 -45.23828125 32.76171875 C-43.46158097 32.74629114 -41.68488813 32.72998693 -39.90820312 32.71289062 C-37.11482305 32.69648347 -34.32198843 32.68747587 -31.52856445 32.69458008 C-28.82701542 32.69721527 -26.12710977 32.66896403 -23.42578125 32.63671875 C-22.18940666 32.65202888 -22.18940666 32.65202888 -20.92805481 32.66764832 C-14.82470703 32.5658332 -10.74911299 30.8461703 -6 27 C-4.1873495 24.83779383 -4.1873495 24.83779383 -3 23 C-2.34 23 -1.68 23 -1 23 C-0.67 15.41 -0.34 7.82 0 0 Z " fill="#0524A8" transform="translate(140,53)"/>
<path d="M0 0 C1.99039789 -0.01935243 3.98022504 -0.08174619 5.96972656 -0.14453125 C14.80650606 -0.21536716 21.10368273 1.14581928 28.25878906 6.48046875 C29.00531738 7.01438232 29.7518457 7.5482959 30.52099609 8.09838867 C33.21187534 11.78691197 32.86962753 15.35421927 32.86035156 19.8125 C32.86892181 20.72247238 32.87749207 21.63244476 32.88632202 22.56999207 C32.89779754 24.49397458 32.89881713 26.41804386 32.89013672 28.34204102 C32.88383165 31.27317134 32.93067502 34.20023074 32.98144531 37.13085938 C32.9859934 39.00390118 32.98739731 40.87695379 32.98535156 42.75 C33.00377106 43.62002151 33.02219055 44.49004303 33.04116821 45.38642883 C32.95708794 50.97103796 31.84160907 54.13441002 27.86694336 58.13221741 C23.18840614 62.05462964 18.30263754 61.76110829 12.48535156 61.75390625 C10.75617843 61.77419593 9.02701181 61.79504673 7.29785156 61.81640625 C4.59011316 61.83897892 1.8826328 61.85547125 -0.82519531 61.86132812 C-3.45131289 61.87089155 -6.07628884 61.90471096 -8.70214844 61.94140625 C-9.50341156 61.93636078 -10.30467468 61.93131531 -11.13021851 61.92611694 C-17.45795039 62.03594763 -21.76675082 63.69274604 -26.48339844 68.11328125 C-29.45776635 72.03124175 -30.84170575 74.17735175 -31.05761719 79.05078125 C-31.09951172 79.94667969 -31.14140625 80.84257813 -31.18457031 81.765625 C-31.22388672 82.70277344 -31.26320313 83.63992187 -31.30371094 84.60546875 C-31.34689453 85.55035156 -31.39007813 86.49523437 -31.43457031 87.46875 C-31.54080166 89.80583967 -31.6428427 92.14303705 -31.74121094 94.48046875 C-34.13773622 94.56186017 -36.5314653 94.62113884 -38.92871094 94.66796875 C-39.60224609 94.69310547 -40.27578125 94.71824219 -40.96972656 94.74414062 C-45.46355823 94.80990402 -48.15609722 94.19705765 -51.74121094 91.48046875 C-59.75337671 83.23265104 -60.00439168 71.95271716 -59.98779297 61.04736328 C-59.84570222 52.04503847 -58.77939402 43.75779635 -52.53417969 36.8828125 C-46.50466472 32.16691735 -41.2216501 32.0733995 -33.87402344 32.1875 C-32.83929901 32.19174484 -31.80457458 32.19598969 -30.73849487 32.20036316 C-27.44746413 32.21709879 -24.15705528 32.25474226 -20.86621094 32.29296875 C-18.62924064 32.30802217 -16.39226071 32.32170942 -14.15527344 32.33398438 C-8.68370861 32.36698553 -3.21250422 32.41713407 2.25878906 32.48046875 C2.25878906 31.16046875 2.25878906 29.84046875 2.25878906 28.48046875 C-7.64121094 28.48046875 -17.54121094 28.48046875 -27.74121094 28.48046875 C-27.74121094 9.52698038 -27.74121094 9.52698038 -23.05371094 4.73046875 C-16.78993825 -0.56286028 -7.70344655 0.04515943 0 0 Z " fill="#C28656" transform="translate(103.7412109375,20.51953125)"/>
<path d="M0 0 C6.67767314 4.74709833 10.83045237 10.9223205 12.625 18.875 C14.26300982 31.64234483 13.09749556 42.18264862 5.625 52.875 C3.515625 55.25 3.515625 55.25 1.625 56.875 C0.965 56.875 0.305 56.875 -0.375 56.875 C-0.375 57.535 -0.375 58.195 -0.375 58.875 C-9.38396242 62.07818664 -17.68233258 61.82621247 -26.375 57.875 C-27.035 57.545 -27.695 57.215 -28.375 56.875 C-28.705 68.095 -29.035 79.315 -29.375 90.875 C-37.25 89.75 -37.25 89.75 -40.375 87.875 C-40.53732148 77.54815707 -40.66163523 67.22161847 -40.7376852 56.89375877 C-40.77418945 52.09782164 -40.82368698 47.30275839 -40.90307617 42.50732422 C-40.97923848 37.87773707 -41.02101143 33.24898937 -41.0391407 28.61882401 C-41.0520567 26.85409963 -41.07728017 25.08942029 -41.1151104 23.32505417 C-41.39927816 9.5203891 -41.39927816 9.5203891 -38.90188599 5.50860596 C-37.11118982 3.93227402 -35.51364874 2.91222992 -33.375 1.875 C-32.40275734 1.25339493 -32.40275734 1.25339493 -31.41087341 0.61923218 C-23.38151057 -4.41288331 -8.29750745 -4.31638014 0 0 Z " fill="#A2A2A2" transform="translate(245.375,54.125)"/>
<path d="M0 0 C6.46274631 3.48566548 11.55513534 8.56759156 14 15.5 C14.36351562 16.25925781 14.72703125 17.01851562 15.1015625 17.80078125 C17.80162906 25.91272036 17.16034174 37.51914438 13.46875 45.21875 C9.17968287 51.88049257 3.76584753 58.49601641 -3.921875 61.16796875 C-11.07783632 62.31130843 -18.8166694 62.69620406 -25.2109375 58.9140625 C-28.61480015 56.22367324 -31.53020112 53.06577213 -34 49.5 C-34 48.84 -34 48.18 -34 47.5 C-34.66 47.5 -35.32 47.5 -36 47.5 C-36 46.18 -36 44.86 -36 43.5 C-36.66 43.5 -37.32 43.5 -38 43.5 C-41.05451369 33.76373763 -41.71644796 22.80924373 -37 13.5 C-28.77402679 0.12976036 -15.32212401 -6.06444838 0 0 Z " fill="#A1A1A1" transform="translate(469,53.5)"/>
<path d="M0 0 C0.00142502 0.5902446 0.00285004 1.1804892 0.00431824 1.78862 C0.02401917 7.93726959 0.07830102 14.08492695 0.15258789 20.2331543 C0.17577142 22.52702717 0.19016441 24.82100655 0.19555664 27.11499023 C0.2048432 30.41457516 0.24582988 33.71248414 0.29296875 37.01171875 C0.2890361 38.03585373 0.28510345 39.05998871 0.28105164 40.11515808 C0.39752931 46.07537886 0.39752931 46.07537886 3.4074707 51.13598633 C6.2650299 53.19055497 7.51429865 53.76761991 11 54 C11.73347656 54.05027344 12.46695312 54.10054687 13.22265625 54.15234375 C19.91368328 54.41088421 22.99172708 53.33609097 30 51 C30 34.5 30 18 30 1 C33.63 1 37.26 1 41 1 C41.09305768 9.82370428 41.16394501 18.64723724 41.20724869 27.47132683 C41.22804201 31.56960371 41.25620646 35.66754259 41.30175781 39.765625 C41.3455132 43.72733972 41.36919905 47.68873121 41.37950897 51.6506691 C41.38684752 53.15522467 41.40117683 54.6597644 41.42292023 56.16418076 C41.56298935 66.26569994 40.63597439 74.21371818 35.18359375 82.890625 C32.44543989 85.53571102 29.47071841 87.14824509 26.0625 88.75 C25.15081055 89.20439453 25.15081055 89.20439453 24.22070312 89.66796875 C19.324575 92.04472998 15.10238046 93.15427763 9.6875 93.0625 C7.8621875 93.0315625 7.8621875 93.0315625 6 93 C6 90.69 6 88.38 6 86 C6.7734375 85.91363281 7.546875 85.82726562 8.34375 85.73828125 C16.07856449 84.69484712 22.7161667 83.30025789 27.640625 76.8515625 C29.40601716 73.14829734 29.7929774 69.73769068 30.1875 65.6875 C30.26935547 64.94693359 30.35121094 64.20636719 30.43554688 63.44335938 C30.63442588 61.63005077 30.81869827 59.81515031 31 58 C30.34773438 58.27714844 29.69546875 58.55429688 29.0234375 58.83984375 C19.90738158 62.61803212 10.87243406 64.82911881 1.1875 61.8125 C-2.17735291 59.89915227 -4.50344036 57.95047957 -7 55 C-7 54.34 -7 53.68 -7 53 C-7.66 53 -8.32 53 -9 53 C-9.96813254 50.09560239 -10.12144834 48.2718176 -10.11352539 45.25317383 C-10.11344986 44.29240433 -10.11337433 43.33163483 -10.11329651 42.3417511 C-10.10813522 41.30729355 -10.10297394 40.272836 -10.09765625 39.20703125 C-10.0962413 38.14586594 -10.09482635 37.08470062 -10.09336853 35.99137878 C-10.08776606 32.59839065 -10.07521314 29.20546823 -10.0625 25.8125 C-10.05748532 23.51367283 -10.05292236 21.21484462 -10.04882812 18.91601562 C-10.03779583 13.27732128 -10.0210553 7.63866534 -10 2 C-6.38026598 0.68373308 -3.90432869 0 0 0 Z " fill="#A2A2A2" transform="translate(279,52)"/>
<path d="M0 0 C0 13.53 0 27.06 0 41 C4.95 38.525 4.95 38.525 10 36 C15.84350895 34.05216368 22.9129315 33.94301097 29 35 C32.4571597 36.73573259 34.95633599 38.69249114 37 42 C37 43.32 37 44.64 37 46 C37.66 46 38.32 46 39 46 C40.20887291 48.41774581 40.12059343 49.93331064 40.11352539 52.63330078 C40.11344986 53.59414581 40.11337433 54.55499084 40.11329651 55.54495239 C40.10813522 56.58457123 40.10297394 57.62419006 40.09765625 58.6953125 C40.0962413 59.75789276 40.09482635 60.82047302 40.09336853 61.91525269 C40.08775834 65.31853009 40.07520409 68.72174238 40.0625 72.125 C40.05748631 74.42838447 40.05292318 76.73176997 40.04882812 79.03515625 C40.03778559 84.69012936 40.02051409 90.34505363 40 96 C36.37 96 32.74 96 29 96 C28.98541748 94.73929687 28.97083496 93.47859375 28.95581055 92.1796875 C28.89757513 87.47546885 28.82034437 82.77171627 28.73754883 78.06787109 C28.70441787 76.03702391 28.67634957 74.00608726 28.65356445 71.97509766 C28.61980023 69.04551282 28.56747401 66.1167391 28.51171875 63.1875 C28.50532883 62.28821777 28.4989389 61.38893555 28.49235535 60.46240234 C28.35925499 54.67763262 27.49290825 50.25271686 25 45 C20.90880548 42.27253699 17.80675831 42.37431171 13 43 C9.54997821 44.1002234 6.29930835 45.51709787 3 47 C1.515 47.495 1.515 47.495 0 48 C0 63.84 0 79.68 0 96 C-3.3 96 -6.6 96 -10 96 C-10 64.98 -10 33.96 -10 2 C-5 0 -5 0 0 0 Z " fill="#A0A0A0" transform="translate(381,18)"/>
<path d="M0 0 C5.40283499 3.04956102 8.77027554 7.23763979 11 13 C11.36713498 16.17872921 11.32951127 19.30464095 11.25 22.5 C11.24484375 23.32886719 11.2396875 24.15773438 11.234375 25.01171875 C11.17805862 29.43959404 10.87694815 33.6435479 10 38 C9.34 38 8.68 38 8 38 C7.938125 38.721875 7.87625 39.44375 7.8125 40.1875 C6.68700289 44.08345152 5.2437025 45.56722313 2 48 C-3.34473078 49.69871288 -8.76788153 49.31361467 -13.984375 47.34375 C-18.66633525 44.22244317 -20.43309694 38.55654994 -21.60546875 33.26953125 C-22.12022618 29.00367013 -22.26241726 24.79376008 -22.3125 20.5 C-22.34150391 19.67113281 -22.37050781 18.84226562 -22.40039062 17.98828125 C-22.47047916 11.20586742 -20.46501031 7.76379944 -15.9375 2.6875 C-11.57511742 -1.1119945 -5.45595367 -0.90808506 0 0 Z " fill="#FBFBFB" transform="translate(463,59)"/>
<path d="M0 0 C2.15304459 1.72447647 3.8433311 3.27259971 5.0859375 5.7578125 C5.17633656 7.4226189 5.20349007 9.09104671 5.19946289 10.75830078 C5.19938736 11.79922882 5.19931183 12.84015686 5.19923401 13.91262817 C5.19407272 15.03974213 5.18891144 16.16685608 5.18359375 17.328125 C5.1821788 18.47948944 5.18076385 19.63085388 5.17930603 20.81710815 C5.17369466 24.50570236 5.1611402 28.19423655 5.1484375 31.8828125 C5.14342397 34.37890538 5.13886081 36.8749992 5.13476562 39.37109375 C5.12372153 45.50002323 5.10644923 51.62890768 5.0859375 57.7578125 C1.7859375 57.7578125 -1.5140625 57.7578125 -4.9140625 57.7578125 C-4.93911865 56.35499023 -4.9641748 54.95216797 -4.98999023 53.50683594 C-5.08414391 48.30345484 -5.18434536 43.10020475 -5.28637695 37.89697266 C-5.32969564 35.64472518 -5.37137292 33.39244551 -5.41137695 31.14013672 C-5.46915353 27.90322161 -5.53282702 24.66646808 -5.59765625 21.4296875 C-5.61436874 20.42226501 -5.63108124 19.41484253 -5.64830017 18.37689209 C-5.678218 16.96588226 -5.678218 16.96588226 -5.70874023 15.52636719 C-5.72428452 14.70029968 -5.7398288 13.87423218 -5.75584412 13.02313232 C-5.91150594 10.79441655 -6.19711808 8.87393814 -6.9140625 6.7578125 C-8.73007615 5.55777907 -8.73007615 5.55777907 -10.9140625 4.7578125 C-11.5225 4.41621094 -12.1309375 4.07460938 -12.7578125 3.72265625 C-15.20598554 2.62718752 -16.9278975 2.45822876 -19.6015625 2.4453125 C-20.38917969 2.42855469 -21.17679688 2.41179688 -21.98828125 2.39453125 C-26.01699318 2.79725305 -26.01699318 2.79725305 -33.9140625 5.7578125 C-33.9140625 22.9178125 -33.9140625 40.0778125 -33.9140625 57.7578125 C-37.2140625 57.7578125 -40.5140625 57.7578125 -43.9140625 57.7578125 C-44.13676704 50.31986139 -44.29996415 42.88385478 -44.40844727 35.44335938 C-44.45367155 32.9133931 -44.51506373 30.38366158 -44.59301758 27.85449219 C-44.7023767 24.21490624 -44.75326886 20.57843053 -44.79296875 16.9375 C-44.83942032 15.80915741 -44.88587189 14.68081482 -44.93373108 13.51828003 C-44.93864584 5.84987704 -44.93864584 5.84987704 -42.01754761 2.73638916 C-30.26715722 -5.33732544 -12.49470668 -8.10880964 0 0 Z " fill="#9E9E9E" transform="translate(537.9140625,56.2421875)"/>
<path d="M0 0 C3.74581264 2.3922837 4.50279522 4.772581 5.46484375 9.08203125 C6.11686879 13.45765729 6.3965509 17.83443738 6.609375 22.25 C6.67898437 23.24515625 6.74859375 24.2403125 6.8203125 25.265625 C7.11552095 32.48687788 5.79959648 38.68583827 1.046875 44.25 C-3.94676345 48.34734437 -9.14318819 47.72015149 -15.390625 47.25 C-18.33089053 46.44043365 -21.18438675 45.45623825 -23.390625 43.25 C-23.47933773 40.22022196 -23.5058185 37.21332978 -23.48828125 34.18359375 C-23.4868663 33.27497086 -23.48545135 32.36634796 -23.48399353 31.43019104 C-23.47837693 28.51592779 -23.46582165 25.60174019 -23.453125 22.6875 C-23.44811214 20.71679798 -23.44354886 18.74609476 -23.43945312 16.77539062 C-23.42840211 11.93356441 -23.41112638 7.09179505 -23.390625 2.25 C-15.7165167 -1.18450606 -8.31352361 -2.60816427 0 0 Z " fill="#FCFCFC" transform="translate(239.390625,59.75)"/>
<path d="M0 0 C0 6.6 0 13.2 0 20 C3.63 20 7.26 20 11 20 C11 22.31 11 24.62 11 27 C7.37 27 3.74 27 0 27 C0.04407467 33.21186903 0.11382573 39.42271403 0.20751953 45.6340332 C0.23576695 47.74755712 0.25696264 49.86118743 0.27099609 51.97485352 C0.29237334 55.011135 0.33899669 58.04613229 0.390625 61.08203125 C0.39185364 62.02899368 0.39308228 62.97595612 0.39434814 63.95161438 C0.35561519 68.95228359 0.35561519 68.95228359 2.83496094 73.0456543 C5.51021492 74.22490191 8.19672782 75.17176049 11 76 C11 77.98 11 79.96 11 82 C4.37319311 82.22851058 -0.49841499 82.16045978 -5.75 77.625 C-8.94240894 73.90052291 -10.25468642 71.33418251 -10.22705078 66.41503906 C-10.22682419 65.06409149 -10.22682419 65.06409149 -10.22659302 63.68585205 C-10.21627045 62.72217712 -10.20594788 61.7585022 -10.1953125 60.765625 C-10.1924826 59.77246277 -10.18965271 58.77930054 -10.18673706 57.75604248 C-10.17555143 54.58723856 -10.15044962 51.41871835 -10.125 48.25 C-10.11496812 46.1002645 -10.10584263 43.95052457 -10.09765625 41.80078125 C-10.07561741 36.53375754 -10.04215584 31.26689904 -10 26 C-12.31 26 -14.62 26 -17 26 C-17 24.02 -17 22.04 -17 20 C-14.69 20 -12.38 20 -10 20 C-10 14.39 -10 8.78 -10 3 C-4 0 -4 0 0 0 Z " fill="#9F9F9F" transform="translate(348,33)"/>
<path d="M0 0 C0.33 0 0.66 0 1 0 C1 12.87 1 25.74 1 39 C1.66 39 2.32 39 3 39 C3 40.32 3 41.64 3 43 C2.34 43 1.68 43 1 43 C0.773125 43.5775 0.54625 44.155 0.3125 44.75 C-1.98867153 48.69486548 -5.76254204 51.39718109 -10 53 C-12.86278931 53.1688051 -15.62435954 53.23274535 -18.484375 53.1953125 C-19.29996887 53.1924826 -20.11556274 53.18965271 -20.95587158 53.18673706 C-23.55406528 53.17556558 -26.15191095 53.15046675 -28.75 53.125 C-30.51431793 53.11496627 -32.27864128 53.10584111 -34.04296875 53.09765625 C-38.36211273 53.07563619 -42.68099741 53.04112733 -47 53 C-47 52.67 -47 52.34 -47 52 C-35.78 51.67 -24.56 51.34 -13 51 C-31.315 50.505 -31.315 50.505 -50 50 C-50 49.67 -50 49.34 -50 49 C-48.84999512 48.98541748 -47.69999023 48.97083496 -46.51513672 48.95581055 C-42.23211195 48.89766238 -37.94960384 48.82043076 -33.66699219 48.73754883 C-31.81649181 48.70437704 -29.96589214 48.67632113 -28.11523438 48.65356445 C-25.44878997 48.6198755 -22.7832491 48.5675534 -20.1171875 48.51171875 C-19.29507782 48.50532883 -18.47296814 48.4989389 -17.62594604 48.49235535 C-11.45354695 48.33578908 -7.36538681 47.13581678 -2.66308594 42.88989258 C-0.32524969 38.82750742 -0.39730105 35.37571493 -0.390625 30.76171875 C-0.37408875 29.88095169 -0.35755249 29.00018463 -0.34051514 28.09272766 C-0.2920893 25.29091379 -0.27067647 22.48964246 -0.25 19.6875 C-0.22183575 17.78317591 -0.19190768 15.87887703 -0.16015625 13.97460938 C-0.08633186 9.31645093 -0.03672421 4.6585927 0 0 Z " fill="#E4D9D6" transform="translate(136,33)"/>
<path d="M0 0 C0.87793716 0.00848969 1.75587433 0.01697937 2.66041565 0.02572632 C5.44286962 0.05910331 8.22234028 0.13434749 11.00390625 0.2109375 C12.89904645 0.24105765 14.79423244 0.26842985 16.68945312 0.29296875 C21.31623982 0.35884243 25.94081868 0.46225021 30.56640625 0.5859375 C31.06140625 1.5759375 31.06140625 1.5759375 31.56640625 2.5859375 C30.02315674 2.60781128 30.02315674 2.60781128 28.44873047 2.63012695 C24.61293678 2.68832407 20.77771703 2.76555453 16.94238281 2.84838867 C15.28590241 2.88153768 13.62931179 2.90960059 11.97265625 2.93237305 C9.58415991 2.96610482 7.19666454 3.01842709 4.80859375 3.07421875 C4.07397919 3.08060867 3.33936462 3.0869986 2.58248901 3.09358215 C-3.494489 3.26535608 -7.42699121 4.91376872 -12.05859375 8.7734375 C-14.43359375 10.5859375 -14.43359375 10.5859375 -18.43359375 10.5859375 C-14.62568403 2.13084767 -8.89613343 -0.32842825 0 0 Z " fill="#FAF9F9" transform="translate(92.43359375,82.4140625)"/>
<path d="M0 0 C1.39935013 2.79870027 1.25265405 4.90498792 1 8 C-0.125 9.875 -0.125 9.875 -2 11 C-5.0625 11.375 -5.0625 11.375 -8 11 C-10.31282587 7.53076119 -10.42478586 6.07794425 -10 2 C-7.65446208 -2.27715738 -4.20919664 -1.01332512 0 0 Z " fill="#DEE4F6" transform="translate(128,127)"/>
<path d="M0 0 C2 2 2 2 2.3125 5.4375 C2 9 2 9 0.8125 11 C-1 12 -1 12 -3.5625 11.8125 C-6 11 -6 11 -8 9 C-8.333728 5.86295684 -8.52849028 3.83445834 -6.8125 1.125 C-4.38241919 -0.38332602 -2.80984248 -0.36023622 0 0 Z " fill="#F8F2EE" transform="translate(92,30)"/>
<path d="M0 0 C0.33 0 0.66 0 1 0 C1 5.94 1 11.88 1 18 C1.66 18 2.32 18 3 18 C3 24.27 3 30.54 3 37 C2.01 37 1.02 37 0 37 C0 24.79 0 12.58 0 0 Z " fill="#F5F2F2" transform="translate(137,35)"/>
<path d="M0 0 C0.66 0.33 1.32 0.66 2 1 C0.6549765 5.40189509 -1.12742263 7.51048598 -5 10 C-6.32 10 -7.64 10 -9 10 C-7.61811547 6.78956118 -6.07578097 4.95063635 -3.375 2.75 C-2.74335937 2.22921875 -2.11171875 1.7084375 -1.4609375 1.171875 C-0.73777344 0.59179688 -0.73777344 0.59179688 0 0 Z " fill="#E6E1E3" transform="translate(83,83)"/>
<path d="M0 0 C0.66 0.33 1.32 0.66 2 1 C1.34 2.65 0.68 4.3 0 6 C-0.66 5.34 -1.32 4.68 -2 4 C-2.99 4 -3.98 4 -5 4 C-3.35 2.68 -1.7 1.36 0 0 Z " fill="#E9DBD4" transform="translate(83,83)"/>
</svg>
