<?xml version="1.0" standalone="no"?>
<!DOCTYPE svg PUBLIC "-//W3C//DTD SVG 20010904//EN"
 "http://www.w3.org/TR/2001/REC-SVG-20010904/DTD/svg10.dtd">
<svg version="1.0" xmlns="http://www.w3.org/2000/svg"
 width="600.000000pt" height="373.000000pt" viewBox="0 0 600.000000 373.000000"
 preserveAspectRatio="xMidYMid meet">

<g transform="translate(0.000000,373.000000) scale(0.100000,-0.100000)"
fill="#000000" stroke="none">
<path d="M978 3503 c7 -3 16 -2 19 1 4 3 -2 6 -13 5 -11 0 -14 -3 -6 -6z"/>
<path d="M880 3491 c-81 -25 -120 -72 -105 -128 l7 -28 10 25 c10 24 10 24 18
5 8 -20 9 -19 9 1 1 27 38 74 58 74 12 0 13 3 4 14 -9 11 -4 17 26 29 39 16
19 22 -27 8z"/>
<path d="M1408 3108 c-3 -80 -8 -101 -31 -140 -15 -25 -44 -57 -64 -70 -36
-22 -50 -23 -245 -28 -226 -5 -233 -7 -282 -74 -19 -25 -21 -44 -24 -211 -4
-204 1 -223 60 -268 107 -81 337 -86 465 -11 58 34 73 67 73 158 l0 75 -147 3
c-131 3 -148 5 -151 21 -3 16 14 17 240 17 288 0 296 2 340 90 50 100 61 213
33 343 -28 135 -72 177 -191 185 l-72 4 -4 -94z m-130 -661 c17 -13 15 -62 -4
-81 -19 -19 -54 -21 -78 -3 -26 19 -18 78 13 93 24 12 45 9 69 -9z"/>
<path d="M625 3183 c-11 -2 -30 -6 -42 -9 -42 -8 -92 -63 -108 -117 -8 -28
-15 -62 -15 -76 1 -24 2 -24 16 8 8 19 29 50 47 69 87 94 118 121 139 125 18
3 19 4 3 4 -11 1 -29 -1 -40 -4z"/>
</g>
</svg>
