<?xml version="1.0" encoding="UTF-8"?>
<svg version="1.1" xmlns="http://www.w3.org/2000/svg" width="766" height="854">
<path d="M0 0 C252.78 0 505.56 0 766 0 C766 281.82 766 563.64 766 854 C513.22 854 260.44 854 0 854 C0 572.18 0 290.36 0 0 Z " fill="#FEFEFE" transform="translate(0,0)"/>
<path d="M0 0 C24.75 0 49.5 0 75 0 C75 135.63 75 271.26 75 411 C50.25 411 25.5 411 0 411 C0 275.37 0 139.74 0 0 Z " fill="#455581" transform="translate(253,74)"/>
<path d="M0 0 C24.75 0 49.5 0 75 0 C75 116.49 75 232.98 75 353 C50.25 353 25.5 353 0 353 C0 236.51 0 120.02 0 0 Z " fill="#455581" transform="translate(439,132)"/>
<path d="M0 0 C24.75 0 49.5 0 75 0 C75 97.02 75 194.04 75 294 C50.25 294 25.5 294 0 294 C0 196.98 0 99.96 0 0 Z " fill="#455581" transform="translate(346,191)"/>
<path d="M0 0 C12.07200367 9.59618734 18.68667582 24.0023639 21.45703125 38.953125 C21.71286987 40.05418579 21.71286987 40.05418579 21.97387695 41.17749023 C22.89236978 46.45406678 22.68265638 51.83488988 22.69726562 57.17822266 C22.70684538 59.28720505 22.73784308 61.39515739 22.76953125 63.50390625 C22.91198624 81.69639568 19.22912501 99.55951456 7.45703125 113.953125 C6.59851563 115.01660156 6.59851563 115.01660156 5.72265625 116.1015625 C-1.53071788 124.19186441 -13.36761999 130.23812789 -24.21166992 131.18652344 C-42.59435974 132.03267026 -57.25775933 130.73717682 -71.54296875 117.953125 C-72.88743787 116.2954283 -74.22280518 114.63024267 -75.54296875 112.953125 C-76.20296875 112.623125 -76.86296875 112.293125 -77.54296875 111.953125 C-77.32980515 112.87047173 -77.32980515 112.87047173 -77.11233521 113.80635071 C-75.3753927 122.11017647 -75.28455195 130.24508188 -75.34765625 138.68359375 C-75.35139559 140.17002673 -75.3542382 141.65646221 -75.35623169 143.14289856 C-75.36379573 147.01770064 -75.38338024 150.89234804 -75.40563965 154.76708984 C-75.42625568 158.73598133 -75.43526678 162.7048983 -75.4453125 166.67382812 C-75.46663451 174.43367177 -75.50175578 182.19335683 -75.54296875 189.953125 C-82.80296875 189.953125 -90.06296875 189.953125 -97.54296875 189.953125 C-97.54296875 124.943125 -97.54296875 59.933125 -97.54296875 -7.046875 C-91.60296875 -7.046875 -85.66296875 -7.046875 -79.54296875 -7.046875 C-77.40011161 6.21205357 -77.40011161 6.21205357 -77.54296875 10.953125 C-76.90359375 10.293125 -76.26421875 9.633125 -75.60546875 8.953125 C-74.58789767 7.94980561 -73.56653723 6.95032521 -72.54296875 5.953125 C-71.89972656 5.31375 -71.25648437 4.674375 -70.59375 4.015625 C-52.22153347 -13.40004884 -20.54512209 -14.31841598 0 0 Z " fill="#485783" transform="translate(163.54296875,596.046875)"/>
<path d="M0 0 C14.37407348 12.00733156 22.35882099 27.38882412 25 46 C25.28706391 50.04629938 25.33436747 54.06952063 25.3125 58.125 C25.30686035 59.22376465 25.3012207 60.3225293 25.29541016 61.45458984 C24.98870786 82.14333003 19.84729231 101.52690067 4.5859375 116.34375 C-7.50490147 126.63055903 -21.86975424 130.54760394 -37.5 130.375 C-39.07587891 130.39240234 -39.07587891 130.39240234 -40.68359375 130.41015625 C-56.05399268 130.35315848 -69.61581914 125.02181916 -80.75 114.3515625 C-97.55385036 96.78920501 -100.52908801 76.30876356 -100.08886719 52.91210938 C-99.55223355 35.32703793 -94.02510267 18.23930502 -81.8125 5.1875 C-61.09743422 -14.25713585 -23.14704152 -16.77321849 0 0 Z " fill="#465582" transform="translate(379,597)"/>
<path d="M0 0 C24.42 0 48.84 0 74 0 C74 58.08 74 116.16 74 176 C49.58 176 25.16 176 0 176 C0 117.92 0 59.84 0 0 Z " fill="#445481" transform="translate(533,309)"/>
<path d="M0 0 C24.42 0 48.84 0 74 0 C74 38.61 74 77.22 74 117 C49.58 117 25.16 117 0 117 C0 78.39 0 39.78 0 0 Z " fill="#445481" transform="translate(160,368)"/>
<path d="M0 0 C7.59 0 15.18 0 23 0 C56.53935917 86.5105027 56.53935917 86.5105027 65 113 C65.2587793 112.16718506 65.51755859 111.33437012 65.78417969 110.47631836 C74.22831434 83.48589227 83.7994954 56.94645225 93.56820679 30.4105072 C96.44032564 22.58834378 99.22300754 14.73811947 101.9165802 6.85264587 C103.89557201 1.10442799 103.89557201 1.10442799 105 0 C106.63472882 -0.08700342 108.27314055 -0.10701063 109.91015625 -0.09765625 C110.89951172 -0.09443359 111.88886719 -0.09121094 112.90820312 -0.08789062 C113.94912109 -0.07951172 114.99003906 -0.07113281 116.0625 -0.0625 C117.62967773 -0.05573242 117.62967773 -0.05573242 119.22851562 -0.04882812 C121.8190666 -0.03699913 124.40950559 -0.02051689 127 0 C126.35481296 5.20636546 124.76248073 9.7093907 122.88671875 14.56640625 C122.56548538 15.4118248 122.24425201 16.25724335 121.9132843 17.12828064 C120.84307041 19.94163886 119.76518229 22.75199509 118.6875 25.5625 C117.92451251 27.56486891 117.1621564 29.5674785 116.40039062 31.5703125 C114.77727538 35.83688384 113.15175108 40.10252675 111.52490234 44.36767578 C107.74385518 54.28951942 104.00259354 64.22637151 100.2583313 74.16213989 C98.99741756 77.5068502 97.73515691 80.85104895 96.47241211 84.19506836 C92.77504147 93.98689199 89.08024148 103.77962281 85.40368652 113.57928467 C83.88057583 117.63813059 82.35473456 121.69594736 80.82861328 125.75366211 C80.12574925 127.62473134 79.42418693 129.49629022 78.72412109 131.3684082 C75.20191226 140.78663885 71.58871739 150.15224654 67.69921875 159.42578125 C67.37213928 160.20704376 67.04505981 160.98830627 66.70806885 161.79324341 C61.52066312 174.01657773 53.79309026 187.56448669 41 193 C27.39579373 197.66826104 16.12635923 197.43034137 2 195 C2 189.39 2 183.78 2 178 C3.54429687 178.05800781 5.08859375 178.11601563 6.6796875 178.17578125 C8.74476119 178.22271474 10.8098679 178.26821101 12.875 178.3125 C13.88820313 178.35439453 14.90140625 178.39628906 15.9453125 178.43945312 C25.02586101 178.58497474 31.98751697 176.11622717 38.625 169.8125 C43.94130187 163.22381308 46.86224954 154.78550003 50 147 C50.29712891 146.29617188 50.59425781 145.59234375 50.90039062 144.8671875 C51.17560547 144.18914062 51.45082031 143.51109375 51.734375 142.8125 C51.97897461 142.22082031 52.22357422 141.62914062 52.47558594 141.01953125 C54.0486579 134.96159303 52.25715618 130.35071514 49.93164062 124.83935547 C49.60486832 124.04100407 49.27809601 123.24265266 48.94142151 122.4201088 C47.85580674 119.77347401 46.75586321 117.13303326 45.65625 114.4921875 C44.88461412 112.6166812 44.11416965 110.74068433 43.34484863 108.86422729 C41.72449926 104.91369458 40.09968407 100.96504125 38.47216797 97.01745605 C34.8920374 88.31947113 31.38089633 79.59373128 27.86962891 70.86777496 C26.71925562 68.00906898 25.5678083 65.15079795 24.41601562 62.29266357 C22.88316349 58.48891506 21.35081358 54.68496489 19.81884766 50.88085938 C18.24569893 46.97502176 16.6710304 43.06980149 15.09521484 39.16503906 C13.14760136 34.33892811 11.20252186 29.51180348 9.2592926 24.68392563 C8.52976147 22.87265964 7.79933766 21.06175291 7.06797791 19.25122452 C6.06175426 16.75976787 5.05879625 14.26702097 4.05664062 11.77392578 C3.75966782 11.04077652 3.46269501 10.30762726 3.15672302 9.55226135 C1.88118967 6.37011588 0.83382246 3.33528984 0 0 Z " fill="#465582" transform="translate(571,589)"/>
<path d="M0 0 C11.16295521 7.90785954 15.28426444 19.36801189 17.55859375 32.4921875 C17.77855702 36.6774046 17.74373293 40.86423745 17.74609375 45.0546875 C17.75833984 46.17166016 17.77058594 47.28863281 17.78320312 48.43945312 C17.80173307 59.09417189 17.00054044 69.1850251 11.99609375 78.7421875 C11.64458252 79.4218457 11.29307129 80.10150391 10.9309082 80.80175781 C6.01118414 89.84458615 -0.17166769 94.65069876 -9.9609375 97.80078125 C-10.77949219 98.02894531 -11.59804688 98.25710938 -12.44140625 98.4921875 C-13.07433594 98.68296875 -13.70726562 98.87375 -14.359375 99.0703125 C-24.859353 101.19788778 -35.49987899 99.45542435 -44.75390625 94.171875 C-55.36550304 86.81610904 -60.46600614 75.37764442 -62.8984375 63.02734375 C-65.42796988 45.10320277 -65.52967196 24.27332207 -55.1953125 8.70703125 C-42.00907649 -7.94462981 -18.05161952 -11.14868021 0 0 Z " fill="#FDFEFE" transform="translate(364.44140625,610.5078125)"/>
<path d="M0 0 C0.87624023 0.00829834 1.75248047 0.01659668 2.65527344 0.02514648 C12.42916494 0.27973153 20.16193254 2.50314432 27.34375 9.390625 C41.38483361 25.52555442 40.35323401 47.31722685 39.125 67.4375 C37.5086595 79.46695568 32.44322195 90.45045261 23.125 98.4375 C14.06690325 105.14792588 5.21491024 106.27926427 -5.875 105.4375 C-14.67949267 103.94500053 -23.30441003 99.50580325 -28.75390625 92.24609375 C-36.42644779 79.86843963 -37.23293168 66.88245769 -37.19067383 52.66503906 C-37.18750393 50.44026034 -37.21110405 48.21680409 -37.23632812 45.9921875 C-37.29702867 32.50289621 -35.64236809 18.43891308 -25.80078125 8.30078125 C-18.04695793 1.8460278 -9.9460357 -0.12187828 0 0 Z " fill="#FDFEFE" transform="translate(124.875,604.5625)"/>
<path d="M0 0 C4.29 0 8.58 0 13 0 C13 10.23 13 20.46 13 31 C25.87 31 38.74 31 52 31 C52 36.28 52 41.56 52 47 C39.13 47 26.26 47 13 47 C13.0618514 62.01678558 13.0618514 62.01678558 13.16015625 77.03320312 C13.20837011 83.1644716 13.25246024 89.29556255 13.27099609 95.42700195 C13.28622267 100.37445903 13.32077405 105.32144934 13.36830902 110.26869774 C13.38306116 112.14913038 13.39103745 114.02962969 13.39188385 115.91012001 C12.98292475 131.71625347 12.98292475 131.71625347 19.41143799 145.68818665 C26.43607048 152.01430326 34.1024249 151.33739451 43 151 C46.35351458 150.75360229 49.66054085 150.40478293 53 150 C53 155.28 53 160.56 53 166 C45.79677361 168.88129056 39.40409293 169.20644897 31.75 169.25 C30.41388672 169.2809375 30.41388672 169.2809375 29.05078125 169.3125 C18.84294976 169.37176172 9.77921818 166.793751 2 160 C-9.04270171 147.82597473 -8.55886721 132.18424934 -8.390625 116.82421875 C-8.38314948 114.80256209 -8.37746276 112.78089811 -8.37347412 110.75923157 C-8.35832092 105.48035091 -8.31912985 100.20192197 -8.2746582 94.92321777 C-8.23348105 89.51983752 -8.21541551 84.11638311 -8.1953125 78.71289062 C-8.15262399 68.14169835 -8.0823604 57.57095769 -8 47 C-14.27 47 -20.54 47 -27 47 C-27 43.7 -27 40.4 -27 37 C-14.51480638 30.48063781 -14.51480638 30.48063781 -8 29 C-7.73445313 27.73285156 -7.46890625 26.46570313 -7.1953125 25.16015625 C-6.01234377 19.83679698 -4.47316341 14.64873619 -2.875 9.4375 C-2.59785156 8.52419922 -2.32070313 7.61089844 -2.03515625 6.66992188 C-1.35974125 4.44571041 -0.68029469 2.22272383 0 0 Z " fill="#455481" transform="translate(448,558)"/>
<path d="M0 0 C24.75 0 49.5 0 75 0 C75 19.47 75 38.94 75 59 C50.25 59 25.5 59 0 59 C0 39.53 0 20.06 0 0 Z " fill="#465682" transform="translate(66,426)"/>
<path d="M0 0 C24.42 0 48.84 0 74 0 C74 19.47 74 38.94 74 59 C49.58 59 25.16 59 0 59 C0 39.53 0 20.06 0 0 Z " fill="#445481" transform="translate(626,426)"/>
<path d="M0 0 C6.93 0 13.86 0 21 0 C21 63.69 21 127.38 21 193 C14.07 193 7.14 193 0 193 C0 129.31 0 65.62 0 0 Z " fill="#455785" transform="translate(529,532)"/>
<path d="M0 0 C6.93 0 13.86 0 21 0 C21 63.69 21 127.38 21 193 C14.07 193 7.14 193 0 193 C0 129.31 0 65.62 0 0 Z " fill="#455785" transform="translate(223,532)"/>
</svg>
