<?xml version="1.0" standalone="no"?>
<!DOCTYPE svg PUBLIC "-//W3C//DTD SVG 20010904//EN"
 "http://www.w3.org/TR/2001/REC-SVG-20010904/DTD/svg10.dtd">
<svg version="1.0" xmlns="http://www.w3.org/2000/svg"
 width="766.000000pt" height="854.000000pt" viewBox="0 0 766.000000 854.000000"
 preserveAspectRatio="xMidYMid meet">

<g transform="translate(0.000000,854.000000) scale(0.100000,-0.100000)"
fill="#000000" stroke="none">
<path d="M2530 5745 l0 -2055 370 0 370 0 0 2055 0 2055 -370 0 -370 0 0
-2055z"/>
<path d="M4400 5450 l0 -1760 370 0 370 0 0 1760 0 1760 -370 0 -370 0 0
-1760z"/>
<path d="M3460 5155 l0 -1465 370 0 370 0 0 1465 0 1465 -370 0 -370 0 0
-1465z"/>
<path d="M5330 4570 l0 -880 370 0 370 0 0 880 0 880 -370 0 -370 0 0 -880z"/>
<path d="M1600 4275 l0 -585 370 0 370 0 0 585 0 585 -370 0 -370 0 0 -585z"/>
<path d="M670 3985 l0 -295 370 0 370 0 0 295 0 295 -370 0 -370 0 0 -295z"/>
<path d="M6260 3985 l0 -295 370 0 370 0 0 295 0 295 -370 0 -370 0 0 -295z"/>
<path d="M2230 2255 l0 -965 100 0 100 0 0 965 0 965 -100 0 -100 0 0 -965z"/>
<path d="M5290 2255 l0 -965 100 0 100 0 0 965 0 965 -100 0 -100 0 0 -965z"/>
<path d="M4485 2948 c-3 -7 -22 -71 -43 -143 l-38 -130 -94 -42 -95 -43 -3
-50 -3 -50 95 0 95 0 3 -462 c4 -452 4 -465 27 -532 30 -91 108 -173 191 -202
68 -23 292 -27 353 -6 l37 14 0 80 c0 79 0 80 -22 74 -48 -15 -195 -19 -232
-6 -49 16 -92 54 -119 104 -22 40 -22 49 -25 489 l-3 447 196 0 195 0 0 80 0
80 -195 0 -195 0 0 155 0 155 -60 0 c-39 0 -62 -4 -65 -12z"/>
<path d="M1147 2655 c-87 -24 -159 -66 -223 -132 l-61 -63 -14 95 -13 95 -83
0 -83 0 0 -982 0 -983 101 3 100 3 -3 389 -3 389 53 -53 c99 -100 219 -146
380 -146 166 0 276 42 378 144 113 113 171 274 181 503 18 401 -127 665 -404
737 -74 19 -238 20 -306 1z m272 -191 c152 -68 224 -225 224 -489 0 -261 -75
-430 -221 -502 -50 -24 -68 -28 -152 -28 -214 0 -333 95 -374 300 -48 237 -18
515 68 628 90 118 302 160 455 91z"/>
<path d="M3234 2650 c-249 -65 -398 -254 -435 -551 -50 -409 133 -738 453
-814 144 -34 353 -11 471 52 77 41 196 165 234 243 81 166 103 406 57 615 -27
119 -86 230 -168 310 -83 82 -145 118 -252 145 -102 26 -261 26 -360 0z m268
-161 c165 -35 264 -141 303 -326 19 -88 19 -298 0 -386 -46 -217 -184 -337
-390 -337 -159 0 -289 80 -351 215 -38 82 -54 176 -54 321 0 201 35 317 126
414 83 89 228 128 366 99z"/>
<path d="M5720 2638 c0 -7 121 -314 269 -682 l269 -670 -25 -65 c-61 -162 -87
-213 -134 -265 -66 -73 -127 -98 -232 -98 -44 1 -92 4 -108 7 l-29 7 0 -85 0
-85 65 -7 c36 -4 107 -5 158 -3 104 4 178 32 253 93 53 44 124 149 165 245 38
90 609 1601 609 1612 0 4 -49 8 -109 8 l-108 0 -138 -382 c-76 -211 -167 -473
-204 -582 -62 -188 -66 -198 -75 -165 -30 113 -126 384 -259 729 l-152 395
-107 3 c-83 2 -108 0 -108 -10z"/>
</g>
</svg>
