<?xml version="1.0" standalone="no"?>
<!DOCTYPE svg PUBLIC "-//W3C//DTD SVG 20010904//EN"
 "http://www.w3.org/TR/2001/REC-SVG-20010904/DTD/svg10.dtd">
<svg version="1.0" xmlns="http://www.w3.org/2000/svg"
 width="800.000000pt" height="400.000000pt" viewBox="0 0 800.000000 400.000000"
 preserveAspectRatio="xMidYMid meet">

<g transform="translate(0.000000,400.000000) scale(0.100000,-0.100000)"
fill="#000000" stroke="none">
<path d="M540 3805 c0 -20 -5 -25 -25 -25 -14 0 -25 -4 -25 -10 0 -5 11 -10
25 -10 l25 0 0 -190 0 -190 -25 0 c-14 0 -25 -4 -25 -10 0 -5 11 -10 25 -10
l25 0 0 -190 0 -190 -25 0 c-14 0 -25 -4 -25 -10 0 -5 11 -10 25 -10 l25 0 3
-182 c1 -101 3 95 5 435 1 339 0 617 -3 617 -3 0 -5 -11 -5 -25z"/>
<path d="M2450 3805 c0 -20 -5 -25 -25 -25 -14 0 -25 -4 -25 -10 0 -5 11 -10
25 -10 l25 0 0 -190 0 -190 -25 0 c-14 0 -25 -4 -25 -10 0 -5 11 -10 25 -10
l25 0 0 -190 c0 -181 -1 -190 -19 -190 -11 0 -23 -4 -26 -10 -3 -6 5 -10 19
-10 23 0 25 -4 29 -47 2 -27 4 169 5 435 1 265 0 482 -3 482 -3 0 -5 -11 -5
-25z"/>
<path d="M4380 3805 c0 -20 -5 -25 -25 -25 -14 0 -25 -4 -25 -10 0 -5 11 -10
25 -10 l25 0 0 -190 0 -190 -25 0 c-14 0 -25 -4 -25 -10 0 -5 11 -10 25 -10
l25 0 0 -188 c0 -186 0 -189 -22 -200 l-23 -11 22 0 c21 -1 22 -6 26 -98 1
-54 4 142 5 435 1 292 0 532 -3 532 -3 0 -5 -11 -5 -25z"/>
<path d="M6290 3805 c0 -20 -5 -25 -25 -25 -14 0 -25 -4 -25 -10 0 -5 11 -10
25 -10 l25 0 0 -190 0 -190 -25 0 c-14 0 -25 -4 -25 -10 0 -5 11 -10 25 -10
l25 0 0 -190 0 -190 -25 0 c-14 0 -25 -4 -25 -10 0 -5 11 -10 25 -10 23 0 24
-2 28 -82 1 -46 4 150 5 435 1 284 0 517 -3 517 -3 0 -5 -11 -5 -25z"/>
<path d="M384 3797 c-10 -26 0 -72 16 -73 8 0 10 1 3 3 -13 5 -15 73 -3 73 4
0 10 -14 14 -32 3 -17 8 -29 11 -27 8 9 -11 63 -23 67 -7 2 -15 -3 -18 -11z"/>
<path d="M942 3710 c0 -14 2 -19 5 -12 2 6 2 18 0 25 -3 6 -5 1 -5 -13z"/>
<path d="M932 3650 c0 -19 2 -27 5 -17 2 9 2 25 0 35 -3 9 -5 1 -5 -18z"/>
<path d="M923 3575 c0 -22 2 -30 4 -17 2 12 2 30 0 40 -3 9 -5 -1 -4 -23z"/>
<path d="M913 3485 c0 -22 2 -30 4 -17 2 12 2 30 0 40 -3 9 -5 -1 -4 -23z"/>
<path d="M902 3410 c0 -14 2 -19 5 -12 2 6 2 18 0 25 -3 6 -5 1 -5 -13z"/>
<path d="M393 3403 c13 -3 16 -10 11 -21 -3 -10 -8 -28 -10 -42 l-4 -25 9 26
c4 14 14 35 20 47 11 20 10 22 -16 21 -18 -1 -22 -3 -10 -6z"/>
<path d="M210 3339 c0 -5 5 -7 10 -4 6 3 10 8 10 11 0 2 -4 4 -10 4 -5 0 -10
-5 -10 -11z"/>
<path d="M200 3309 c-10 -6 0 -9 34 -9 54 0 57 4 11 13 -17 3 -37 2 -45 -4z"/>
<path d="M230 3281 c-25 -3 -40 -9 -35 -12 14 -9 85 1 85 12 0 5 -1 8 -2 7 -2
0 -23 -4 -48 -7z"/>
<path d="M258 3233 c17 -7 15 -32 -3 -39 -8 -4 -23 0 -33 7 -16 12 -15 11 1
-6 14 -15 21 -17 35 -9 25 16 29 54 5 53 -10 0 -13 -3 -5 -6z"/>
<path d="M297 3219 c4 -13 8 -18 11 -10 2 7 -1 18 -6 23 -8 8 -9 4 -5 -13z"/>
<path d="M1031 3204 c0 -11 3 -14 6 -6 3 7 2 16 -1 19 -3 4 -6 -2 -5 -13z"/>
<path d="M217 3163 c-4 -3 -7 -11 -7 -17 0 -7 3 -7 8 1 4 6 21 13 37 16 l30 4
-31 2 c-17 0 -34 -2 -37 -6z"/>
<path d="M1042 3120 c0 -14 2 -19 5 -12 2 6 2 18 0 25 -3 6 -5 1 -5 -13z"/>
<path d="M215 3120 c3 -5 8 -10 11 -10 2 0 4 5 4 10 0 6 -5 10 -11 10 -5 0 -7
-4 -4 -10z"/>
<path d="M215 3080 c-3 -6 1 -7 9 -4 11 4 16 0 16 -11 0 -12 -5 -15 -17 -11
-17 7 -17 6 -1 -10 18 -19 45 -13 55 11 3 9 1 21 -5 27 -8 8 -9 5 -6 -9 3 -12
1 -24 -5 -27 -7 -5 -11 3 -11 18 0 26 -23 36 -35 16z"/>
<path d="M1052 3055 c0 -16 2 -22 5 -12 2 9 2 23 0 30 -3 6 -5 -1 -5 -18z"/>
<path d="M213 3013 c15 -2 37 -2 50 0 12 2 0 4 -28 4 -27 0 -38 -2 -22 -4z"/>
<path d="M1062 2995 c0 -16 2 -22 5 -12 2 9 2 23 0 30 -3 6 -5 -1 -5 -18z"/>
<path d="M385 2999 c-4 -6 -4 -13 -1 -16 3 -4 6 -1 6 6 0 8 6 11 16 7 8 -3 12
-2 9 4 -8 13 -22 13 -30 -1z"/>
<path d="M303 2955 c0 -22 2 -30 4 -17 2 12 2 30 0 40 -3 9 -5 -1 -4 -23z"/>
<path d="M370 2962 c0 -16 28 -47 36 -39 4 4 2 7 -4 7 -7 0 -12 9 -12 20 0 11
-4 20 -10 20 -5 0 -10 -4 -10 -8z"/>
<path d="M416 2957 c3 -10 9 -15 12 -12 3 3 0 11 -7 18 -10 9 -11 8 -5 -6z"/>
<path d="M1072 2940 c0 -14 2 -19 5 -12 2 6 2 18 0 25 -3 6 -5 1 -5 -13z"/>
<path d="M203 2903 c15 -2 39 -2 55 0 15 2 2 4 -28 4 -30 0 -43 -2 -27 -4z"/>
<path d="M4516 2894 c-7 -19 1 -34 19 -34 8 0 16 4 19 9 9 14 -4 41 -19 41 -7
0 -16 -7 -19 -16z"/>
<path d="M6453 2894 c-8 -21 13 -42 28 -27 13 13 5 43 -11 43 -6 0 -13 -7 -17
-16z"/>
<path d="M211 2858 c1 -17 2 -19 6 -5 6 24 21 21 25 -5 4 -33 32 -29 36 5 3
25 1 27 -32 27 -31 0 -36 -3 -35 -22z m59 -8 c0 -11 -4 -20 -10 -20 -5 0 -10
9 -10 20 0 11 5 20 10 20 6 0 10 -9 10 -20z"/>
<path d="M223 2803 c-7 -2 -13 -16 -13 -29 0 -22 3 -24 53 -23 28 1 44 3 35 6
-10 2 -18 11 -18 18 0 8 -4 17 -10 20 -6 3 -7 -1 -4 -9 8 -20 -23 -33 -39 -17
-9 10 -8 16 7 27 19 14 13 17 -11 7z"/>
<path d="M228 2723 c6 -2 12 -13 12 -23 0 -10 -6 -21 -12 -23 -8 -4 -7 -6 4
-6 21 -1 13 -38 -11 -44 -13 -4 -13 -5 2 -6 11 -1 21 7 24 19 3 11 10 20 15
20 6 0 8 -9 5 -20 -3 -11 -1 -20 3 -20 10 0 8 95 -2 105 -4 4 -4 -2 -1 -13 2
-11 0 -23 -6 -26 -7 -5 -11 3 -11 18 0 18 -5 26 -17 25 -11 0 -13 -3 -5 -6z"/>
<path d="M3698 2448 c-2 -150 -2 -441 0 -645 l2 -373 69 0 c60 0 69 3 74 19 5
19 8 19 78 -11 66 -28 85 -32 174 -32 88 -1 107 2 158 26 169 79 269 285 252
523 -11 159 -43 251 -118 332 -66 71 -125 97 -227 97 -100 1 -159 -17 -245
-73 l-60 -40 -3 225 -2 224 -75 0 -74 0 -3 -272z m518 -227 c49 -22 85 -67
110 -136 14 -39 18 -80 18 -185 0 -118 -3 -143 -23 -194 -47 -119 -138 -173
-280 -164 -43 3 -101 15 -133 27 l-58 22 0 274 0 273 53 33 c111 68 231 87
313 50z"/>
<path d="M982 2380 c-162 -34 -262 -139 -262 -274 0 -152 85 -226 310 -271
191 -38 232 -60 246 -129 18 -97 -52 -157 -191 -164 -102 -5 -183 15 -292 73
l-83 44 0 -85 0 -85 45 -19 c158 -68 369 -76 499 -21 59 26 134 95 157 146 45
97 11 243 -69 298 -51 36 -78 45 -230 78 -164 35 -212 59 -231 116 -33 93 37
162 173 171 91 6 176 -16 273 -68 l73 -39 0 83 0 83 -37 17 c-97 43 -286 66
-381 46z"/>
<path d="M1942 2379 c-151 -29 -272 -143 -321 -303 -25 -81 -29 -261 -7 -341
40 -152 149 -261 306 -306 26 -8 96 -13 165 -13 110 0 128 3 220 35 l100 34 5
45 c3 25 3 64 2 87 l-4 41 -35 -23 c-82 -56 -212 -89 -324 -83 -167 10 -276
110 -295 271 l-7 57 343 0 343 0 -5 113 c-6 137 -29 204 -95 277 -90 100 -234
140 -391 109z m183 -130 c22 -6 55 -22 74 -36 41 -32 81 -114 81 -170 l0 -43
-265 0 c-146 0 -265 4 -265 8 0 26 32 109 55 142 30 43 87 84 136 99 47 13
136 13 184 0z"/>
<path d="M2855 2380 c-33 -6 -84 -15 -112 -21 l-53 -10 0 -80 c0 -43 2 -79 3
-79 2 0 28 8 58 18 143 50 325 55 407 13 48 -24 81 -81 82 -138 l0 -31 -67 -7
c-182 -16 -268 -28 -316 -42 -172 -51 -246 -141 -247 -298 0 -95 25 -160 85
-220 63 -62 114 -80 225 -79 109 1 175 22 256 79 27 19 52 35 56 35 5 0 8 -20
8 -45 l0 -45 76 0 75 0 -3 373 -3 372 -30 55 c-36 65 -96 114 -168 135 -64 19
-250 27 -332 15z m385 -595 l0 -135 -62 -40 c-74 -49 -142 -70 -220 -70 -105
0 -169 41 -188 120 -22 91 19 170 107 208 59 25 194 46 316 50 l47 2 0 -135z"/>
<path d="M5005 2376 c-138 -34 -232 -123 -287 -272 -19 -51 -22 -79 -22 -209
0 -166 13 -220 75 -316 135 -211 462 -241 638 -60 177 182 175 578 -4 756 -97
97 -255 137 -400 101z m197 -138 c60 -18 123 -79 149 -146 20 -49 23 -76 24
-192 0 -153 -14 -209 -67 -274 -42 -51 -117 -86 -187 -86 -82 0 -130 19 -183
71 -70 70 -92 150 -86 312 4 98 9 132 27 173 27 62 83 118 136 138 49 18 135
20 187 4z"/>
<path d="M6888 2380 c-47 -12 -141 -59 -188 -95 l-35 -26 -3 51 -3 50 -75 0
-74 0 0 -465 0 -465 75 0 75 0 0 349 0 349 50 32 c123 79 239 100 328 60 34
-15 48 -29 65 -67 21 -46 22 -62 25 -385 l3 -338 75 0 75 0 -3 368 c-3 358 -4
368 -26 416 -35 76 -67 112 -126 141 -61 30 -173 41 -238 25z"/>
<path d="M5788 2268 c-2 -51 -2 -261 0 -465 l2 -373 75 0 75 0 0 335 0 335 62
41 c85 55 153 73 248 66 41 -3 83 -8 93 -12 15 -6 17 1 17 73 l0 81 -46 7
c-102 15 -212 -17 -315 -91 -27 -19 -51 -35 -54 -35 -3 0 -5 29 -5 65 l0 65
-74 0 -75 0 -3 -92z"/>
<path d="M7810 2181 c51 -6 55 -8 61 -36 6 -28 7 -28 8 -4 0 14 6 30 13 37 9
9 -5 12 -62 10 -74 -1 -75 -1 -20 -7z"/>
<path d="M273 1553 c9 -2 25 -2 35 0 9 3 1 5 -18 5 -19 0 -27 -2 -17 -5z"/>
<path d="M107 1403 c-10 -10 -8 -43 2 -43 5 0 7 9 4 19 -4 16 1 20 29 24 l33
4 -31 1 c-17 1 -34 -1 -37 -5z"/>
<path d="M88 1329 c-7 -4 -6 -8 2 -11 17 -5 80 3 80 11 0 8 -69 8 -82 0z"/>
<path d="M285 1300 c-3 -6 1 -7 9 -4 18 7 21 14 7 14 -6 0 -13 -4 -16 -10z"/>
<path d="M388 1303 c7 -3 16 -2 19 1 4 3 -2 6 -13 5 -11 0 -14 -3 -6 -6z"/>
<path d="M540 1145 l-5 -169 -25 -7 -25 -7 28 -1 27 -1 0 -144 0 -145 -27 -4
-28 -4 28 -2 27 -1 0 -139 0 -140 -32 -4 -33 -4 33 -1 32 -2 0 -55 0 -55 54 0
c54 0 55 0 59 -32 l4 -33 1 33 2 32 300 0 300 0 0 -25 c0 -14 5 -25 10 -25 6
0 10 11 10 25 l0 25 294 0 295 0 4 -33 4 -32 1 32 2 32 138 4 c75 1 -224 4
-665 5 l-803 2 -2 523 c-2 287 -5 446 -8 352z"/>
<path d="M88 1293 c6 -2 12 -14 13 -26 0 -22 0 -22 9 1 5 12 16 22 25 22 9 0
20 -10 25 -22 8 -22 9 -22 9 5 1 26 -1 27 -46 26 -27 0 -42 -3 -35 -6z"/>
<path d="M118 1213 c12 -2 30 -2 40 0 9 3 -1 5 -23 4 -22 0 -30 -2 -17 -4z"/>
<path d="M135 1183 c17 -5 15 -7 -10 -18 l-30 -12 28 -8 c21 -6 25 -10 15 -16
-10 -7 -9 -9 4 -9 29 0 29 18 1 28 -25 9 -25 11 -6 11 12 1 24 5 27 10 6 9
-17 22 -37 20 -7 -1 -3 -4 8 -6z"/>
<path d="M6292 1025 c-2 -33 -3 -126 -2 -207 l1 -147 -28 -4 -28 -4 28 -2 27
-1 0 -139 0 -140 -32 -4 -33 -4 33 -1 32 -2 0 -55 0 -55 39 0 c36 0 40 -3 44
-28 l4 -27 2 28 1 27 240 0 240 0 0 -25 c0 -14 5 -25 10 -25 6 0 10 11 10 25
l0 25 244 0 245 0 4 -27 4 -28 2 28 1 27 244 0 245 0 4 -32 4 -33 1 33 c1 17
8 33 15 34 6 2 -348 5 -788 8 l-800 5 -5 405 c-3 223 -7 378 -8 345z"/>
<path d="M103 1013 c15 -2 37 -2 50 0 12 2 0 4 -28 4 -27 0 -38 -2 -22 -4z"/>
<path d="M4382 995 c-2 -16 -3 -96 -2 -177 l1 -147 -33 -4 -33 -4 33 -1 32 -2
0 -139 0 -140 -32 -4 -33 -4 33 -1 32 -2 0 -55 0 -55 159 0 160 0 4 -28 4 -27
2 28 1 27 205 0 205 0 0 -25 c0 -14 5 -25 10 -25 6 0 10 11 10 25 l0 25 204 0
205 0 4 -28 4 -27 2 28 1 27 204 0 205 0 4 -27 c4 -26 4 -26 6 5 l1 32 -795 0
-795 0 -3 378 c-1 207 -4 364 -5 347z"/>
<path d="M103 975 c-3 -9 -3 -19 1 -22 3 -4 6 1 6 10 0 25 18 20 22 -5 4 -33
32 -29 36 5 3 24 0 27 -28 27 -18 0 -33 -6 -37 -15z m57 -21 c0 -8 -4 -14 -10
-14 -5 0 -10 9 -10 21 0 11 5 17 10 14 6 -3 10 -13 10 -21z"/>
<path d="M372 965 c0 -16 2 -22 5 -12 2 9 2 23 0 30 -3 6 -5 -1 -5 -18z"/>
<path d="M411 963 c-1 -21 -7 -33 -18 -36 -17 -4 -17 -5 0 -6 21 -1 30 18 24
51 -3 18 -5 16 -6 -9z"/>
<path d="M6410 980 c-12 -7 -12 -12 -3 -21 15 -15 26 -7 21 15 -2 11 -7 13
-18 6z"/>
<path d="M6455 980 c-7 -12 2 -30 16 -30 5 0 9 9 9 20 0 21 -15 27 -25 10z"/>
<path d="M6505 980 c-4 -7 -3 -16 3 -22 14 -14 45 -2 40 15 -6 16 -34 21 -43
7z"/>
<path d="M287 929 c7 -7 15 -10 18 -7 3 3 -2 9 -12 12 -14 6 -15 5 -6 -5z"/>
<path d="M762 913 c2 -10 12 -18 23 -18 11 0 21 8 23 18 3 13 -3 17 -23 17
-20 0 -26 -4 -23 -17z"/>
<path d="M2452 803 l-2 -132 -27 -4 -28 -4 28 -2 27 -1 0 -139 0 -140 -27 -4
-28 -4 28 -2 c26 -1 27 -3 27 -56 l0 -55 95 0 c52 0 95 3 95 8 0 4 -38 6 -85
5 -47 -2 -86 -2 -87 0 -1 1 -5 151 -8 332 -3 182 -7 271 -8 198z"/>
<path d="M4562 913 c2 -10 10 -18 18 -18 8 0 16 8 18 18 2 12 -3 17 -18 17
-15 0 -20 -5 -18 -17z"/>
<path d="M6452 913 c2 -10 10 -18 18 -18 8 0 16 8 18 18 2 12 -3 17 -18 17
-15 0 -20 -5 -18 -17z"/>
<path d="M112 908 c-6 -6 -12 -20 -12 -30 0 -15 8 -18 53 -17 28 1 45 3 37 5
-9 3 -20 15 -25 27 -12 26 -35 33 -53 15z m46 -21 c3 -12 -3 -17 -22 -17 -25
0 -35 18 -19 34 12 12 38 2 41 -17z"/>
<path d="M131 818 c0 -14 -7 -29 -13 -31 -8 -3 -6 -6 4 -6 15 -1 16 -5 8 -28
-9 -25 -8 -26 4 -10 7 9 16 17 19 17 3 0 8 -8 10 -17 4 -14 5 -13 6 4 0 12 -5
28 -13 36 -8 7 -16 25 -19 38 -4 23 -4 23 -6 -3z"/>
<path d="M161 814 c0 -11 3 -14 6 -6 3 7 2 16 -1 19 -3 4 -6 -2 -5 -13z"/>
<path d="M100 750 c0 -11 2 -20 4 -20 2 0 6 9 9 20 3 11 1 20 -4 20 -5 0 -9
-9 -9 -20z"/>
<path d="M3092 700 c0 -14 2 -19 5 -12 2 6 2 18 0 25 -3 6 -5 1 -5 -13z"/>
<path d="M381 694 c0 -11 3 -14 6 -6 3 7 2 16 -1 19 -3 4 -6 -2 -5 -13z"/>
<path d="M3581 704 c-1 -15 30 -106 35 -101 2 2 -5 28 -15 58 -11 30 -20 49
-20 43z"/>
<path d="M408 663 c4 -23 2 -25 -18 -20 -16 4 -20 3 -12 -5 6 -6 18 -8 26 -5
17 7 22 42 7 51 -4 3 -6 -6 -3 -21z"/>
<path d="M292 658 c-19 -19 -14 -28 16 -27 l27 1 -25 7 c-24 7 -24 7 -5 19 11
6 15 12 10 12 -6 0 -16 -5 -23 -12z"/>
<path d="M3067 578 c-10 -51 -20 -104 -22 -118 -5 -23 -5 -23 4 -3 12 27 45
203 39 209 -3 2 -12 -38 -21 -88z"/>
<path d="M784 559 c-3 -6 0 -17 8 -25 13 -13 16 -13 27 0 7 8 10 20 6 26 -8
13 -32 13 -41 -1z"/>
<path d="M4534 559 c-3 -6 0 -17 8 -25 13 -13 16 -13 27 0 7 8 10 20 6 26 -8
13 -32 13 -41 -1z"/>
<path d="M6504 559 c-3 -6 0 -17 8 -25 13 -13 16 -13 27 0 7 8 10 20 6 26 -8
13 -32 13 -41 -1z"/>
<path d="M3720 417 c0 -2 15 -16 33 -33 l32 -29 -29 33 c-28 30 -36 37 -36 29z"/>
<path d="M286 401 c-4 -5 3 -7 14 -4 23 6 26 13 6 13 -8 0 -17 -4 -20 -9z"/>
<path d="M374 396 c-11 -28 0 -61 21 -61 16 0 20 7 20 35 0 25 -5 36 -18 38
-9 2 -20 -3 -23 -12z m36 -26 c0 -20 -5 -30 -15 -30 -10 0 -15 10 -15 30 0 20
5 30 15 30 10 0 15 -10 15 -30z"/>
<path d="M303 363 c-27 -19 -30 -33 -5 -32 10 0 12 3 4 6 -8 3 -5 11 10 24 28
22 22 24 -9 2z"/>
<path d="M3906 278 c3 -4 -48 -9 -113 -11 -99 -2 -90 -3 54 -5 l172 -2 4 -27
4 -28 2 27 c0 16 8 28 19 30 9 2 -20 8 -65 14 -45 5 -79 6 -77 2z"/>
<path d="M2720 240 c0 -16 5 -30 10 -30 6 0 10 14 10 30 0 17 -4 30 -10 30 -5
0 -10 -13 -10 -30z"/>
<path d="M3162 240 c0 -19 2 -27 5 -17 2 9 2 25 0 35 -3 9 -5 1 -5 -18z"/>
<path d="M3562 263 c22 -3 28 -10 31 -36 l4 -32 1 32 c2 28 6 32 35 36 17 2 3
4 -33 4 -36 0 -53 -2 -38 -4z"/>
</g>
</svg>
