<?xml version="1.0" encoding="UTF-8"?>
<svg version="1.1" xmlns="http://www.w3.org/2000/svg" width="595" height="350">
<path d="M0 0 C7.26 0 14.52 0 22 0 C22 0.66 22 1.32 22 2 C23.65 2 25.3 2 27 2 C27 2.66 27 3.32 27 4 C29.64 4.33 32.28 4.66 35 5 C35 5.66 35 6.32 35 7 C36.65 7.33 38.3 7.66 40 8 C40 8.66 40 9.32 40 10 C40.66 10 41.32 10 42 10 C42 10.66 42 11.32 42 12 C43.32 12.33 44.64 12.66 46 13 C46 13.66 46 14.32 46 15 C46.66 15 47.32 15 48 15 C48 15.66 48 16.32 48 17 C49.485 17.495 49.485 17.495 51 18 C51 18.66 51 19.32 51 20 C51.66 20 52.32 20 53 20 C53.9765625 21.79036458 54.953125 23.58072917 55.9296875 25.37109375 C56.91410024 27.16618315 56.91410024 27.16618315 59 28 C68.13324723 43.74697797 73.11335192 64.95413929 68.7109375 82.8828125 C67.58316826 86.24133409 65.90304247 89.01856679 64 92 C63.01 92 62.02 92 61 92 C61 92.66 61 93.32 61 94 C53.83491461 94.60721063 53.83491461 94.60721063 50.25 92 C45.49932691 85.66576922 43.06312986 78.5892426 40.625 71.125 C38.39615856 64.49016778 36.03645605 58.50519138 32.06640625 52.6796875 C31 51 31 51 31 49 C30.4225 48.731875 29.845 48.46375 29.25 48.1875 C27 47 27 47 25 45.4375 C22.95556194 43.96806014 21.45477972 43.43835352 19 43 C19 42.34 19 41.68 19 41 C14.05 41 9.1 41 4 41 C4 41.66 4 42.32 4 43 C1.03 43.99 -1.94 44.98 -5 46 C-5 46.66 -5 47.32 -5 48 C-5.61875 48.061875 -6.2375 48.12375 -6.875 48.1875 C-7.57625 48.455625 -8.2775 48.72375 -9 49 C-9.69180328 50.65639079 -10.35512549 52.32478088 -11 54 C-11.90002831 55.34462061 -12.81808377 56.67728019 -13.75 58 C-20.98429949 69.84439231 -23.69692201 85.34306574 -25 99 C-25.10957031 99.96808594 -25.21914063 100.93617187 -25.33203125 101.93359375 C-28.16012222 130.93095313 -26.41434088 161.37601356 -14 188 C-13.67 188.99 -13.34 189.98 -13 191 C-12.34 191 -11.68 191 -11 191 C-10.360625 191.804375 -9.72125 192.60875 -9.0625 193.4375 C-7.18964068 196.23720732 -7.18964068 196.23720732 -4 197 C-4 197.66 -4 198.32 -4 199 C-3.01 199 -2.02 199 -1 199 C-1 199.66 -1 200.32 -1 201 C6.26 201 13.52 201 21 201 C21 200.34 21 199.68 21 199 C21.99 199 22.98 199 24 199 C24 198.34 24 197.68 24 197 C24.61875 196.9175 25.2375 196.835 25.875 196.75 C28.14508868 196.21849807 28.14508868 196.21849807 28.95703125 194.1953125 C29.47330078 193.10863281 29.47330078 193.10863281 30 192 C30.92690156 190.70070691 31.86531085 189.40957843 32.8125 188.125 C37.65912885 180.89034771 40.0401845 172.64637606 42.28125 164.30859375 C42.49579834 163.5105835 42.71034668 162.71257324 42.93139648 161.89038086 C43.34182278 160.33584164 43.74044165 158.77812045 44.12524414 157.21704102 C45.36477499 152.43156466 46.89708262 148.88325502 50 145 C50.66 145 51.32 145 52 145 C52 144.34 52 143.68 52 143 C55.58194103 142.22742448 58.12771306 141.68846895 61.625 142.9375 C66.01173447 146.74703256 69.73046647 152.29677269 70.16113281 158.21386719 C70.53809534 181.40144593 67.11634052 202.32548922 54 222 C53.34 222 52.68 222 52 222 C51.7421875 222.58265625 51.484375 223.1653125 51.21875 223.765625 C49.90165983 226.1802903 48.44911616 227.81740177 46.5 229.75 C45.8915625 230.36359375 45.283125 230.9771875 44.65625 231.609375 C43 233 43 233 41 233 C41 233.66 41 234.32 41 235 C40.01 235 39.02 235 38 235 C38 235.66 38 236.32 38 237 C36.35 237.33 34.7 237.66 33 238 C33 238.66 33 239.32 33 240 C27.63999211 242.25684543 23.8022175 243.36263859 18 243 C18 243.66 18 244.32 18 245 C13.71 245 9.42 245 5 245 C5 244.34 5 243.68 5 243 C3.700625 243.061875 2.40125 243.12375 1.0625 243.1875 C-4.05549789 243.21187142 -8.28068221 241.87433898 -13 240 C-13 239.34 -13 238.68 -13 238 C-14.65 237.67 -16.3 237.34 -18 237 C-18 236.34 -18 235.68 -18 235 C-18.99 235 -19.98 235 -21 235 C-21 234.34 -21 233.68 -21 233 C-21.5775 232.938125 -22.155 232.87625 -22.75 232.8125 C-25.92448483 231.66615826 -27.12848575 229.74043158 -29 227 C-29 226.34 -29 225.68 -29 225 C-29.99 224.67 -30.98 224.34 -32 224 C-52.79449361 196.03221209 -57.22287892 156.21197592 -57.25 122.4375 C-57.25067474 121.67532166 -57.25134949 120.91314331 -57.25204468 120.12786865 C-57.20364369 85.39586462 -52.46292025 48.56403512 -31 20 C-30.34 20 -29.68 20 -29 20 C-28.67 19.01 -28.34 18.02 -28 17 C-27.34 17 -26.68 17 -26 17 C-25.731875 16.360625 -25.46375 15.72125 -25.1875 15.0625 C-24 13 -24 13 -21 12 C-21 11.34 -21 10.68 -21 10 C-18.09451118 7.95830515 -16.59857954 7 -13 7 C-13 6.34 -13 5.68 -13 5 C-9.535 4.505 -9.535 4.505 -6 4 C-6 3.34 -6 2.68 -6 2 C-4.02 2 -2.04 2 0 2 C0 1.34 0 0.68 0 0 Z " fill="#08A2D5" transform="translate(407,20)"/>
<path d="M0 0 C3.3 0 6.6 0 10 0 C10 0.66 10 1.32 10 2 C10.66 2 11.32 2 12 2 C16.29054019 9.24953343 17.59311935 16.81451258 19 25 C19.45890625 24.18015625 19.9178125 23.3603125 20.390625 22.515625 C21.00421875 21.43796875 21.6178125 20.3603125 22.25 19.25 C22.85328125 18.18265625 23.4565625 17.1153125 24.078125 16.015625 C25.84833281 13.23798185 27.49856487 11.12932082 30 9 C30.66 9 31.32 9 32 9 C32.3403125 8.0409375 32.3403125 8.0409375 32.6875 7.0625 C34 5 34 5 36.625 4.25 C37.40875 4.1675 38.1925 4.085 39 4 C39 3.34 39 2.68 39 2 C40.32 2 41.64 2 43 2 C43 1.34 43 0.68 43 0 C48.28 0 53.56 0 59 0 C59 0.66 59 1.32 59 2 C60.32 2 61.64 2 63 2 C63 2.66 63 3.32 63 4 C65.97 4.495 65.97 4.495 69 5 C69 5.66 69 6.32 69 7 C69.66 7 70.32 7 71 7 C71 7.66 71 8.32 71 9 C71.61875 9.061875 72.2375 9.12375 72.875 9.1875 C75 10 75 10 76.25 12.5625 C76.4975 13.366875 76.745 14.17125 77 15 C77.66 15 78.32 15 79 15 C99.23047242 49.93897966 101.47731471 96.50364615 91.7109375 135.2421875 C88.43885106 147.39789335 84.09537302 159.90462698 75 169 C74.34 169 73.68 169 73 169 C73 169.66 73 170.32 73 171 C72.34 171 71.68 171 71 171 C71 171.66 71 172.32 71 173 C69.35 173.33 67.7 173.66 66 174 C66 174.66 66 175.32 66 176 C57.1420319 179.60324126 48.35686703 180.14861391 39 178 C39 177.34 39 176.68 39 176 C38.13375 175.814375 38.13375 175.814375 37.25 175.625 C34.97664233 174.99351176 33.0746471 174.11141809 31 173 C31 172.34 31 171.68 31 171 C30.34 171 29.68 171 29 171 C27.6328125 169.49609375 27.6328125 169.49609375 26.125 167.4375 C25.63257813 166.77621094 25.14015625 166.11492187 24.6328125 165.43359375 C22.58150679 162.3762649 20.81586174 159.20310163 19 156 C18.99191315 156.80020569 18.98382629 157.60041138 18.97549438 158.42486572 C18.89712635 166.01479352 18.80971348 173.60454061 18.71247292 181.1942482 C18.66280649 185.09495837 18.61647739 188.99564526 18.578125 192.89648438 C18.5408931 196.67027407 18.49443816 200.4438536 18.44193649 204.21746063 C18.42359153 205.64770522 18.40841261 207.0779945 18.39665604 208.50830841 C18.19916637 231.7326307 18.19916637 231.7326307 12 242 C8.2781653 243.86091735 4.05280619 243.5680311 0 243 C-4.67636157 239.59015302 -6.3979418 235.92654783 -7.53893852 230.38027096 C-8.08988874 226.34098095 -8.1384084 222.42401533 -8.12698364 218.35316467 C-8.12854363 217.49543109 -8.13010362 216.6376975 -8.13171089 215.75397199 C-8.13569176 212.88682636 -8.13254251 210.0197339 -8.12939453 207.15258789 C-8.13074987 205.09412098 -8.13253055 203.03565432 -8.13470459 200.97718811 C-8.13926338 195.39046867 -8.13749565 189.80376769 -8.1343255 184.21704793 C-8.13179356 178.36934309 -8.13414181 172.52163984 -8.13571167 166.67393494 C-8.13753106 156.85268876 -8.13513322 147.03145011 -8.13037109 137.21020508 C-8.12493043 125.85855699 -8.12669064 114.50692687 -8.1321975 103.15527922 C-8.13673697 93.40735726 -8.13737504 83.65944071 -8.13475883 73.91151804 C-8.13320046 68.09029657 -8.13299023 62.26908355 -8.13629532 56.44786263 C-8.13918607 50.97399875 -8.13717614 45.500158 -8.13140106 40.02629662 C-8.13007987 38.01837324 -8.13045671 36.01044792 -8.13266373 34.00252533 C-8.13540042 31.25959701 -8.13196324 28.5167426 -8.12698364 25.77381897 C-8.12921436 24.98120244 -8.13144509 24.1885859 -8.13374341 23.37195069 C-8.10875338 16.2637638 -7.54551199 10.32026051 -4 4 C-3.34 4 -2.68 4 -2 4 C-2 3.34 -2 2.68 -2 2 C-1.34 2 -0.68 2 0 2 C0 1.34 0 0.68 0 0 Z M37 36 C37 36.66 37 37.32 37 38 C36.01 38 35.02 38 34 38 C34 38.66 34 39.32 34 40 C33.3915625 40.26167969 32.783125 40.52335937 32.15625 40.79296875 C26.69793952 43.84843603 24.66802464 50.47565176 22.8125 56.125 C16.02545557 80.22312943 16.15882169 109.06536205 27 132 C27.66 132.99 28.32 133.98 29 135 C29.66 135 30.32 135 31 135 C31.33 135.99 31.66 136.98 32 138 C32.66 138 33.32 138 34 138 C34 138.66 34 139.32 34 140 C34.99 140 35.98 140 37 140 C37 140.66 37 141.32 37 142 C44.02782042 143.0390717 44.02782042 143.0390717 51 142 C51 141.34 51 140.68 51 140 C51.66 140 52.32 140 53 140 C53 139.34 53 138.68 53 138 C53.89525391 137.91878906 53.89525391 137.91878906 54.80859375 137.8359375 C58.8695643 136.28683287 59.86622563 132.0452348 61.61328125 128.3046875 C71.12607406 105.63476436 71.07020843 74.33596118 62.4375 51.375 C61.14158363 48.29871254 59.85677011 45.78515516 58 43 C57.34 43 56.68 43 56 43 C55.505 41.515 55.505 41.515 55 40 C54.34 40 53.68 40 53 40 C53 39.34 53 38.68 53 38 C52.34 38 51.68 38 51 38 C51 37.34 51 36.68 51 36 C43.97217958 34.9609283 43.97217958 34.9609283 37 36 Z " fill="#08A2D5" transform="translate(120,84)"/>
<path d="M0 0 C1.11310547 0.00902344 2.22621094 0.01804687 3.37304688 0.02734375 C6.10309023 0.0507776 8.8326801 0.083586 11.5625 0.125 C11.5625 0.785 11.5625 1.445 11.5625 2.125 C12.34625 2.021875 13.13 1.91875 13.9375 1.8125 C19.12880359 2.26002617 23.05382264 4.63007972 27.5625 7.125 C27.5625 7.785 27.5625 8.445 27.5625 9.125 C28.1503125 9.18171875 28.738125 9.2384375 29.34375 9.296875 C34.28465847 11.14101689 36.37820609 17.6443971 38.5625 22.125 C44.17387616 35.93761823 44.84793045 50.87524599 44.86746025 65.60241699 C44.87123035 67.89558655 44.88823584 70.18836236 44.90821838 72.48144531 C44.96261835 78.98901897 44.99400182 85.49664751 45.01879883 92.00439453 C45.09064279 109.19410919 45.27125483 126.05558779 47.8894043 143.08935547 C49.37382547 153.04707205 50.94046878 165.21862842 45.5625 174.125 C44.9025 174.125 44.2425 174.125 43.5625 174.125 C43.5625 174.785 43.5625 175.445 43.5625 176.125 C42.9025 176.125 42.2425 176.125 41.5625 176.125 C41.5625 176.785 41.5625 177.445 41.5625 178.125 C34.9375 179.25 34.9375 179.25 31.5625 178.125 C31.5625 177.465 31.5625 176.805 31.5625 176.125 C30.9025 176.125 30.2425 176.125 29.5625 176.125 C27.90625 173.67578125 27.90625 173.67578125 26.0625 170.4375 C25.4540625 169.38175781 24.845625 168.32601562 24.21875 167.23828125 C20.5625 160.36556604 20.5625 160.36556604 20.5625 156.125 C19.9025 156.125 19.2425 156.125 18.5625 156.125 C18.27375 156.723125 17.985 157.32125 17.6875 157.9375 C16.5625 160.125 16.5625 160.125 14.5625 163.125 C13.9025 163.125 13.2425 163.125 12.5625 163.125 C12.2325 164.115 11.9025 165.105 11.5625 166.125 C10.9025 166.125 10.2425 166.125 9.5625 166.125 C9.5625 166.785 9.5625 167.445 9.5625 168.125 C8.2425 168.455 6.9225 168.785 5.5625 169.125 C5.5625 169.785 5.5625 170.445 5.5625 171.125 C4.9025 171.125 4.2425 171.125 3.5625 171.125 C3.5625 171.785 3.5625 172.445 3.5625 173.125 C1.5825 173.455 -0.3975 173.785 -2.4375 174.125 C-2.4375 174.785 -2.4375 175.445 -2.4375 176.125 C-10.5074878 179.79317627 -19.83210755 179.64359867 -28.4375 178.125 C-28.4375 177.465 -28.4375 176.805 -28.4375 176.125 C-29.7575 176.125 -31.0775 176.125 -32.4375 176.125 C-32.4375 175.465 -32.4375 174.805 -32.4375 174.125 C-33.05625 174.0425 -33.675 173.96 -34.3125 173.875 C-36.4375 173.125 -36.4375 173.125 -37.5 171.125 C-37.9640625 170.135 -37.9640625 170.135 -38.4375 169.125 C-39.4275 168.795 -40.4175 168.465 -41.4375 168.125 C-41.4375 167.465 -41.4375 166.805 -41.4375 166.125 C-42.0975 166.125 -42.7575 166.125 -43.4375 166.125 C-50.47333242 153.48782526 -52.68009436 142.84864818 -52.8125 128.5625 C-52.82651855 127.52198486 -52.84053711 126.48146973 -52.85498047 125.40942383 C-52.79495276 115.63491128 -51.06182649 106.41184192 -46.5 97.6875 C-45.77490234 96.26630859 -45.77490234 96.26630859 -45.03515625 94.81640625 C-40.75099105 87.59931621 -40.75099105 87.59931621 -37.1875 86.3125 C-36.61 86.250625 -36.0325 86.18875 -35.4375 86.125 C-35.4375 85.465 -35.4375 84.805 -35.4375 84.125 C-32.07066085 81.69339395 -30.70399636 81.125 -26.4375 81.125 C-26.4375 80.465 -26.4375 79.805 -26.4375 79.125 C-23.7975 78.795 -21.1575 78.465 -18.4375 78.125 C-18.4375 77.465 -18.4375 76.805 -18.4375 76.125 C-17.1175 76.125 -15.7975 76.125 -14.4375 76.125 C-14.4375 75.465 -14.4375 74.805 -14.4375 74.125 C-9.9825 73.63 -9.9825 73.63 -5.4375 73.125 C-5.4375 72.465 -5.4375 71.805 -5.4375 71.125 C-4.1175 71.125 -2.7975 71.125 -1.4375 71.125 C-1.4375 70.465 -1.4375 69.805 -1.4375 69.125 C1.2025 68.795 3.8425 68.465 6.5625 68.125 C6.5625 67.465 6.5625 66.805 6.5625 66.125 C7.8825 66.125 9.2025 66.125 10.5625 66.125 C10.5625 65.465 10.5625 64.805 10.5625 64.125 C14.0275 63.63 14.0275 63.63 17.5625 63.125 C16.65745828 54.44724704 15.77693909 46.30720858 12.5625 38.125 C11.9025 38.125 11.2425 38.125 10.5625 38.125 C10.5625 37.465 10.5625 36.805 10.5625 36.125 C8.9125 35.795 7.2625 35.465 5.5625 35.125 C5.5625 34.465 5.5625 33.805 5.5625 33.125 C-5.12143009 33.59384661 -5.12143009 33.59384661 -15.4375 36.125 C-15.4375 36.785 -15.4375 37.445 -15.4375 38.125 C-16.0975 38.125 -16.7575 38.125 -17.4375 38.125 C-17.7675 39.115 -18.0975 40.105 -18.4375 41.125 C-19.0975 41.125 -19.7575 41.125 -20.4375 41.125 C-22.35475957 45.87941641 -24.20684564 50.65881285 -26.0625 55.4375 C-26.38734375 56.27345703 -26.7121875 57.10941406 -27.046875 57.97070312 C-27.84396983 60.02205013 -28.64083833 62.07348475 -29.4375 64.125 C-30.0975 64.125 -30.7575 64.125 -31.4375 64.125 C-31.4375 64.785 -31.4375 65.445 -31.4375 66.125 C-34.7375 66.125 -38.0375 66.125 -41.4375 66.125 C-41.4375 65.465 -41.4375 64.805 -41.4375 64.125 C-42.035625 63.96 -42.63375 63.795 -43.25 63.625 C-46.79711382 61.19269338 -47.65525974 58.17791147 -48.4375 54.125 C-49.47345929 40.19554734 -48.4724291 26.5004539 -39.4375 15.125 C-38.7775 15.125 -38.1175 15.125 -37.4375 15.125 C-37.1075 14.135 -36.7775 13.145 -36.4375 12.125 C-35.7775 12.125 -35.1175 12.125 -34.4375 12.125 C-34.4375 11.465 -34.4375 10.805 -34.4375 10.125 C-33.1175 9.795 -31.7975 9.465 -30.4375 9.125 C-30.4375 8.465 -30.4375 7.805 -30.4375 7.125 C-29.4475 7.125 -28.4575 7.125 -27.4375 7.125 C-27.4375 6.465 -27.4375 5.805 -27.4375 5.125 C-24.7975 4.795 -22.1575 4.465 -19.4375 4.125 C-19.4375 3.465 -19.4375 2.805 -19.4375 2.125 C-12.95878871 -0.23596509 -6.83952165 -0.10553565 0 0 Z M9.8125 95.625 C8.74 96.12 7.6675 96.615 6.5625 97.125 C6.5625 97.785 6.5625 98.445 6.5625 99.125 C3.9225 99.455 1.2825 99.785 -1.4375 100.125 C-1.4375 100.785 -1.4375 101.445 -1.4375 102.125 C-2.076875 102.24875 -2.71625 102.3725 -3.375 102.5 C-7.40761276 103.3229822 -11.42173907 104.22385975 -15.4375 105.125 C-15.4375 105.785 -15.4375 106.445 -15.4375 107.125 C-16.035625 107.393125 -16.63375 107.66125 -17.25 107.9375 C-21.69144653 110.34857097 -23.53894225 113.46490371 -25.4375 118.125 C-27.33385071 125.62420508 -25.96139694 132.2795032 -22.4140625 139.08984375 C-21.31031774 140.93009063 -21.31031774 140.93009063 -19.4375 143.125 C-18.7775 143.125 -18.1175 143.125 -17.4375 143.125 C-17.4375 143.785 -17.4375 144.445 -17.4375 145.125 C-16.7775 145.125 -16.1175 145.125 -15.4375 145.125 C-15.4375 145.785 -15.4375 146.445 -15.4375 147.125 C-9.83186958 147.95122671 -5.01460648 148.19295656 0.5625 147.125 C0.5625 146.465 0.5625 145.805 0.5625 145.125 C1.366875 144.856875 2.17125 144.58875 3 144.3125 C3.845625 143.920625 4.69125 143.52875 5.5625 143.125 C5.8925 142.135 6.2225 141.145 6.5625 140.125 C7.2225 140.125 7.8825 140.125 8.5625 140.125 C17.21993605 125.33171121 18.08355875 110.79887987 17.5625 94.125 C14.02184895 94.125 12.81666808 94.23846089 9.8125 95.625 Z " fill="#08A2D5" transform="translate(283.4375,83.875)"/>
<path d="M0 0 C1.21236328 0.02707031 1.21236328 0.02707031 2.44921875 0.0546875 C3.37154297 0.08949219 3.37154297 0.08949219 4.3125 0.125 C4.3125 0.785 4.3125 1.445 4.3125 2.125 C4.9725 2.125 5.6325 2.125 6.3125 2.125 C12.0897037 11.90809067 14.27982085 21.47611888 16.40625 32.50390625 C16.76286396 34.28327149 17.12109397 36.06231352 17.48083496 37.84104919 C18.42065596 42.50808919 19.34043635 47.17884425 20.25531006 51.85083008 C21.17127006 56.51400861 22.10315415 61.17398992 23.03515625 65.83398438 C23.30801201 67.19834153 23.30801201 67.19834153 23.58638 68.59026146 C23.95049412 70.41078771 24.31467516 72.23130058 24.67892456 74.05179977 C25.21484436 76.73435652 25.74834707 79.41738536 26.28149414 82.10049438 C29.08110563 96.15775739 32.09422757 110.15699393 35.3125 124.125 C37.25751003 115.28635546 39.20068911 106.44731049 41.14169693 97.60778618 C42.06901251 93.38471567 42.99672117 89.16173249 43.92541504 84.93896484 C49.08062145 61.55945938 49.08062145 61.55945938 54.015625 38.1328125 C54.20060547 37.23408417 54.38558594 36.33535583 54.57617188 35.40939331 C55.37499814 31.5177503 56.16176586 27.62431471 56.92773438 23.72607422 C58.53277118 15.71971882 60.41163762 8.37269135 65.0625 1.5625 C67.80681149 -0.19081012 70.1103369 -0.50528665 73.3515625 -0.3125 C76.90567326 0.48044901 78.23713804 2.21949325 80.3125 5.125 C85.39082152 15.15878042 83.61939804 26.5594645 81.32421875 37.1328125 C81.10408615 38.18808136 80.88395355 39.24335022 80.65715027 40.33059692 C77.53087841 55.12210468 74.09851294 69.84920871 70.68606567 84.57672501 C69.73231677 88.69602151 68.78245508 92.81621461 67.83203125 96.9362793 C66.15878259 104.18698546 64.48184372 111.43683152 62.80294228 118.68623066 C61.52300686 124.21357452 60.24677721 129.74176642 58.97203064 135.27030945 C56.62777134 145.43543874 54.2645379 155.59591863 51.87182617 165.74975586 C51.28884995 168.22543271 50.70791864 170.70158497 50.12695312 173.17773438 C49.13745113 177.38886552 48.13780689 181.59748399 47.13110352 185.80453491 C46.76370025 187.34428823 46.3987787 188.88463678 46.03686523 190.4256897 C44.104264 198.6407555 41.91386588 206.71739348 39.28125 214.73828125 C39.04303528 215.47176285 38.80482056 216.20524445 38.55938721 216.96095276 C36.36745149 223.45561335 33.485367 229.64004596 29.3125 235.125 C28.6525 235.125 27.9925 235.125 27.3125 235.125 C27.3125 235.785 27.3125 236.445 27.3125 237.125 C25.9925 237.455 24.6725 237.785 23.3125 238.125 C23.3125 238.785 23.3125 239.445 23.3125 240.125 C22.3225 240.125 21.3325 240.125 20.3125 240.125 C20.3125 240.785 20.3125 241.445 20.3125 242.125 C16.9419255 242.88136067 13.82327678 243.25311063 10.37109375 243.2578125 C9.00114258 243.25974609 9.00114258 243.25974609 7.60351562 243.26171875 C6.66185547 243.25785156 5.72019531 243.25398437 4.75 243.25 C3.80447266 243.25386719 2.85894531 243.25773438 1.88476562 243.26171875 C0.97275391 243.26042969 0.06074219 243.25914062 -0.87890625 243.2578125 C-1.70592041 243.25668457 -2.53293457 243.25555664 -3.38500977 243.25439453 C-5.61345142 243.12916136 -7.54855211 242.74385376 -9.6875 242.125 C-9.6875 241.465 -9.6875 240.805 -9.6875 240.125 C-10.3475 240.125 -11.0075 240.125 -11.6875 240.125 C-11.6875 239.465 -11.6875 238.805 -11.6875 238.125 C-12.6775 237.795 -13.6675 237.465 -14.6875 237.125 C-18.13981913 231.94652131 -18.15435039 225.14737009 -17.6875 219.125 C-16.875 215.4375 -16.875 215.4375 -15.6875 212.125 C-15.3575 211.17625 -15.0275 210.2275 -14.6875 209.25 C-11.89311298 206.28096379 -9.64361067 206.38338755 -5.671875 206.171875 C-0.34191693 206.08815838 4.98220626 206.04980777 10.3125 206.125 C10.59222656 205.42503906 10.87195313 204.72507812 11.16015625 204.00390625 C11.9334206 202.07205599 12.71214204 200.14238179 13.49609375 198.21484375 C18.81119185 184.85258778 21.81919354 173.99222107 18.21484375 159.8671875 C17.98927795 158.95532181 17.76371216 158.04345612 17.53131104 157.10395813 C16.77837677 154.0673846 16.01411141 151.03377846 15.25 148 C14.71375918 145.845668 14.17837852 143.69112175 13.64379883 141.53637695 C12.48926209 136.88585864 11.33072311 132.23636074 10.16992188 127.58740234 C8.23565293 119.82965911 6.32632583 112.06588178 4.421875 104.30078125 C4.09213056 102.95670497 3.76238304 101.61262945 3.43263245 100.26855469 C2.77654079 97.59403677 2.12056535 94.91949037 1.46463013 92.24493408 C0.22752449 87.20120672 -1.0106556 82.15774462 -2.25091553 77.11479187 C-2.8425461 74.70863831 -3.43317726 72.30223877 -4.02276611 69.89558411 C-5.53631791 63.73252488 -7.07979237 57.57890899 -8.66870117 51.43481445 C-8.99114304 50.17772171 -9.3135849 48.92062897 -9.64579773 47.6254425 C-10.25763302 45.2451398 -10.87652051 42.86663344 -11.50398254 40.49040222 C-14.27779691 29.65869932 -16.2243255 18.129602 -11.6875 7.5 C-11.0275 6.38625 -10.3675 5.2725 -9.6875 4.125 C-9.0275 4.125 -8.3675 4.125 -7.6875 4.125 C-7.6875 3.465 -7.6875 2.805 -7.6875 2.125 C-4.48369983 -0.01086678 -3.66810033 -0.10632175 0 0 Z " fill="#08A2D4" transform="translate(505.6875,83.875)"/>
<path d="M0 0 C0.97453125 0.00902344 1.9490625 0.01804687 2.953125 0.02734375 C5.34400728 0.05078377 7.73437261 0.08359558 10.125 0.125 C10.125 0.785 10.125 1.445 10.125 2.125 C11.775 2.125 13.425 2.125 15.125 2.125 C15.125 2.785 15.125 3.445 15.125 4.125 C17.435 4.455 19.745 4.785 22.125 5.125 C22.125 5.785 22.125 6.445 22.125 7.125 C22.785 7.125 23.445 7.125 24.125 7.125 C24.125 7.785 24.125 8.445 24.125 9.125 C25.445 9.455 26.765 9.785 28.125 10.125 C28.125 10.785 28.125 11.445 28.125 12.125 C29.115 12.455 30.105 12.785 31.125 13.125 C31.8125 15.1875 31.8125 15.1875 32.125 17.125 C32.785 17.125 33.445 17.125 34.125 17.125 C39.48403115 27.1038856 42.66584508 36.63870031 41.125 48.125 C37.94603611 57.21448195 37.94603611 57.21448195 34.125 59.125 C32.62743129 59.21999503 31.12557068 59.25487198 29.625 59.25 C28.8309375 59.25257813 28.036875 59.25515625 27.21875 59.2578125 C25.125 59.125 25.125 59.125 23.125 58.125 C23.125 57.465 23.125 56.805 23.125 56.125 C22.465 56.125 21.805 56.125 21.125 56.125 C19.81225586 54.33666992 19.81225586 54.33666992 18.33984375 51.85546875 C17.80939453 50.96666016 17.27894531 50.07785156 16.73242188 49.16210938 C16.18134766 48.22173828 15.63027344 47.28136719 15.0625 46.3125 C14.50755859 45.38373047 13.95261719 44.45496094 13.38085938 43.49804688 C9.2724084 36.56722519 9.2724084 36.56722519 8.125 33.125 C7.465 33.125 6.805 33.125 6.125 33.125 C6.125 32.465 6.125 31.805 6.125 31.125 C0.515 31.125 -5.095 31.125 -10.875 31.125 C-10.875 31.785 -10.875 32.445 -10.875 33.125 C-11.65875 33.8675 -12.4425 34.61 -13.25 35.375 C-16.15384834 38.41712683 -17.08591544 40.02176027 -17.875 44.125 C-17.71592489 48.85539132 -16.91650787 53.51260801 -15.875 58.125 C-14.39 58.62 -14.39 58.62 -12.875 59.125 C-12.875 59.785 -12.875 60.445 -12.875 61.125 C-12.215 61.125 -11.555 61.125 -10.875 61.125 C-10.875 61.785 -10.875 62.445 -10.875 63.125 C-7.905 63.62 -7.905 63.62 -4.875 64.125 C-4.875 64.785 -4.875 65.445 -4.875 66.125 C-3.555 66.125 -2.235 66.125 -0.875 66.125 C-0.875 66.785 -0.875 67.445 -0.875 68.125 C2.095 68.455 5.065 68.785 8.125 69.125 C8.125 69.785 8.125 70.445 8.125 71.125 C9.445 71.125 10.765 71.125 12.125 71.125 C12.125 71.785 12.125 72.445 12.125 73.125 C15.095 73.62 15.095 73.62 18.125 74.125 C18.125 74.785 18.125 75.445 18.125 76.125 C19.115 76.125 20.105 76.125 21.125 76.125 C21.125 76.785 21.125 77.445 21.125 78.125 C23.105 78.455 25.085 78.785 27.125 79.125 C27.125 79.785 27.125 80.445 27.125 81.125 C27.8675 81.37507813 28.61 81.62515625 29.375 81.8828125 C37.27891075 85.45304491 41.17871227 93.54236631 44.21484375 101.23046875 C49.66557224 118.56518897 46.92439391 141.02948869 39.65625 157.3828125 C37.15667368 161.85909459 33.98774179 165.74829857 30.125 169.125 C29.465 169.125 28.805 169.125 28.125 169.125 C28.125 169.785 28.125 170.445 28.125 171.125 C27.135 171.125 26.145 171.125 25.125 171.125 C25.125 171.785 25.125 172.445 25.125 173.125 C23.145 173.455 21.165 173.785 19.125 174.125 C19.125 174.785 19.125 175.445 19.125 176.125 C17.145 176.125 15.165 176.125 13.125 176.125 C13.125 176.785 13.125 177.445 13.125 178.125 C8.91672527 178.18328635 4.70855511 178.218693 0.5 178.25 C-0.68980469 178.26675781 -1.87960938 178.28351563 -3.10546875 178.30078125 C-4.25917969 178.30722656 -5.41289063 178.31367188 -6.6015625 178.3203125 C-8.18831787 178.33602295 -8.18831787 178.33602295 -9.80712891 178.35205078 C-13.10863888 178.10770857 -15.78912763 177.29382977 -18.875 176.125 C-18.875 175.465 -18.875 174.805 -18.875 174.125 C-21.185 173.795 -23.495 173.465 -25.875 173.125 C-25.875 172.465 -25.875 171.805 -25.875 171.125 C-26.535 171.125 -27.195 171.125 -27.875 171.125 C-27.875 170.465 -27.875 169.805 -27.875 169.125 C-29.195 168.795 -30.515 168.465 -31.875 168.125 C-31.875 167.465 -31.875 166.805 -31.875 166.125 C-32.865 165.795 -33.855 165.465 -34.875 165.125 C-34.875 164.465 -34.875 163.805 -34.875 163.125 C-35.535 163.125 -36.195 163.125 -36.875 163.125 C-37.84375839 161.29715398 -38.79946873 159.46239059 -39.75 157.625 C-40.28367187 156.6040625 -40.81734375 155.583125 -41.3671875 154.53125 C-44.47915654 147.50110233 -45.21777376 141.14910453 -45.1875 133.5625 C-45.21166992 132.34530273 -45.21166992 132.34530273 -45.23632812 131.10351562 C-45.24134326 124.8897678 -44.20037842 120.38456224 -40.5234375 115.23046875 C-37.39955283 113.13554135 -34.17419082 113.41269403 -30.52734375 113.546875 C-27.51399825 114.20368669 -26.74170269 114.654932 -25.0625 117.1875 C-22.74412751 121.87464438 -20.89501329 126.84183874 -19.10424805 131.75610352 C-17.38663049 136.3581237 -15.44587752 140.83956124 -10.875 143.125 C-10.875 143.785 -10.875 144.445 -10.875 145.125 C-9.885 145.125 -8.895 145.125 -7.875 145.125 C-7.875 145.785 -7.875 146.445 -7.875 147.125 C-1.935 147.125 4.005 147.125 10.125 147.125 C10.125 146.465 10.125 145.805 10.125 145.125 C11.115 145.125 12.105 145.125 13.125 145.125 C13.125 144.465 13.125 143.805 13.125 143.125 C14.10253644 142.10303008 15.1055881 141.10520375 16.125 140.125 C19.42262893 135.17855661 19.39090421 130.69771041 18.3125 125 C17.21235312 119.8797417 17.21235312 119.8797417 15.125 115.125 C13.08394361 114.23806697 13.08394361 114.23806697 11.125 114.125 C11.125 113.465 11.125 112.805 11.125 112.125 C10.465 112.125 9.805 112.125 9.125 112.125 C9.125 111.465 9.125 110.805 9.125 110.125 C6.815 109.795 4.505 109.465 2.125 109.125 C2.125 108.465 2.125 107.805 2.125 107.125 C0.805 107.125 -0.515 107.125 -1.875 107.125 C-1.875 106.465 -1.875 105.805 -1.875 105.125 C-2.9475 105.00125 -4.02 104.8775 -5.125 104.75 C-8.25363615 104.22856064 -10.20980424 103.72411746 -12.875 102.125 C-12.875 101.465 -12.875 100.805 -12.875 100.125 C-16.34 99.63 -16.34 99.63 -19.875 99.125 C-19.875 98.465 -19.875 97.805 -19.875 97.125 C-20.45765625 97.01027344 -21.0403125 96.89554687 -21.640625 96.77734375 C-24.04023135 96.07675938 -25.60360933 95.14307405 -27.625 93.6875 C-28.23859375 93.25566406 -28.8521875 92.82382813 -29.484375 92.37890625 C-30.17273438 91.75822266 -30.17273438 91.75822266 -30.875 91.125 C-30.875 90.465 -30.875 89.805 -30.875 89.125 C-31.535 89.125 -32.195 89.125 -32.875 89.125 C-43.85527647 73.96428092 -45.91759926 54.76094745 -43.37890625 36.5703125 C-41.84972386 29.91793712 -39.19914886 24.0625422 -35.875 18.125 C-35.38 17.17625 -34.885 16.2275 -34.375 15.25 C-32.52973511 12.63587474 -30.49824557 10.94109308 -27.875 9.125 C-27.215 9.125 -26.555 9.125 -25.875 9.125 C-25.875 8.465 -25.875 7.805 -25.875 7.125 C-24.885 7.125 -23.895 7.125 -22.875 7.125 C-22.875 6.465 -22.875 5.805 -22.875 5.125 C-20.895 4.795 -18.915 4.465 -16.875 4.125 C-16.875 3.465 -16.875 2.805 -16.875 2.125 C-11.24066322 -0.28429552 -6.0060889 -0.10579831 0 0 Z " fill="#08A2D5" transform="translate(44.875,83.875)"/>
</svg>
