<?xml version="1.0" standalone="no"?>
<!DOCTYPE svg PUBLIC "-//W3C//DTD SVG 20010904//EN"
 "http://www.w3.org/TR/2001/REC-SVG-20010904/DTD/svg10.dtd">
<svg version="1.0" xmlns="http://www.w3.org/2000/svg"
 width="216.000000pt" height="180.000000pt" viewBox="0 0 216.000000 180.000000"
 preserveAspectRatio="xMidYMid meet">

<g transform="translate(0.000000,180.000000) scale(0.100000,-0.100000)"
fill="#000000" stroke="none">
<path d="M0 900 l0 -900 1080 0 1080 0 0 900 0 900 -1080 0 -1080 0 0 -900z
m1254 501 c44 -26 88 -51 96 -55 8 -3 29 -15 45 -26 50 -32 138 -80 147 -80 4
0 8 -35 8 -79 l0 -79 -61 -36 c-33 -20 -64 -36 -67 -36 -4 0 -6 34 -4 75 3 54
0 75 -8 75 -7 0 -37 15 -68 33 -90 53 -167 96 -172 96 -3 1 -6 -62 -8 -139
l-3 -139 48 -31 c26 -16 53 -30 59 -30 18 0 24 -25 24 -99 0 -74 -3 -79 -83
-120 l-47 -24 0 -78 c0 -50 -4 -79 -11 -79 -6 0 -29 -13 -52 -28 -41 -27 -67
-35 -67 -19 0 4 0 68 0 143 l0 136 57 -31 c31 -17 60 -31 65 -31 4 0 8 31 8
68 l0 68 -47 24 c-27 14 -54 24 -60 23 -7 0 -10 3 -7 8 3 5 0 9 -5 9 -7 0 -11
27 -11 70 0 42 -4 70 -10 70 -11 0 -131 -60 -140 -69 -3 -4 -26 -17 -52 -30
-38 -20 -51 -23 -70 -14 -18 9 -19 12 -5 12 14 1 17 11 17 61 0 55 -2 61 -25
70 -13 5 -43 21 -66 36 l-42 26 44 25 c24 14 60 35 79 46 19 11 53 30 75 42
22 13 81 47 130 76 50 28 107 60 127 71 20 10 40 22 43 28 11 18 37 10 119
-39z m141 -369 c-3 -3 -11 0 -18 7 -9 10 -8 11 6 5 10 -3 15 -9 12 -12z m-675
-58 c0 -2 -9 0 -20 6 -11 6 -20 13 -20 16 0 2 9 0 20 -6 11 -6 20 -13 20 -16z
m-440 -624 c0 -28 -2 -30 -40 -30 -22 0 -40 5 -40 10 0 6 -10 10 -22 11 -22 0
-22 1 -3 9 16 7 14 9 -14 9 -19 1 -32 -2 -28 -5 12 -13 -22 -34 -55 -34 -29 0
-34 4 -36 25 -1 14 3 25 8 25 6 0 9 -3 9 -7 -3 -20 2 -30 16 -30 8 0 15 4 15
9 0 4 -4 8 -10 8 -5 0 -10 4 -10 10 0 5 46 11 103 13 56 1 103 4 105 5 1 1 2
-11 2 -28z m1288 -139 c-3 -163 -3 -166 -25 -169 -22 -3 -22 -2 -25 140 l-3
143 -81 3 -82 3 -4 -41 c-2 -23 -2 -43 1 -46 2 -2 24 -4 48 -4 39 0 43 -2 43
-25 0 -23 -4 -25 -45 -25 l-44 0 -3 -72 -3 -73 -30 0 -30 0 -3 154 c-2 84 -1
160 2 168 5 11 33 13 146 12 l140 -2 -2 -166z m-1386 -19 c-3 -128 -4 -138
-23 -139 -10 -1 -19 2 -19 8 0 5 7 9 15 9 8 0 15 9 15 20 0 11 -7 20 -15 20
-12 0 -15 15 -13 88 l2 87 3 -82 c5 -110 22 -107 20 2 -2 68 -5 85 -17 85 -12
1 -11 4 3 15 18 13 17 14 -5 18 -19 4 -18 5 7 6 l30 1 -3 -138z m166 94 c-10
-7 -18 -17 -18 -21 0 -4 6 -2 14 4 12 10 20 10 38 0 13 -7 29 -13 37 -14 15 0
34 -52 25 -67 -3 -4 -13 -8 -23 -8 -10 0 -35 -7 -54 -15 -48 -20 -73 -19 -81
2 -4 10 -4 15 -1 11 4 -3 22 0 40 8 39 16 57 18 35 4 -8 -5 -12 -12 -8 -15 3
-4 15 2 26 13 15 15 23 17 31 9 8 -8 14 -7 24 2 10 11 9 12 -2 6 -11 -6 -13
-3 -9 13 4 12 2 22 -3 22 -5 0 -9 -5 -9 -12 0 -6 -6 -3 -14 8 -22 29 -77 26
-98 -5 -9 -14 -15 -28 -12 -33 3 -4 -6 -8 -19 -8 -20 0 -24 4 -20 20 3 11 10
23 15 26 6 4 8 -2 3 -15 -9 -28 3 -27 14 2 6 16 4 24 -8 28 -12 5 -8 11 19 28
19 11 44 21 55 21 19 -1 19 -1 3 -14z m160 -200 c8 9 9 14 2 14 -7 0 -10 34
-9 100 1 55 6 100 11 100 4 0 8 -9 8 -20 0 -11 5 -20 12 -20 6 0 8 3 4 7 -3 4
3 12 15 19 27 14 87 0 106 -25 15 -19 18 -161 3 -161 -5 0 -7 8 -4 18 5 14 4
15 -5 2 -14 -19 -14 -50 0 -50 5 0 7 5 4 10 -3 6 -1 10 4 10 6 0 11 -9 11 -20
0 -14 -7 -20 -21 -20 -19 0 -20 6 -20 83 0 129 -2 137 -25 143 -14 4 -30 -3
-48 -19 -24 -23 -26 -30 -26 -116 0 -90 0 -91 -25 -91 l-25 0 2 128 2 127 6
-116 c4 -96 7 -114 18 -103z m313 204 c6 0 8 -4 5 -9 -4 -5 3 -7 14 -4 21 6
23 3 14 -20 -6 -16 -54 -11 -67 7 -6 8 -10 7 -14 -1 -2 -7 -11 -13 -19 -13 -9
0 -14 -11 -14 -35 0 -19 4 -35 10 -35 5 0 7 7 3 16 -5 14 -3 14 15 3 12 -7 19
-15 17 -18 -6 -5 26 -30 39 -31 6 0 1 7 -10 15 -15 11 -16 14 -3 15 8 0 24 -7
35 -15 11 -8 14 -15 7 -15 -7 0 -13 -6 -13 -14 0 -10 -16 -6 -56 15 -61 30
-86 49 -66 49 14 0 16 36 2 45 -5 3 -7 0 -4 -8 3 -8 1 -18 -5 -22 -6 -3 -11 0
-11 9 0 27 11 45 25 40 8 -3 22 0 32 6 16 10 16 11 -5 7 -13 -3 -20 -1 -16 5
3 5 17 7 31 3 18 -4 23 -2 17 6 -5 9 -2 10 10 6 10 -4 22 -7 27 -7z m953 -24
c33 -31 36 -38 36 -91 0 -70 -20 -107 -71 -129 -36 -16 -40 -16 -76 3 -84 42
-99 154 -29 218 49 45 92 45 140 -1z m83 22 c6 -7 16 -43 23 -80 13 -74 25
-86 35 -35 30 142 72 169 90 58 4 -24 13 -57 20 -73 11 -29 12 -27 29 52 18
81 30 98 62 86 11 -4 13 -10 6 -19 -5 -6 -15 -34 -21 -62 -24 -113 -47 -170
-67 -173 -20 -3 -26 10 -56 133 l-12 50 -7 -35 c-24 -116 -35 -145 -54 -148
-22 -3 -36 23 -54 93 -6 22 -17 66 -25 97 -7 31 -11 59 -8 62 9 10 29 7 39 -6z
m-1447 -19 c0 -6 -4 -7 -10 -4 -5 3 -10 11 -10 16 0 6 5 7 10 4 6 -3 10 -11
10 -16z m569 4 c7 -14 14 -15 33 -7 28 13 48 8 48 -12 0 -9 4 -13 9 -10 11 7
31 -47 31 -81 0 -18 -5 -24 -17 -21 -13 2 -19 14 -20 38 -1 19 0 29 3 23 8
-18 25 -16 18 2 -4 8 -12 15 -20 15 -8 0 -14 6 -14 14 0 8 -5 18 -12 22 -6 4
-9 3 -5 -2 3 -5 -11 -8 -33 -6 -45 5 -70 -23 -70 -78 0 -57 10 -78 38 -85 15
-3 35 -8 46 -12 12 -3 16 -1 12 6 -4 6 -3 11 1 11 5 0 14 12 21 27 7 19 10 21
6 6 -4 -18 -2 -22 10 -17 9 3 13 10 10 15 -3 5 2 9 11 9 13 0 14 -4 5 -20 -6
-11 -20 -20 -30 -20 -11 0 -20 -4 -20 -10 0 -5 8 -6 18 -3 15 6 15 5 3 -10 -7
-9 -21 -17 -30 -17 -9 0 -23 -6 -29 -12 -9 -9 -15 -10 -20 -2 -4 6 -19 14 -34
18 -16 3 -28 11 -28 17 0 7 6 6 17 -2 14 -12 16 -12 11 1 -2 8 -14 16 -26 18
-23 4 -38 49 -29 93 3 17 5 13 6 -13 0 -20 5 -39 10 -42 5 -4 7 13 5 36 -2 24
-8 44 -13 46 -15 5 0 42 27 62 30 24 38 25 51 3z m36 7 c-3 -5 -10 -10 -16
-10 -5 0 -9 5 -9 10 0 6 7 10 16 10 8 0 12 -4 9 -10z m155 -7 c0 -15 1 -15 18
0 27 25 72 22 72 -3 0 -16 -7 -20 -35 -20 -45 0 -55 -23 -55 -126 0 -67 -2
-74 -20 -74 -19 0 -20 7 -20 120 0 113 1 120 20 120 12 0 20 -7 20 -17z m-560
-13 c0 -5 -7 -7 -15 -4 -8 4 -15 8 -15 10 0 2 7 4 15 4 8 0 15 -4 15 -10z
m-340 -90 c0 -5 -7 -7 -15 -4 -8 4 -15 8 -15 10 0 2 7 4 15 4 8 0 15 -4 15
-10z m-10 -35 c0 -8 4 -16 9 -19 5 -4 7 4 4 16 l-5 23 15 -21 c9 -12 13 -30
10 -43 l-5 -21 -19 21 c-11 12 -19 26 -19 30 0 4 -3 15 -7 25 -4 12 -3 15 5
10 7 -4 12 -13 12 -21z m606 -36 c-2 -28 -18 -48 -39 -49 -10 0 0 49 14 66 18
22 27 16 25 -17z m-96 -19 c26 -4 35 -10 35 -25 0 -12 -8 -21 -20 -23 -18 -2
-18 -2 -2 8 9 6 17 15 17 20 0 6 -8 10 -17 10 -15 0 -16 -2 -3 -10 11 -7 6
-10 -20 -10 -44 0 -63 12 -54 33 3 9 11 14 17 10 6 -4 27 -9 47 -13z m-360 0
c24 -1 25 -1 5 -16 -27 -20 -109 -15 -113 7 -2 12 6 15 40 13 24 -2 54 -3 68
-4z"/>
<path d="M100 349 c0 -5 5 -7 10 -4 6 3 10 8 10 11 0 2 -4 4 -10 4 -5 0 -10
-5 -10 -11z"/>
<path d="M217 344 c6 -18 19 -18 26 -1 3 7 -3 13 -14 14 -12 1 -16 -3 -12 -13z"/>
<path d="M256 345 c-3 -8 -1 -15 4 -15 6 0 10 7 10 15 0 8 -2 15 -4 15 -2 0
-6 -7 -10 -15z"/>
<path d="M295 270 c-3 -6 1 -7 9 -4 18 7 21 14 7 14 -6 0 -13 -4 -16 -10z"/>
<path d="M315 170 c-3 -6 1 -7 9 -4 18 7 21 14 7 14 -6 0 -13 -4 -16 -10z"/>
<path d="M635 250 c-3 -5 -1 -10 4 -10 6 0 11 5 11 10 0 6 -2 10 -4 10 -3 0
-8 -4 -11 -10z"/>
<path d="M649 228 c-7 -24 -7 -53 -1 -64 5 -9 8 0 9 26 1 22 0 40 -3 40 -2 0
-4 -1 -5 -2z"/>
<path d="M513 170 c0 -30 2 -43 4 -28 2 16 2 40 0 56 -2 15 -4 2 -4 -28z"/>
<path d="M1659 233 c-8 -9 -14 -38 -14 -65 0 -40 5 -53 24 -69 30 -24 42 -24
69 1 27 25 30 94 6 128 -18 26 -65 30 -85 5z"/>
<path d="M926 248 c-17 -24 -20 -38 -8 -38 8 0 34 52 28 57 -2 3 -11 -6 -20
-19z"/>
<path d="M985 60 c3 -5 11 -10 16 -10 6 0 7 5 4 10 -3 6 -11 10 -16 10 -6 0
-7 -4 -4 -10z"/>
<path d="M1140 271 c0 -6 5 -13 10 -16 6 -3 10 -16 10 -27 0 -12 3 -19 6 -15
9 8 -6 67 -17 67 -5 0 -9 -4 -9 -9z"/>
<path d="M1141 168 c0 -32 2 -58 7 -58 4 0 6 19 4 43 -5 70 -10 76 -11 15z"/>
<path d="M1140 85 c0 -8 5 -15 10 -15 6 0 10 7 10 15 0 8 -4 15 -10 15 -5 0
-10 -7 -10 -15z"/>
<path d="M840 89 c0 -5 5 -7 10 -4 6 3 10 8 10 11 0 2 -4 4 -10 4 -5 0 -10 -5
-10 -11z"/>
<path d="M730 70 c8 -5 20 -10 25 -10 6 0 3 5 -5 10 -8 5 -19 10 -25 10 -5 0
-3 -5 5 -10z"/>
<path d="M319 67 c5 -5 21 -7 37 -5 27 3 26 4 -8 9 -22 3 -34 1 -29 -4z"/>
</g>
</svg>
